<svg xmlns="http://www.w3.org/2000/svg" width="480" height="300" viewBox="0 0 480 300" role="img"><rect width="480" height="300" fill="#FAFAFA"/><rect x="0" y="0" width="240" height="84" fill="#18181B"/><rect x="240" y="0" width="120" height="84" fill="#BE123C"/><rect x="360" y="0" width="72" height="84" fill="#18181B"/><rect x="432" y="0" width="48" height="84" fill="#E11D48"/><path d="M37.20 154L29.68 154L29.68 116.19L37.20 116.19L37.20 129.70L40.76 129.70L40.76 116.19L48.28 116.19L48.28 154L40.76 154L40.76 136.86L37.20 136.86 M60.53 154.34Q57.09 154.34 55.05 153.05Q53.01 151.77 52.13 149.34Q51.25 146.91 51.25 143.49L51.25 130.54Q51.25 126.05 53.82 123.74Q56.40 121.43 60.91 121.43Q70.20 121.43 70.20 130.54L70.20 132.88Q70.20 137.13 70.11 138.60L58.94 138.60L58.94 144.83Q58.94 145.69 59.04 146.51Q59.15 147.34 59.53 147.88Q59.90 148.41 60.74 148.41Q61.95 148.41 62.25 147.37Q62.55 146.33 62.55 144.65L62.55 141.56L70.20 141.56L70.20 143.39Q70.20 147 69.30 149.43Q68.41 151.87 66.30 153.11Q64.18 154.34 60.53 154.34M58.89 130.43L58.89 134.77L62.55 134.77L62.55 130.43Q62.55 128.69 62.12 127.93Q61.69 127.17 60.83 127.17Q59.90 127.17 59.40 127.90Q58.89 128.63 58.89 130.43 M78.85 154.34Q76.17 154.34 74.76 153.10Q73.35 151.85 72.84 149.68Q72.32 147.51 72.32 144.76Q72.32 141.82 72.90 139.94Q73.48 138.06 74.89 136.86Q76.30 135.65 78.77 134.81L83.54 133.18L83.54 129.87Q83.54 127.27 81.84 127.27Q80.29 127.27 80.29 129.38L80.29 131.31L72.82 131.31Q72.79 131.14 72.79 130.87Q72.79 130.60 72.79 130.26Q72.79 125.45 75.06 123.44Q77.33 121.43 82.25 121.43Q84.83 121.43 86.87 122.34Q88.91 123.26 90.10 125.04Q91.29 126.82 91.29 129.44L91.29 154L83.64 154L83.64 150.18Q83.09 152.20 81.80 153.27Q80.51 154.34 78.85 154.34M81.88 148.37Q82.83 148.37 83.17 147.58Q83.52 146.78 83.52 145.86L83.52 136.88Q81.93 137.52 81.04 138.50Q80.16 139.48 80.16 141.37L80.16 145.51Q80.16 148.37 81.88 148.37 M100.60 154.34Q98.36 154.34 97.05 153.53Q95.74 152.71 95.10 151.27Q94.45 149.83 94.25 147.90Q94.04 145.96 94.04 143.75L94.04 129.74Q94.04 126.03 95.36 123.73Q96.69 121.43 99.84 121.43Q102.19 121.43 103.44 122.43Q104.70 123.43 105.39 125.21L105.39 116.19L113.21 116.19L113.21 154L105.39 154L105.39 150.58Q104.74 152.32 103.68 153.33Q102.62 154.34 100.60 154.34M103.54 148.33Q104.63 148.33 105.01 147.45Q105.39 146.57 105.39 144.29L105.39 130.73Q105.39 129.59 105.05 128.49Q104.72 127.38 103.58 127.38Q102.34 127.38 102.01 128.43Q101.69 129.49 101.69 130.73L101.69 144.29Q101.69 148.33 103.54 148.33 M123.82 119.80L116.13 119.80L116.13 113.39L123.82 113.39L123.82 119.80M123.82 154L116.13 154L116.13 121.77L123.82 121.77 M134.56 154L126.87 154L126.87 121.77L134.56 121.77L134.56 125.88Q134.99 124.03 136.16 122.73Q137.33 121.43 139.42 121.43Q142.77 121.43 144.28 123.49Q145.80 125.55 145.80 129.14L145.80 154L138.21 154L138.21 129.94Q138.21 128.99 137.83 128.19Q137.44 127.38 136.50 127.38Q135.62 127.38 135.20 127.99Q134.78 128.61 134.67 129.52Q134.56 130.43 134.56 131.33 M157.49 159.59Q155.25 159.59 153.65 159.36Q152.05 159.13 150.78 158.55Q149.52 157.97 148.25 156.92L150.85 152.47Q153.66 154.15 156.48 154.15Q158.32 154.15 159.23 152.97Q160.13 151.79 160.13 149.90L160.13 146.74Q159.21 150.05 155.21 150.05Q152.91 150.05 151.49 148.95Q150.07 147.86 149.43 145.99Q148.79 144.12 148.79 141.82L148.79 130.24Q148.79 127.64 149.34 125.65Q149.90 123.66 151.30 122.55Q152.70 121.43 155.21 121.43Q157.34 121.43 158.53 122.50Q159.72 123.58 160.13 125.40L160.13 121.77L167.97 121.77L167.97 149.40Q167.97 154.88 165.45 157.23Q162.92 159.59 157.49 159.59M158.32 144.25Q160.13 144.25 160.13 140.98L160.13 130.02Q160.13 129.14 159.62 128.22Q159.12 127.29 158.24 127.29Q157.12 127.29 156.84 128.12Q156.56 128.95 156.56 130.02L156.56 140.98Q156.56 142.14 156.85 143.19Q157.14 144.25 158.32 144.25" fill="#18181B"/><path d="M28.51 183.44L37.15 183.44L37.15 184.64L33.47 184.64L33.47 194L32.19 194L32.19 184.64L28.51 184.64 M40.43 194L39.15 194L39.15 182.32L40.43 182.32L40.43 187.20Q40.85 186.48 41.54 186.16Q42.22 185.84 43.04 185.84Q43.90 185.84 44.61 186.17Q45.31 186.50 45.74 187.17Q46.16 187.84 46.16 188.88L46.16 194L44.88 194L44.88 189.33Q44.88 188 44.31 187.48Q43.74 186.96 42.91 186.96Q42.34 186.96 41.76 187.23Q41.18 187.50 40.81 188.12Q40.43 188.74 40.43 189.76 M52.40 194.16Q51.26 194.16 50.38 193.66Q49.49 193.17 48.99 192.23Q48.50 191.30 48.50 190Q48.50 188.70 48.99 187.77Q49.49 186.83 50.35 186.34Q51.22 185.84 52.32 185.84Q53.44 185.84 54.23 186.32Q55.02 186.80 55.44 187.62Q55.86 188.45 55.86 189.47Q55.86 189.74 55.84 189.97Q55.82 190.19 55.79 190.37L49.33 190.37L49.33 189.23L55.23 189.23L54.58 189.36Q54.58 188.21 53.94 187.58Q53.31 186.96 52.29 186.96Q51.50 186.96 50.94 187.32Q50.37 187.68 50.06 188.36Q49.74 189.04 49.74 190Q49.74 190.94 50.06 191.63Q50.38 192.32 50.97 192.68Q51.55 193.04 52.37 193.04Q53.25 193.04 53.80 192.70Q54.35 192.37 54.69 191.79L55.70 192.38Q55.39 192.93 54.92 193.33Q54.45 193.73 53.82 193.94Q53.18 194.16 52.40 194.16 M70.80 197.36L69.52 197.36L69.52 191.81L69.74 191.97Q69.63 192.67 69.21 193.16Q68.78 193.65 68.17 193.90Q67.55 194.16 66.86 194.16Q65.87 194.16 65.04 193.66Q64.21 193.17 63.71 192.23Q63.22 191.30 63.22 190Q63.22 188.67 63.74 187.74Q64.27 186.82 65.14 186.33Q66 185.84 66.99 185.84Q67.66 185.84 68.24 186.09Q68.82 186.34 69.22 186.79Q69.63 187.25 69.76 187.87L69.57 187.87L69.68 186L70.80 186L70.80 197.36M66.99 193.04Q67.74 193.04 68.31 192.66Q68.88 192.29 69.20 191.59Q69.52 190.90 69.52 189.95Q69.52 188.99 69.21 188.33Q68.90 187.66 68.34 187.31Q67.78 186.96 67.02 186.96Q65.84 186.96 65.17 187.79Q64.50 188.62 64.50 190Q64.50 191.38 65.15 192.21Q65.81 193.04 66.99 193.04 M76.67 194.16Q75.90 194.16 75.22 193.87Q74.54 193.58 74.12 192.94Q73.70 192.29 73.70 191.25L73.70 186L74.98 186L74.98 190.91Q74.98 192.13 75.50 192.58Q76.03 193.04 76.99 193.04Q77.44 193.04 77.87 192.89Q78.30 192.74 78.65 192.41Q78.99 192.08 79.19 191.57Q79.39 191.06 79.39 190.35L79.39 186L80.67 186L80.67 194L79.55 194L79.47 192.78Q79.06 193.50 78.34 193.83Q77.63 194.16 76.67 194.16 M84.29 184.46Q83.86 184.46 83.59 184.20Q83.33 183.94 83.33 183.50Q83.33 183.07 83.59 182.81Q83.86 182.54 84.29 182.54Q84.72 182.54 84.98 182.81Q85.25 183.07 85.25 183.50Q85.25 183.94 84.98 184.20Q84.72 184.46 84.29 184.46M83.65 186L84.93 186L84.93 194L83.65 194 M91.22 185.84Q92.05 185.84 92.68 186.10Q93.31 186.35 93.78 186.83Q94.24 187.31 94.53 187.97L93.31 188.54Q93.06 187.78 92.54 187.37Q92.02 186.96 91.18 186.96Q90.38 186.96 89.81 187.32Q89.23 187.68 88.93 188.36Q88.62 189.04 88.62 190Q88.62 190.94 88.93 191.63Q89.23 192.32 89.81 192.68Q90.38 193.04 91.18 193.04Q91.81 193.04 92.26 192.85Q92.72 192.66 93.02 192.29Q93.31 191.92 93.42 191.39L94.61 191.81Q94.34 192.54 93.86 193.07Q93.39 193.60 92.73 193.88Q92.06 194.16 91.22 194.16Q90.10 194.16 89.22 193.66Q88.34 193.17 87.84 192.23Q87.34 191.30 87.34 190Q87.34 188.70 87.84 187.77Q88.34 186.83 89.22 186.34Q90.10 185.84 91.22 185.84 M102.27 186L103.89 186L100.43 189.46L100.13 189.76L97.50 192.38L97.50 190.78L102.27 186M96.86 182.32L98.14 182.32L98.14 194L96.86 194L96.86 182.32M99.47 189.52L100.54 188.80L104.08 194L102.53 194 M115.31 194.16Q114.64 194.16 114.06 193.92Q113.49 193.68 113.07 193.25Q112.66 192.82 112.45 192.27L112.62 192.05L112.51 194L111.39 194L111.39 182.32L112.67 182.32L112.67 187.81L112.51 187.57Q112.83 186.82 113.59 186.33Q114.35 185.84 115.33 185.84Q116.32 185.84 117.15 186.34Q117.98 186.83 118.48 187.76Q118.98 188.69 118.98 190Q118.98 191.30 118.47 192.23Q117.97 193.17 117.14 193.66Q116.30 194.16 115.31 194.16M115.18 193.04Q116.37 193.04 117.03 192.21Q117.70 191.38 117.70 190Q117.70 188.62 117.04 187.79Q116.38 186.96 115.20 186.96Q114.45 186.96 113.88 187.34Q113.31 187.73 112.99 188.42Q112.67 189.10 112.67 190.03Q112.67 190.94 112.98 191.62Q113.30 192.30 113.86 192.67Q114.43 193.04 115.18 193.04 M122.70 194L121.42 194L121.42 186L122.46 186L122.64 187.31Q122.98 186.58 123.62 186.21Q124.27 185.84 125.20 185.84Q125.41 185.84 125.66 185.87Q125.90 185.90 126.08 186L125.86 187.17Q125.68 187.10 125.47 187.07Q125.26 187.04 124.88 187.04Q124.38 187.04 123.88 187.33Q123.38 187.62 123.04 188.20Q122.70 188.78 122.70 189.68 M131.26 185.84Q132.40 185.84 133.27 186.34Q134.14 186.83 134.64 187.77Q135.14 188.70 135.14 190Q135.14 191.30 134.64 192.23Q134.14 193.17 133.27 193.66Q132.40 194.16 131.26 194.16Q130.14 194.16 129.26 193.66Q128.38 193.17 127.89 192.23Q127.39 191.30 127.39 190Q127.39 188.70 127.89 187.77Q128.38 186.83 129.26 186.34Q130.14 185.84 131.26 185.84M131.26 186.94Q130.45 186.94 129.87 187.31Q129.30 187.68 128.98 188.36Q128.67 189.04 128.67 190Q128.67 190.94 128.98 191.63Q129.30 192.32 129.87 192.69Q130.45 193.06 131.26 193.06Q132.08 193.06 132.66 192.69Q133.23 192.32 133.54 191.63Q133.86 190.94 133.86 190Q133.86 189.04 133.54 188.36Q133.23 187.68 132.66 187.31Q132.08 186.94 131.26 186.94 M145.57 192.51L147.58 186L149.01 186L146.22 194L144.94 194L142.69 187.63L140.56 194L139.28 194L136.50 186L137.92 186L139.94 192.51L142.11 186L143.39 186 M152.21 194L150.93 194L150.93 186L152.05 186L152.16 187.79L151.95 187.62Q152.21 186.98 152.64 186.58Q153.07 186.19 153.64 186.02Q154.21 185.84 154.82 185.84Q155.68 185.84 156.38 186.17Q157.09 186.50 157.51 187.17Q157.94 187.84 157.94 188.88L157.94 194L156.66 194L156.66 189.33Q156.66 188 156.09 187.48Q155.52 186.96 154.69 186.96Q154.11 186.96 153.54 187.23Q152.96 187.50 152.58 188.11Q152.21 188.72 152.21 189.74 M169.54 182.24Q169.95 182.24 170.32 182.34Q170.69 182.43 170.90 182.61L170.56 183.65Q170.37 183.52 170.14 183.46Q169.92 183.41 169.65 183.41Q168.96 183.41 168.58 183.74Q168.19 184.06 168.19 184.78L168.19 186L168.19 186.42L168.19 194L166.91 194L166.91 184.66Q166.91 184.13 167.07 183.68Q167.23 183.23 167.56 182.91Q167.89 182.59 168.38 182.42Q168.88 182.24 169.54 182.24M165.31 186L170.86 186L170.86 187.10L165.31 187.10 M175.89 185.84Q177.02 185.84 177.90 186.34Q178.77 186.83 179.26 187.77Q179.76 188.70 179.76 190Q179.76 191.30 179.26 192.23Q178.77 193.17 177.90 193.66Q177.02 194.16 175.89 194.16Q174.77 194.16 173.89 193.66Q173.01 193.17 172.51 192.23Q172.02 191.30 172.02 190Q172.02 188.70 172.51 187.77Q173.01 186.83 173.89 186.34Q174.77 185.84 175.89 185.84M175.89 186.94Q175.07 186.94 174.50 187.31Q173.92 187.68 173.61 188.36Q173.30 189.04 173.30 190Q173.30 190.94 173.61 191.63Q173.92 192.32 174.50 192.69Q175.07 193.06 175.89 193.06Q176.70 193.06 177.28 192.69Q177.86 192.32 178.17 191.63Q178.48 190.94 178.48 190Q178.48 189.04 178.17 188.36Q177.86 187.68 177.28 187.31Q176.70 186.94 175.89 186.94 M181.34 186L182.94 186L185.33 189.34L185.41 189.46L188.69 194L187.12 194L184.64 190.53L184.50 190.35L181.34 186M187.14 186L188.64 186L185.47 190.27L185.39 190.27L182.64 194L181.15 194L184.64 189.41L184.74 189.41 M196.80 184.46Q196.37 184.46 196.10 184.20Q195.84 183.94 195.84 183.50Q195.84 183.07 196.10 182.81Q196.37 182.54 196.80 182.54Q197.23 182.54 197.50 182.81Q197.76 183.07 197.76 183.50Q197.76 183.94 197.50 184.20Q197.23 184.46 196.80 184.46M196.16 186L197.44 186L197.44 194.82Q197.44 195.81 197.06 196.38Q196.67 196.96 196.11 197.20Q195.55 197.44 195.01 197.44Q194.51 197.44 194.10 197.29Q193.68 197.14 193.41 196.91L193.68 195.70Q193.90 195.90 194.24 196.05Q194.58 196.19 194.99 196.19Q195.50 196.19 195.83 195.86Q196.16 195.52 196.16 194.69 M203.31 194.16Q202.54 194.16 201.86 193.87Q201.18 193.58 200.76 192.94Q200.34 192.29 200.34 191.25L200.34 186L201.62 186L201.62 190.91Q201.62 192.13 202.14 192.58Q202.67 193.04 203.63 193.04Q204.08 193.04 204.51 192.89Q204.94 192.74 205.29 192.41Q205.63 192.08 205.83 191.57Q206.03 191.06 206.03 190.35L206.03 186L207.31 186L207.31 194L206.19 194L206.11 192.78Q205.70 193.50 204.98 193.83Q204.27 194.16 203.31 194.16 M211.57 194L210.29 194L210.29 186L211.41 186L211.49 187.25Q211.92 186.51 212.62 186.18Q213.31 185.84 214.05 185.84Q214.90 185.84 215.65 186.22Q216.40 186.61 216.80 187.41Q217.06 186.86 217.52 186.52Q217.98 186.18 218.54 186.01Q219.09 185.84 219.58 185.84Q220.35 185.84 221.05 186.16Q221.74 186.48 222.19 187.15Q222.64 187.82 222.64 188.88L222.64 194L221.36 194L221.36 189.01Q221.36 187.92 220.82 187.44Q220.27 186.96 219.47 186.96Q218.85 186.96 218.30 187.26Q217.76 187.57 217.43 188.16Q217.10 188.75 217.10 189.62L217.10 194L215.82 194L215.82 189.01Q215.82 187.92 215.28 187.44Q214.74 186.96 213.94 186.96Q213.41 186.96 212.86 187.24Q212.30 187.52 211.94 188.13Q211.57 188.74 211.57 189.73 M226.82 197.36L225.54 197.36L225.54 186L226.66 186L226.77 187.95L226.59 187.73Q226.80 187.17 227.22 186.74Q227.63 186.32 228.22 186.08Q228.82 185.84 229.50 185.84Q230.48 185.84 231.30 186.34Q232.13 186.83 232.62 187.76Q233.12 188.69 233.12 190Q233.12 191.30 232.62 192.23Q232.11 193.17 231.28 193.66Q230.45 194.16 229.46 194.16Q228.46 194.16 227.72 193.67Q226.98 193.18 226.66 192.43L226.82 192.19L226.82 197.36M229.33 193.04Q230.51 193.04 231.18 192.21Q231.84 191.38 231.84 190Q231.84 188.62 231.19 187.79Q230.54 186.96 229.38 186.96Q228.61 186.96 228.03 187.34Q227.46 187.71 227.14 188.39Q226.82 189.07 226.82 190Q226.82 190.91 227.13 191.60Q227.44 192.29 228.01 192.66Q228.58 193.04 229.33 193.04 M238.45 194.16Q237.28 194.16 236.30 193.66Q235.31 193.17 234.78 192.26L235.87 191.47Q236.22 192.21 236.90 192.62Q237.58 193.04 238.54 193.04Q239.39 193.04 239.87 192.71Q240.35 192.38 240.35 191.86Q240.35 191.52 240.14 191.24Q239.92 190.96 239.31 190.83L237.39 190.43Q236.22 190.19 235.72 189.63Q235.22 189.07 235.22 188.24Q235.22 187.58 235.59 187.04Q235.97 186.50 236.66 186.17Q237.36 185.84 238.30 185.84Q239.49 185.84 240.30 186.30Q241.12 186.77 241.52 187.62L240.45 188.32Q240.18 187.62 239.57 187.29Q238.96 186.96 238.30 186.96Q237.73 186.96 237.32 187.12Q236.91 187.28 236.70 187.56Q236.48 187.84 236.48 188.19Q236.48 188.54 236.72 188.84Q236.96 189.14 237.62 189.26L239.62 189.68Q240.74 189.90 241.18 190.42Q241.63 190.93 241.63 191.66Q241.63 192.42 241.23 192.98Q240.83 193.55 240.11 193.86Q239.39 194.16 238.45 194.16 M252.77 185.84Q253.90 185.84 254.78 186.34Q255.65 186.83 256.14 187.77Q256.64 188.70 256.64 190Q256.64 191.30 256.14 192.23Q255.65 193.17 254.78 193.66Q253.90 194.16 252.77 194.16Q251.65 194.16 250.77 193.66Q249.89 193.17 249.39 192.23Q248.90 191.30 248.90 190Q248.90 188.70 249.39 187.77Q249.89 186.83 250.77 186.34Q251.65 185.84 252.77 185.84M252.77 186.94Q251.95 186.94 251.38 187.31Q250.80 187.68 250.49 188.36Q250.18 189.04 250.18 190Q250.18 190.94 250.49 191.63Q250.80 192.32 251.38 192.69Q251.95 193.06 252.77 193.06Q253.58 193.06 254.16 192.69Q254.74 192.32 255.05 191.63Q255.36 190.94 255.36 190Q255.36 189.04 255.05 188.36Q254.74 187.68 254.16 187.31Q253.58 186.94 252.77 186.94 M261.74 192.70L264.35 186L265.70 186L262.37 194L261.09 194L257.76 186L259.22 186 M270.72 194.16Q269.58 194.16 268.70 193.66Q267.81 193.17 267.31 192.23Q266.82 191.30 266.82 190Q266.82 188.70 267.31 187.77Q267.81 186.83 268.67 186.34Q269.54 185.84 270.64 185.84Q271.76 185.84 272.55 186.32Q273.34 186.80 273.76 187.62Q274.18 188.45 274.18 189.47Q274.18 189.74 274.16 189.97Q274.14 190.19 274.11 190.37L267.65 190.37L267.65 189.23L273.55 189.23L272.90 189.36Q272.90 188.21 272.26 187.58Q271.63 186.96 270.61 186.96Q269.82 186.96 269.26 187.32Q268.69 187.68 268.38 188.36Q268.06 189.04 268.06 190Q268.06 190.94 268.38 191.63Q268.70 192.32 269.29 192.68Q269.87 193.04 270.69 193.04Q271.57 193.04 272.12 192.70Q272.67 192.37 273.01 191.79L274.02 192.38Q273.71 192.93 273.24 193.33Q272.77 193.73 272.14 193.94Q271.50 194.16 270.72 194.16 M277.89 194L276.61 194L276.61 186L277.65 186L277.82 187.31Q278.16 186.58 278.81 186.21Q279.46 185.84 280.38 185.84Q280.59 185.84 280.84 185.87Q281.09 185.90 281.26 186L281.04 187.17Q280.86 187.10 280.66 187.07Q280.45 187.04 280.06 187.04Q279.57 187.04 279.06 187.33Q278.56 187.62 278.22 188.20Q277.89 188.78 277.89 189.68 M289.20 184.08L290.48 183.73L290.48 191.79Q290.48 192.38 290.82 192.67Q291.15 192.96 291.68 192.96Q292.14 192.96 292.48 192.80Q292.82 192.64 293.09 192.37L293.54 193.44Q293.17 193.78 292.66 193.97Q292.16 194.16 291.50 194.16Q290.90 194.16 290.37 193.94Q289.84 193.73 289.53 193.26Q289.22 192.78 289.20 192.02L289.20 184.08M287.60 186L293.39 186L293.39 187.10L287.60 187.10 M296.58 194L295.30 194L295.30 182.32L296.58 182.32L296.58 187.20Q296.99 186.48 297.68 186.16Q298.37 185.84 299.18 185.84Q300.05 185.84 300.75 186.17Q301.46 186.50 301.88 187.17Q302.30 187.84 302.30 188.88L302.30 194L301.02 194L301.02 189.33Q301.02 188 300.46 187.48Q299.89 186.96 299.06 186.96Q298.48 186.96 297.90 187.23Q297.33 187.50 296.95 188.12Q296.58 188.74 296.58 189.76 M308.54 194.16Q307.41 194.16 306.52 193.66Q305.63 193.17 305.14 192.23Q304.64 191.30 304.64 190Q304.64 188.70 305.14 187.77Q305.63 186.83 306.50 186.34Q307.36 185.84 308.46 185.84Q309.58 185.84 310.38 186.32Q311.17 186.80 311.58 187.62QNaN 188.45 NaN 189.47QNaN 189.74 311.98 189.97Q311.97 190.19 311.94 190.37L305.47 190.37L305.47 189.23L311.38 189.23L310.72 189.36Q310.72 188.21 310.09 187.58Q309.46 186.96 308.43 186.96Q307.65 186.96 307.08 187.32Q306.51 187.68 306.20 188.36Q305.89 189.04 305.89 190Q305.89 190.94 306.21 191.63Q306.53 192.32 307.11 192.68Q307.70 193.04 308.51 193.04Q309.39 193.04 309.94 192.70Q310.50 192.37 310.83 191.79L311.84 192.38Q311.54 192.93 311.06 193.33Q310.59 193.73 309.96 193.94Q309.33 194.16 308.54 194.16 M319.82 182.32L321.10 182.32L321.10 191.97Q321.10 192.58 321.33 192.81Q321.55 193.04 322.05 193.04Q322.37 193.04 322.58 192.99Q322.78 192.94 323.14 192.82L322.93 193.94Q322.67 194.05 322.37 194.10Q322.06 194.16 321.74 194.16Q320.77 194.16 320.30 193.63Q319.82 193.10 319.82 192.02 M329.46 191.04L329.46 188.83Q329.46 187.94 328.98 187.45Q328.50 186.96 327.62 186.96Q326.78 186.96 326.21 187.32Q325.63 187.68 325.36 188.48L324.32 187.84Q324.64 186.94 325.50 186.39Q326.37 185.84 327.65 185.84Q328.51 185.84 329.22 186.14Q329.92 186.43 330.33 187.03Q330.74 187.63 330.74 188.58L330.74 192.45Q330.74 193.02 331.34 193.02Q331.65 193.02 331.94 192.94L331.87 193.95Q331.55 194.11 331.04 194.11Q330.58 194.11 330.21 193.94Q329.84 193.76 329.63 193.40Q329.42 193.04 329.42 192.50L329.42 192.34L329.74 192.38Q329.55 193.01 329.09 193.40Q328.62 193.79 328.05 193.98Q327.47 194.16 326.91 194.16Q326.21 194.16 325.60 193.92Q324.99 193.68 324.63 193.19Q324.27 192.70 324.27 191.98Q324.27 191.09 324.87 190.50Q325.47 189.92 326.54 189.71L329.71 189.09L329.71 190.14L327.14 190.67Q326.35 190.83 325.97 191.12Q325.58 191.41 325.58 191.92Q325.58 192.42 325.98 192.73Q326.37 193.04 327.09 193.04Q327.55 193.04 327.98 192.92Q328.40 192.80 328.74 192.55Q329.07 192.30 329.26 191.93Q329.46 191.55 329.46 191.04 M340.02 194L333.26 194L333.26 193.02L337.46 188.11L338.46 187.07L337.04 187.10L333.31 187.10L333.31 186L339.89 186L339.89 186.98L335.70 191.89L334.70 192.93L336.26 192.90L340.02 192.90 M347.58 186L348.96 186L345.20 195.34Q344.90 196.13 344.54 196.58Q344.18 197.04 343.74 197.24Q343.30 197.44 342.72 197.44Q342.18 197.44 341.72 197.29Q341.26 197.14 340.91 196.88L341.26 195.76Q341.58 196.05 341.94 196.18Q342.30 196.32 342.66 196.32Q343.07 196.32 343.44 196.06Q343.81 195.81 344.11 195.02L344.53 193.98L343.73 192.08L341.18 186L342.64 186L344.64 191.22L345.14 192.64L345.71 191.06 M359.22 194.16Q358.22 194.16 357.39 193.66Q356.56 193.17 356.06 192.23Q355.57 191.30 355.57 190Q355.57 188.67 356.10 187.74Q356.62 186.82 357.49 186.33Q358.35 185.84 359.34 185.84Q360.34 185.84 361.06 186.35Q361.79 186.86 362.03 187.71L361.87 187.82L361.87 182.32L363.15 182.32L363.15 194L362.03 194L361.92 192.06L362.10 191.97Q361.98 192.67 361.56 193.16Q361.14 193.65 360.52 193.90Q359.90 194.16 359.22 194.16M359.34 193.04Q360.11 193.04 360.68 192.66Q361.25 192.27 361.56 191.56Q361.87 190.85 361.87 189.89Q361.87 188.98 361.56 188.32Q361.25 187.66 360.70 187.31Q360.14 186.96 359.41 186.96Q358.19 186.96 357.52 187.79Q356.85 188.62 356.85 190Q356.85 191.38 357.50 192.21Q358.16 193.04 359.34 193.04 M369.44 185.84Q370.58 185.84 371.45 186.34Q372.32 186.83 372.82 187.77Q373.31 188.70 373.31 190Q373.31 191.30 372.82 192.23Q372.32 193.17 371.45 193.66Q370.58 194.16 369.44 194.16Q368.32 194.16 367.44 193.66Q366.56 193.17 366.06 192.23Q365.57 191.30 365.57 190Q365.57 188.70 366.06 187.77Q366.56 186.83 367.44 186.34Q368.32 185.84 369.44 185.84M369.44 186.94Q368.62 186.94 368.05 187.31Q367.47 187.68 367.16 188.36Q366.85 189.04 366.85 190Q366.85 190.94 367.16 191.63Q367.47 192.32 368.05 192.69Q368.62 193.06 369.44 193.06Q370.26 193.06 370.83 192.69Q371.41 192.32 371.72 191.63Q372.03 190.94 372.03 190Q372.03 189.04 371.72 188.36Q371.41 187.68 370.83 187.31Q370.26 186.94 369.44 186.94 M382.46 184.53L382.75 185.66Q382.74 185.66 382.70 185.66Q382.67 185.66 382.64 185.66Q381.86 185.66 381.43 185.98Q381.01 186.29 381.01 186.98L380.22 186.58Q380.22 185.95 380.51 185.49Q380.80 185.02 381.30 184.78Q381.79 184.53 382.38 184.53Q382.40 184.53 382.42 184.53Q382.45 184.53 382.46 184.53M377.70 192.98L380.03 192.98Q381.17 192.98 381.81 193.50Q382.45 194.02 382.45 194.88Q382.45 195.66 381.93 196.24Q381.41 196.82 380.54 197.13Q379.66 197.44 378.58 197.44Q376.69 197.44 375.75 196.80Q374.82 196.16 374.82 195.26Q374.82 194.62 375.24 194.12Q375.66 193.62 376.67 193.55L376.56 193.79Q376.02 193.65 375.64 193.30Q375.26 192.96 375.26 192.30Q375.26 191.65 375.75 191.18Q376.24 190.70 377.20 190.59L378.05 191.02L377.89 191.02Q377.10 191.10 376.78 191.42Q376.45 191.73 376.45 192.10Q376.45 192.54 376.78 192.76Q377.10 192.98 377.70 192.98M378.56 196.37Q379.49 196.37 380.09 196.18Q380.69 195.98 380.98 195.68Q381.26 195.38 381.26 195.02Q381.26 194.59 380.92 194.34Q380.58 194.08 379.68 194.08L377.22 194.08Q376.70 194.08 376.35 194.34QNaN 194.61 NaN 195.07QNaN 195.66 376.68 196.02Q377.36 196.37 378.56 196.37M378.45 185.84Q379.41 185.84 380.15 186.18Q380.90 186.53 381.31 187.14Q381.73 187.74 381.73 188.54Q381.73 189.33 381.31 189.94Q380.90 190.56 380.15 190.90Q379.41 191.25 378.45 191.25Q376.86 191.25 376.02 190.49Q375.17 189.73 375.17 188.54Q375.17 187.74 375.59 187.14Q376.02 186.53 376.75 186.18Q377.49 185.84 378.45 185.84M378.45 186.88Q377.62 186.88 377.06 187.34Q376.50 187.79 376.50 188.54Q376.50 189.28 377.06 189.74Q377.62 190.21 378.45 190.21Q379.28 190.21 379.84 189.74Q380.40 189.28 380.40 188.54Q380.40 187.79 379.84 187.34Q379.28 186.88 378.45 186.88 M384.88 192.08Q385.34 192.08 385.63 192.37Q385.92 192.66 385.92 193.12Q385.92 193.58 385.63 193.87Q385.34 194.16 384.88 194.16Q384.42 194.16 384.13 193.87Q383.84 193.58 383.84 193.12Q383.84 192.66 384.13 192.37Q384.42 192.08 384.88 192.08" fill="#18181B"/><path d="M33.75 223.42L36.75 232L34.45 232L33.85 230.06L30.91 230.06L30.30 232L28.05 232L31.07 223.42L33.75 223.42M32.38 225.07L31.33 228.54L33.43 228.54 M43.33 228.97L45.36 229.54Q45.11 230.44 44.56 231.02Q44.02 231.60 43.26 231.86Q42.51 232.13 41.60 232.13Q40.30 232.13 39.35 231.60Q38.40 231.08 37.89 230.09Q37.39 229.10 37.39 227.71Q37.39 226.32 37.89 225.33Q38.40 224.34 39.35 223.82Q40.30 223.29 41.59 223.29Q42.48 223.29 43.24 223.54Q43.99 223.80 44.51 224.32Q45.03 224.84 45.25 225.66L43.29 226.45Q43.11 225.64 42.70 225.34Q42.29 225.04 41.66 225.04Q41.05 225.04 40.60 225.34Q40.16 225.64 39.91 226.23Q39.67 226.83 39.67 227.71Q39.67 228.58 39.90 229.18Q40.12 229.78 40.56 230.08Q41.01 230.38 41.68 230.38Q42.30 230.38 42.74 230.03Q43.17 229.69 43.33 228.97 M52.18 228.97L54.21 229.54Q53.96 230.44 53.42 231.02Q52.87 231.60 52.12 231.86Q51.36 232.13 50.45 232.13Q49.15 232.13 48.20 231.60Q47.25 231.08 46.75 230.09Q46.24 229.10 46.24 227.71Q46.24 226.32 46.75 225.33Q47.25 224.34 48.20 223.82Q49.15 223.29 50.44 223.29Q51.34 223.29 52.09 223.54Q52.84 223.80 53.36 224.32Q53.88 224.84 54.10 225.66L52.14 226.45Q51.96 225.64 51.55 225.34Q51.14 225.04 50.52 225.04Q49.91 225.04 49.46 225.34Q49.01 225.64 48.77 226.23Q48.53 226.83 48.53 227.71Q48.53 228.58 48.75 229.18Q48.97 229.78 49.42 230.08Q49.87 230.38 50.53 230.38Q51.15 230.38 51.59 230.03Q52.02 229.69 52.18 228.97 M62.31 232L55.46 232L55.46 223.42L62.14 223.42L62.14 225.15L57.69 225.15L57.69 226.89L61.23 226.89L61.23 228.52L57.69 228.52L57.69 230.27L62.31 230.27 M69.42 223.42L71.39 223.42L71.39 232L68.91 232L66.25 227.36L65.60 226.09L65.58 226.09L65.64 227.67L65.64 232L63.66 232L63.66 223.42L66.14 223.42L68.81 228.06L69.46 229.34L69.47 229.34L69.42 227.75 M72.67 223.42L80.51 223.42L80.51 225.15L77.71 225.15L77.71 232L75.48 232L75.48 225.15L72.67 225.15 M85.56 227.65L96.61 227.65L96.61 229.40L85.56 229.40 M108.56 232L102.13 232L102.13 230.57Q103.23 229.88 104.01 229.28Q104.79 228.69 105.28 228.15Q105.77 227.62 NaN 227.14Q106.23 226.66 106.23 226.20Q106.23 225.71 105.94 225.38Q105.65 225.04 105.08 225.04Q104.47 225.04 104.13 225.49Q103.79 225.94 103.76 226.80L101.85 226.22Q101.88 225.25 102.31 224.60Q102.75 223.95 103.50 223.62Q104.26 223.29 105.22 223.29Q106.07 223.29 106.68 223.53Q107.30 223.77 107.69 224.17Q108.08 224.56 108.27 225.05Q108.46 225.54 108.46 226.05Q108.46 226.88 108.03 227.60Q107.60 228.32 106.79 228.99Q105.97 229.66 104.82 230.34L104.82 230.35Q105.04 230.34 105.34 230.32Q105.64 230.31 105.96 230.30Q106.29 230.30 106.55 230.30L108.56 230.30 M113.28 232.13Q111.53 232.13 110.62 231.01Q109.72 229.89 109.72 227.71Q109.72 225.53 110.62 224.41Q111.53 223.29 113.28 223.29Q115.04 223.29 115.94 224.41Q116.84 225.53 116.84 227.71Q116.84 229.89 115.94 231.01Q115.04 232.13 113.28 232.13M113.28 230.39Q113.76 230.39 114.06 230.12Q114.36 229.85 114.50 229.26Q114.63 228.67 114.63 227.71Q114.63 226.75 114.50 226.16Q114.36 225.56 114.06 225.30Q113.76 225.03 113.28 225.03Q112.81 225.03 112.51 225.30Q112.20 225.56 112.06 226.16Q111.93 226.75 111.93 227.71Q111.93 228.67 112.06 229.26Q112.20 229.85 112.51 230.12Q112.81 230.39 113.28 230.39 M124.68 232L118.25 232L118.25 230.57Q119.35 229.88 120.13 229.28Q120.91 228.69 121.40 228.15Q121.89 227.62 122.12 227.14Q122.35 226.66 122.35 226.20Q122.35 225.71 122.06 225.38Q121.77 225.04 121.20 225.04Q120.59 225.04 120.25 225.49Q119.91 225.94 119.88 226.80L117.97 226.22Q118 225.25 118.43 224.60Q118.87 223.95 119.62 223.62Q120.38 223.29 121.34 223.29Q122.19 223.29 122.80 223.53Q123.42 223.77 123.81 224.17Q124.20 224.56 124.39 225.05Q124.58 225.54 124.58 226.05Q124.58 226.88 124.15 227.60Q123.72 228.32 122.91 228.99Q122.09 229.66 120.94 230.34L120.94 230.35Q121.16 230.34 121.46 230.32Q121.76 230.31 122.08 230.30Q122.41 230.30 122.67 230.30L124.68 230.30 M129.66 223.29Q130.35 223.29 130.94 223.47Q131.53 223.65 131.97 224.07Q132.42 224.49 132.64 225.19L130.82 226.05Q130.69 225.59 130.37 225.32Q130.05 225.06 129.52 225.06Q129.15 225.06 128.85 225.23Q128.54 225.41 128.32 225.73Q128.10 226.06 127.99 226.53Q127.88 227 127.88 227.58Q127.88 227.62 127.88 227.66Q127.88 227.71 127.88 227.79L127.91 227.87Q128.06 227.48 128.39 227.21Q128.72 226.94 129.15 226.80Q129.58 226.66 130.01 226.66Q130.80 226.66 131.43 226.97Q132.05 227.28 132.41 227.86Q132.77 228.44 132.77 229.26Q132.77 230.14 132.36 230.78Q131.96 231.43 131.25 231.78Q130.53 232.13 129.54 232.13Q128.44 232.13 127.60 231.64Q126.76 231.16 126.30 230.19Q125.84 229.22 125.84 227.79Q125.84 226.25 126.35 225.27Q126.85 224.28 127.72 223.78Q128.58 223.29 129.66 223.29M129.50 228.16Q129.17 228.16 128.89 228.30Q128.61 228.44 128.44 228.70Q128.28 228.96 128.28 229.31Q128.28 229.65 128.45 229.91Q128.62 230.17 128.89 230.31Q129.17 230.45 129.50 230.45Q130.09 230.45 130.41 230.15Q130.73 229.85 130.73 229.31Q130.73 228.94 130.58 228.69Q130.44 228.44 130.17 228.30Q129.91 228.16 129.50 228.16" fill="#E11D48"/></svg>