<svg xmlns="http://www.w3.org/2000/svg" width="480" height="300" viewBox="0 0 480 300" role="img"><rect width="480" height="300" fill="#FFF1F2"/><rect x="0" y="0" width="240" height="84" fill="#9D174D"/><rect x="240" y="0" width="120" height="84" fill="#3F2A2A"/><rect x="360" y="0" width="72" height="84" fill="#3B2A2A"/><rect x="432" y="0" width="48" height="84" fill="#BE185D"/><path d="M36.43 140.56L36.43 138.27L55.46 138.27L55.46 140.56L36.43 140.56M40.36 126.87L40.36 150.33Q40.36 150.81 40.65 151.12Q40.94 151.43 41.46 151.58L42.72 151.87Q43.64 152.15 43.64 152.99Q43.64 153.45 43.32 153.72Q43 154 42.32 154L31.61 154Q30.93 154 30.61 153.72Q30.29 153.45 30.29 152.99Q30.29 152.15 31.21 151.87L32.47 151.58Q33.02 151.43 33.29 151.12Q33.57 150.81 33.57 150.33L33.57 126.87Q33.57 126.39 33.29 126.08Q33.02 125.77 32.47 125.62L31.21 125.33Q30.29 125.05 30.29 124.21Q30.29 123.73 30.61 123.46Q30.93 123.20 31.61 123.20L42.32 123.20Q43 123.20 43.32 123.46Q43.64 123.73 43.64 124.21Q43.64 125.05 42.72 125.33L41.46 125.62Q40.94 125.77 40.65 126.08Q40.36 126.39 40.36 126.87M59.92 126.87L59.92 150.33Q59.92 150.81 60.21 151.12Q60.49 151.43 61.02 151.58L62.28 151.87Q63.20 152.15 63.20 152.99Q63.20 153.45 62.88 153.72Q62.56 154 61.88 154L51.17 154Q50.48 154 50.15 153.72Q49.82 153.45 49.82 152.99Q49.82 152.15 50.75 151.87L52 151.58Q52.55 151.43 52.83 151.12Q53.10 150.81 53.10 150.33L53.10 126.87Q53.10 126.39 52.83 126.08Q52.55 125.77 52 125.62L50.75 125.33Q49.82 125.05 49.82 124.21Q49.82 123.73 50.15 123.46Q50.48 123.20 51.17 123.20L61.88 123.20Q62.56 123.20 62.88 123.46Q63.20 123.73 63.20 124.21Q63.20 125.05 62.28 125.33L61.02 125.62Q60.49 125.77 60.21 126.08Q59.92 126.39 59.92 126.87 M87.40 141Q87.40 142.16 86.74 142.79Q86.08 143.42 84.80 143.42L71.08 143.42L71.08 141.75L80.07 141.75Q81.20 141.75 81.20 140.73Q81.20 137.83 80.14 136.32Q79.08 134.82 77.30 134.82Q75.94 134.82 74.88 135.65Q73.83 136.49 73.23 138.04Q72.64 139.59 72.64 141.79Q72.64 146.04 74.63 148.17Q76.62 150.30 79.94 150.30Q81.88 150.30 83.34 149.53Q84.80 148.76 85.62 147.33Q86.01 146.89 86.25 146.74Q86.48 146.59 86.72 146.59Q87.07 146.59 87.22 146.91Q87.38 147.22 87.38 147.66Q87.29 149.51 86.06 151.09Q84.83 152.66 82.74 153.60Q80.65 154.55 77.94 154.55Q74.75 154.55 72.29 153.24Q69.82 151.93 68.42 149.57Q67.03 147.20 67.03 144.03Q67.03 140.71 68.36 138.14Q69.69 135.56 72.18 134.11Q74.66 132.66 78.12 132.66Q81.06 132.66 83.14 133.73Q85.22 134.79 86.31 136.68Q87.40 138.56 87.40 141 M104.01 151.21L104.01 150.74L103.59 150.66L103.59 137.52Q103.59 135.98 102.81 135.13Q102.03 134.29 100.60 134.29Q99.30 134.29 98.60 134.84Q97.89 135.39 97.89 136.20L97.89 138.14Q97.89 139.46 97.01 140.17Q96.13 140.89 94.53 140.89Q93.16 140.89 92.46 140.24Q91.76 139.59 91.76 138.47Q91.76 137.08 92.90 135.75Q94.04 134.42 96.27 133.55Q98.49 132.68 101.74 132.68Q105.79 132.68 107.76 134.32Q109.73 135.96 109.73 138.75L109.73 150.19Q109.73 150.81 109.98 151.12Q110.24 151.43 110.70 151.43Q111.18 151.43 111.42 151.19Q111.67 150.96 111.84 150.72Q111.95 150.57 112.08 150.47Q112.22 150.37 112.41 150.37Q112.68 150.37 112.81 150.57Q112.94 150.77 112.94 151.10Q112.94 151.84 112.42 152.64Q111.91 153.43 110.88 153.99Q109.86 154.55 108.32 154.55Q106.36 154.55 105.19 153.66Q104.01 152.77 104.01 151.21M90.83 149.40Q90.83 146.65 93.28 144.96Q95.74 143.26 100.14 143.26Q101.57 143.26 102.72 143.51Q103.88 143.75 104.71 144.17L104.23 145.57Q103.48 145.22 102.70 145.02Q101.92 144.83 101.02 144.83Q99.19 144.83 98.17 145.76Q97.15 146.70 97.15 148.35Q97.15 150 98.02 150.88Q98.88 151.76 100.27 151.76Q101.46 151.76 102.55 151.22Q103.64 150.68 104.38 149.71L104.87 150.96Q103.66 152.68 101.62 153.62Q99.59 154.55 97.30 154.55Q94.42 154.55 92.63 153.12Q90.83 151.69 90.83 149.40 M131.20 151.34L131.20 150.33L131 150.22L131 126.39Q131 125.84 130.84 125.60Q130.67 125.36 130.28 125.29L129.13 125.20Q128.74 125.09 128.56 124.89Q128.39 124.70 128.39 124.39Q128.39 124.04 128.59 123.82Q128.80 123.60 129.40 123.38L133.49 121.88Q134.33 121.57 134.83 121.43Q135.34 121.29 135.80 121.29Q136.48 121.29 136.83 121.67Q137.19 122.06 137.19 122.69L137.19 150.48Q137.19 151.16 137.38 151.48Q137.58 151.80 137.98 151.93L138.81 152.15Q139.23 152.28 139.43 152.51Q139.63 152.75 139.63 153.10Q139.63 153.52 139.33 153.76Q139.03 154 138.42 154L133.86 154Q132.72 154 131.96 153.26Q131.20 152.53 131.20 151.34M115.16 144.17Q115.16 140.65 116.56 138.06Q117.96 135.48 120.36 134.07Q122.75 132.66 125.72 132.66Q128.34 132.66 130.37 133.88Q132.39 135.10 133.71 137.46L132.19 138.71Q131.11 136.91 129.76 136.03Q128.41 135.15 126.85 135.15Q125.35 135.15 124.16 136.04Q122.97 136.93 122.29 138.76Q121.61 140.60 121.61 143.48Q121.61 146.17 122.27 147.93Q122.93 149.69 124.09 150.56Q125.24 151.43 126.71 151.43Q128.32 151.43 129.71 150.47Q131.09 149.51 132.26 147.53L133.25 148.79Q131.51 151.49 129.23 153.02Q126.96 154.55 124.21 154.55Q121.61 154.55 119.56 153.22Q117.52 151.89 116.34 149.54Q115.16 147.20 115.16 144.17 M151.35 134.16L151.35 150.48Q151.35 151.16 151.54 151.48Q151.73 151.80 152.12 151.93L152.96 152.15Q153.38 152.28 153.58 152.51Q153.77 152.75 153.77 153.10Q153.77 153.52 153.49 153.76Q153.20 154 152.56 154L143.90 154Q143.28 154 142.99 153.76Q142.71 153.52 142.71 153.10Q142.71 152.77 142.91 152.54Q143.10 152.31 143.52 152.15L144.38 151.93Q144.78 151.78 144.96 151.47Q145.15 151.16 145.15 150.48L145.15 137.87Q145.15 137.30 144.98 137.06Q144.82 136.82 144.45 136.75L143.28 136.66Q142.88 136.58 142.71 136.38Q142.53 136.18 142.53 135.87Q142.53 135.50 142.74 135.28Q142.95 135.06 143.54 134.84L147.64 133.34Q148.49 133.03 149.01 132.90Q149.53 132.77 149.88 132.77Q150.63 132.77 150.99 133.16Q151.35 133.54 151.35 134.16M147.77 129.40Q146.01 129.40 144.94 128.49Q143.87 127.58 143.87 126.10Q143.87 124.63 144.94 123.74Q146.01 122.85 147.77 122.85Q149.55 122.85 150.62 123.74Q151.68 124.63 151.68 126.10Q151.68 127.58 150.62 128.49Q149.55 129.40 147.77 129.40 M165.28 134.16L165.28 150.48Q165.28 151.16 165.48 151.47Q165.68 151.78 166.07 151.93L166.86 152.15Q167.57 152.44 167.57 153.03Q167.57 154 166.34 154L157.84 154Q157.23 154 156.94 153.76Q156.66 153.52 156.66 153.10Q156.66 152.77 156.84 152.54Q157.03 152.31 157.45 152.15L158.33 151.93Q158.72 151.78 158.91 151.47Q159.10 151.16 159.10 150.48L159.10 137.87Q159.10 137.30 158.93 137.06Q158.77 136.82 158.39 136.75L157.23 136.66Q156.83 136.58 156.66 136.38Q156.48 136.18 156.48 135.87Q156.48 135.50 156.69 135.28Q156.90 135.06 157.49 134.84L161.58 133.34Q162.42 133.03 162.93 132.90Q163.43 132.77 163.89 132.77Q164.58 132.77 164.93 133.16Q165.28 133.54 165.28 134.16M165.50 138.29L164.62 139.06L163.61 138.03L164.47 137.26Q167.24 134.77 169.22 133.72Q171.20 132.66 172.98 132.66Q175.69 132.66 177.18 134.47Q178.68 136.29 179.01 139.30L180.24 150.41Q180.31 151.14 180.48 151.47Q180.66 151.80 181.08 151.93L181.85 152.15Q182.26 152.31 182.46 152.54Q182.66 152.77 182.66 153.10Q182.66 153.52 182.37 153.76Q182.09 154 181.45 154L172.87 154Q171.66 154 171.66 153.03Q171.66 152.44 172.34 152.15L173.18 151.93Q173.60 151.78 173.83 151.45Q174.06 151.12 173.97 150.41L172.83 140.21Q172.61 138.29 171.85 137.32Q171.09 136.36 169.61 136.36Q168.69 136.36 167.67 136.84Q166.64 137.32 165.50 138.29 M198.72 151.98Q195.66 151.54 194.29 151.19Q192.91 150.85 192.56 150.55Q192.21 150.24 192.21 149.91Q192.21 149.56 192.49 149.25Q192.78 148.94 193.44 148.65L192.98 148.30Q190.80 148.52 189.56 149.10Q188.31 149.69 187.80 150.50Q187.28 151.32 187.28 152.24Q187.28 153.30 187.91 154.04Q188.53 154.79 190.25 155.38Q191.97 155.96 195.27 156.44Q197.95 156.84 199.45 157.29Q200.94 157.74 201.54 158.31Q202.13 158.88 202.13 159.65Q202.13 160.62 201.51 161.31Q200.90 162.01 199.56 162.37Q198.21 162.73 195.99 162.73Q192.12 162.73 190.56 161.58Q189 160.42 189 158.53Q189 157.50 189.87 156.67Q190.73 155.85 192.38 155.58L192.03 154.92Q187.65 155.45 185.96 156.79Q184.27 158.14 184.27 159.87Q184.27 161.28 185.28 162.39Q186.29 163.50 188.63 164.14Q190.98 164.78 194.96 164.78Q201.10 164.78 204.34 162.85Q207.59 160.93 207.59 157.92Q207.59 156.27 206.74 155.10Q205.89 153.93 203.94 153.18Q202 152.42 198.72 151.98M199.97 133.41L199.23 134.95L200.66 135.15Q201.47 133.54 202 132.99Q202.53 132.44 203.23 132.44Q203.87 132.44 204.23 132.76Q204.59 133.08 204.88 133.50Q205.17 133.91 205.56 134.23Q205.96 134.55 206.66 134.55Q207.67 134.55 208.27 133.81Q208.86 133.08 208.86 131.87Q208.86 130.50 207.98 129.72Q207.10 128.94 205.72 128.94Q204.02 128.94 202.51 130.05Q201.01 131.16 199.97 133.41M205.76 140.60Q205.76 138.38 204.54 136.59Q203.32 134.79 201.06 133.76Q198.81 132.73 195.68 132.73Q192.47 132.73 190.06 133.80Q187.65 134.88 186.32 136.81Q184.99 138.73 184.99 141.28Q184.99 143.51 186.21 145.30Q187.43 147.09 189.70 148.13Q191.97 149.16 195.09 149.16Q198.30 149.16 200.71 148.08Q203.12 147 204.44 145.08Q205.76 143.15 205.76 140.60M194.58 134.60Q196.48 134.46 197.69 136.09Q198.90 137.72 199.25 140.80Q199.60 143.81 198.80 145.44Q197.99 147.07 196.17 147.20Q194.91 147.27 193.95 146.57Q192.98 145.88 192.36 144.46Q191.75 143.04 191.50 141Q191.28 138.97 191.56 137.59Q191.83 136.20 192.60 135.44Q193.37 134.68 194.58 134.60" fill="#3B2A2A"/><path d="M32.43 183.67L28.77 183.67L28.77 182.36L37.56 182.36L37.56 183.67L33.91 183.67L33.91 194L32.43 194 M40.97 188.77L40.97 194L39.56 194L39.56 182.36L40.97 182.36L40.97 187.38L40.73 187.38Q41.13 186.17 41.86 185.66Q42.60 185.16 43.59 185.16Q44.48 185.16 45.14 185.52Q45.81 185.88 46.18 186.61Q46.55 187.34 46.55 188.45L46.55 194L45.14 194L45.14 188.57Q45.14 187.56 44.61 186.99Q44.09 186.42 43.17 186.42Q42.55 186.42 42.05 186.70Q41.55 186.97 41.26 187.49Q40.97 188.02 40.97 188.77 M52.70 194.19Q51.43 194.19 50.51 193.63Q49.59 193.06 49.10 192.05Q48.60 191.05 48.60 189.70Q48.60 188.36 49.09 187.34Q49.57 186.31 50.46 185.73Q51.34 185.16 52.53 185.16Q53.23 185.16 53.90 185.39Q54.58 185.62 55.13 186.13Q55.68 186.64 56.01 187.48Q56.34 188.31 56.34 189.52L56.34 190.11L49.55 190.11L49.55 188.92L55.58 188.92L54.92 189.36Q54.92 188.50 54.65 187.83Q54.38 187.16 53.85 186.79Q53.32 186.41 52.53 186.41Q51.74 186.41 51.18 186.79Q50.62 187.18 50.32 187.80Q50.02 188.42 50.02 189.13L50.02 189.92Q50.02 190.89 50.36 191.57Q50.70 192.24 51.30 192.59Q51.91 192.94 52.70 192.94Q53.22 192.94 53.64 192.79Q54.06 192.64 54.37 192.34Q54.67 192.04 54.84 191.59L56.20 191.97Q55.99 192.63 55.51 193.13Q55.02 193.63 54.31 193.91Q53.59 194.19 52.70 194.19 M70.18 185.27L70.18 197.27L68.77 197.27L68.77 192.65L68.66 192.65Q68.52 192.89 68.25 193.25Q67.97 193.62 67.46 193.90Q66.96 194.19 66.13 194.19Q65.04 194.19 64.20 193.63Q63.37 193.08 62.90 192.06Q62.43 191.05 62.43 189.66Q62.43 188.27 62.90 187.26Q63.38 186.25 64.21 185.70Q65.05 185.16 66.13 185.16Q66.98 185.16 67.48 185.44Q67.98 185.72 68.25 186.07Q68.52 186.43 68.66 186.66L68.82 186.66L68.82 185.27L70.18 185.27M66.34 192.93Q67.13 192.93 67.68 192.51Q68.23 192.09 68.51 191.35Q68.79 190.61 68.79 189.64Q68.79 188.67 68.51 187.95Q68.23 187.23 67.69 186.82Q67.14 186.41 66.34 186.41Q65.51 186.41 64.96 186.84Q64.41 187.27 64.13 188Q63.86 188.73 63.86 189.64Q63.86 190.55 64.14 191.30Q64.41 192.05 64.97 192.49Q65.52 192.93 66.34 192.93 M75.61 194.11Q74.73 194.11 74.06 193.75Q73.39 193.38 73.02 192.65Q72.65 191.91 72.65 190.81L72.65 185.27L74.05 185.27L74.05 190.70Q74.05 191.70 74.59 192.27Q75.12 192.84 76.03 192.84Q76.66 192.84 77.15 192.57Q77.65 192.30 77.94 191.77Q78.23 191.24 78.23 190.50L78.23 185.27L79.64 185.27L79.64 194L78.28 194L78.28 191.88L78.47 191.88Q78.06 193.11 77.32 193.61Q76.57 194.11 75.61 194.11 M83.52 194L82.11 194L82.11 185.27L83.52 185.27L83.52 194M82.82 183.84Q82.42 183.84 82.13 183.56Q81.84 183.29 81.84 182.91Q81.84 182.52 82.13 182.25Q82.42 181.98 82.82 181.98Q83.23 181.98 83.52 182.25Q83.80 182.52 83.80 182.91Q83.80 183.29 83.52 183.56Q83.23 183.84 82.82 183.84 M89.54 194.19Q88.35 194.19 87.46 193.63Q86.56 193.06 86.06 192.05Q85.56 191.03 85.56 189.69Q85.56 188.32 86.06 187.30Q86.56 186.28 87.46 185.72Q88.35 185.16 89.54 185.16Q90.17 185.16 90.73 185.32Q91.30 185.48 91.76 185.79Q92.23 186.10 92.56 186.55Q92.90 187 93.08 187.57L91.73 187.95Q91.63 187.62 91.44 187.34Q91.24 187.05 90.96 186.85Q90.69 186.64 90.33 186.53Q89.97 186.41 89.54 186.41Q88.66 186.41 88.10 186.87Q87.54 187.33 87.27 188.07Q86.99 188.81 86.99 189.69Q86.99 190.55 87.27 191.29Q87.54 192.02 88.10 192.48Q88.66 192.93 89.54 192.93Q89.98 192.93 90.34 192.81Q90.71 192.70 91 192.48Q91.28 192.27 91.48 191.97Q91.67 191.67 91.77 191.32L93.11 191.70Q92.94 192.29 92.60 192.75Q92.26 193.20 91.79 193.53Q91.32 193.85 90.75 194.02Q90.18 194.19 89.54 194.19 M97.98 189.41L96.45 190.86L96.45 189.12L96.70 189.12L100.44 185.27L102.18 185.27L98.14 189.41L97.98 189.41M96.53 194L95.13 194L95.13 182.36L96.53 182.36L96.53 194M102.45 194L100.65 194L97.30 189.73L98.30 188.73 M112.46 194.19Q111.63 194.19 111.13 193.90Q110.62 193.62 110.34 193.25Q110.07 192.89 109.92 192.65L109.77 192.65L109.77 194L108.41 194L108.41 182.36L109.81 182.36L109.81 186.66L109.92 186.66Q110.07 186.43 110.34 186.07Q110.60 185.72 111.10 185.44Q111.60 185.16 112.45 185.16Q113.55 185.16 114.38 185.70Q115.21 186.25 115.68 187.26Q116.16 188.27 116.16 189.66Q116.16 191.05 115.69 192.06Q115.22 193.08 114.39 193.63Q113.55 194.19 112.46 194.19M112.25 192.93Q113.07 192.93 113.62 192.49Q114.17 192.05 114.45 191.30Q114.73 190.55 114.73 189.64Q114.73 188.73 114.45 188Q114.18 187.27 113.63 186.84Q113.08 186.41 112.25 186.41Q111.45 186.41 110.90 186.82Q110.35 187.23 110.07 187.95Q109.80 188.67 109.80 189.64Q109.80 190.61 110.08 191.35Q110.36 192.09 110.91 192.51Q111.46 192.93 112.25 192.93 M119.61 194L118.20 194L118.20 185.27L119.56 185.27L119.56 186.61L119.66 186.61Q119.90 185.95 120.52 185.54Q121.14 185.14 121.92 185.14Q122.08 185.14 122.29 185.15Q122.51 185.16 122.63 185.16L122.63 186.58Q122.57 186.56 122.32 186.53Q122.07 186.50 121.79 186.50Q121.16 186.50 120.67 186.76Q120.17 187.02 119.89 187.48Q119.61 187.94 119.61 188.53 M127.78 194.19Q126.59 194.19 125.70 193.63Q124.80 193.06 124.30 192.05Q123.80 191.03 123.80 189.69Q123.80 188.32 124.30 187.30Q124.80 186.28 125.70 185.72Q126.59 185.16 127.78 185.16Q128.98 185.16 129.88 185.72Q130.77 186.28 131.27 187.30Q131.77 188.32 131.77 189.69Q131.77 191.03 131.27 192.05Q130.77 193.06 129.88 193.63Q128.98 194.19 127.78 194.19M127.78 192.93Q128.66 192.93 129.23 192.48Q129.80 192.02 130.08 191.29Q130.35 190.55 130.35 189.69Q130.35 188.82 130.08 188.07Q129.80 187.33 129.23 186.87Q128.66 186.41 127.78 186.41Q126.91 186.41 126.34 186.87Q125.78 187.33 125.51 188.07Q125.23 188.81 125.23 189.69Q125.23 190.55 125.51 191.29Q125.78 192.02 126.34 192.48Q126.91 192.93 127.78 192.93 M137.18 194L135.78 194L133.13 185.27L134.63 185.27L135.69 189.08Q135.91 189.86 136.16 190.85Q136.41 191.84 136.65 193.09L136.41 193.09Q136.64 191.89 136.88 190.90Q137.13 189.91 137.35 189.08L138.40 185.27L139.90 185.27L140.93 189.08Q141.15 189.88 141.39 190.87Q141.63 191.86 141.86 193.09L141.61 193.09Q141.86 191.88 142.11 190.89Q142.35 189.90 142.58 189.08L143.64 185.27L145.13 185.27L142.48 194L141.09 194L139.95 190.05Q139.78 189.45 139.62 188.82Q139.45 188.20 139.30 187.54Q139.14 186.88 138.98 186.20L139.29 186.20Q139.13 186.88 138.97 187.54Q138.81 188.20 138.65 188.83Q138.48 189.46 138.31 190.05 M148.32 188.77L148.32 194L146.91 194L146.91 185.27L148.27 185.27L148.27 187.38L148.08 187.38Q148.48 186.17 149.21 185.66Q149.95 185.16 150.95 185.16Q151.83 185.16 152.49 185.52Q153.16 185.88 153.53 186.61Q153.90 187.34 153.90 188.45L153.90 194L152.49 194L152.49 188.57Q152.49 187.56 151.96 186.99Q151.44 186.42 150.52 186.42Q149.90 186.42 149.40 186.70Q148.90 186.97 148.61 187.49Q148.32 188.02 148.32 188.77 M159.79 185.27L164.93 185.27L164.93 186.47L159.79 186.47L159.79 185.27M162.91 194L161.51 194L161.51 184.10Q161.51 183.34 161.86 182.84Q162.22 182.33 162.79 182.07Q163.36 181.81 163.99 181.81Q164.49 181.81 164.82 181.89Q165.15 181.98 165.30 182.05L164.91 183.25Q164.80 183.21 164.63 183.16Q164.45 183.12 164.16 183.12Q163.51 183.12 163.21 183.45Q162.91 183.78 162.91 184.41 M170.34 194.19Q169.16 194.19 168.26 193.63Q167.37 193.06 166.87 192.05Q166.37 191.03 166.37 189.69Q166.37 188.32 166.87 187.30Q167.37 186.28 168.26 185.72Q169.16 185.16 170.34 185.16Q171.54 185.16 172.44 185.72Q173.34 186.28 173.84 187.30Q174.34 188.32 174.34 189.69Q174.34 191.03 173.84 192.05Q173.34 193.06 172.44 193.63Q171.54 194.19 170.34 194.19M170.34 192.93Q171.23 192.93 171.80 192.48Q172.37 192.02 172.64 191.29Q172.91 190.55 172.91 189.69Q172.91 188.82 172.64 188.07Q172.37 187.33 171.80 186.87Q171.23 186.41 170.34 186.41Q169.47 186.41 168.91 186.87Q168.34 187.33 168.07 188.07Q167.80 188.81 167.80 189.69Q167.80 190.55 168.07 191.29Q168.34 192.02 168.91 192.48Q169.47 192.93 170.34 192.93 M177.28 194L175.66 194L179.10 188.98L179.09 190.05L175.84 185.27L177.48 185.27L178.56 186.96Q178.98 187.62 179.29 188.19Q179.60 188.76 179.93 189.29L179.20 189.29Q179.53 188.76 179.81 188.19Q180.09 187.62 180.52 186.96L181.63 185.27L183.23 185.27L179.96 190.12L179.96 189.08L183.38 194L181.74 194L180.46 192.04Q180.05 191.40 179.75 190.85Q179.45 190.30 179.13 189.79L179.87 189.79Q179.55 190.30 179.27 190.85Q179 191.40 178.58 192.04 M189.61 194.63L189.61 185.27L191.02 185.27L191.02 194.63Q191.03 195.45 190.74 196.05Q190.45 196.64 189.88 196.95Q189.31 197.27 188.46 197.27L188.18 197.27L188.18 195.97L188.44 195.97Q189.05 195.97 189.33 195.62Q189.61 195.27 189.61 194.63M190.32 183.84Q189.92 183.84 189.63 183.56Q189.34 183.29 189.34 182.91Q189.34 182.52 189.63 182.25Q189.92 181.98 190.32 181.98Q190.73 181.98 191.02 182.25Q191.30 182.52 191.30 182.91Q191.30 183.29 191.02 183.56Q190.73 183.84 190.32 183.84 M196.45 194.11Q195.57 194.11 194.90 193.75Q194.23 193.38 193.86 192.65Q193.49 191.91 193.49 190.81L193.49 185.27L194.90 185.27L194.90 190.70Q194.90 191.70 195.43 192.27Q195.96 192.84 196.88 192.84Q197.50 192.84 198 192.57Q198.49 192.30 198.78 191.77Q199.07 191.24 199.07 190.50L199.07 185.27L200.48 185.27L200.48 194L199.13 194L199.13 191.88L199.31 191.88Q198.91 193.11 198.16 193.61Q197.41 194.11 196.45 194.11 M204.36 194L202.95 194L202.95 185.27L204.32 185.27L204.33 187.22L204.22 187.22Q204.40 186.51 204.79 186.04Q205.17 185.58 205.69 185.34Q206.21 185.11 206.77 185.11Q207.73 185.11 208.32 185.70Q208.91 186.28 209.08 187.23L208.89 187.23Q209.05 186.58 209.46 186.10Q209.88 185.63 210.46 185.37Q211.05 185.11 211.75 185.11Q212.51 185.11 213.13 185.44Q213.76 185.77 214.13 186.43Q214.50 187.09 214.50 188.11L214.50 194L213.09 194L213.09 188.15Q213.09 187.20 212.56 186.80Q212.03 186.39 211.33 186.39Q210.74 186.39 210.32 186.64Q209.89 186.88 209.66 187.31Q209.43 187.74 209.43 188.30L209.43 194L208.02 194L208.02 188.01Q208.02 187.28 207.54 186.84Q207.05 186.39 206.31 186.39Q205.80 186.39 205.36 186.63Q204.91 186.87 204.63 187.34Q204.36 187.80 204.36 188.50 M218.38 197.27L216.97 197.27L216.97 185.27L218.33 185.27L218.33 186.66L218.48 186.66Q218.63 186.43 218.90 186.07Q219.16 185.72 219.66 185.44Q220.16 185.16 221.02 185.16Q222.11 185.16 222.94 185.70Q223.77 186.25 224.25 187.26Q224.72 188.27 224.72 189.66Q224.72 191.05 224.25 192.06Q223.78 193.08 222.95 193.63Q222.12 194.19 221.02 194.19Q220.20 194.19 219.69 193.90Q219.18 193.62 218.91 193.25Q218.63 192.89 218.48 192.65L218.38 192.65L218.38 197.27M220.81 192.93Q221.63 192.93 222.18 192.49Q222.73 192.05 223.01 191.30Q223.29 190.55 223.29 189.64Q223.29 188.73 223.02 188Q222.74 187.27 222.19 186.84Q221.64 186.41 220.81 186.41Q220.01 186.41 219.46 186.82Q218.91 187.23 218.64 187.95Q218.36 188.67 218.36 189.64Q218.36 190.61 218.64 191.35Q218.92 192.09 219.47 192.51Q220.02 192.93 220.81 192.93 M229.73 194.19Q228.84 194.19 228.14 193.93Q227.44 193.66 226.98 193.15Q226.53 192.63 226.38 191.88L227.71 191.56Q227.90 192.28 228.42 192.62Q228.94 192.95 229.72 192.95Q230.63 192.95 231.18 192.56Q231.72 192.17 231.72 191.63Q231.72 191.18 231.40 190.88Q231.09 190.58 230.44 190.43L228.98 190.09Q227.80 189.80 227.22 189.21Q226.64 188.63 226.64 187.70Q226.64 186.95 227.06 186.38Q227.48 185.80 228.21 185.48Q228.95 185.16 229.88 185.16Q230.77 185.16 231.40 185.43Q232.03 185.70 232.43 186.17Q232.82 186.64 233.02 187.26L231.74 187.59Q231.56 187.12 231.14 186.73Q230.73 186.35 229.88 186.35Q229.10 186.35 228.58 186.71Q228.06 187.07 228.06 187.62Q228.06 188.10 228.41 188.39Q228.77 188.69 229.53 188.87L230.85 189.18Q232.04 189.46 232.61 190.05Q233.18 190.64 233.18 191.54Q233.18 192.30 232.75 192.90Q232.31 193.50 231.54 193.84Q230.76 194.19 229.73 194.19 M243.27 194.19Q242.08 194.19 241.18 193.63Q240.29 193.06 239.79 192.05Q239.29 191.03 239.29 189.69Q239.29 188.32 239.79 187.30Q240.29 186.28 241.18 185.72Q242.08 185.16 243.27 185.16Q244.46 185.16 245.36 185.72Q246.26 186.28 246.76 187.30Q247.26 188.32 247.26 189.69Q247.26 191.03 246.76 192.05Q246.26 193.06 245.36 193.63Q244.46 194.19 243.27 194.19M243.27 192.93Q244.15 192.93 244.72 192.48Q245.29 192.02 245.56 191.29Q245.84 190.55 245.84 189.69Q245.84 188.82 245.56 188.07Q245.29 187.33 244.72 186.87Q244.15 186.41 243.27 186.41Q242.39 186.41 241.83 186.87Q241.27 187.33 240.99 188.07Q240.72 188.81 240.72 189.69Q240.72 190.55 240.99 191.29Q241.27 192.02 241.83 192.48Q242.39 192.93 243.27 192.93 M253.30 194L251.83 194L248.49 185.27L250.03 185.27L251.89 190.45Q252.19 191.25 252.39 192.05Q252.60 192.85 252.83 193.60L252.31 193.60Q252.54 192.85 252.75 192.05Q252.95 191.25 253.24 190.45L255.10 185.27L256.64 185.27 M261.97 194.19Q260.70 194.19 259.79 193.63Q258.87 193.06 258.37 192.05Q257.88 191.05 257.88 189.70Q257.88 188.36 258.36 187.34Q258.84 186.31 259.73 185.73Q260.62 185.16 261.80 185.16Q262.50 185.16 263.18 185.39Q263.85 185.62 264.40 186.13Q264.95 186.64 265.28 187.48Q265.61 188.31 265.61 189.52L265.61 190.11L258.83 190.11L258.83 188.92L264.85 188.92L264.20 189.36Q264.20 188.50 263.93 187.83Q263.66 187.16 263.13 186.79Q262.59 186.41 261.80 186.41Q261.02 186.41 260.45 186.79Q259.89 187.18 259.59 187.80Q259.30 188.42 259.30 189.13L259.30 189.92Q259.30 190.89 259.63 191.57Q259.97 192.24 260.57 192.59Q261.18 192.94 261.98 192.94Q262.49 192.94 262.91 192.79Q263.34 192.64 263.64 192.34Q263.95 192.04 264.11 191.59L265.47 191.97Q265.27 192.63 264.78 193.13Q264.30 193.63 263.58 193.91Q262.87 194.19 261.97 194.19 M269.03 194L267.63 194L267.63 185.27L268.98 185.27L268.98 186.61L269.08 186.61Q269.32 185.95 269.94 185.54Q270.56 185.14 271.34 185.14Q271.50 185.14 271.71 185.15Q271.93 185.16 272.05 185.16L272.05 186.58Q271.99 186.56 271.74 186.53Q271.49 186.50 271.21 186.50Q270.59 186.50 270.09 186.76Q269.59 187.02 269.31 187.48Q269.03 187.94 269.03 188.53 M277.07 185.27L281.59 185.27L281.59 186.47L277.07 186.47L277.07 185.27M278.38 191.84L278.38 183.19L279.79 183.19L279.79 191.73Q279.79 192.32 280.03 192.59Q280.27 192.86 280.82 192.86Q280.95 192.86 281.16 192.83Q281.37 192.80 281.54 192.77L281.83 193.95Q281.61 194.03 281.33 194.07Q281.05 194.11 280.78 194.11Q279.65 194.11 279.02 193.51Q278.38 192.91 278.38 191.84 M284.79 188.77L284.79 194L283.38 194L283.38 182.36L284.79 182.36L284.79 187.38L284.55 187.38Q284.95 186.17 285.68 185.66Q286.42 185.16 287.41 185.16Q288.30 185.16 288.96 185.52Q289.63 185.88 290 186.61Q290.38 187.34 290.38 188.45L290.38 194L288.96 194L288.96 188.57Q288.96 187.56 288.43 186.99Q287.91 186.42 286.99 186.42Q286.37 186.42 285.87 186.70Q285.37 186.97 285.08 187.49Q284.79 188.02 284.79 188.77 M296.52 194.19Q295.25 194.19 294.33 193.63Q293.41 193.06 292.92 192.05Q292.42 191.05 292.42 189.70Q292.42 188.36 292.91 187.34Q293.39 186.31 294.28 185.73Q295.16 185.16 296.35 185.16Q297.05 185.16 297.72 185.39Q298.40 185.62 298.95 186.13Q299.50 186.64 299.83 187.48Q300.16 188.31 300.16 189.52L300.16 190.11L293.38 190.11L293.38 188.92L299.40 188.92L298.74 189.36Q298.74 188.50 298.47 187.83Q298.20 187.16 297.67 186.79Q297.14 186.41 296.35 186.41Q295.56 186.41 295 186.79Q294.44 187.18 294.14 187.80Q293.84 188.42 293.84 189.13L293.84 189.92Q293.84 190.89 294.18 191.57Q294.52 192.24 295.12 192.59Q295.73 192.94 296.52 192.94Q297.04 192.94 297.46 192.79Q297.88 192.64 298.19 192.34Q298.49 192.04 298.66 191.59L300.02 191.97Q299.81 192.63 299.33 193.13Q298.84 193.63 298.13 193.91Q297.41 194.19 296.52 194.19 M306.67 182.36L308.08 182.36L308.08 194L306.67 194 M312.99 194.20Q312.16 194.20 311.49 193.89Q310.81 193.58 310.41 192.98Q310.02 192.38 310.02 191.52Q310.02 190.77 310.31 190.30Q310.61 189.83 311.11 189.56Q311.60 189.29 312.20 189.16Q312.80 189.02 313.41 188.95Q314.20 188.84 314.69 188.79Q315.18 188.73 315.42 188.60Q315.66 188.47 315.66 188.15L315.66 188.10Q315.66 187.55 315.45 187.18Q315.25 186.80 314.84 186.59Q314.44 186.39 313.83 186.39Q313.20 186.39 312.76 186.59Q312.31 186.78 312.04 187.07Q311.76 187.37 311.62 187.67L310.27 187.23Q310.60 186.43 311.17 185.98Q311.74 185.53 312.43 185.34Q313.12 185.16 313.79 185.16Q314.23 185.16 314.79 185.26Q315.34 185.37 315.86 185.68Q316.38 185.99 316.72 186.61Q317.06 187.22 317.06 188.24L317.06 194L315.68 194L315.68 192.81L315.59 192.81Q315.44 193.12 315.11 193.44Q314.78 193.77 314.26 193.98Q313.73 194.20 312.99 194.20M313.23 192.96Q314.02 192.96 314.55 192.66Q315.09 192.35 315.38 191.86Q315.66 191.38 315.66 190.84L315.66 189.63Q315.57 189.73 315.28 189.82Q314.99 189.90 314.62 189.96Q314.25 190.02 313.90 190.07Q313.55 190.11 313.35 190.13Q312.84 190.20 312.40 190.35Q311.96 190.50 311.70 190.79Q311.43 191.09 311.43 191.59Q311.43 192.04 311.66 192.34Q311.90 192.65 312.30 192.80Q312.71 192.96 313.23 192.96 M326.15 194L319.28 194L319.28 192.95L324.18 186.66L324.18 186.57L319.44 186.57L319.44 185.27L325.99 185.27L325.99 186.38L321.23 192.61L321.23 192.70L326.15 192.70 M328.23 197.16L328.59 195.95L328.73 195.98Q329.16 196.09 329.52 196.04Q329.87 195.99 330.15 195.70Q330.43 195.40 330.64 194.77L330.89 194.05L327.55 185.27L329.09 185.27L330.95 190.45Q331.25 191.26 331.45 192.05Q331.66 192.85 331.88 193.60L331.37 193.60Q331.59 192.85 331.80 192.05Q332.01 191.25 332.30 190.45L334.17 185.27L335.70 185.27L331.87 195.30Q331.60 196 331.23 196.45Q330.86 196.90 330.37 197.11Q329.88 197.33 329.26 197.33Q328.88 197.33 328.61 197.27Q328.34 197.22 328.23 197.16 M345.13 194.19Q344.05 194.19 343.21 193.63Q342.38 193.08 341.91 192.06Q341.44 191.05 341.44 189.66Q341.44 188.27 341.91 187.26Q342.38 186.25 343.22 185.70Q344.05 185.16 345.14 185.16Q345.99 185.16 346.49 185.44Q346.99 185.72 347.26 186.07Q347.53 186.43 347.67 186.66L347.78 186.66L347.78 182.36L349.19 182.36L349.19 194L347.83 194L347.83 192.65L347.67 192.65Q347.53 192.89 347.25 193.25Q346.98 193.62 346.47 193.90Q345.97 194.19 345.13 194.19M345.34 192.93Q346.14 192.93 346.69 192.51Q347.23 192.09 347.52 191.35Q347.80 190.61 347.80 189.64Q347.80 188.67 347.52 187.95Q347.24 187.23 346.70 186.82Q346.15 186.41 345.34 186.41Q344.52 186.41 343.96 186.84Q343.41 187.27 343.14 188Q342.87 188.73 342.87 189.64Q342.87 190.55 343.14 191.30Q343.42 192.05 343.98 192.49Q344.53 192.93 345.34 192.93 M355.21 194.19Q354.02 194.19 353.13 193.63Q352.23 193.06 351.73 192.05Q351.23 191.03 351.23 189.69Q351.23 188.32 351.73 187.30Q352.23 186.28 353.13 185.72Q354.02 185.16 355.21 185.16Q356.41 185.16 357.30 185.72Q358.20 186.28 358.70 187.30Q359.20 188.32 359.20 189.69Q359.20 191.03 358.70 192.05Q358.20 193.06 357.30 193.63Q356.41 194.19 355.21 194.19M355.21 192.93Q356.09 192.93 356.66 192.48Q357.23 192.02 357.51 191.29Q357.78 190.55 357.78 189.69Q357.78 188.82 357.51 188.07Q357.23 187.33 356.66 186.87Q356.09 186.41 355.21 186.41Q354.34 186.41 353.77 186.87Q353.21 187.33 352.94 188.07Q352.66 188.81 352.66 189.69Q352.66 190.55 352.94 191.29Q353.21 192.02 353.77 192.48Q354.34 192.93 355.21 192.93 M364.79 197.45Q363.82 197.45 363.11 197.21Q362.41 196.96 361.94 196.55Q361.47 196.15 361.20 195.67L362.34 194.94Q362.52 195.19 362.80 195.49Q363.08 195.80 363.55 196.01Q364.02 196.23 364.79 196.23Q365.84 196.23 366.51 195.73Q367.19 195.23 367.19 194.15L367.19 192.40L367.05 192.40Q366.91 192.65 366.64 192.99Q366.37 193.34 365.86 193.60Q365.36 193.86 364.52 193.86Q363.47 193.86 362.63 193.36Q361.80 192.87 361.31 191.91Q360.83 190.96 360.83 189.59Q360.83 188.24 361.30 187.25Q361.78 186.25 362.62 185.70Q363.46 185.16 364.55 185.16Q365.39 185.16 365.89 185.43Q366.40 185.71 366.67 186.07Q366.95 186.43 367.09 186.66L367.23 186.66L367.23 185.27L368.59 185.27L368.59 194.23Q368.59 195.35 368.09 196.07Q367.58 196.78 366.71 197.12Q365.85 197.45 364.79 197.45M364.75 192.61Q365.55 192.61 366.09 192.25Q366.64 191.88 366.92 191.20Q367.20 190.52 367.20 189.56Q367.20 188.63 366.93 187.93Q366.65 187.22 366.10 186.82Q365.55 186.41 364.75 186.41Q363.92 186.41 363.37 186.84Q362.81 187.27 362.54 187.98Q362.26 188.69 362.26 189.56Q362.26 190.46 362.54 191.15Q362.82 191.84 363.38 192.22Q363.93 192.61 364.75 192.61 M372.13 194.10Q371.70 194.10 371.39 193.79Q371.08 193.48 371.08 193.05Q371.08 192.61 371.39 192.30Q371.70 191.99 372.13 191.99Q372.57 191.99 372.88 192.30Q373.19 192.61 373.19 193.05Q373.19 193.48 372.88 193.79Q372.57 194.10 372.13 194.10" fill="#3B2A2A"/><path d="M30.34 232L28.34 232L31.90 221.81L34.21 221.81L37.85 232L35.85 232L34.04 226.71Q33.77 225.89 33.48 224.85Q33.20 223.82 32.85 222.50L33.23 222.50Q32.89 223.83 32.61 224.87Q32.33 225.92 32.09 226.71L30.34 232M35.78 229.48L30.41 229.48L30.41 228.01L35.78 228.01 M43.55 232.14Q42.21 232.14 41.16 231.51Q40.11 230.89 39.50 229.72Q38.89 228.55 38.89 226.91Q38.89 225.27 39.50 224.09Q40.11 222.92 41.17 222.30Q42.23 221.68 43.55 221.68Q44.39 221.68 45.11 221.91Q45.84 222.15 46.41 222.60Q46.98 223.06 47.35 223.71Q47.72 224.37 47.84 225.21L46.01 225.21Q45.92 224.75 45.70 224.40Q45.49 224.05 45.17 223.81Q44.84 223.56 44.44 223.44Q44.04 223.31 43.58 223.31Q42.75 223.31 42.10 223.73Q41.45 224.15 41.09 224.96Q40.72 225.76 40.72 226.91Q40.72 228.08 41.09 228.88Q41.46 229.68 42.11 230.09Q42.75 230.50 43.57 230.50Q44.03 230.50 44.43 230.38Q44.84 230.25 45.16 230.01Q45.49 229.76 45.71 229.41Q45.92 229.06 46.01 228.61L47.85 228.61Q47.75 229.34 47.40 229.98Q47.06 230.62 46.50 231.10Q45.94 231.59 45.20 231.86Q44.45 232.14 43.55 232.14 M53.87 232.14Q52.53 232.14 51.47 231.51Q50.42 230.89 49.81 229.72Q49.21 228.55 49.21 226.91Q49.21 225.27 49.82 224.09Q50.43 222.92 51.48 222.30Q52.54 221.68 53.87 221.68Q54.70 221.68 55.43 221.91Q56.16 222.15 56.73 222.60Q57.30 223.06 57.67 223.71Q58.04 224.37 58.16 225.21L56.32 225.21Q56.23 224.75 56.02 224.40Q55.80 224.05 55.48 223.81Q55.16 223.56 54.76 223.44Q54.35 223.31 53.89 223.31Q53.06 223.31 52.41 223.73Q51.77 224.15 51.40 224.96Q51.04 225.76 51.04 226.91Q51.04 228.08 51.41 228.88Q51.78 229.68 52.42 230.09Q53.07 230.50 53.89 230.50Q54.35 230.50 54.75 230.38Q55.15 230.25 55.48 230.01Q55.80 229.76 56.02 229.41Q56.24 229.06 56.32 228.61L58.17 228.61Q58.06 229.34 57.72 229.98Q57.37 230.62 56.81 231.10Q56.25 231.59 55.51 231.86Q54.77 232.14 53.87 232.14 M66.49 232L59.84 232L59.84 221.81L66.46 221.81L66.46 223.35L61.67 223.35L61.67 226.10L66.10 226.10L66.10 227.62L61.67 227.62L61.67 230.46L66.49 230.46 M70.18 232L68.32 232L68.32 221.81L70.38 221.81L73.90 227.43Q74.12 227.78 74.37 228.22Q74.61 228.66 74.88 229.20Q75.15 229.74 75.41 230.41L75.20 230.41Q75.15 229.83 75.12 229.23Q75.08 228.62 75.06 228.08Q75.04 227.54 75.04 227.16L75.04 221.81L76.90 221.81L76.90 232L74.83 232L71.65 226.95Q71.35 226.46 71.08 225.99Q70.81 225.52 70.51 224.92Q70.20 224.33 69.76 223.49L70.02 223.49Q70.06 224.23 70.10 224.90Q70.13 225.57 70.15 226.09Q70.18 226.62 70.18 226.94 M81.63 223.35L78.49 223.35L78.49 221.81L86.60 221.81L86.60 223.35L83.46 223.35L83.46 232L81.63 232 M90.69 227.02L104.69 227.02L104.69 228.49L90.69 228.49 M116.10 232L109.14 232L109.14 230.69L112.67 227.21Q113.17 226.70 113.51 226.30Q113.85 225.90 114.02 225.53Q114.19 225.16 114.19 224.72Q114.19 224.24 113.97 223.89Q113.75 223.54 113.37 223.36Q112.99 223.17 112.51 223.17Q111.99 223.17 111.61 223.37Q111.23 223.58 111.03 223.96Q110.82 224.34 110.82 224.86L109.08 224.86Q109.08 223.90 109.52 223.18Q109.96 222.46 110.74 222.07Q111.51 221.68 112.53 221.68Q113.54 221.68 114.32 222.06Q115.09 222.44 115.52 223.11Q115.95 223.78 115.95 224.63Q115.95 225.20 115.74 225.74Q115.53 226.28 114.98 226.96Q114.43 227.64 113.44 228.60L111.67 230.40L111.67 230.48L116.10 230.48 M121.56 232.14Q120.33 232.14 119.45 231.52Q118.58 230.90 118.11 229.73Q117.65 228.57 117.65 226.91Q117.65 225.26 118.11 224.09Q118.58 222.92 119.45 222.30Q120.33 221.68 121.56 221.68Q122.79 221.68 123.67 222.30Q124.54 222.92 125.01 224.09Q125.47 225.26 125.47 226.91Q125.47 228.57 125.01 229.73Q124.55 230.90 123.68 231.52Q122.80 232.14 121.56 232.14M121.56 230.61Q122.23 230.61 122.69 230.17Q123.15 229.74 123.39 228.91Q123.63 228.09 123.63 226.91Q123.63 225.73 123.39 224.90Q123.15 224.08 122.69 223.64Q122.23 223.20 121.56 223.20Q120.89 223.20 120.43 223.64Q119.97 224.08 119.73 224.90Q119.49 225.73 119.49 226.91Q119.49 228.09 119.72 228.91Q119.96 229.74 120.43 230.17Q120.89 230.61 121.56 230.61 M134.06 232L127.09 232L127.09 230.69L130.63 227.21Q131.13 226.70 131.47 226.30Q131.80 225.90 131.98 225.53Q132.15 225.16 132.15 224.72Q132.15 224.24 131.93 223.89Q131.71 223.54 131.33 223.36Q130.95 223.17 130.46 223.17Q129.95 223.17 129.57 223.37Q129.19 223.58 128.99 223.96Q128.78 224.34 128.78 224.86L127.04 224.86Q127.04 223.90 127.48 223.18Q127.92 222.46 128.70 222.07Q129.47 221.68 130.48 221.68Q131.50 221.68 132.28 222.06Q133.05 222.44 133.48 223.11Q133.91 223.78 133.91 224.63Q133.91 225.20 133.70 225.74Q133.49 226.28 132.94 226.96Q132.39 227.64 131.39 228.60L129.62 230.40L129.62 230.48L134.06 230.48 M139.49 232.14Q138.76 232.14 138.07 231.89Q137.38 231.64 136.82 231.07Q136.26 230.50 135.93 229.55Q135.60 228.60 135.60 227.20Q135.60 225.89 135.88 224.87Q136.16 223.84 136.68 223.13Q137.20 222.42 137.94 222.05Q138.68 221.68 139.60 221.68Q140.55 221.68 141.29 222.05Q142.03 222.43 142.49 223.08Q142.95 223.73 143.06 224.56L141.26 224.56Q141.12 223.97 140.69 223.61Q140.26 223.26 139.60 223.26Q138.89 223.26 138.39 223.67Q137.89 224.09 137.64 224.87Q137.38 225.64 137.38 226.72L137.46 226.72Q137.70 226.28 138.09 225.96Q138.48 225.65 138.96 225.48Q139.45 225.31 139.99 225.31Q140.89 225.31 141.60 225.74Q142.32 226.17 142.73 226.92Q143.15 227.67 143.15 228.64Q143.15 229.63 142.69 230.43Q142.24 231.22 141.41 231.68Q140.59 232.14 139.49 232.14M139.48 230.65Q140.02 230.65 140.45 230.39Q140.88 230.13 141.13 229.68Q141.38 229.22 141.38 228.67Q141.38 228.12 141.14 227.68Q140.90 227.24 140.47 226.98Q140.05 226.72 139.50 226.72Q139.10 226.72 138.75 226.87Q138.40 227.02 138.14 227.30Q137.87 227.57 137.73 227.93Q137.59 228.28 137.59 228.68Q137.59 229.21 137.83 229.66Q138.08 230.11 138.51 230.38Q138.94 230.65 139.48 230.65" fill="#BE185D"/></svg>