<svg xmlns="http://www.w3.org/2000/svg" width="480" height="300" viewBox="0 0 480 300" role="img"><rect width="480" height="300" fill="#F0FDFA"/><rect x="0" y="0" width="240" height="84" fill="#115E59"/><rect x="240" y="0" width="120" height="84" fill="#134E4A"/><rect x="360" y="0" width="72" height="84" fill="#1F2937"/><rect x="432" y="0" width="48" height="84" fill="#0F766E"/><path d="M55.89 154L45.14 154L45.02 152.02L47.68 151.38Q47.77 151.16 47.83 150.30Q47.89 149.45 47.92 148.05Q47.94 146.65 47.94 144.85L47.94 137.97Q47.94 136.08 47.92 134.69Q47.89 133.29 47.83 132.43Q47.77 131.57 47.68 131.40L45.02 130.75L45.14 128.78L55.89 128.78L56.02 130.75L53.35 131.40Q53.27 131.57 53.20 132.47Q53.14 133.38 53.09 134.79Q53.05 136.21 53.05 137.97L53.05 144.85Q53.05 146.52 53.09 147.94Q53.14 149.36 53.20 150.26Q53.27 151.16 53.35 151.38L56.02 152.02L55.89 154M40.42 154L29.72 154L29.59 152.02L32.30 151.38Q32.38 151.16 32.43 150.30Q32.47 149.45 32.51 148.03Q32.55 146.61 32.55 144.85L32.55 137.97Q32.55 136.13 32.51 134.71Q32.47 133.29 32.43 132.41Q32.38 131.53 32.30 131.40L29.59 130.75L29.72 128.78L40.42 128.78L40.55 130.75L37.88 131.40Q37.80 131.57 37.73 132.43Q37.67 133.29 37.65 134.69Q37.63 136.08 37.63 137.97L37.63 144.85Q37.63 146.65 37.65 148.05Q37.67 149.45 37.73 150.30Q37.80 151.16 37.88 151.38L40.55 152.02L40.42 154M36.85 142.61L36.85 139.56Q37.80 139.69 39.24 139.73Q40.68 139.78 42.82 139.78Q44.97 139.78 46.37 139.73Q47.77 139.69 48.71 139.56L48.71 142.61Q47.81 142.53 46.43 142.48Q45.06 142.44 42.82 142.44Q40.55 142.44 39.15 142.48Q37.75 142.53 36.85 142.61 M68.52 154.34Q65.86 154.34 63.73 153.14Q61.60 151.94 60.40 149.81Q59.20 147.68 59.20 144.93Q59.20 141.93 60.53 139.67Q61.86 137.41 64.01 136.15Q66.16 134.88 68.61 134.92Q72.34 134.96 74.30 137.29Q76.25 139.61 76.25 143.34L76.25 144.29L63.54 144.29L63.54 142.14L72.52 142.14L71.91 143.04L71.91 141.75Q71.91 139.61 70.95 138.36Q69.98 137.11 68.26 137.11Q67.14 137.11 66.20 137.76Q65.25 138.40 64.70 139.69Q64.14 140.98 64.14 142.91L64.14 143.69Q64.14 146.87 65.79 148.76Q67.45 150.65 70.20 150.65Q71.66 150.65 72.84 150.11Q74.02 149.57 75.18 148.24L76.43 149.36Q75.22 151.85 73.14 153.10Q71.05 154.34 68.52 154.34 M85.71 154.34Q83.77 154.34 82.38 153.53Q80.98 152.71 80.25 151.55Q79.52 150.39 79.52 149.32Q79.52 147.81 80.46 146.80Q81.41 145.79 83.47 145.15L90.18 143.09L90.18 141.32Q90.18 140.38 89.57 139.56Q88.97 138.75 87.98 138.23Q87 137.71 85.84 137.71Q85.02 137.71 84.70 138.08Q84.38 138.45 84.29 139.52L84.12 141.84Q82.18 142.27 80.92 141.73Q79.65 141.20 79.65 139.95Q79.65 139.18 80.42 138.36Q81.20 137.54 82.38 136.81Q83.56 136.08 84.85 135.57Q86.14 135.05 87.21 134.92Q90.82 134.92 92.95 136.64Q95.07 138.36 95.12 141.24L94.99 147.60Q94.99 148.67 95.05 149.38Q95.12 150.09 95.29 150.52L98.08 151.04L98.08 152.67L95.55 153.74Q94.82 154.04 94.21 154.19Q93.61 154.34 93.10 154.34Q91.55 154.34 90.95 152.71L90.30 150.82L91.12 150.99Q89.79 152.58 88.41 153.46Q87.04 154.34 85.71 154.34M87.55 150.91Q88.29 150.91 88.95 150.61Q89.62 150.30 90.18 149.66L90.18 145.36L86.61 146.14Q85.58 146.35 85.13 146.87Q84.68 147.38 84.68 148.24Q84.68 149.27 85.51 150.09Q86.35 150.91 87.55 150.91 M121.67 152.75L114.93 154.52L113.94 153.91L113.98 151.16L113.85 151.12Q112.69 152.93 111.34 153.66Q109.98 154.39 108.57 154.39Q106.25 154.39 104.31 153.23Q102.38 152.07 101.24 150.03Q100.10 147.98 100.10 145.28Q100.10 142.87 100.96 140.96Q101.82 139.05 103.30 137.71Q104.79 136.38 106.59 135.67Q108.39 134.96 110.24 134.96Q111.19 134.96 112.18 135.16Q113.16 135.35 113.81 135.74Q113.81 134.96 113.79 133.87Q113.77 132.77 113.74 131.66Q113.72 130.54 113.70 129.64Q113.68 128.73 113.64 128.30L110.37 127.79L110.29 126.07L117.85 124.09L118.88 124.78Q118.75 127.45 118.66 129.79Q118.58 132.13 118.58 134.71L118.54 144.63Q118.54 146.82 118.66 148.24Q118.79 149.66 118.88 150.39L121.67 151.04L121.67 152.75M110.29 150.69Q111.14 150.69 112.09 150.22Q113.04 149.75 113.85 148.63L113.85 139.22Q113.16 138.19 112.22 137.76Q111.27 137.33 110.33 137.33Q108.09 137.33 106.70 139.09Q105.30 140.85 105.30 143.90Q105.30 147.17 106.76 148.93Q108.22 150.69 110.29 150.69 M133.88 154L123.05 154L122.92 152.11L125.80 151.46Q125.84 151.29 125.88 150.73Q125.93 150.18 125.97 149.25Q126.01 148.33 126.01 147.08L126.05 143.82Q126.05 142.48 125.97 141.35Q125.88 140.21 125.67 139.22L122.79 138.62L122.79 136.86L130.14 135.01L131.13 135.74Q131 137.07 130.93 138.42Q130.87 139.78 130.87 141.54L130.87 146.95Q130.87 148.54 130.93 149.83Q131 151.12 131.13 151.46L134 152.11L133.88 154M128.50 131.01Q127 131.01 126.10 130.09Q125.20 129.16 125.20 127.88Q125.20 126.63 126.10 125.68Q127 124.74 128.50 124.74Q130.01 124.74 130.87 125.68Q131.73 126.63 131.73 127.88Q131.73 129.16 130.87 130.09Q130.01 131.01 128.50 131.01 M145.86 154L135.51 154L135.38 152.15L138.04 151.46Q138.09 151.29 138.13 150.76Q138.17 150.22 138.21 149.29Q138.26 148.37 138.26 147.08L138.30 143.82Q138.30 142.44 138.21 141.32Q138.13 140.21 137.91 139.22L135.16 138.62L135.16 136.86L142.17 135.01L143.20 135.74L142.94 138.14L143.07 138.19Q144.45 136.55 146.01 135.74Q147.58 134.92 149.34 134.92Q151.11 134.92 152.54 135.80Q153.98 136.68 154.84 138.40Q155.70 140.12 155.70 142.61L155.70 147.08Q155.70 148.54 155.75 149.81Q155.79 151.08 155.92 151.46L158.58 152.15L158.45 154L148.36 154L148.23 152.15L150.72 151.46Q150.80 151.12 150.85 150.48Q150.89 149.83 150.91 148.97Q150.93 148.11 150.93 147.21L150.93 143.26Q150.93 141.58 150.40 140.53Q149.86 139.48 149 138.98Q148.14 138.49 147.11 138.49Q145.91 138.49 144.88 139.03Q143.84 139.56 143.07 140.59L143.07 146.95Q143.07 148.59 143.13 149.85Q143.20 151.12 143.33 151.46L145.99 152.15 M169.37 163.80Q165.03 163.80 162.56 162.53Q160.09 161.26 160.09 159.11Q160.09 157.65 161.46 156.43Q162.84 155.20 165.46 154.26L167.26 154.52Q166.10 155.29 165.44 156.28Q164.77 157.27 164.77 158.38Q164.77 159.89 166.06 160.75Q167.35 161.61 169.71 161.61Q172.20 161.61 173.81 160.53Q175.43 159.46 175.43 157.82Q175.43 156.62 174.54 156.02Q173.66 155.42 171.52 155.25L166.45 154.82L165.97 154.60Q164 154.60 162.81 153.79Q161.63 152.97 161.63 151.64Q161.63 150.35 162.92 149.19Q164.21 148.03 166.45 147.30L167.09 148.07Q166.49 148.46 166.17 148.84Q165.84 149.23 165.84 149.62Q165.84 150.13 166.23 150.46Q166.62 150.78 167.35 150.86L173.54 151.46Q176.71 151.77 178.28 153.10Q179.85 154.43 179.85 156.66Q179.85 158.64 178.48 160.27Q177.10 161.91 174.74 162.85Q172.38 163.80 169.37 163.80M169.63 148.84Q167.13 148.84 165.24 147.98Q163.35 147.13 162.30 145.60Q161.25 144.07 161.25 142.10Q161.25 139.99 162.36 138.38Q163.48 136.77 165.39 135.82Q167.30 134.88 169.71 134.88Q172.07 134.88 173.92 135.82Q175.77 136.77 176.84 138.36Q177.92 139.95 177.92 141.97Q177.92 143.95 176.84 145.51Q175.77 147.08 173.90 147.96Q172.03 148.84 169.63 148.84M169.93 146.61Q171.39 146.61 172.25 145.41Q173.11 144.20 173.11 142.14Q173.11 139.86 172.16 138.49Q171.21 137.11 169.67 137.11Q168.21 137.11 167.30 138.40Q166.40 139.69 166.40 141.80Q166.40 143.95 167.37 145.28Q168.34 146.61 169.93 146.61M180.37 135.35L180.37 138.57L174.78 138.06L173.19 136.17" fill="#1F2937"/><path d="M33.47 194L32.14 194L32.14 183.84L28.16 183.84L28.16 182.72L37.44 182.72L37.44 183.84L33.47 183.84 M40.22 194L38.93 194L38.93 182.22L40.22 182.22L40.22 187.74L40.02 187.74Q40.35 186.80 41.14 186.31Q41.94 185.82 42.98 185.82Q44.42 185.82 45.12 186.60Q45.82 187.38 45.82 188.94L45.82 194L44.53 194L44.53 189.02Q44.53 187.90 44.09 187.39Q43.65 186.88 42.67 186.88Q41.55 186.88 40.89 187.57Q40.22 188.26 40.22 189.38 M51.87 194.14Q49.98 194.14 48.90 193.05Q47.81 191.95 47.81 190Q47.81 188.74 48.29 187.80Q48.77 186.86 49.63 186.34Q50.50 185.82 51.62 185.82Q52.72 185.82 53.47 186.29Q54.22 186.75 54.62 187.61Q55.02 188.46 55.02 189.63L55.02 190.11L48.80 190.11L48.80 189.30L54.18 189.30L53.90 189.50Q53.90 188.22 53.33 187.50Q52.75 186.78 51.62 186.78Q50.42 186.78 49.74 187.62Q49.07 188.46 49.07 189.89L49.07 190.03Q49.07 191.54 49.82 192.31Q50.56 193.09 51.90 193.09Q52.62 193.09 53.26 192.87Q53.89 192.66 54.46 192.16L54.91 193.07Q54.38 193.58 53.58 193.86Q52.77 194.14 51.87 194.14 M68.27 197.46L66.98 197.46L66.98 192.11L67.15 192.11Q66.90 193.06 66.10 193.60Q65.30 194.14 64.24 194.14Q63.17 194.14 62.37 193.64Q61.57 193.14 61.13 192.21Q60.69 191.28 60.69 189.98Q60.69 188.67 61.13 187.74Q61.57 186.82 62.37 186.32Q63.17 185.82 64.24 185.82Q65.33 185.82 66.12 186.38Q66.91 186.93 67.17 187.87L66.98 187.87L67.15 185.97L68.40 185.97Q68.35 186.43 68.31 186.90Q68.27 187.38 68.27 187.82L68.27 197.46M64.50 193.09Q65.65 193.09 66.32 192.30Q66.99 191.50 66.99 189.98Q66.99 188.45 66.32 187.66Q65.65 186.86 64.50 186.86Q63.36 186.86 62.68 187.66Q62 188.45 62 189.98Q62 191.50 62.68 192.30Q63.36 193.09 64.50 193.09 M73.62 194.14Q72.19 194.14 71.46 193.36Q70.74 192.58 70.74 190.96L70.74 185.97L72.03 185.97L72.03 190.93Q72.03 192.03 72.48 192.55Q72.93 193.07 73.87 193.07Q74.93 193.07 75.57 192.38Q76.21 191.70 76.21 190.54L76.21 185.97L77.50 185.97L77.50 194L76.24 194L76.24 192.19L76.45 192.19Q76.11 193.12 75.37 193.63Q74.62 194.14 73.62 194.14 M81.31 194L80.02 194L80.02 185.97L81.31 185.97L81.31 194M81.46 184.14L79.86 184.14L79.86 182.69L81.46 182.69 M87.20 194.14Q86.02 194.14 85.14 193.63Q84.27 193.12 83.80 192.18Q83.33 191.23 83.33 189.94Q83.33 188.62 83.81 187.70Q84.29 186.78 85.16 186.30Q86.03 185.82 87.20 185.82Q87.97 185.82 88.70 186.10Q89.42 186.37 89.90 186.86L89.44 187.79Q88.96 187.33 88.39 187.10Q87.82 186.88 87.28 186.88Q86.03 186.88 85.34 187.66Q84.66 188.45 84.66 189.95Q84.66 191.44 85.34 192.26Q86.03 193.07 87.28 193.07Q87.81 193.07 88.38 192.86Q88.94 192.66 89.44 192.18L89.90 193.09Q89.41 193.60 88.67 193.87Q87.94 194.14 87.20 194.14 M93.04 194L91.74 194L91.74 182.22L93.04 182.22L93.04 189.54L93.07 189.54L96.80 185.97L98.43 185.97L94.03 190.16L94.06 189.50L98.85 194L97.17 194L93.07 190.22L93.04 190.22 M108.19 194.14Q107.10 194.14 106.32 193.59Q105.54 193.04 105.26 192.08L105.44 192.08L105.44 194L104.16 194L104.16 182.22L105.46 182.22L105.46 187.84L105.26 187.84Q105.54 186.91 106.32 186.37Q107.10 185.82 108.19 185.82Q109.28 185.82 110.07 186.33Q110.86 186.83 111.30 187.76Q111.74 188.69 111.74 189.98Q111.74 191.28 111.30 192.21Q110.85 193.14 110.06 193.64Q109.26 194.14 108.19 194.14M107.92 193.09Q109.06 193.09 109.74 192.30Q110.43 191.52 110.43 189.98Q110.43 188.45 109.74 187.66Q109.06 186.86 107.92 186.86Q106.78 186.86 106.10 187.66Q105.42 188.45 105.42 189.98Q105.42 191.50 106.10 192.30Q106.78 193.09 107.92 193.09 M115.04 194L113.73 194L113.73 187.90Q113.73 187.42 113.70 186.93Q113.68 186.43 113.63 185.97L114.88 185.97L115.04 187.92L114.82 187.94Q114.98 187.22 115.38 186.75Q115.78 186.29 116.32 186.06Q116.86 185.82 117.46 185.82Q117.70 185.82 117.88 185.84Q118.06 185.86 118.22 185.92L118.21 187.07Q117.97 186.99 117.77 186.97Q117.57 186.94 117.31 186.94Q116.61 186.94 116.09 187.28Q115.57 187.62 115.30 188.14Q115.04 188.67 115.04 189.26 M122.77 194.14Q121.62 194.14 120.76 193.64Q119.90 193.14 119.44 192.20Q118.98 191.26 118.98 189.98Q118.98 188.69 119.44 187.76Q119.90 186.83 120.76 186.33Q121.62 185.82 122.77 185.82Q123.94 185.82 124.79 186.33Q125.65 186.83 126.12 187.76Q126.59 188.69 126.59 189.98Q126.59 191.26 126.12 192.20Q125.65 193.14 124.79 193.64Q123.94 194.14 122.77 194.14M122.77 193.09Q123.92 193.09 124.59 192.30Q125.26 191.50 125.26 189.98Q125.26 188.45 124.58 187.66Q123.90 186.86 122.77 186.86Q121.63 186.86 120.96 187.66Q120.29 188.45 120.29 189.98Q120.29 191.50 120.96 192.30Q121.63 193.09 122.77 193.09 M131.90 194L130.64 194L127.66 185.97L129.04 185.97L131.52 193.04L131.10 193.04L133.66 185.97L134.78 185.97L137.30 193.04L136.90 193.04L139.39 185.97L140.70 185.97L137.71 194L136.46 194L133.87 186.82L134.51 186.82 M143.70 194L142.40 194L142.40 187.82Q142.40 187.38 142.36 186.90Q142.32 186.43 142.27 185.97L143.52 185.97L143.68 187.73L143.49 187.73Q143.84 186.80 144.62 186.31Q145.39 185.82 146.42 185.82Q147.84 185.82 148.57 186.58Q149.30 187.34 149.30 188.98L149.30 194L148 194L148 189.06Q148 187.92 147.54 187.40Q147.09 186.88 146.13 186.88Q145.01 186.88 144.35 187.57Q143.70 188.26 143.70 189.41 M157.66 194L156.37 194L156.37 186.98L154.80 186.98L154.80 185.97L156.72 185.97L156.37 186.30L156.37 184.96Q156.37 183.60 157.06 182.88Q157.74 182.16 159.02 182.16Q159.34 182.16 159.69 182.22Q160.03 182.27 160.26 182.37L160.26 183.44Q160.06 183.36 159.78 183.30Q159.50 183.25 159.22 183.25Q158.72 183.25 158.37 183.45Q158.02 183.65 157.84 184.05Q157.66 184.45 157.66 185.07L157.66 186.24L157.46 185.97L159.90 185.97L159.90 186.98L157.66 186.98 M164.43 194.14Q163.28 194.14 162.42 193.64Q161.57 193.14 161.10 192.20Q160.64 191.26 160.64 189.98Q160.64 188.69 161.10 187.76Q161.57 186.83 162.42 186.33Q163.28 185.82 164.43 185.82Q165.60 185.82 166.46 186.33Q167.31 186.83 167.78 187.76Q168.26 188.69 168.26 189.98Q168.26 191.26 167.78 192.20Q167.31 193.14 166.46 193.64Q165.60 194.14 164.43 194.14M164.43 193.09Q165.58 193.09 166.26 192.30Q166.93 191.50 166.93 189.98Q166.93 188.45 166.25 187.66Q165.57 186.86 164.43 186.86Q163.30 186.86 162.62 187.66Q161.95 188.45 161.95 189.98Q161.95 191.50 162.62 192.30Q163.30 193.09 164.43 193.09 M170.56 194L169.01 194L172.61 189.54L172.61 190.18L169.20 185.97L170.77 185.97L173.34 189.25L172.88 189.25L175.44 185.97L176.99 185.97L173.63 190.16L173.63 189.57L177.20 194L175.62 194L172.86 190.50L173.34 190.50 M181.78 197.52Q181.55 197.52 181.22 197.46Q180.88 197.41 180.66 197.33L180.66 196.24Q180.85 196.30 181.10 196.36Q181.36 196.42 181.58 196.42Q182.26 196.42 182.58 195.99Q182.91 195.57 182.91 194.61L182.91 185.97L184.21 185.97L184.21 194.74Q184.21 196.11 183.61 196.82Q183.01 197.52 181.78 197.52M184.35 184.14L182.77 184.14L182.77 182.69L184.35 182.69 M189.47 194.14Q188.05 194.14 187.32 193.36Q186.59 192.58 186.59 190.96L186.59 185.97L187.89 185.97L187.89 190.93Q187.89 192.03 188.34 192.55Q188.78 193.07 189.73 193.07Q190.78 193.07 191.42 192.38Q192.06 191.70 192.06 190.54L192.06 185.97L193.36 185.97L193.36 194L192.10 194L192.10 192.19L192.30 192.19Q191.97 193.12 191.22 193.63Q190.48 194.14 189.47 194.14 M197.17 194L195.87 194L195.87 187.82Q195.87 187.38 195.83 186.90Q195.79 186.43 195.74 185.97L196.99 185.97L197.15 187.73L196.96 187.73Q197.28 186.82 197.98 186.32Q198.67 185.82 199.66 185.82Q200.67 185.82 201.30 186.30Q201.94 186.78 202.16 187.79L201.92 187.79Q202.22 186.88 202.99 186.35Q203.76 185.82 204.78 185.82Q206.11 185.82 206.78 186.58Q207.46 187.34 207.46 188.98L207.46 194L206.16 194L206.16 189.06Q206.16 187.92 205.76 187.40Q205.36 186.88 204.48 186.88Q203.47 186.88 202.89 187.58Q202.30 188.27 202.30 189.44L202.30 194L201.01 194L201.01 189.06Q201.01 187.92 200.61 187.40Q200.21 186.88 199.33 186.88Q198.32 186.88 197.74 187.58Q197.17 188.27 197.17 189.44 M211.22 197.46L209.92 197.46L209.92 187.82Q209.92 187.38 209.88 186.90Q209.84 186.43 209.79 185.97L211.04 185.97L211.22 187.87L211.02 187.87Q211.28 186.93 212.06 186.38Q212.85 185.82 213.94 185.82Q215.02 185.82 215.82 186.32Q216.61 186.82 217.06 187.74Q217.50 188.67 217.50 189.98Q217.50 191.28 217.06 192.21Q216.62 193.14 215.82 193.64Q215.02 194.14 213.94 194.14Q212.86 194.14 212.08 193.60Q211.30 193.06 211.04 192.11L211.22 192.11L211.22 197.46M213.68 193.09Q214.83 193.09 215.51 192.30Q216.19 191.50 216.19 189.98Q216.19 188.45 215.51 187.66Q214.83 186.86 213.68 186.86Q212.54 186.86 211.86 187.66Q211.18 188.45 211.18 189.98Q211.18 191.50 211.86 192.30Q212.54 193.09 213.68 193.09 M222.19 194.14Q221.23 194.14 220.40 193.88Q219.57 193.62 219.02 193.14L219.47 192.22Q220.06 192.69 220.76 192.91Q221.46 193.14 222.21 193.14Q223.17 193.14 223.66 192.79Q224.14 192.45 224.14 191.84Q224.14 191.38 223.83 191.10Q223.52 190.82 222.82 190.66L221.33 190.35Q220.30 190.13 219.79 189.59Q219.28 189.06 219.28 188.22Q219.28 187.52 219.65 186.98Q220.02 186.45 220.72 186.14Q221.42 185.82 222.37 185.82Q223.25 185.82 223.99 186.09Q224.74 186.35 225.23 186.85L224.77 187.74Q224.29 187.28 223.67 187.05Q223.06 186.82 222.40 186.82Q221.46 186.82 220.98 187.19Q220.51 187.57 220.51 188.18Q220.51 188.64 220.81 188.94Q221.10 189.23 221.73 189.38L223.22 189.68Q224.30 189.92 224.84 190.42Q225.38 190.93 225.38 191.78Q225.38 192.50 224.98 193.03Q224.58 193.57 223.86 193.86Q223.15 194.14 222.19 194.14 M234.93 194.14Q233.78 194.14 232.92 193.64Q232.06 193.14 231.60 192.20Q231.14 191.26 231.14 189.98Q231.14 188.69 231.60 187.76Q232.06 186.83 232.92 186.33Q233.78 185.82 234.93 185.82Q236.10 185.82 236.95 186.33Q237.81 186.83 238.28 187.76Q238.75 188.69 238.75 189.98Q238.75 191.26 238.28 192.20Q237.81 193.14 236.95 193.64Q236.10 194.14 234.93 194.14M234.93 193.09Q236.08 193.09 236.75 192.30Q237.42 191.50 237.42 189.98Q237.42 188.45 236.74 187.66Q236.06 186.86 234.93 186.86Q233.79 186.86 233.12 187.66Q232.45 188.45 232.45 189.98Q232.45 191.50 233.12 192.30Q233.79 193.09 234.93 193.09 M244.26 194L243.02 194L239.58 185.97L240.99 185.97L243.87 193.04L243.44 193.04L246.35 185.97L247.70 185.97 M252.61 194.14Q250.72 194.14 249.63 193.05Q248.54 191.95 248.54 190Q248.54 188.74 249.02 187.80Q249.50 186.86 250.37 186.34Q251.23 185.82 252.35 185.82Q253.46 185.82 254.21 186.29Q254.96 186.75 255.36 187.61Q255.76 188.46 255.76 189.63L255.76 190.11L249.54 190.11L249.54 189.30L254.91 189.30L254.64 189.50Q254.64 188.22 254.06 187.50Q253.49 186.78 252.35 186.78Q251.15 186.78 250.48 187.62Q249.81 188.46 249.81 189.89L249.81 190.03Q249.81 191.54 250.55 192.31Q251.30 193.09 252.64 193.09Q253.36 193.09 253.99 192.87Q254.62 192.66 255.20 192.16L255.65 193.07Q255.12 193.58 254.31 193.86Q253.50 194.14 252.61 194.14 M259.02 194L257.71 194L257.71 187.90Q257.71 187.42 257.69 186.93Q257.66 186.43 257.62 185.97L258.86 185.97L259.02 187.92L258.80 187.94Q258.96 187.22 259.36 186.75Q259.76 186.29 260.30 186.06Q260.85 185.82 261.44 185.82Q261.68 185.82 261.86 185.84Q262.05 185.86 262.21 185.92L262.19 187.07Q261.95 186.99 261.75 186.97Q261.55 186.94 261.30 186.94Q260.59 186.94 260.07 187.28Q259.55 187.62 259.29 188.14Q259.02 188.67 259.02 189.26 M270.58 194.14Q269.39 194.14 268.77 193.46Q268.14 192.78 268.14 191.41L268.14 186.98L266.58 186.98L266.58 185.97L268.14 185.97L268.14 183.78L269.44 183.41L269.44 185.97L271.74 185.97L271.74 186.98L269.44 186.98L269.44 191.26Q269.44 192.22 269.77 192.63Q270.10 193.04 270.75 193.04Q271.06 193.04 271.30 192.98Q271.54 192.93 271.73 192.85L271.73 193.94Q271.50 194.03 271.19 194.09Q270.88 194.14 270.58 194.14 M274.62 194L273.33 194L273.33 182.22L274.62 182.22L274.62 187.74L274.42 187.74Q274.75 186.80 275.54 186.31Q276.34 185.82 277.38 185.82Q278.82 185.82 279.52 186.60Q280.22 187.38 280.22 188.94L280.22 194L278.93 194L278.93 189.02Q278.93 187.90 278.49 187.39Q278.05 186.88 277.07 186.88Q275.95 186.88 275.29 187.57Q274.62 188.26 274.62 189.38 M286.27 194.14Q284.38 194.14 283.30 193.05Q282.21 191.95 282.21 190Q282.21 188.74 282.69 187.80Q283.17 186.86 284.03 186.34Q284.90 185.82 286.02 185.82Q287.12 185.82 287.87 186.29Q288.62 186.75 289.02 187.61Q289.42 188.46 289.42 189.63L289.42 190.11L283.20 190.11L283.20 189.30L288.58 189.30L288.30 189.50Q288.30 188.22 287.73 187.50Q287.15 186.78 286.02 186.78Q284.82 186.78 284.14 187.62Q283.47 188.46 283.47 189.89L283.47 190.03Q283.47 191.54 284.22 192.31Q284.96 193.09 286.30 193.09Q287.02 193.09 287.66 192.87Q288.29 192.66 288.86 192.16L289.31 193.07Q288.78 193.58 287.98 193.86Q287.17 194.14 286.27 194.14 M296.88 194L295.58 194L295.58 182.22L296.88 182.22 M302.45 194.14Q301.38 194.14 300.58 193.64Q299.78 193.14 299.34 192.21Q298.90 191.28 298.90 189.98Q298.90 188.67 299.34 187.74Q299.78 186.82 300.58 186.32Q301.38 185.82 302.45 185.82Q303.54 185.82 304.33 186.38Q305.12 186.93 305.38 187.87L305.18 187.87L305.36 185.97L306.61 185.97Q306.56 186.43 306.52 186.90Q306.48 187.38 306.48 187.82L306.48 194L305.18 194L305.18 192.11L305.36 192.11Q305.10 193.06 304.30 193.60Q303.50 194.14 302.45 194.14M302.70 193.09Q303.86 193.09 304.53 192.30Q305.20 191.50 305.20 189.98Q305.20 188.45 304.53 187.66Q303.86 186.86 302.70 186.86Q301.57 186.86 300.89 187.66Q300.21 188.45 300.21 189.98Q300.21 191.50 300.89 192.30Q301.57 193.09 302.70 193.09 M315.33 194L308.53 194L308.53 193.14L313.94 186.64L313.95 186.98L308.53 186.98L308.53 185.97L315.15 185.97L315.15 186.83L309.68 193.36L309.66 192.99L315.33 192.99 M316.88 197.63L316.58 196.56Q317.33 196.38 317.83 196.15Q318.34 195.92 318.67 195.54Q319.01 195.15 319.25 194.58L319.66 193.63L319.63 194.18L316.13 185.97L317.54 185.97L320.43 193.02L320.02 193.02L322.88 185.97L324.24 185.97L320.53 194.67Q320.21 195.44 319.82 195.96Q319.44 196.48 319 196.81Q318.56 197.14 318.03 197.33Q317.50 197.52 316.88 197.63 M332.91 194.14Q331.86 194.14 331.06 193.64Q330.26 193.14 329.82 192.21Q329.38 191.28 329.38 189.98Q329.38 188.67 329.82 187.74Q330.26 186.82 331.06 186.32Q331.86 185.82 332.91 185.82Q334 185.82 334.79 186.37Q335.58 186.91 335.86 187.84L335.66 187.84L335.66 182.22L336.96 182.22L336.96 194L335.68 194L335.68 192.08L335.86 192.08Q335.60 193.04 334.80 193.59Q334 194.14 332.91 194.14M333.18 193.09Q334.32 193.09 335.01 192.30Q335.70 191.50 335.70 189.98Q335.70 188.45 335.01 187.66Q334.32 186.86 333.18 186.86Q332.05 186.86 331.37 187.66Q330.69 188.45 330.69 189.98Q330.69 191.50 331.37 192.30Q332.05 193.09 333.18 193.09 M342.77 194.14Q341.62 194.14 340.76 193.64Q339.90 193.14 339.44 192.20Q338.98 191.26 338.98 189.98Q338.98 188.69 339.44 187.76Q339.90 186.83 340.76 186.33Q341.62 185.82 342.77 185.82Q343.94 185.82 344.79 186.33Q345.65 186.83 346.12 187.76Q346.59 188.69 346.59 189.98Q346.59 191.26 346.12 192.20Q345.65 193.14 344.79 193.64Q343.94 194.14 342.77 194.14M342.77 193.09Q343.92 193.09 344.59 192.30Q345.26 191.50 345.26 189.98Q345.26 188.45 344.58 187.66Q343.90 186.86 342.77 186.86Q341.63 186.86 340.96 187.66Q340.29 188.45 340.29 189.98Q340.29 191.50 340.96 192.30Q341.63 193.09 342.77 193.09 M352.14 197.57Q351.10 197.57 350.22 197.31Q349.34 197.06 348.64 196.53L349.02 195.55Q349.52 195.90 350 196.11Q350.48 196.32 350.99 196.42Q351.50 196.53 352.08 196.53Q353.26 196.53 353.87 195.90Q354.48 195.28 354.48 194.13L354.48 191.78L354.64 191.78Q354.38 192.72 353.58 193.27Q352.78 193.82 351.71 193.82Q350.61 193.82 349.80 193.34Q348.99 192.85 348.55 191.94Q348.11 191.04 348.11 189.81Q348.11 188.59 348.55 187.70Q348.99 186.80 349.80 186.31Q350.61 185.82 351.71 185.82Q352.80 185.82 353.59 186.37Q354.38 186.91 354.64 187.87L354.48 187.71L354.62 185.97L355.89 185.97Q355.82 186.43 355.79 186.90Q355.76 187.38 355.76 187.82L355.76 193.95Q355.76 195.74 354.84 196.66Q353.92 197.57 352.14 197.57M351.95 192.77Q353.12 192.77 353.79 191.99Q354.46 191.22 354.46 189.81Q354.46 188.40 353.79 187.63Q353.12 186.86 351.95 186.86Q350.80 186.86 350.11 187.63Q349.42 188.40 349.42 189.81Q349.42 191.22 350.11 191.99Q350.80 192.77 351.95 192.77 M359.63 194L358 194L358 192.37L359.63 192.37" fill="#1F2937"/><path d="M29.61 232L28.14 232L32.54 222.13L33.78 222.13L38.25 232L36.75 232L35.53 229.20L36.15 229.59L30.17 229.59L30.83 229.20L29.61 232M33.19 223.73L33.14 223.73L31.01 228.75L30.67 228.43L35.64 228.43L35.36 228.75 M43.79 232.13Q42.28 232.13 41.22 231.51Q40.15 230.89 39.59 229.75Q39.02 228.61 39.02 227.06Q39.02 225.50 39.59 224.37Q40.15 223.24 41.22 222.62Q42.28 222 43.79 222Q44.84 222 45.67 222.31Q46.49 222.62 47.11 223.21L46.61 224.37Q45.93 223.80 45.30 223.54Q44.66 223.29 43.82 223.29Q42.22 223.29 41.38 224.27Q40.54 225.25 40.54 227.06Q40.54 228.86 41.38 229.85Q42.22 230.84 43.82 230.84Q44.66 230.84 45.30 230.59Q45.93 230.33 46.61 229.75L47.11 230.91Q46.49 231.50 45.67 231.81Q44.84 232.13 43.79 232.13 M53.07 232.13Q51.56 232.13 50.50 231.51Q49.43 230.89 48.87 229.75Q48.30 228.61 48.30 227.06Q48.30 225.50 48.87 224.37Q49.43 223.24 50.50 222.62Q51.56 222 53.07 222Q54.12 222 54.95 222.31Q55.78 222.62 56.39 223.21L55.89 224.37Q55.22 223.80 54.58 223.54Q53.94 223.29 53.10 223.29Q51.51 223.29 50.67 224.27Q49.83 225.25 49.83 227.06Q49.83 228.86 50.67 229.85Q51.51 230.84 53.10 230.84Q53.94 230.84 54.58 230.59Q55.22 230.33 55.89 229.75L56.39 230.91Q55.78 231.50 54.95 231.81Q54.12 232.13 53.07 232.13 M64.69 232L58.23 232L58.23 222.13L64.69 222.13L64.69 223.29L59.64 223.29L59.64 226.40L64.37 226.40L64.37 227.58L59.64 227.58L59.64 230.82L64.69 230.82 M67.86 232L66.50 232L66.50 222.13L67.62 222.13L73.68 230.08L73.33 230.08L73.33 222.13L74.69 222.13L74.69 232L73.58 232L67.54 224.05L67.86 224.05 M80.82 232L79.37 232L79.37 223.35L75.99 223.35L75.99 222.13L84.20 222.13L84.20 223.35L80.82 223.35 M102.27 228.60L88.13 228.60L88.13 227.72L102.27 227.72 M113.71 232L107.17 232L107.17 230.92L110.56 227.38Q111.22 226.69 111.54 226.09Q111.86 225.49 111.86 224.85Q111.86 224.05 111.36 223.64Q110.87 223.24 109.93 223.24Q109.19 223.24 108.53 223.50Q107.88 223.77 107.28 224.31L106.78 223.21Q107.37 222.66 108.24 222.33Q109.12 222 110.10 222Q111.64 222 112.47 222.70Q113.30 223.40 113.30 224.71Q113.30 225.63 112.85 226.48Q112.41 227.32 111.51 228.22L108.58 231.17L108.58 230.78L113.71 230.78 M118.61 232.13Q116.90 232.13 115.98 230.82Q115.07 229.51 115.07 227.06Q115.07 224.57 115.98 223.28Q116.90 222 118.61 222Q120.33 222 121.24 223.28Q122.15 224.57 122.15 227.04Q122.15 229.51 121.23 230.82Q120.32 232.13 118.61 232.13M118.61 230.91Q119.69 230.91 120.21 229.97Q120.74 229.03 120.74 227.04Q120.74 225.04 120.21 224.13Q119.69 223.21 118.61 223.21Q117.54 223.21 117.01 224.13Q116.48 225.04 116.48 227.03Q116.48 229.03 117.02 229.97Q117.56 230.91 118.61 230.91 M130.51 232L123.97 232L123.97 230.92L127.36 227.38Q128.02 226.69 128.34 226.09Q128.66 225.49 128.66 224.85Q128.66 224.05 128.16 223.64Q127.67 223.24 126.73 223.24Q125.99 223.24 125.34 223.50Q124.68 223.77 124.08 224.31L123.58 223.21Q124.17 222.66 125.04 222.33Q125.92 222 126.90 222Q128.44 222 129.27 222.70Q130.10 223.40 130.10 224.71Q130.10 225.63 129.65 226.48Q129.21 227.32 128.31 228.22L125.38 231.17L125.38 230.78L130.51 230.78 M135.74 232.13Q133.91 232.13 132.92 230.85Q131.94 229.58 131.94 227.28Q131.94 225.57 132.44 224.41Q132.94 223.24 133.88 222.62Q134.81 222 136.12 222Q136.91 222 137.69 222.31Q138.47 222.61 139.01 223.15L138.49 224.24Q137.97 223.74 137.35 223.49Q136.74 223.24 136.11 223.24Q134.75 223.24 134.04 224.18Q133.32 225.13 133.32 227L133.32 228.19L133.18 228.19Q133.28 227.44 133.66 226.88Q134.04 226.33 134.64 226.04Q135.24 225.74 135.98 225.74Q136.86 225.74 137.54 226.15Q138.22 226.55 138.61 227.26Q139.01 227.97 139.01 228.88Q139.01 229.82 138.59 230.56Q138.17 231.30 137.43 231.71Q136.70 232.13 135.74 232.13M135.66 230.95Q136.25 230.95 136.69 230.70Q137.13 230.45 137.38 229.99Q137.63 229.54 137.63 228.93Q137.63 228.33 137.38 227.88Q137.13 227.44 136.69 227.18Q136.25 226.92 135.66 226.92Q135.07 226.92 134.62 227.18Q134.18 227.44 133.92 227.88Q133.67 228.33 133.67 228.93Q133.67 229.54 133.92 229.99Q134.18 230.45 134.62 230.70Q135.07 230.95 135.66 230.95" fill="#0F766E"/></svg>