<svg xmlns="http://www.w3.org/2000/svg" width="480" height="300" viewBox="0 0 480 300" role="img"><rect width="480" height="300" fill="#F4F5F7"/><rect x="0" y="0" width="240" height="84" fill="#1E293B"/><rect x="240" y="0" width="120" height="84" fill="#334155"/><rect x="360" y="0" width="72" height="84" fill="#1E293B"/><rect x="432" y="0" width="48" height="84" fill="#C2410C"/><path d="M38.65 154L30.77 154L30.77 118.36L38.65 118.36L38.65 132.79L44.19 132.79L44.19 118.36L52.07 118.36L52.07 154L44.19 154L44.19 138.42L38.65 138.42 M65.40 154.44Q62.63 154.44 60.65 153.45Q58.67 152.46 57.61 150.55Q56.56 148.63 56.56 145.95L56.56 136.62Q56.56 133.89 57.61 132Q58.67 130.11 60.67 129.12Q62.67 128.13 65.40 128.13Q68.22 128.13 70.09 129.10Q71.96 130.06 72.90 131.96Q73.85 133.85 73.85 136.62L73.85 141.72L63.64 141.72L63.64 146.61Q63.64 147.58 63.86 148.19Q64.08 148.81 64.48 149.07Q64.87 149.34 65.40 149.34Q65.93 149.34 66.35 149.09Q66.76 148.85 67.01 148.32Q67.25 147.80 67.25 146.87L67.25 144.19L73.85 144.19L73.85 146.65Q73.85 150.52 71.60 152.48Q69.36 154.44 65.40 154.44M63.64 136.22L63.64 138.38L67.25 138.38L67.25 135.83Q67.25 134.82 67.01 134.24Q66.76 133.67 66.35 133.45Q65.93 133.23 65.36 133.23Q64.83 133.23 64.45 133.50Q64.08 133.76 63.86 134.40Q63.64 135.04 63.64 136.22 M82.30 154.44Q80.36 154.44 79.04 153.52Q77.72 152.59 77.06 151.16Q76.40 149.73 76.40 148.24Q76.40 145.86 77.35 144.23Q78.29 142.60 79.83 141.50Q81.37 140.40 83.22 139.63Q85.07 138.86 86.87 138.25L86.87 135.70Q86.87 135.04 86.74 134.53Q86.61 134.02 86.30 133.74Q85.99 133.45 85.38 133.45Q84.76 133.45 84.43 133.72Q84.10 133.98 83.97 134.44Q83.84 134.90 83.79 135.48L83.62 137.32L76.93 137.06Q77.15 132.48 79.37 130.31Q81.59 128.13 86.04 128.13Q89.91 128.13 91.82 130.26Q93.74 132.40 93.74 135.78L93.74 147.66Q93.74 149.25 93.80 150.44Q93.87 151.62 93.98 152.50Q94.09 153.38 94.18 154L87.75 154Q87.62 152.99 87.44 151.80Q87.27 150.61 87.18 150.39Q86.74 151.98 85.53 153.21Q84.32 154.44 82.30 154.44M84.85 149.60Q85.29 149.60 85.66 149.42Q86.04 149.25 86.34 148.94Q86.65 148.63 86.87 148.32L86.87 141.37Q85.99 141.90 85.24 142.45Q84.50 143 83.97 143.66Q83.44 144.32 83.15 145.09Q82.87 145.86 82.87 146.83Q82.87 148.10 83.40 148.85Q83.92 149.60 84.85 149.60 M103.50 154.44Q100.69 154.44 99.15 152.46Q97.61 150.48 97.61 146.61L97.61 136.09Q97.61 133.72 98.27 131.93Q98.93 130.15 100.25 129.14Q101.57 128.13 103.50 128.13Q104.91 128.13 106.19 128.68Q107.46 129.23 108.52 130.15L108.52 118.36L115.69 118.36L115.69 154L108.52 154L108.52 152.02Q107.33 153.16 106.06 153.80Q104.78 154.44 103.50 154.44M106.63 149.86Q106.98 149.86 107.49 149.69Q107.99 149.51 108.52 149.20L108.52 133.14Q108.08 132.92 107.60 132.75Q107.11 132.57 106.67 132.57Q105.70 132.57 105.26 133.39Q104.82 134.20 104.82 135.34L104.82 147.05Q104.82 147.84 105 148.48Q105.18 149.12 105.57 149.49Q105.97 149.86 106.63 149.86 M127.35 154L120.18 154L120.18 128.57L127.35 128.57L127.35 154M127.35 124.26L120.14 124.26L120.14 119.28L127.35 119.28 M138.97 154L131.80 154L131.80 128.57L138.97 128.57L138.97 131.12Q140.38 129.71 141.89 128.92Q143.41 128.13 145.08 128.13Q146.67 128.13 147.70 128.90Q148.74 129.67 149.26 131.01Q149.79 132.35 149.79 134.07L149.79 154L142.66 154L142.66 135.08Q142.66 134.16 142.36 133.67Q142.05 133.19 141.21 133.19Q140.77 133.19 140.18 133.43Q139.58 133.67 138.97 134.11 M162.42 162.80Q159.56 162.80 157.43 162.23Q155.29 161.66 154.13 160.51Q152.96 159.37 152.96 157.65Q152.96 156.33 153.55 155.30Q154.15 154.26 155.23 153.52Q156.30 152.77 157.67 152.24L160.44 152.72Q159.96 153.12 159.54 153.54Q159.12 153.96 158.86 154.42Q158.59 154.88 158.59 155.50Q158.59 156.46 159.69 156.95Q160.79 157.43 163.34 157.43Q165.46 157.43 166.62 157.06Q167.79 156.68 167.79 155.58Q167.79 154.97 167.48 154.62Q167.17 154.26 166.47 154.04Q165.76 153.82 164.53 153.69L158.20 152.90Q156.17 152.64 154.98 151.45Q153.80 150.26 153.80 148.50Q153.80 146.96 154.74 145.64Q155.69 144.32 157.23 143.04L159.74 144.45Q159.21 144.98 158.90 145.44Q158.59 145.90 158.59 146.48Q158.59 147 159.12 147.31Q159.65 147.62 161.01 147.80L167.04 148.59Q170.30 148.98 171.81 150.74Q173.33 152.50 173.33 155.28Q173.33 157.74 172.25 159.41Q171.18 161.08 168.78 161.94Q166.38 162.80 162.42 162.80M162.86 145.77Q159.87 145.77 157.82 144.72Q155.78 143.66 154.74 141.70Q153.71 139.74 153.71 136.97Q153.71 134.11 154.76 132.13Q155.82 130.15 157.87 129.14Q159.91 128.13 162.86 128.13Q165.68 128.13 167.61 129.18Q169.55 130.24 170.58 132.20Q171.62 134.16 171.62 136.97Q171.62 139.74 170.63 141.70Q169.64 143.66 167.70 144.72Q165.76 145.77 162.86 145.77M162.86 141.50Q163.48 141.50 163.85 141.26Q164.22 141.02 164.42 140.49Q164.62 139.96 164.71 139.08Q164.80 138.20 164.80 136.97Q164.80 135.70 164.71 134.84Q164.62 133.98 164.42 133.43Q164.22 132.88 163.85 132.64Q163.48 132.40 162.86 132.40Q162.29 132.40 161.89 132.64Q161.50 132.88 161.28 133.41Q161.06 133.94 160.97 134.82Q160.88 135.70 160.88 136.97Q160.88 138.20 160.97 139.06Q161.06 139.92 161.25 140.47Q161.45 141.02 161.85 141.26Q162.24 141.50 162.86 141.50M170.08 132.57L168.58 130.64Q169.24 129.36 170.23 128.59Q171.22 127.82 172.89 127.03L174.61 130.46Q174.17 130.59 173.31 130.97Q172.45 131.34 171.55 131.78Q170.65 132.22 170.08 132.57" fill="#1E293B"/><path d="M32.96 194L31.62 194L31.62 184.64L28.45 184.64L28.45 183.50L36.13 183.50L36.13 184.64L32.96 184.64 M39.20 194L37.89 194L37.89 182.61L39.20 182.61L39.20 185.71L39.15 187.31Q39.71 186.78 40.33 186.41Q40.94 186.03 41.74 186.03Q42.98 186.03 43.54 186.81Q44.11 187.58 44.11 189.07L44.11 194L42.80 194L42.80 189.25Q42.80 188.14 42.46 187.66Q42.11 187.17 41.33 187.17Q40.74 187.17 40.26 187.47Q39.79 187.78 39.20 188.37 M49.74 194.19Q48.70 194.19 47.85 193.70Q46.99 193.22 46.50 192.31Q46 191.41 46 190.11Q46 188.85 46.51 187.94Q47.02 187.02 47.82 186.53Q48.62 186.03 49.52 186.03Q50.51 186.03 51.21 186.49Q51.90 186.94 52.26 187.76Q52.61 188.58 52.61 189.68Q52.61 189.89 52.60 190.08Q52.59 190.27 52.54 190.46L46.94 190.46L46.94 189.42L51.42 189.42Q51.42 188.30 50.94 187.70Q50.45 187.10 49.54 187.10Q49.01 187.10 48.50 187.40Q47.98 187.70 47.66 188.35Q47.33 189.01 47.33 190.10Q47.33 191.09 47.67 191.76Q48.02 192.43 48.61 192.78Q49.20 193.12 49.90 193.12Q50.46 193.12 50.95 192.96Q51.44 192.80 51.84 192.53L52.32 193.39Q51.81 193.74 51.18 193.97Q50.54 194.19 49.74 194.19 M63.98 197.28L62.66 197.28L62.66 194.51L62.72 193.10Q62.26 193.55 61.66 193.87Q61.06 194.19 60.38 194.19Q58.91 194.19 58.04 193.13Q57.17 192.06 57.17 190.13Q57.17 188.86 57.64 187.94Q58.11 187.02 58.88 186.53Q59.65 186.03 60.54 186.03Q61.22 186.03 61.74 186.27Q62.26 186.51 62.77 186.96L62.80 186.96L62.93 186.22L63.98 186.22L63.98 197.28M60.67 193.09Q61.22 193.09 61.70 192.82Q62.18 192.54 62.66 192.02L62.66 187.95Q62.18 187.50 61.71 187.32Q61.25 187.14 60.77 187.14Q60.14 187.14 59.64 187.51Q59.14 187.89 58.83 188.55Q58.53 189.22 58.53 190.11Q58.53 191.50 59.09 192.30Q59.65 193.09 60.67 193.09 M68.88 194.19Q67.65 194.19 67.08 193.42Q66.51 192.64 66.51 191.15L66.51 186.22L67.82 186.22L67.82 190.98Q67.82 192.06 68.17 192.55Q68.51 193.04 69.28 193.04Q69.87 193.04 70.34 192.73Q70.82 192.42 71.38 191.74L71.38 186.22L72.69 186.22L72.69 194L71.60 194L71.49 192.78L71.44 192.78Q70.91 193.42 70.30 193.81Q69.68 194.19 68.88 194.19 M76.62 194L75.31 194L75.31 186.22L76.62 186.22L76.62 194M75.97 184.62Q75.58 184.62 75.34 184.38Q75.09 184.14 75.09 183.76Q75.09 183.38 75.34 183.14Q75.58 182.90 75.97 182.90Q76.35 182.90 76.60 183.14Q76.85 183.38 76.85 183.76Q76.85 184.14 76.60 184.38Q76.35 184.62 75.97 184.62 M82.34 194.19Q81.30 194.19 80.46 193.71Q79.63 193.23 79.15 192.32Q78.67 191.41 78.67 190.13Q78.67 188.82 79.19 187.90Q79.71 186.99 80.57 186.51Q81.42 186.03 82.42 186.03Q83.18 186.03 83.74 186.29Q84.29 186.54 84.69 186.94L84.03 187.76Q83.74 187.47 83.35 187.30Q82.96 187.14 82.46 187.14Q81.78 187.14 81.22 187.51Q80.67 187.89 80.35 188.56Q80.03 189.23 80.03 190.13Q80.03 191.01 80.34 191.68Q80.64 192.35 81.18 192.73Q81.73 193.10 82.45 193.10Q82.99 193.10 83.46 192.90Q83.92 192.69 84.26 192.37L84.83 193.17Q84.34 193.63 83.71 193.91Q83.09 194.19 82.34 194.19 M87.86 194L86.54 194L86.54 182.61L87.86 182.61L87.86 190.30L87.89 190.30L91.18 186.22L92.66 186.22L90.06 189.36L93.01 194L91.57 194L89.30 190.26L87.86 191.95 M101.10 194.19Q100.56 194.19 99.98 193.93Q99.41 193.66 98.88 193.20L98.83 193.20L98.72 194L97.66 194L97.66 182.61L98.98 182.61L98.98 185.71L98.94 187.12Q99.47 186.66 100.10 186.34Q100.74 186.03 101.38 186.03Q102.38 186.03 103.07 186.52Q103.76 187.01 104.11 187.90Q104.46 188.78 104.46 189.98Q104.46 191.31 103.99 192.26Q103.52 193.20 102.75 193.70Q101.98 194.19 101.10 194.19M100.88 193.09Q101.52 193.09 102.02 192.72Q102.53 192.35 102.82 191.66Q103.10 190.96 103.10 190Q103.10 189.15 102.90 188.50Q102.69 187.86 102.24 187.50Q101.79 187.14 101.06 187.14Q100.58 187.14 100.06 187.40Q99.54 187.66 98.98 188.19L98.98 192.27Q99.49 192.72 99.99 192.90Q100.50 193.09 100.88 193.09 M107.82 194L106.51 194L106.51 186.22L107.60 186.22L107.71 187.63L107.76 187.63Q108.14 186.90 108.72 186.46Q109.30 186.03 109.97 186.03Q110.22 186.03 110.42 186.06Q110.61 186.10 110.80 186.19L110.51 187.31Q110.34 187.26 110.18 187.24Q110.03 187.22 109.79 187.22Q109.30 187.22 108.76 187.62Q108.22 188.02 107.82 189.01 M115.09 194.19Q114.14 194.19 113.32 193.71Q112.50 193.23 111.99 192.32Q111.49 191.41 111.49 190.13Q111.49 188.82 111.99 187.90Q112.50 186.99 113.32 186.51Q114.14 186.03 115.09 186.03Q116.05 186.03 116.86 186.51Q117.68 186.99 118.18 187.90Q118.69 188.82 118.69 190.13Q118.69 191.41 118.18 192.32Q117.68 193.23 116.86 193.71Q116.05 194.19 115.09 194.19M115.09 193.10Q115.76 193.10 116.27 192.73Q116.78 192.35 117.06 191.68Q117.33 191.01 117.33 190.13Q117.33 189.23 117.06 188.55Q116.78 187.87 116.27 187.50Q115.76 187.12 115.09 187.12Q114.42 187.12 113.91 187.50Q113.41 187.87 113.13 188.55Q112.85 189.23 112.85 190.13Q112.85 191.01 113.13 191.68Q113.41 192.35 113.91 192.73Q114.42 193.10 115.09 193.10 M123.60 194L121.97 194L119.81 186.22L121.18 186.22L122.32 190.72Q122.45 191.25 122.56 191.78Q122.67 192.30 122.77 192.93L122.83 192.93Q122.96 192.30 123.08 191.78Q123.20 191.25 123.33 190.72L124.48 186.22L125.92 186.22L127.09 190.72Q127.23 191.25 127.35 191.78Q127.47 192.30 127.60 192.93L127.66 192.93Q127.79 192.30 127.90 191.78Q128.02 191.25 128.13 190.72L129.26 186.22L130.54 186.22L128.45 194L126.74 194L125.70 189.84Q125.57 189.30 125.45 188.76Q125.33 188.22 125.20 187.54L125.14 187.54Q125.02 188.22 124.90 188.77Q124.78 189.31 124.64 189.84 M133.55 194L132.24 194L132.24 186.22L133.33 186.22L133.44 187.34L133.49 187.34Q134.05 186.78 134.67 186.41Q135.30 186.03 136.10 186.03Q137.33 186.03 137.90 186.81Q138.46 187.58 138.46 189.07L138.46 194L137.15 194L137.15 189.25Q137.15 188.14 136.81 187.66Q136.46 187.17 135.68 187.17Q135.09 187.17 134.62 187.47Q134.14 187.78 133.55 188.37 M145.73 194L144.42 194L144.42 184.99Q144.42 184.21 144.66 183.62Q144.90 183.04 145.40 182.73Q145.90 182.42 146.69 182.42Q147.04 182.42 147.38 182.49Q147.73 182.56 147.98 182.67L147.70 183.63Q147.23 183.49 146.82 183.49Q146.27 183.49 NaN 183.86Q145.73 184.24 145.73 184.99L145.73 194M147.38 187.30L143.26 187.30L143.26 186.30L144.48 186.22L147.38 186.22 M151.89 194.19Q150.94 194.19 150.12 193.71Q149.30 193.23 148.79 192.32Q148.29 191.41 148.29 190.13Q148.29 188.82 148.79 187.90Q149.30 186.99 150.12 186.51Q150.94 186.03 151.89 186.03Q152.85 186.03 153.66 186.51Q154.48 186.99 154.98 187.90Q155.49 188.82 155.49 190.13Q155.49 191.41 154.98 192.32Q154.48 193.23 153.66 193.71Q152.85 194.19 151.89 194.19M151.89 193.10Q152.56 193.10 153.07 192.73Q153.58 192.35 153.86 191.68Q154.13 191.01 154.13 190.13Q154.13 189.23 153.86 188.55Q153.58 187.87 153.07 187.50Q152.56 187.12 151.89 187.12Q151.22 187.12 150.71 187.50Q150.21 187.87 149.93 188.55Q149.65 189.23 149.65 190.13Q149.65 191.01 149.93 191.68Q150.21 192.35 150.71 192.73Q151.22 193.10 151.89 193.10 M157.82 194L156.45 194L158.99 189.94L156.64 186.22L158.06 186.22L159.10 187.94Q159.28 188.24 159.48 188.57Q159.68 188.90 159.87 189.23L159.94 189.23Q160.11 188.90 160.29 188.57Q160.46 188.24 160.64 187.94L161.58 186.22L162.96 186.22L160.61 190.08L163.14 194L161.71 194L160.58 192.19Q160.37 191.84 160.15 191.49Q159.94 191.14 159.73 190.80L159.66 190.80Q159.46 191.14 159.26 191.48Q159.07 191.82 158.88 192.19 M167.07 197.47Q166.74 197.47 166.43 197.41Q166.13 197.34 165.92 197.25L166.19 196.26Q166.34 196.30 166.54 196.35Q166.74 196.40 166.93 196.40Q167.50 196.40 167.70 195.99Q167.89 195.58 167.89 194.86L167.89 186.22L169.20 186.22L169.20 194.88Q169.20 195.66 168.98 196.25Q168.77 196.83 168.30 197.15Q167.84 197.47 167.07 197.47M168.53 184.62Q168.14 184.62 167.90 184.38Q167.65 184.14 167.65 183.76Q167.65 183.38 167.90 183.14Q168.14 182.90 168.53 182.90Q168.91 182.90 169.16 183.14Q169.41 183.38 169.41 183.76Q169.41 184.14 169.16 184.38Q168.91 184.62 168.53 184.62 M174.10 194.19Q172.86 194.19 172.30 193.42Q171.73 192.64 171.73 191.15L171.73 186.22L173.04 186.22L173.04 190.98Q173.04 192.06 173.38 192.55Q173.73 193.04 174.50 193.04Q175.09 193.04 175.56 192.73Q176.03 192.42 176.59 191.74L176.59 186.22L177.90 186.22L177.90 194L176.82 194L176.70 192.78L176.66 192.78Q176.13 193.42 175.51 193.81Q174.90 194.19 174.10 194.19 M181.84 194L180.53 194L180.53 186.22L181.62 186.22L181.73 187.34L181.78 187.34Q182.29 186.80 182.89 186.42Q183.49 186.03 184.19 186.03Q185.09 186.03 185.59 186.43Q186.10 186.83 186.34 187.52Q186.94 186.85 187.57 186.44Q188.19 186.03 188.90 186.03Q190.11 186.03 190.69 186.81Q191.26 187.58 191.26 189.07L191.26 194L189.95 194L189.95 189.25Q189.95 188.14 189.60 187.66Q189.25 187.17 188.51 187.17Q188.05 187.17 187.58 187.46Q187.10 187.76 186.56 188.37L186.56 194L185.25 194L185.25 189.25Q185.25 188.14 184.90 187.66Q184.54 187.17 183.79 187.17Q182.91 187.17 181.84 188.37 M195.10 197.28L193.79 197.28L193.79 186.22L194.88 186.22L194.99 187.12L195.04 187.12Q195.57 186.67 196.21 186.35Q196.85 186.03 197.52 186.03Q198.51 186.03 199.20 186.52Q199.89 187.01 200.24 187.90Q200.59 188.78 200.59 190Q200.59 191.31 200.12 192.26Q199.65 193.20 198.88 193.70Q198.11 194.19 197.23 194.19Q196.70 194.19 196.16 193.95Q195.62 193.71 195.07 193.30L195.10 194.66L195.10 197.28M197.01 193.09Q197.65 193.09 198.15 192.72Q198.66 192.35 198.94 191.66Q199.23 190.96 199.23 190Q199.23 189.15 199.02 188.50Q198.82 187.86 198.37 187.50Q197.92 187.14 197.18 187.14Q196.70 187.14 196.19 187.40Q195.68 187.66 195.10 188.19L195.10 192.27Q195.65 192.72 196.14 192.90Q196.62 193.09 197.01 193.09 M204.70 194.19Q203.86 194.19 203.10 193.90Q202.34 193.60 201.81 193.07L202.42 192.30Q202.93 192.72 203.48 192.94Q204.03 193.17 204.75 193.17Q205.52 193.17 205.90 192.81Q206.29 192.45 206.29 191.95Q206.29 191.55 206.02 191.29Q205.76 191.02 205.37 190.84Q204.98 190.66 204.53 190.50Q203.95 190.29 203.42 190.01Q202.90 189.73 202.57 189.30Q202.24 188.88 202.24 188.24Q202.24 187.30 202.95 186.66Q203.66 186.03 204.93 186.03Q205.65 186.03 206.27 186.28Q206.90 186.53 207.34 186.91L206.74 187.66Q206.32 187.38 205.89 187.22Q205.46 187.06 204.93 187.06Q204.19 187.06 203.85 187.39Q203.50 187.73 203.50 188.18Q203.50 188.53 203.71 188.76Q203.92 188.99 204.30 189.17Q204.67 189.34 205.15 189.50Q205.76 189.73 206.31 190.01Q206.86 190.29 207.21 190.73Q207.55 191.17 207.55 191.87Q207.55 192.51 207.22 193.03Q206.90 193.55 206.26 193.87Q205.63 194.19 204.70 194.19 M215.60 194.19Q214.66 194.19 213.83 193.71Q213.01 193.23 212.50 192.32Q212 191.41 212 190.13Q212 188.82 212.50 187.90Q213.01 186.99 213.83 186.51Q214.66 186.03 215.60 186.03Q216.56 186.03 217.38 186.51Q218.19 186.99 218.70 187.90Q219.20 188.82 219.20 190.13Q219.20 191.41 218.70 192.32Q218.19 193.23 217.38 193.71Q216.56 194.19 215.60 194.19M215.60 193.10Q216.27 193.10 216.78 192.73Q217.30 192.35 217.57 191.68Q217.84 191.01 217.84 190.13Q217.84 189.23 217.57 188.55Q217.30 187.87 216.78 187.50Q216.27 187.12 215.60 187.12Q214.93 187.12 214.42 187.50Q213.92 187.87 213.64 188.55Q213.36 189.23 213.36 190.13Q213.36 191.01 213.64 191.68Q213.92 192.35 214.42 192.73Q214.93 193.10 215.60 193.10 M224.46 194L222.93 194L220.13 186.22L221.49 186.22L222.96 190.64Q223.14 191.20 223.32 191.78Q223.50 192.37 223.68 192.93L223.74 192.93Q223.90 192.37 224.10 191.78Q224.29 191.20 224.45 190.64L225.92 186.22L227.22 186.22 M231.87 194.19Q230.83 194.19 229.98 193.70Q229.12 193.22 228.62 192.31Q228.13 191.41 228.13 190.11Q228.13 188.85 228.64 187.94Q229.15 187.02 229.95 186.53Q230.75 186.03 231.65 186.03Q232.64 186.03 233.34 186.49Q234.03 186.94 234.38 187.76Q234.74 188.58 234.74 189.68Q234.74 189.89 234.73 190.08Q234.72 190.27 234.67 190.46L229.07 190.46L229.07 189.42L233.55 189.42Q233.55 188.30 233.06 187.70Q232.58 187.10 231.66 187.10Q231.14 187.10 230.62 187.40Q230.11 187.70 229.78 188.35Q229.46 189.01 229.46 190.10Q229.46 191.09 229.80 191.76Q230.14 192.43 230.74 192.78Q231.33 193.12 232.03 193.12Q232.59 193.12 233.08 192.96Q233.57 192.80 233.97 192.53L234.45 193.39Q233.94 193.74 233.30 193.97Q232.67 194.19 231.87 194.19 M237.97 194L236.66 194L236.66 186.22L237.74 186.22L237.86 187.63L237.90 187.63Q238.29 186.90 238.86 186.46Q239.44 186.03 240.11 186.03Q240.37 186.03 240.56 186.06Q240.75 186.10 240.94 186.19L240.66 187.31Q240.48 187.26 240.33 187.24Q240.18 187.22 239.94 187.22Q239.44 187.22 238.90 187.62Q238.37 188.02 237.97 189.01 M247.86 194.14Q246.62 194.14 246.13 193.42Q245.63 192.70 245.63 191.55L245.63 187.30L244.48 187.30L244.48 186.30L245.70 186.22L245.86 183.73L246.96 183.73L246.96 186.22L249.07 186.22L249.07 187.30L246.96 187.30L246.96 191.57Q246.96 192.27 247.22 192.67Q247.49 193.07 248.16 193.07Q248.37 193.07 248.59 193.03Q248.82 192.99 249.04 192.88L249.33 193.81Q249.02 193.95 248.64 194.05Q248.26 194.14 247.86 194.14 M252.13 194L250.82 194L250.82 182.61L252.13 182.61L252.13 185.71L252.08 187.31Q252.64 186.78 253.26 186.41Q253.87 186.03 254.67 186.03Q255.90 186.03 256.47 186.81Q257.04 187.58 257.04 189.07L257.04 194L255.73 194L255.73 189.25Q255.73 188.14 255.38 187.66Q255.04 187.17 254.26 187.17Q253.66 187.17 253.19 187.47Q252.72 187.78 252.13 188.37 M262.67 194.19Q261.63 194.19 260.78 193.70Q259.92 193.22 259.42 192.31Q258.93 191.41 258.93 190.11Q258.93 188.85 259.44 187.94Q259.95 187.02 260.75 186.53Q261.55 186.03 262.45 186.03Q263.44 186.03 264.14 186.49Q264.83 186.94 265.18 187.76Q265.54 188.58 265.54 189.68Q265.54 189.89 265.53 190.08Q265.52 190.27 265.47 190.46L259.87 190.46L259.87 189.42L264.35 189.42Q264.35 188.30 263.86 187.70Q263.38 187.10 262.46 187.10Q261.94 187.10 261.42 187.40Q260.91 187.70 260.58 188.35Q260.26 189.01 260.26 190.10Q260.26 191.09 260.60 191.76Q260.94 192.43 261.54 192.78Q262.13 193.12 262.83 193.12Q263.39 193.12 263.88 192.96Q264.37 192.80 264.77 192.53L265.25 193.39Q264.74 193.74 264.10 193.97Q263.47 194.19 262.67 194.19 M272.05 194.14Q271.55 194.14 271.25 193.94Q270.94 193.74 270.80 193.35Q270.66 192.96 270.66 192.40L270.66 182.61L271.97 182.61L271.97 192.50Q271.97 192.82 272.08 192.94Q272.19 193.06 272.35 193.06Q272.42 193.06 272.47 193.05Q272.53 193.04 272.62 193.02L272.82 194.02Q272.67 194.06 272.49 194.10Q272.30 194.14 272.05 194.14 M276.53 194.19Q275.89 194.19 275.37 193.93Q274.85 193.66 274.54 193.18Q274.24 192.69 274.24 191.98Q274.24 190.67 275.39 190Q276.54 189.33 279.04 189.06Q279.02 188.58 278.89 188.13Q278.75 187.68 278.40 187.41Q278.05 187.14 277.42 187.14Q276.75 187.14 276.16 187.38Q275.57 187.63 275.10 187.94L274.59 187.04Q274.94 186.80 275.42 186.57Q275.90 186.34 276.46 186.18Q277.02 186.03 277.65 186.03Q278.59 186.03 279.19 186.42Q279.79 186.82 280.07 187.54Q280.35 188.26 280.35 189.23L280.35 194L279.26 194L279.15 193.07L279.10 193.07Q278.54 193.54 277.90 193.86Q277.26 194.19 276.53 194.19M276.90 193.10Q277.47 193.10 277.98 192.85Q278.48 192.59 279.04 192.10L279.04 190Q277.73 190.16 276.97 190.41Q276.21 190.66 275.87 191.02Q275.54 191.39 275.54 191.90Q275.54 192.54 275.94 192.82Q276.34 193.10 276.90 193.10 M287.87 194L281.98 194L281.98 193.30L286.08 187.30L282.43 187.30L282.43 186.22L287.74 186.22L287.74 186.93L283.65 192.93L287.87 192.93 M289.73 197.34Q289.47 197.34 289.24 197.30Q289.01 197.25 288.82 197.18L289.10 196.16Q289.25 196.21 289.39 196.23Q289.54 196.26 289.66 196.26Q290.34 196.26 290.76 195.78Q291.18 195.31 291.42 194.59L291.60 194.02L288.48 186.22L289.84 186.22L291.42 190.53Q291.62 191.02 291.81 191.60Q292 192.18 292.18 192.72L292.24 192.72Q292.42 192.18 292.58 191.61Q292.75 191.04 292.90 190.53L294.29 186.22L295.57 186.22L292.64 194.64Q292.37 195.41 291.98 196.02Q291.60 196.64 291.06 196.99Q290.51 197.34 289.73 197.34 M302.93 194.19Q301.46 194.19 300.58 193.13Q299.71 192.06 299.71 190.13Q299.71 188.86 300.18 187.94Q300.66 187.02 301.42 186.53Q302.19 186.03 303.09 186.03Q303.78 186.03 304.26 186.26Q304.75 186.50 305.26 186.93L305.20 185.60L305.20 182.61L306.53 182.61L306.53 194L305.44 194L305.33 193.09L305.28 193.09Q304.83 193.54 304.22 193.86Q303.62 194.19 302.93 194.19M303.22 193.09Q303.76 193.09 304.24 192.82Q304.72 192.54 305.20 192.02L305.20 187.95Q304.72 187.50 304.26 187.32Q303.79 187.14 303.31 187.14Q302.69 187.14 302.18 187.51Q301.68 187.89 301.38 188.55Q301.07 189.22 301.07 190.11Q301.07 191.50 301.63 192.30Q302.19 193.09 303.22 193.09 M312.18 194.19Q311.23 194.19 310.41 193.71Q309.58 193.23 309.08 192.32Q308.58 191.41 308.58 190.13Q308.58 188.82 309.08 187.90Q309.58 186.99 310.41 186.51Q311.23 186.03 312.18 186.03Q313.14 186.03 313.95 186.51Q314.77 186.99 315.27 187.90Q315.78 188.82 315.78 190.13Q315.78 191.41 315.27 192.32Q314.77 193.23 313.95 193.71Q313.14 194.19 312.18 194.19M312.18 193.10Q312.85 193.10 313.36 192.73Q313.87 192.35 314.14 191.68Q314.42 191.01 314.42 190.13Q314.42 189.23 314.14 188.55Q313.87 187.87 313.36 187.50Q312.85 187.12 312.18 187.12Q311.50 187.12 311 187.50Q310.50 187.87 310.22 188.55Q309.94 189.23 309.94 190.13Q309.94 191.01 310.22 191.68Q310.50 192.35 311 192.73Q311.50 193.10 312.18 193.10 M320.45 197.58Q319.50 197.58 318.78 197.34Q318.05 197.09 317.64 196.62Q317.23 196.16 317.23 195.49Q317.23 194.99 317.54 194.54Q317.84 194.08 318.37 193.73L318.37 193.66Q318.08 193.47 317.88 193.16Q317.68 192.85 317.68 192.40Q317.68 191.90 317.96 191.54Q318.24 191.17 318.53 190.96L318.53 190.90Q318.16 190.58 317.84 190.03Q317.52 189.49 317.52 188.80Q317.52 187.95 317.93 187.33Q318.34 186.70 319 186.37Q319.66 186.03 320.45 186.03Q320.77 186.03 321.06 186.09Q321.34 186.14 321.55 186.22L324.26 186.22L324.26 187.23L322.64 187.23L322.64 187.30Q322.93 187.55 323.11 187.94Q323.30 188.32 323.30 188.85Q323.30 189.68 322.91 190.28Q322.53 190.88 321.89 191.21Q321.25 191.54 320.45 191.54Q320.16 191.54 319.86 191.46Q319.55 191.39 319.28 191.26Q319.09 191.44 318.94 191.65Q318.78 191.86 318.78 192.19Q318.78 192.56 319.08 192.80Q319.38 193.04 320.16 193.04L321.66 193.04Q323.02 193.04 323.70 193.48Q324.38 193.92 324.38 194.90Q324.38 195.62 323.90 196.22Q323.42 196.83 322.54 197.21Q321.65 197.58 320.45 197.58M320.45 190.66Q320.90 190.66 321.27 190.42Q321.65 190.19 321.87 189.78Q322.10 189.36 322.10 188.80Q322.10 187.94 321.62 187.46Q321.14 186.99 320.45 186.99Q319.76 186.99 319.28 187.46Q318.80 187.94 318.80 188.80Q318.80 189.36 319.02 189.78Q319.25 190.19 319.62 190.42Q320 190.66 320.45 190.66M320.64 196.67Q321.38 196.67 321.93 196.45Q322.48 196.22 322.79 195.86Q323.10 195.49 323.10 195.09Q323.10 194.54 322.70 194.34Q322.29 194.13 321.54 194.13L320.19 194.13Q319.97 194.13 319.70 194.10Q319.44 194.06 319.18 194Q318.75 194.30 318.57 194.64Q318.38 194.98 318.38 195.31Q318.38 195.94 318.98 196.30Q319.58 196.67 320.64 196.67 M326.58 194.19Q326.19 194.19 325.90 193.91Q325.62 193.63 325.62 193.20Q325.62 192.74 325.90 192.46Q326.19 192.18 326.58 192.18Q326.98 192.18 327.25 192.46Q327.52 192.74 327.52 193.20Q327.52 193.63 327.25 193.91Q326.98 194.19 326.58 194.19" fill="#1E293B"/><path d="M29.87 232L27.92 232L30.57 223.52L32.86 223.52L35.53 232L33.50 232L32.39 227.71Q32.21 227.07 32.04 226.36Q31.87 225.64 31.71 224.98L31.65 224.98Q31.51 225.64 31.34 226.36Q31.17 227.07 30.99 227.71L29.87 232M33.75 229.99L29.66 229.99L29.66 228.49L33.75 228.49 M40.04 232.16Q38.95 232.16 38.04 231.67Q37.14 231.18 36.59 230.21Q36.05 229.23 36.05 227.81Q36.05 226.76 36.37 225.94Q36.68 225.11 37.24 224.54Q37.80 223.97 38.52 223.67Q39.24 223.37 40.05 223.37Q40.87 223.37 41.52 223.69Q42.17 224.02 42.60 224.47L41.59 225.63Q41.27 225.33 40.91 225.18Q40.55 225.03 40.09 225.03Q39.53 225.03 39.06 225.36Q38.58 225.69 38.30 226.31Q38.01 226.92 38.01 227.75Q38.01 228.62 38.28 229.24Q38.56 229.85 39.04 230.18Q39.53 230.50 40.17 230.50Q40.66 230.50 41.05 230.30Q41.44 230.09 41.74 229.80L42.70 230.93Q42.16 231.54 41.49 231.85Q40.83 232.16 40.04 232.16 M47.60 232.16Q46.51 232.16 45.61 231.67Q44.70 231.18 44.16 230.21Q43.61 229.23 43.61 227.81Q43.61 226.76 43.93 225.94Q44.25 225.11 44.81 224.54Q45.37 223.97 46.09 223.67Q46.81 223.37 47.62 223.37Q48.44 223.37 49.09 223.69Q49.74 224.02 50.16 224.47L49.15 225.63Q48.84 225.33 48.48 225.18Q48.11 225.03 47.66 225.03Q47.10 225.03 46.62 225.36Q46.15 225.69 45.86 226.31Q45.58 226.92 45.58 227.75Q45.58 228.62 45.85 229.24Q46.12 229.85 46.61 230.18Q47.10 230.50 47.73 230.50Q48.23 230.50 48.62 230.30Q49.01 230.09 49.31 229.80L50.27 230.93Q49.72 231.54 49.06 231.85Q48.40 232.16 47.60 232.16 M57.02 232L51.58 232L51.58 223.52L56.89 223.52L56.89 225.14L53.49 225.14L53.49 226.84L56.38 226.84L56.38 228.44L53.49 228.44L53.49 230.39L57.02 230.39 M60.54 232L58.71 232L58.71 223.52L60.71 223.52L62.88 227.70Q63.11 228.13 63.31 228.61Q63.52 229.10 63.71 229.61L63.76 229.61Q63.70 228.92 63.61 228.10Q63.52 227.28 63.52 226.53L63.52 223.52L65.35 223.52L65.35 232L63.35 232L61.18 227.83Q60.96 227.40 60.74 226.90Q60.53 226.41 60.33 225.92L60.28 225.92Q60.36 226.62 60.45 227.43Q60.54 228.24 60.54 229 M70.93 232L69 232L69 225.14L66.68 225.14L66.68 223.52L73.25 223.52L73.25 225.14L70.93 225.14 M86.02 229.32L76.74 229.32L76.74 228.10L86.02 228.10 M95.47 232L89.66 232L89.66 230.82Q90.70 229.89 91.51 229.09Q92.32 228.28 92.79 227.59Q93.25 226.90 93.25 226.33Q93.25 225.72 92.94 225.40Q92.62 225.08 92.08 225.08Q91.63 225.08 91.28 225.34Q90.92 225.59 90.61 225.93L89.61 224.94Q90.20 224.26 90.84 223.93Q91.47 223.59 92.34 223.59Q93.14 223.59 93.76 223.91Q94.38 224.24 94.72 224.82Q95.07 225.41 95.07 226.20Q95.07 226.94 94.67 227.65Q94.27 228.36 93.62 229.06Q92.97 229.76 92.25 230.49Q92.56 230.45 92.95 230.42Q93.34 230.39 93.62 230.39L95.47 230.39 M99.47 232.16Q98.15 232.16 97.34 231.05Q96.52 229.95 96.52 227.84Q96.52 225.72 97.34 224.66Q98.15 223.59 99.47 223.59Q100.80 223.59 101.61 224.66Q102.42 225.73 102.42 227.84Q102.42 229.95 101.61 231.05Q100.80 232.16 99.47 232.16M99.47 230.67Q99.80 230.67 100.06 230.43Q100.32 230.19 100.47 229.58Q100.62 228.96 100.62 227.84Q100.62 226.71 100.47 226.11Q100.32 225.51 100.06 225.29Q99.80 225.07 99.47 225.07Q99.15 225.07 98.89 225.29Q98.63 225.51 98.48 226.11Q98.33 226.71 98.33 227.84Q98.33 228.96 98.48 229.58Q98.63 230.19 98.89 230.43Q99.15 230.67 99.47 230.67 M109.20 232L103.39 232L103.39 230.82Q104.43 229.89 105.24 229.09Q106.05 228.28 106.51 227.59Q106.98 226.90 106.98 226.33Q106.98 225.72 106.66 225.40Q106.35 225.08 105.81 225.08Q105.36 225.08 105.01 225.34Q104.65 225.59 104.34 225.93L103.34 224.94Q103.93 224.26 104.56 223.93Q105.19 223.59 106.07 223.59Q106.87 223.59 107.49 223.91Q108.11 224.24 108.45 224.82Q108.80 225.41 108.80 226.20Q108.80 226.94 108.40 227.65Q108 228.36 107.35 229.06Q106.70 229.76 105.97 230.49Q106.29 230.45 106.68 230.42Q107.07 230.39 107.35 230.39L109.20 230.39 M113.42 232.16Q112.83 232.16 112.27 231.92Q111.71 231.69 111.27 231.19Q110.82 230.70 110.56 229.93Q110.30 229.15 110.30 228.06Q110.30 226.90 110.58 226.06Q110.85 225.21 111.32 224.67Q111.79 224.12 112.38 223.86Q112.98 223.59 113.64 223.59Q114.46 223.59 115.06 223.88Q115.66 224.17 116.05 224.58L115.05 225.72Q114.83 225.49 114.48 225.31Q114.13 225.14 113.76 225.14Q113.29 225.14 112.90 225.41Q112.50 225.68 112.27 226.33Q112.05 226.97 112.05 228.06Q112.05 229.09 112.23 229.67Q112.42 230.25 112.73 230.49Q113.05 230.73 113.38 230.73Q113.67 230.73 113.90 230.58Q114.14 230.44 114.28 230.15Q114.42 229.85 114.42 229.39Q114.42 228.94 114.28 228.69Q114.14 228.43 113.90 228.31Q113.66 228.19 113.35 228.19Q113.02 228.19 112.68 228.39Q112.33 228.58 112.06 229.07L111.97 227.83Q112.29 227.35 112.80 227.09Q113.31 226.84 113.71 226.84Q114.41 226.84 114.97 227.11Q115.53 227.38 115.85 227.95Q116.17 228.52 116.17 229.39Q116.17 230.25 115.80 230.87Q115.43 231.49 114.80 231.82Q114.18 232.16 113.42 232.16" fill="#C2410C"/></svg>