<svg xmlns="http://www.w3.org/2000/svg" width="480" height="300" viewBox="0 0 480 300" role="img"><rect width="480" height="300" fill="#F9FAFB"/><rect x="0" y="0" width="240" height="84" fill="#1E3A5F"/><rect x="240" y="0" width="120" height="84" fill="#334155"/><rect x="360" y="0" width="72" height="84" fill="#1F2937"/><rect x="432" y="0" width="48" height="84" fill="#2563EB"/><path d="M37.86 154L31.39 154L31.39 125.31L37.86 125.31L37.86 136.36L47.76 136.36L47.76 125.31L54.27 125.31L54.27 154L47.76 154L47.76 142.03L37.86 142.03 M70.28 154.53Q67.16 154.53 64.65 153.16Q62.14 151.80 60.69 149.25Q59.24 146.70 59.24 143.09Q59.24 139.52 60.71 136.97Q62.19 134.42 64.56 133.03Q66.94 131.65 69.54 131.65Q72.66 131.65 74.73 133.03Q76.80 134.42 77.81 136.80Q78.82 139.17 78.82 142.12Q78.82 142.96 78.73 143.77Q78.64 144.58 78.56 145.07L64.26 145.07L64.17 140.58L73.28 140.58Q73.28 138.86 72.44 137.74Q71.60 136.62 69.67 136.62Q68.61 136.62 67.60 137.19Q66.59 137.76 65.93 139.17Q65.27 140.58 65.31 143.09Q65.36 145.55 66.21 146.96Q67.07 148.37 68.39 148.96Q69.71 149.56 71.16 149.56Q72.44 149.56 73.61 149.18Q74.77 148.81 75.92 148.15L78.03 152.11Q76.40 153.25 74.33 153.89Q72.26 154.53 70.28 154.53 M88.81 154.53Q86.83 154.53 85.35 153.65Q83.88 152.77 83.09 151.27Q82.30 149.78 82.30 147.93Q82.30 144.41 85.20 142.49Q88.10 140.58 94.57 139.92Q94.53 138.95 94.15 138.27Q93.78 137.59 93.03 137.21Q92.28 136.84 91.14 136.84Q89.78 136.84 88.37 137.32Q86.96 137.81 85.33 138.73L83.04 134.51Q84.45 133.63 85.95 132.99Q87.44 132.35 89.05 132Q90.66 131.65 92.37 131.65Q95.19 131.65 97.10 132.73Q99.02 133.80 100.03 135.98Q101.04 138.16 101.04 141.55L101.04 154L95.76 154L95.32 151.76L95.14 151.76Q93.74 152.99 92.20 153.76Q90.66 154.53 88.81 154.53M90.96 149.47Q92.06 149.47 92.90 148.98Q93.74 148.50 94.57 147.66L94.57 143.97Q92.28 144.28 90.94 144.76Q89.60 145.24 89.05 145.93Q88.50 146.61 88.50 147.44Q88.50 148.46 89.18 148.96Q89.86 149.47 90.96 149.47 M114.28 154.53Q110.24 154.53 107.79 151.47Q105.35 148.41 105.35 143.09Q105.35 139.52 106.65 136.97Q107.95 134.42 110.04 133.03Q112.13 131.65 114.42 131.65Q116.22 131.65 117.45 132.26Q118.68 132.88 119.78 133.94L119.52 130.59L119.52 123.16L125.99 123.16L125.99 154L120.71 154L120.27 151.84L120.09 151.84Q118.95 152.99 117.41 153.76Q115.87 154.53 114.28 154.53M115.96 149.25Q117.01 149.25 117.89 148.81Q118.77 148.37 119.52 147.27L119.52 138.34Q118.68 137.54 117.76 137.24Q116.84 136.93 115.91 136.93Q114.86 136.93 113.98 137.59Q113.10 138.25 112.55 139.59Q112 140.93 112 143Q112 146.21 113.05 147.73Q114.11 149.25 115.96 149.25 M138.18 154L131.71 154L131.71 132.18L138.18 132.18L138.18 154M134.92 128.96Q133.29 128.96 132.28 128.04Q131.27 127.12 131.27 125.58Q131.27 124.04 132.28 123.11Q133.29 122.19 134.92 122.19Q136.55 122.19 137.56 123.11Q138.57 124.04 138.57 125.58Q138.57 127.12 137.56 128.04Q136.55 128.96 134.92 128.96 M150.32 154L143.85 154L143.85 132.18L149.13 132.18L149.57 134.95L149.75 134.95Q151.11 133.58 152.83 132.62Q154.54 131.65 156.74 131.65Q160.35 131.65 161.94 134Q163.52 136.36 163.52 140.45L163.52 154L157.05 154L157.05 141.28Q157.05 138.91 156.41 138.03Q155.78 137.15 154.37 137.15Q153.14 137.15 152.26 137.70Q151.38 138.25 150.32 139.26 M176.81 163.28Q174.26 163.28 172.17 162.69Q170.08 162.10 168.87 160.89Q167.66 159.68 167.66 157.74Q167.66 156.38 168.47 155.28Q169.28 154.18 170.78 153.34L170.78 153.16Q169.94 152.59 169.35 151.69Q168.76 150.79 168.76 149.47Q168.76 148.28 169.46 147.20Q170.16 146.12 171.22 145.38L171.22 145.20Q170.03 144.41 169.15 142.91Q168.27 141.42 168.27 139.52Q168.27 136.93 169.55 135.17Q170.82 133.41 172.89 132.53Q174.96 131.65 177.29 131.65Q178.22 131.65 179.07 131.78Q179.93 131.91 180.68 132.18L188.64 132.18L188.64 136.88L184.99 136.88L184.99 137.06Q185.43 137.63 185.65 138.31Q185.87 139 185.87 139.83Q185.87 142.30 184.73 143.90Q183.58 145.51 181.63 146.30Q179.67 147.09 177.29 147.09Q176.72 147.09 176.06 146.98Q175.40 146.87 174.65 146.65Q174.26 147 174.06 147.36Q173.86 147.71 173.86 148.28Q173.86 149.07 174.61 149.49Q175.36 149.91 177.16 149.91L180.68 149.91Q184.73 149.91 186.86 151.21Q189 152.50 189 155.45Q189 157.70 187.50 159.48Q186 161.26 183.28 162.27Q180.55 163.28 176.81 163.28M177.29 143.18Q178.17 143.18 178.83 142.76Q179.49 142.34 179.89 141.55Q180.28 140.76 180.28 139.52Q180.28 137.76 179.43 136.88Q178.57 136 177.29 136Q176.02 136 175.16 136.88Q174.30 137.76 174.30 139.52Q174.30 140.76 174.72 141.55Q175.14 142.34 175.80 142.76Q176.46 143.18 177.29 143.18M177.82 159.24Q179.27 159.24 180.39 158.88Q181.52 158.53 182.18 157.92Q182.84 157.30 182.84 156.55Q182.84 155.50 181.96 155.17Q181.08 154.84 179.49 154.84L177.25 154.84Q176.10 154.84 175.42 154.77Q174.74 154.70 174.17 154.57Q173.55 155.10 173.27 155.61Q172.98 156.11 172.98 156.73Q172.98 157.96 174.32 158.60Q175.66 159.24 177.82 159.24" fill="#1F2937"/><path d="M32.96 194L31.62 194L31.62 184.64L28.45 184.64L28.45 183.50L36.13 183.50L36.13 184.64L32.96 184.64 M39.20 194L37.89 194L37.89 182.61L39.20 182.61L39.20 185.71L39.15 187.31Q39.71 186.78 40.33 186.41Q40.94 186.03 41.74 186.03Q42.98 186.03 43.54 186.81Q44.11 187.58 44.11 189.07L44.11 194L42.80 194L42.80 189.25Q42.80 188.14 42.46 187.66Q42.11 187.17 41.33 187.17Q40.74 187.17 40.26 187.47Q39.79 187.78 39.20 188.37 M49.74 194.19Q48.70 194.19 47.85 193.70Q46.99 193.22 46.50 192.31Q46 191.41 46 190.11Q46 188.85 46.51 187.94Q47.02 187.02 47.82 186.53Q48.62 186.03 49.52 186.03Q50.51 186.03 51.21 186.49Q51.90 186.94 52.26 187.76Q52.61 188.58 52.61 189.68Q52.61 189.89 52.60 190.08Q52.59 190.27 52.54 190.46L46.94 190.46L46.94 189.42L51.42 189.42Q51.42 188.30 50.94 187.70Q50.45 187.10 49.54 187.10Q49.01 187.10 48.50 187.40Q47.98 187.70 47.66 188.35Q47.33 189.01 47.33 190.10Q47.33 191.09 47.67 191.76Q48.02 192.43 48.61 192.78Q49.20 193.12 49.90 193.12Q50.46 193.12 50.95 192.96Q51.44 192.80 51.84 192.53L52.32 193.39Q51.81 193.74 51.18 193.97Q50.54 194.19 49.74 194.19 M63.98 197.28L62.66 197.28L62.66 194.51L62.72 193.10Q62.26 193.55 61.66 193.87Q61.06 194.19 60.38 194.19Q58.91 194.19 58.04 193.13Q57.17 192.06 57.17 190.13Q57.17 188.86 57.64 187.94Q58.11 187.02 58.88 186.53Q59.65 186.03 60.54 186.03Q61.22 186.03 61.74 186.27Q62.26 186.51 62.77 186.96L62.80 186.96L62.93 186.22L63.98 186.22L63.98 197.28M60.67 193.09Q61.22 193.09 61.70 192.82Q62.18 192.54 62.66 192.02L62.66 187.95Q62.18 187.50 61.71 187.32Q61.25 187.14 60.77 187.14Q60.14 187.14 59.64 187.51Q59.14 187.89 58.83 188.55Q58.53 189.22 58.53 190.11Q58.53 191.50 59.09 192.30Q59.65 193.09 60.67 193.09 M68.88 194.19Q67.65 194.19 67.08 193.42Q66.51 192.64 66.51 191.15L66.51 186.22L67.82 186.22L67.82 190.98Q67.82 192.06 68.17 192.55Q68.51 193.04 69.28 193.04Q69.87 193.04 70.34 192.73Q70.82 192.42 71.38 191.74L71.38 186.22L72.69 186.22L72.69 194L71.60 194L71.49 192.78L71.44 192.78Q70.91 193.42 70.30 193.81Q69.68 194.19 68.88 194.19 M76.62 194L75.31 194L75.31 186.22L76.62 186.22L76.62 194M75.97 184.62Q75.58 184.62 75.34 184.38Q75.09 184.14 75.09 183.76Q75.09 183.38 75.34 183.14Q75.58 182.90 75.97 182.90Q76.35 182.90 76.60 183.14Q76.85 183.38 76.85 183.76Q76.85 184.14 76.60 184.38Q76.35 184.62 75.97 184.62 M82.34 194.19Q81.30 194.19 80.46 193.71Q79.63 193.23 79.15 192.32Q78.67 191.41 78.67 190.13Q78.67 188.82 79.19 187.90Q79.71 186.99 80.57 186.51Q81.42 186.03 82.42 186.03Q83.18 186.03 83.74 186.29Q84.29 186.54 84.69 186.94L84.03 187.76Q83.74 187.47 83.35 187.30Q82.96 187.14 82.46 187.14Q81.78 187.14 81.22 187.51Q80.67 187.89 80.35 188.56Q80.03 189.23 80.03 190.13Q80.03 191.01 80.34 191.68Q80.64 192.35 81.18 192.73Q81.73 193.10 82.45 193.10Q82.99 193.10 83.46 192.90Q83.92 192.69 84.26 192.37L84.83 193.17Q84.34 193.63 83.71 193.91Q83.09 194.19 82.34 194.19 M87.86 194L86.54 194L86.54 182.61L87.86 182.61L87.86 190.30L87.89 190.30L91.18 186.22L92.66 186.22L90.06 189.36L93.01 194L91.57 194L89.30 190.26L87.86 191.95 M101.10 194.19Q100.56 194.19 99.98 193.93Q99.41 193.66 98.88 193.20L98.83 193.20L98.72 194L97.66 194L97.66 182.61L98.98 182.61L98.98 185.71L98.94 187.12Q99.47 186.66 100.10 186.34Q100.74 186.03 101.38 186.03Q102.38 186.03 103.07 186.52Q103.76 187.01 104.11 187.90Q104.46 188.78 104.46 189.98Q104.46 191.31 103.99 192.26Q103.52 193.20 102.75 193.70Q101.98 194.19 101.10 194.19M100.88 193.09Q101.52 193.09 102.02 192.72Q102.53 192.35 102.82 191.66Q103.10 190.96 103.10 190Q103.10 189.15 102.90 188.50Q102.69 187.86 102.24 187.50Q101.79 187.14 101.06 187.14Q100.58 187.14 100.06 187.40Q99.54 187.66 98.98 188.19L98.98 192.27Q99.49 192.72 99.99 192.90Q100.50 193.09 100.88 193.09 M107.82 194L106.51 194L106.51 186.22L107.60 186.22L107.71 187.63L107.76 187.63Q108.14 186.90 108.72 186.46Q109.30 186.03 109.97 186.03Q110.22 186.03 110.42 186.06Q110.61 186.10 110.80 186.19L110.51 187.31Q110.34 187.26 110.18 187.24Q110.03 187.22 109.79 187.22Q109.30 187.22 108.76 187.62Q108.22 188.02 107.82 189.01 M115.09 194.19Q114.14 194.19 113.32 193.71Q112.50 193.23 111.99 192.32Q111.49 191.41 111.49 190.13Q111.49 188.82 111.99 187.90Q112.50 186.99 113.32 186.51Q114.14 186.03 115.09 186.03Q116.05 186.03 116.86 186.51Q117.68 186.99 118.18 187.90Q118.69 188.82 118.69 190.13Q118.69 191.41 118.18 192.32Q117.68 193.23 116.86 193.71Q116.05 194.19 115.09 194.19M115.09 193.10Q115.76 193.10 116.27 192.73Q116.78 192.35 117.06 191.68Q117.33 191.01 117.33 190.13Q117.33 189.23 117.06 188.55Q116.78 187.87 116.27 187.50Q115.76 187.12 115.09 187.12Q114.42 187.12 113.91 187.50Q113.41 187.87 113.13 188.55Q112.85 189.23 112.85 190.13Q112.85 191.01 113.13 191.68Q113.41 192.35 113.91 192.73Q114.42 193.10 115.09 193.10 M123.60 194L121.97 194L119.81 186.22L121.18 186.22L122.32 190.72Q122.45 191.25 122.56 191.78Q122.67 192.30 122.77 192.93L122.83 192.93Q122.96 192.30 123.08 191.78Q123.20 191.25 123.33 190.72L124.48 186.22L125.92 186.22L127.09 190.72Q127.23 191.25 127.35 191.78Q127.47 192.30 127.60 192.93L127.66 192.93Q127.79 192.30 127.90 191.78Q128.02 191.25 128.13 190.72L129.26 186.22L130.54 186.22L128.45 194L126.74 194L125.70 189.84Q125.57 189.30 125.45 188.76Q125.33 188.22 125.20 187.54L125.14 187.54Q125.02 188.22 124.90 188.77Q124.78 189.31 124.64 189.84 M133.55 194L132.24 194L132.24 186.22L133.33 186.22L133.44 187.34L133.49 187.34Q134.05 186.78 134.67 186.41Q135.30 186.03 136.10 186.03Q137.33 186.03 137.90 186.81Q138.46 187.58 138.46 189.07L138.46 194L137.15 194L137.15 189.25Q137.15 188.14 136.81 187.66Q136.46 187.17 135.68 187.17Q135.09 187.17 134.62 187.47Q134.14 187.78 133.55 188.37 M145.73 194L144.42 194L144.42 184.99Q144.42 184.21 144.66 183.62Q144.90 183.04 145.40 182.73Q145.90 182.42 146.69 182.42Q147.04 182.42 147.38 182.49Q147.73 182.56 147.98 182.67L147.70 183.63Q147.23 183.49 146.82 183.49Q146.27 183.49 NaN 183.86Q145.73 184.24 145.73 184.99L145.73 194M147.38 187.30L143.26 187.30L143.26 186.30L144.48 186.22L147.38 186.22 M151.89 194.19Q150.94 194.19 150.12 193.71Q149.30 193.23 148.79 192.32Q148.29 191.41 148.29 190.13Q148.29 188.82 148.79 187.90Q149.30 186.99 150.12 186.51Q150.94 186.03 151.89 186.03Q152.85 186.03 153.66 186.51Q154.48 186.99 154.98 187.90Q155.49 188.82 155.49 190.13Q155.49 191.41 154.98 192.32Q154.48 193.23 153.66 193.71Q152.85 194.19 151.89 194.19M151.89 193.10Q152.56 193.10 153.07 192.73Q153.58 192.35 153.86 191.68Q154.13 191.01 154.13 190.13Q154.13 189.23 153.86 188.55Q153.58 187.87 153.07 187.50Q152.56 187.12 151.89 187.12Q151.22 187.12 150.71 187.50Q150.21 187.87 149.93 188.55Q149.65 189.23 149.65 190.13Q149.65 191.01 149.93 191.68Q150.21 192.35 150.71 192.73Q151.22 193.10 151.89 193.10 M157.82 194L156.45 194L158.99 189.94L156.64 186.22L158.06 186.22L159.10 187.94Q159.28 188.24 159.48 188.57Q159.68 188.90 159.87 189.23L159.94 189.23Q160.11 188.90 160.29 188.57Q160.46 188.24 160.64 187.94L161.58 186.22L162.96 186.22L160.61 190.08L163.14 194L161.71 194L160.58 192.19Q160.37 191.84 160.15 191.49Q159.94 191.14 159.73 190.80L159.66 190.80Q159.46 191.14 159.26 191.48Q159.07 191.82 158.88 192.19 M167.07 197.47Q166.74 197.47 166.43 197.41Q166.13 197.34 165.92 197.25L166.19 196.26Q166.34 196.30 166.54 196.35Q166.74 196.40 166.93 196.40Q167.50 196.40 167.70 195.99Q167.89 195.58 167.89 194.86L167.89 186.22L169.20 186.22L169.20 194.88Q169.20 195.66 168.98 196.25Q168.77 196.83 168.30 197.15Q167.84 197.47 167.07 197.47M168.53 184.62Q168.14 184.62 167.90 184.38Q167.65 184.14 167.65 183.76Q167.65 183.38 167.90 183.14Q168.14 182.90 168.53 182.90Q168.91 182.90 169.16 183.14Q169.41 183.38 169.41 183.76Q169.41 184.14 169.16 184.38Q168.91 184.62 168.53 184.62 M174.10 194.19Q172.86 194.19 172.30 193.42Q171.73 192.64 171.73 191.15L171.73 186.22L173.04 186.22L173.04 190.98Q173.04 192.06 173.38 192.55Q173.73 193.04 174.50 193.04Q175.09 193.04 175.56 192.73Q176.03 192.42 176.59 191.74L176.59 186.22L177.90 186.22L177.90 194L176.82 194L176.70 192.78L176.66 192.78Q176.13 193.42 175.51 193.81Q174.90 194.19 174.10 194.19 M181.84 194L180.53 194L180.53 186.22L181.62 186.22L181.73 187.34L181.78 187.34Q182.29 186.80 182.89 186.42Q183.49 186.03 184.19 186.03Q185.09 186.03 185.59 186.43Q186.10 186.83 186.34 187.52Q186.94 186.85 187.57 186.44Q188.19 186.03 188.90 186.03Q190.11 186.03 190.69 186.81Q191.26 187.58 191.26 189.07L191.26 194L189.95 194L189.95 189.25Q189.95 188.14 189.60 187.66Q189.25 187.17 188.51 187.17Q188.05 187.17 187.58 187.46Q187.10 187.76 186.56 188.37L186.56 194L185.25 194L185.25 189.25Q185.25 188.14 184.90 187.66Q184.54 187.17 183.79 187.17Q182.91 187.17 181.84 188.37 M195.10 197.28L193.79 197.28L193.79 186.22L194.88 186.22L194.99 187.12L195.04 187.12Q195.57 186.67 196.21 186.35Q196.85 186.03 197.52 186.03Q198.51 186.03 199.20 186.52Q199.89 187.01 200.24 187.90Q200.59 188.78 200.59 190Q200.59 191.31 200.12 192.26Q199.65 193.20 198.88 193.70Q198.11 194.19 197.23 194.19Q196.70 194.19 196.16 193.95Q195.62 193.71 195.07 193.30L195.10 194.66L195.10 197.28M197.01 193.09Q197.65 193.09 198.15 192.72Q198.66 192.35 198.94 191.66Q199.23 190.96 199.23 190Q199.23 189.15 199.02 188.50Q198.82 187.86 198.37 187.50Q197.92 187.14 197.18 187.14Q196.70 187.14 196.19 187.40Q195.68 187.66 195.10 188.19L195.10 192.27Q195.65 192.72 196.14 192.90Q196.62 193.09 197.01 193.09 M204.70 194.19Q203.86 194.19 203.10 193.90Q202.34 193.60 201.81 193.07L202.42 192.30Q202.93 192.72 203.48 192.94Q204.03 193.17 204.75 193.17Q205.52 193.17 205.90 192.81Q206.29 192.45 206.29 191.95Q206.29 191.55 206.02 191.29Q205.76 191.02 205.37 190.84Q204.98 190.66 204.53 190.50Q203.95 190.29 203.42 190.01Q202.90 189.73 202.57 189.30Q202.24 188.88 202.24 188.24Q202.24 187.30 202.95 186.66Q203.66 186.03 204.93 186.03Q205.65 186.03 206.27 186.28Q206.90 186.53 207.34 186.91L206.74 187.66Q206.32 187.38 205.89 187.22Q205.46 187.06 204.93 187.06Q204.19 187.06 203.85 187.39Q203.50 187.73 203.50 188.18Q203.50 188.53 203.71 188.76Q203.92 188.99 204.30 189.17Q204.67 189.34 205.15 189.50Q205.76 189.73 206.31 190.01Q206.86 190.29 207.21 190.73Q207.55 191.17 207.55 191.87Q207.55 192.51 207.22 193.03Q206.90 193.55 206.26 193.87Q205.63 194.19 204.70 194.19 M215.60 194.19Q214.66 194.19 213.83 193.71Q213.01 193.23 212.50 192.32Q212 191.41 212 190.13Q212 188.82 212.50 187.90Q213.01 186.99 213.83 186.51Q214.66 186.03 215.60 186.03Q216.56 186.03 217.38 186.51Q218.19 186.99 218.70 187.90Q219.20 188.82 219.20 190.13Q219.20 191.41 218.70 192.32Q218.19 193.23 217.38 193.71Q216.56 194.19 215.60 194.19M215.60 193.10Q216.27 193.10 216.78 192.73Q217.30 192.35 217.57 191.68Q217.84 191.01 217.84 190.13Q217.84 189.23 217.57 188.55Q217.30 187.87 216.78 187.50Q216.27 187.12 215.60 187.12Q214.93 187.12 214.42 187.50Q213.92 187.87 213.64 188.55Q213.36 189.23 213.36 190.13Q213.36 191.01 213.64 191.68Q213.92 192.35 214.42 192.73Q214.93 193.10 215.60 193.10 M224.46 194L222.93 194L220.13 186.22L221.49 186.22L222.96 190.64Q223.14 191.20 223.32 191.78Q223.50 192.37 223.68 192.93L223.74 192.93Q223.90 192.37 224.10 191.78Q224.29 191.20 224.45 190.64L225.92 186.22L227.22 186.22 M231.87 194.19Q230.83 194.19 229.98 193.70Q229.12 193.22 228.62 192.31Q228.13 191.41 228.13 190.11Q228.13 188.85 228.64 187.94Q229.15 187.02 229.95 186.53Q230.75 186.03 231.65 186.03Q232.64 186.03 233.34 186.49Q234.03 186.94 234.38 187.76Q234.74 188.58 234.74 189.68Q234.74 189.89 234.73 190.08Q234.72 190.27 234.67 190.46L229.07 190.46L229.07 189.42L233.55 189.42Q233.55 188.30 233.06 187.70Q232.58 187.10 231.66 187.10Q231.14 187.10 230.62 187.40Q230.11 187.70 229.78 188.35Q229.46 189.01 229.46 190.10Q229.46 191.09 229.80 191.76Q230.14 192.43 230.74 192.78Q231.33 193.12 232.03 193.12Q232.59 193.12 233.08 192.96Q233.57 192.80 233.97 192.53L234.45 193.39Q233.94 193.74 233.30 193.97Q232.67 194.19 231.87 194.19 M237.97 194L236.66 194L236.66 186.22L237.74 186.22L237.86 187.63L237.90 187.63Q238.29 186.90 238.86 186.46Q239.44 186.03 240.11 186.03Q240.37 186.03 240.56 186.06Q240.75 186.10 240.94 186.19L240.66 187.31Q240.48 187.26 240.33 187.24Q240.18 187.22 239.94 187.22Q239.44 187.22 238.90 187.62Q238.37 188.02 237.97 189.01 M247.86 194.14Q246.62 194.14 246.13 193.42Q245.63 192.70 245.63 191.55L245.63 187.30L244.48 187.30L244.48 186.30L245.70 186.22L245.86 183.73L246.96 183.73L246.96 186.22L249.07 186.22L249.07 187.30L246.96 187.30L246.96 191.57Q246.96 192.27 247.22 192.67Q247.49 193.07 248.16 193.07Q248.37 193.07 248.59 193.03Q248.82 192.99 249.04 192.88L249.33 193.81Q249.02 193.95 248.64 194.05Q248.26 194.14 247.86 194.14 M252.13 194L250.82 194L250.82 182.61L252.13 182.61L252.13 185.71L252.08 187.31Q252.64 186.78 253.26 186.41Q253.87 186.03 254.67 186.03Q255.90 186.03 256.47 186.81Q257.04 187.58 257.04 189.07L257.04 194L255.73 194L255.73 189.25Q255.73 188.14 255.38 187.66Q255.04 187.17 254.26 187.17Q253.66 187.17 253.19 187.47Q252.72 187.78 252.13 188.37 M262.67 194.19Q261.63 194.19 260.78 193.70Q259.92 193.22 259.42 192.31Q258.93 191.41 258.93 190.11Q258.93 188.85 259.44 187.94Q259.95 187.02 260.75 186.53Q261.55 186.03 262.45 186.03Q263.44 186.03 264.14 186.49Q264.83 186.94 265.18 187.76Q265.54 188.58 265.54 189.68Q265.54 189.89 265.53 190.08Q265.52 190.27 265.47 190.46L259.87 190.46L259.87 189.42L264.35 189.42Q264.35 188.30 263.86 187.70Q263.38 187.10 262.46 187.10Q261.94 187.10 261.42 187.40Q260.91 187.70 260.58 188.35Q260.26 189.01 260.26 190.10Q260.26 191.09 260.60 191.76Q260.94 192.43 261.54 192.78Q262.13 193.12 262.83 193.12Q263.39 193.12 263.88 192.96Q264.37 192.80 264.77 192.53L265.25 193.39Q264.74 193.74 264.10 193.97Q263.47 194.19 262.67 194.19 M272.05 194.14Q271.55 194.14 271.25 193.94Q270.94 193.74 270.80 193.35Q270.66 192.96 270.66 192.40L270.66 182.61L271.97 182.61L271.97 192.50Q271.97 192.82 272.08 192.94Q272.19 193.06 272.35 193.06Q272.42 193.06 272.47 193.05Q272.53 193.04 272.62 193.02L272.82 194.02Q272.67 194.06 272.49 194.10Q272.30 194.14 272.05 194.14 M276.53 194.19Q275.89 194.19 275.37 193.93Q274.85 193.66 274.54 193.18Q274.24 192.69 274.24 191.98Q274.24 190.67 275.39 190Q276.54 189.33 279.04 189.06Q279.02 188.58 278.89 188.13Q278.75 187.68 278.40 187.41Q278.05 187.14 277.42 187.14Q276.75 187.14 276.16 187.38Q275.57 187.63 275.10 187.94L274.59 187.04Q274.94 186.80 275.42 186.57Q275.90 186.34 276.46 186.18Q277.02 186.03 277.65 186.03Q278.59 186.03 279.19 186.42Q279.79 186.82 280.07 187.54Q280.35 188.26 280.35 189.23L280.35 194L279.26 194L279.15 193.07L279.10 193.07Q278.54 193.54 277.90 193.86Q277.26 194.19 276.53 194.19M276.90 193.10Q277.47 193.10 277.98 192.85Q278.48 192.59 279.04 192.10L279.04 190Q277.73 190.16 276.97 190.41Q276.21 190.66 275.87 191.02Q275.54 191.39 275.54 191.90Q275.54 192.54 275.94 192.82Q276.34 193.10 276.90 193.10 M287.87 194L281.98 194L281.98 193.30L286.08 187.30L282.43 187.30L282.43 186.22L287.74 186.22L287.74 186.93L283.65 192.93L287.87 192.93 M289.73 197.34Q289.47 197.34 289.24 197.30Q289.01 197.25 288.82 197.18L289.10 196.16Q289.25 196.21 289.39 196.23Q289.54 196.26 289.66 196.26Q290.34 196.26 290.76 195.78Q291.18 195.31 291.42 194.59L291.60 194.02L288.48 186.22L289.84 186.22L291.42 190.53Q291.62 191.02 291.81 191.60Q292 192.18 292.18 192.72L292.24 192.72Q292.42 192.18 292.58 191.61Q292.75 191.04 292.90 190.53L294.29 186.22L295.57 186.22L292.64 194.64Q292.37 195.41 291.98 196.02Q291.60 196.64 291.06 196.99Q290.51 197.34 289.73 197.34 M302.93 194.19Q301.46 194.19 300.58 193.13Q299.71 192.06 299.71 190.13Q299.71 188.86 300.18 187.94Q300.66 187.02 301.42 186.53Q302.19 186.03 303.09 186.03Q303.78 186.03 304.26 186.26Q304.75 186.50 305.26 186.93L305.20 185.60L305.20 182.61L306.53 182.61L306.53 194L305.44 194L305.33 193.09L305.28 193.09Q304.83 193.54 304.22 193.86Q303.62 194.19 302.93 194.19M303.22 193.09Q303.76 193.09 304.24 192.82Q304.72 192.54 305.20 192.02L305.20 187.95Q304.72 187.50 304.26 187.32Q303.79 187.14 303.31 187.14Q302.69 187.14 302.18 187.51Q301.68 187.89 301.38 188.55Q301.07 189.22 301.07 190.11Q301.07 191.50 301.63 192.30Q302.19 193.09 303.22 193.09 M312.18 194.19Q311.23 194.19 310.41 193.71Q309.58 193.23 309.08 192.32Q308.58 191.41 308.58 190.13Q308.58 188.82 309.08 187.90Q309.58 186.99 310.41 186.51Q311.23 186.03 312.18 186.03Q313.14 186.03 313.95 186.51Q314.77 186.99 315.27 187.90Q315.78 188.82 315.78 190.13Q315.78 191.41 315.27 192.32Q314.77 193.23 313.95 193.71Q313.14 194.19 312.18 194.19M312.18 193.10Q312.85 193.10 313.36 192.73Q313.87 192.35 314.14 191.68Q314.42 191.01 314.42 190.13Q314.42 189.23 314.14 188.55Q313.87 187.87 313.36 187.50Q312.85 187.12 312.18 187.12Q311.50 187.12 311 187.50Q310.50 187.87 310.22 188.55Q309.94 189.23 309.94 190.13Q309.94 191.01 310.22 191.68Q310.50 192.35 311 192.73Q311.50 193.10 312.18 193.10 M320.45 197.58Q319.50 197.58 318.78 197.34Q318.05 197.09 317.64 196.62Q317.23 196.16 317.23 195.49Q317.23 194.99 317.54 194.54Q317.84 194.08 318.37 193.73L318.37 193.66Q318.08 193.47 317.88 193.16Q317.68 192.85 317.68 192.40Q317.68 191.90 317.96 191.54Q318.24 191.17 318.53 190.96L318.53 190.90Q318.16 190.58 317.84 190.03Q317.52 189.49 317.52 188.80Q317.52 187.95 317.93 187.33Q318.34 186.70 319 186.37Q319.66 186.03 320.45 186.03Q320.77 186.03 321.06 186.09Q321.34 186.14 321.55 186.22L324.26 186.22L324.26 187.23L322.64 187.23L322.64 187.30Q322.93 187.55 323.11 187.94Q323.30 188.32 323.30 188.85Q323.30 189.68 322.91 190.28Q322.53 190.88 321.89 191.21Q321.25 191.54 320.45 191.54Q320.16 191.54 319.86 191.46Q319.55 191.39 319.28 191.26Q319.09 191.44 318.94 191.65Q318.78 191.86 318.78 192.19Q318.78 192.56 319.08 192.80Q319.38 193.04 320.16 193.04L321.66 193.04Q323.02 193.04 323.70 193.48Q324.38 193.92 324.38 194.90Q324.38 195.62 323.90 196.22Q323.42 196.83 322.54 197.21Q321.65 197.58 320.45 197.58M320.45 190.66Q320.90 190.66 321.27 190.42Q321.65 190.19 321.87 189.78Q322.10 189.36 322.10 188.80Q322.10 187.94 321.62 187.46Q321.14 186.99 320.45 186.99Q319.76 186.99 319.28 187.46Q318.80 187.94 318.80 188.80Q318.80 189.36 319.02 189.78Q319.25 190.19 319.62 190.42Q320 190.66 320.45 190.66M320.64 196.67Q321.38 196.67 321.93 196.45Q322.48 196.22 322.79 195.86Q323.10 195.49 323.10 195.09Q323.10 194.54 322.70 194.34Q322.29 194.13 321.54 194.13L320.19 194.13Q319.97 194.13 319.70 194.10Q319.44 194.06 319.18 194Q318.75 194.30 318.57 194.64Q318.38 194.98 318.38 195.31Q318.38 195.94 318.98 196.30Q319.58 196.67 320.64 196.67 M326.58 194.19Q326.19 194.19 325.90 193.91Q325.62 193.63 325.62 193.20Q325.62 192.74 325.90 192.46Q326.19 192.18 326.58 192.18Q326.98 192.18 327.25 192.46Q327.52 192.74 327.52 193.20Q327.52 193.63 327.25 193.91Q326.98 194.19 326.58 194.19" fill="#1F2937"/><path d="M29.51 232L27.97 232L30.74 223.50L32.51 223.50L35.28 232L33.69 232L32.39 227.48Q32.19 226.80 32 226.09Q31.81 225.37 31.63 224.67L31.57 224.67Q31.41 225.38 31.22 226.09Q31.03 226.80 30.82 227.48L29.51 232M33.62 229.70L29.61 229.70L29.61 228.52L33.62 228.52 M39.75 232.16Q38.67 232.16 37.80 231.65Q36.92 231.14 36.40 230.16Q35.89 229.18 35.89 227.78Q35.89 226.74 36.19 225.91Q36.49 225.08 37.03 224.51Q37.57 223.94 38.27 223.64Q38.97 223.34 39.78 223.34Q40.58 223.34 41.21 223.66Q41.83 223.98 42.23 224.42L41.43 225.34Q41.10 225.01 40.71 224.83Q40.31 224.66 39.82 224.66Q39.14 224.66 38.60 225.03Q38.06 225.41 37.75 226.10Q37.44 226.79 37.44 227.74Q37.44 228.71 37.74 229.41Q38.04 230.10 38.58 230.47Q39.13 230.84 39.86 230.84Q40.40 230.84 40.83 230.62Q41.26 230.40 41.61 230.04L42.38 230.93Q41.86 231.53 41.21 231.84Q40.56 232.16 39.75 232.16 M47.24 232.16Q46.16 232.16 45.28 231.65Q44.41 231.14 43.89 230.16Q43.38 229.18 43.38 227.78Q43.38 226.74 43.68 225.91Q43.98 225.08 44.52 224.51Q45.06 223.94 45.76 223.64Q46.46 223.34 47.27 223.34Q48.07 223.34 48.70 223.66Q49.32 223.98 49.72 224.42L48.92 225.34Q48.59 225.01 48.20 224.83Q47.80 224.66 47.30 224.66Q46.63 224.66 46.09 225.03Q45.55 225.41 45.24 226.10Q44.93 226.79 44.93 227.74Q44.93 228.71 45.22 229.41Q45.52 230.10 46.07 230.47Q46.62 230.84 47.34 230.84Q47.89 230.84 48.32 230.62Q48.75 230.40 49.10 230.04L49.87 230.93Q49.35 231.53 48.70 231.84Q48.05 232.16 47.24 232.16 M56.56 232L51.31 232L51.31 223.50L56.43 223.50L56.43 224.77L52.82 224.77L52.82 226.94L55.87 226.94L55.87 228.22L52.82 228.22L52.82 230.73L56.56 230.73 M59.75 232L58.30 232L58.30 223.50L59.95 223.50L62.50 228.18Q62.74 228.61 62.95 229.10Q63.16 229.59 63.36 230.10L63.41 230.10Q63.36 229.41 63.29 228.67Q63.23 227.92 63.23 227.22L63.23 223.50L64.67 223.50L64.67 232L63.02 232L60.47 227.32Q60.24 226.89 60.01 226.40Q59.78 225.90 59.59 225.40L59.54 225.40Q59.62 226.06 59.68 226.81Q59.75 227.55 59.75 228.28 M70.07 232L68.56 232L68.56 224.77L66.10 224.77L66.10 223.50L72.53 223.50L72.53 224.77L70.07 224.77 M85.32 229.22L76.01 229.22L76.01 228.23L85.32 228.23 M94.55 232L88.96 232L88.96 231.08Q90.10 230.01 90.94 229.13Q91.78 228.26 92.24 227.53Q92.70 226.81 92.70 226.19Q92.70 225.53 92.36 225.14Q92.01 224.76 91.34 224.76Q90.85 224.76 90.46 225.03Q90.06 225.31 89.72 225.68L88.92 224.89Q89.48 224.26 90.09 223.92Q90.70 223.58 91.53 223.58Q92.32 223.58 92.91 223.89Q93.49 224.20 93.82 224.77Q94.14 225.33 94.14 226.10Q94.14 226.87 93.72 227.62Q93.30 228.37 92.58 229.16Q91.87 229.95 91 230.82Q91.32 230.78 91.71 230.75Q92.09 230.73 92.39 230.73L94.55 230.73 M98.46 232.16Q97.17 232.16 96.41 231.04Q95.65 229.93 95.65 227.83Q95.65 225.73 96.41 224.66Q97.17 223.58 98.46 223.58Q99.75 223.58 100.51 224.66Q101.27 225.73 101.27 227.83Q101.27 229.93 100.51 231.04Q99.75 232.16 98.46 232.16M98.46 230.99Q98.86 230.99 99.17 230.69Q99.49 230.39 99.66 229.69Q99.84 229 99.84 227.83Q99.84 226.66 99.66 225.98Q99.49 225.31 99.17 225.03Q98.86 224.75 98.46 224.75Q98.07 224.75 97.76 225.03Q97.45 225.31 97.26 225.98Q97.08 226.66 97.08 227.83Q97.08 229 97.26 229.69Q97.45 230.39 97.76 230.69Q98.07 230.99 98.46 230.99 M107.88 232L102.29 232L102.29 231.08Q103.44 230.01 104.28 229.13Q105.12 228.26 105.58 227.53Q106.04 226.81 106.04 226.19Q106.04 225.53 105.69 225.14Q105.35 224.76 104.67 224.76Q104.19 224.76 103.80 225.03Q103.40 225.31 103.06 225.68L102.26 224.89Q102.81 224.26 103.43 223.92Q104.04 223.58 104.87 223.58Q105.66 223.58 106.25 223.89Q106.83 224.20 107.16 224.77Q107.48 225.33 107.48 226.10Q107.48 226.87 107.06 227.62Q106.64 228.37 105.92 229.16Q105.21 229.95 104.34 230.82Q104.66 230.78 105.04 230.75Q105.43 230.73 105.73 230.73L107.88 230.73 M112.04 232.16Q111.43 232.16 110.89 231.92Q110.35 231.68 109.94 231.18Q109.52 230.69 109.28 229.92Q109.04 229.15 109.04 228.11Q109.04 226.92 109.31 226.05Q109.57 225.19 110.04 224.64Q110.50 224.10 111.08 223.84Q111.65 223.58 112.29 223.58Q113.05 223.58 113.59 223.85Q114.14 224.12 114.50 224.51L113.70 225.42Q113.47 225.15 113.12 224.97Q112.76 224.80 112.38 224.80Q111.85 224.80 111.40 225.11Q110.95 225.42 110.69 226.15Q110.43 226.88 110.43 228.11Q110.43 229.14 110.63 229.78Q110.84 230.41 111.19 230.71Q111.55 231.01 112.02 231.01Q112.37 231.01 112.65 230.83Q112.93 230.65 113.09 230.30Q113.25 229.95 113.25 229.44Q113.25 228.94 113.10 228.62Q112.94 228.29 112.66 228.13Q112.37 227.97 111.95 227.97Q111.59 227.97 111.18 228.20Q110.77 228.43 110.42 229L110.37 227.94Q110.72 227.44 111.24 227.16Q111.76 226.88 112.23 226.88Q112.94 226.88 113.49 227.16Q114.03 227.44 114.34 228.01Q114.64 228.58 114.64 229.44Q114.64 230.27 114.29 230.88Q113.93 231.49 113.34 231.82Q112.75 232.16 112.04 232.16" fill="#2563EB"/></svg>