<svg xmlns="http://www.w3.org/2000/svg" width="480" height="300" viewBox="0 0 480 300" role="img"><rect width="480" height="300" fill="#FAFAF9"/><rect x="0" y="0" width="240" height="84" fill="#1C1917"/><rect x="240" y="0" width="120" height="84" fill="#44403C"/><rect x="360" y="0" width="72" height="84" fill="#292524"/><rect x="432" y="0" width="48" height="84" fill="#A16207"/><path d="M52.33 150.44L52.33 130.15Q52.33 128.88 52.07 128.22Q51.80 127.56 51.01 127.29Q50.22 127.03 48.59 127.03Q48.46 127.03 48.46 126.76Q48.46 126.50 48.59 126.50Q49.69 126.50 51.12 126.57Q52.55 126.63 54.44 126.63Q55.98 126.63 57.48 126.57Q58.98 126.50 60.08 126.50Q60.21 126.50 60.21 126.76Q60.21 127.03 60.08 127.03Q58.54 127.03 57.77 127.27Q57 127.51 56.73 128.15Q56.47 128.79 56.47 130.06L56.47 150.44Q56.47 151.71 56.73 152.37Q57 153.03 57.77 153.25Q58.54 153.47 60.08 153.47Q60.21 153.47 60.21 153.74Q60.21 154 60.08 154Q58.98 154 57.48 153.96Q55.98 153.91 54.44 153.91Q52.55 153.91 51.12 153.96Q49.69 154 48.59 154Q48.46 154 48.46 153.74Q48.46 153.47 48.59 153.47Q50.22 153.47 51.01 153.25Q51.80 153.03 52.07 152.37Q52.33 151.71 52.33 150.44M54.22 140.27L34.95 140.27L34.95 139.13L54.22 139.13L54.22 140.27M33.02 150.44L33.02 130.06Q33.02 128.79 32.75 128.15Q32.49 127.51 31.74 127.27Q30.99 127.03 29.45 127.03Q29.36 127.03 29.36 126.76Q29.36 126.50 29.45 126.50Q30.60 126.50 32 126.57Q33.41 126.63 34.95 126.63Q36.84 126.63 38.30 126.57Q39.75 126.50 40.89 126.50Q40.98 126.50 40.98 126.76Q40.98 127.03 40.89 127.03Q39.31 127.03 38.52 127.29Q37.72 127.56 37.46 128.22Q37.20 128.88 37.20 130.15L37.20 150.44Q37.20 151.71 37.46 152.37Q37.72 153.03 38.54 153.25Q39.35 153.47 40.89 153.47Q40.98 153.47 40.98 153.74Q40.98 154 40.89 154Q39.70 154 38.27 153.96Q36.84 153.91 34.95 153.91Q33.41 153.91 31.96 153.96Q30.51 154 29.41 154Q29.32 154 29.32 153.74Q29.32 153.47 29.41 153.47Q30.95 153.47 31.70 153.25Q32.44 153.03 32.73 152.37Q33.02 151.71 33.02 150.44 M71.60 154.53Q68.83 154.53 66.90 153.34Q64.96 152.15 63.97 150.19Q62.98 148.24 62.98 146.04Q62.98 143.40 64.26 141.28Q65.53 139.17 67.73 137.90Q69.93 136.62 72.70 136.62Q75.30 136.62 76.75 137.85Q78.20 139.08 78.20 141.68Q78.20 142.25 78.12 142.60Q78.03 142.96 77.72 142.96L74.11 142.96Q74.24 140.40 73.52 138.95Q72.79 137.50 71.12 137.50Q69.14 137.50 68.02 139.33Q66.90 141.15 66.90 144.19Q66.90 146.74 67.69 148.61Q68.48 150.48 70.02 151.54Q71.56 152.59 73.80 152.59Q75.17 152.59 76.09 152.22Q77.02 151.84 78.07 151.27Q78.16 151.18 78.31 151.36Q78.47 151.54 78.38 151.67Q76.80 153.21 75.15 153.87Q73.50 154.53 71.60 154.53M75.34 142.96L65.62 143L65.58 142.25L75.34 142.08 M98.09 152.11L93.56 154.26Q93.38 154.35 93.16 154.35Q92.46 154.35 91.76 153.34Q91.05 152.33 91.05 150.39L91.05 142.65Q91.05 139.88 90.50 138.64Q89.95 137.41 88.76 137.41Q87.66 137.41 87.07 138.05Q86.48 138.69 86.21 139.50Q85.95 140.32 85.90 140.89Q85.77 141.99 85.22 142.56Q84.67 143.13 83.66 143.13Q82.65 143.13 82.21 142.67Q81.77 142.21 81.77 141.59Q81.77 140.62 82.67 139.72Q83.57 138.82 84.96 138.12Q86.34 137.41 87.84 136.99Q89.34 136.58 90.48 136.58Q92.28 136.58 93.45 137.72Q94.62 138.86 94.62 141.33L94.62 149.25Q94.62 150.61 95.06 151.32Q95.50 152.02 96.33 152.02Q97.04 152.02 97.92 151.62Q98.14 151.54 98.22 151.78Q98.31 152.02 98.09 152.11M85.29 154.31Q83.44 154.31 82.54 153.43Q81.64 152.55 81.64 151.18Q81.64 149.95 82.30 149.18Q82.96 148.41 84.14 147.91Q85.33 147.40 86.78 146.87L91.49 145.11L91.62 145.77L88.41 147.14Q87.88 147.31 87.27 147.64Q86.65 147.97 86.23 148.50Q85.82 149.03 85.82 149.91Q85.82 150.96 86.52 151.60Q87.22 152.24 88.10 152.24Q88.50 152.24 88.90 152.13Q89.29 152.02 89.82 151.67L92.20 150.08L92.24 150.74L89.12 152.94Q88.10 153.65 87.25 153.98Q86.39 154.31 85.29 154.31 M106.45 154.57Q104.60 154.57 103.02 153.54Q101.44 152.50 100.49 150.61Q99.54 148.72 99.54 146.04Q99.54 143.44 100.51 141.61Q101.48 139.79 103 138.64Q104.52 137.50 106.28 136.97Q108.04 136.44 109.62 136.44Q111.20 136.44 112.57 136.88Q113.93 137.32 115.03 138.03L114.20 141.37Q113.23 139.48 111.97 138.49Q110.72 137.50 108.78 137.50Q106.36 137.50 104.93 139.19Q103.50 140.89 103.50 144.67Q103.50 147.18 104.16 148.96Q104.82 150.74 106.01 151.69Q107.20 152.64 108.65 152.64Q110.46 152.64 111.86 151.62Q113.27 150.61 114.55 149.20L114.94 149.56Q114.02 150.61 112.77 151.78Q111.51 152.94 109.95 153.76Q108.39 154.57 106.45 154.57M116.88 122.58L116.88 148.98Q116.88 150.52 117.19 151.16Q117.50 151.80 118.24 151.80Q118.60 151.80 119.10 151.67Q119.61 151.54 120.22 151.27Q120.36 151.18 120.49 151.43Q120.62 151.67 120.49 151.76L114.86 154.48Q114.72 154.53 114.59 154.53Q114.11 154.53 113.71 153.47Q113.32 152.42 113.32 150.39L113.32 127.95Q113.32 126.46 113.05 125.75Q112.79 125.05 112 125.05Q111.64 125.05 111.20 125.20Q110.76 125.36 110.24 125.58Q110.06 125.66 109.93 125.40Q109.80 125.14 109.93 125.09L116.09 122.14Q116.18 122.10 116.26 122.10Q116.44 122.10 116.66 122.28Q116.88 122.45 116.88 122.58 M122.51 154Q122.38 154 122.38 153.74Q122.38 153.47 122.51 153.47Q124.01 153.47 124.51 152.86Q125.02 152.24 125.02 150.44L125.02 142.43Q125.02 140.93 124.71 140.25Q124.40 139.57 123.66 139.57Q123.30 139.57 122.86 139.70Q122.42 139.83 121.90 140.10Q121.72 140.14 121.61 139.88Q121.50 139.61 121.63 139.57L127.97 136.62Q128.06 136.58 128.10 136.58Q128.28 136.58 128.47 136.77Q128.67 136.97 128.67 137.10Q128.67 137.59 128.63 138.86Q128.58 140.14 128.58 142.38L128.58 150.44Q128.58 152.24 129.09 152.86Q129.60 153.47 131.09 153.47Q131.22 153.47 131.22 153.74Q131.22 154 131.09 154Q130.21 154 129.11 153.96Q128.01 153.91 126.78 153.91Q125.59 153.91 124.47 153.96Q123.35 154 122.51 154M126.56 131.96Q125.42 131.96 124.78 131.34Q124.14 130.72 124.14 129.58Q124.14 128.52 124.78 127.91Q125.42 127.29 126.56 127.29Q127.66 127.29 128.25 127.91Q128.85 128.52 128.85 129.58Q128.85 131.96 126.56 131.96 M145.92 154Q145.79 154 145.79 153.74Q145.79 153.47 145.92 153.47Q147.42 153.47 147.90 152.86Q148.38 152.24 148.38 150.44L148.38 143.84Q148.38 141.37 147.48 140.21Q146.58 139.04 144.64 139.04Q143.24 139.04 141.76 139.81Q140.29 140.58 139.32 141.94L139.10 141.42Q140.82 139.08 142.73 137.79Q144.64 136.49 146.84 136.49Q149.31 136.49 150.63 137.96Q151.95 139.44 151.95 141.94L151.95 150.44Q151.95 152.24 152.45 152.86Q152.96 153.47 154.46 153.47Q154.59 153.47 154.59 153.74Q154.59 154 154.46 154Q153.62 154 152.52 153.96Q151.42 153.91 150.19 153.91Q149 153.91 147.88 153.96Q146.76 154 145.92 154M134.08 154Q133.95 154 133.95 153.74Q133.95 153.47 134.08 153.47Q135.58 153.47 136.06 152.86Q136.55 152.24 136.55 150.44L136.55 142.03Q136.55 140.62 136.24 139.96Q135.93 139.30 135.14 139.30Q134.74 139.30 134.17 139.48Q133.60 139.66 132.94 139.96Q132.76 140.01 132.65 139.77Q132.54 139.52 132.68 139.48L138.44 136.66Q138.66 136.58 138.75 136.58Q139.19 136.58 139.65 137.59Q140.11 138.60 140.11 140.54L140.11 150.44Q140.11 152.24 140.62 152.86Q141.12 153.47 142.62 153.47Q142.75 153.47 142.75 153.74Q142.75 154 142.62 154Q141.78 154 140.68 153.96Q139.58 153.91 138.35 153.91Q137.16 153.91 136.04 153.96Q134.92 154 134.08 154 M163.26 166.36Q160.22 166.36 158.35 164.98Q156.48 163.59 156.48 161.44Q156.48 159.76 157.80 158.07Q159.12 156.38 162.24 154.48L162.68 155.01Q161.94 155.45 161.30 156.05Q160.66 156.64 160.31 157.45Q159.96 158.27 159.96 159.41Q159.96 161.26 160.73 162.49Q161.50 163.72 162.77 164.36Q164.05 165 165.63 165Q168.10 165 169.66 163.53Q171.22 162.05 171.22 159.54Q171.22 157.61 170.34 156.77Q169.46 155.94 167.94 155.74Q166.42 155.54 164.40 155.54Q162.77 155.54 161.23 155.34Q159.69 155.14 158.70 154.42Q157.71 153.69 157.71 152.20Q157.71 150.66 158.75 149.31Q159.78 147.97 161.94 146.78L162.38 147.09Q161.41 147.75 160.97 148.41Q160.53 149.07 160.53 149.95Q160.53 151.10 161.19 151.62Q161.85 152.15 163.15 152.28Q164.44 152.42 166.34 152.46Q167.70 152.46 169.09 152.55Q170.47 152.64 171.66 153.05Q172.85 153.47 173.60 154.44Q174.34 155.41 174.34 157.12Q174.34 158.97 173.44 160.64Q172.54 162.32 171 163.61Q169.46 164.91 167.46 165.64Q165.46 166.36 163.26 166.36M164.18 148.15Q162.07 148.15 160.55 147.29Q159.03 146.43 158.22 145.09Q157.40 143.75 157.40 142.30Q157.40 140.49 158.48 139.24Q159.56 137.98 161.28 137.35Q162.99 136.71 164.84 136.71Q167 136.71 168.51 137.48Q170.03 138.25 170.85 139.50Q171.66 140.76 171.66 142.25Q171.66 144.01 170.60 145.33Q169.55 146.65 167.85 147.40Q166.16 148.15 164.18 148.15M165.24 147.40Q166.29 147.40 167.08 146.50Q167.88 145.60 167.88 143.40Q167.88 141.42 167.24 140.12Q166.60 138.82 165.59 138.16Q164.58 137.50 163.52 137.50Q162.33 137.50 161.74 138.38Q161.14 139.26 161.14 141.06Q161.14 143 161.76 144.43Q162.38 145.86 163.30 146.63Q164.22 147.40 165.24 147.40M168.89 139.17L168.58 140.14L168.62 138.73Q170.03 137.72 171.35 137.17Q172.67 136.62 174.30 136.62Q174.48 136.62 174.54 136.95Q174.61 137.28 174.61 137.76Q174.61 138.34 174.45 139Q174.30 139.66 174.12 139.57Q173.46 139.26 172.65 139.06Q171.84 138.86 170.96 138.86Q170.43 138.86 169.92 138.93Q169.42 139 168.89 139.17" fill="#292524"/><path d="M31.42 194.08Q31.22 194.08 31.09 194.04Q30.96 194 30.96 193.90Q30.96 193.79 31.09 193.73Q31.22 193.66 31.49 193.62Q32.10 193.50 32.42 193.22Q32.74 192.94 32.74 192.37L32.74 186.16Q32.74 185.42 32.70 185.03Q32.67 184.64 32.60 184.48Q32.53 184.32 32.40 184.30Q32.18 184.26 31.93 184.25Q31.68 184.24 31.26 184.24L30.51 184.24Q30.13 184.24 29.75 184.39Q29.38 184.54 29.20 184.86Q29.15 184.94 29.04 185.10Q28.93 185.25 28.80 185.36Q28.67 185.47 28.54 185.47Q28.48 185.47 28.46 185.41Q28.43 185.34 28.43 185.26Q28.43 185.10 28.51 184.94Q28.74 184.48 28.84 184.12Q28.94 183.76 29.01 183.26Q29.04 182.99 29.13 182.94Q29.22 182.90 29.28 182.90Q29.34 182.90 29.48 183.09Q29.62 183.28 29.68 183.41Q29.78 183.57 30.12 183.65Q30.46 183.73 30.80 183.73L36.43 183.73Q36.99 183.73 37.34 183.66Q37.70 183.60 37.95 183.49Q38.14 183.39 38.26 183.28Q38.38 183.17 38.58 183.17Q38.62 183.17 38.66 183.29Q38.69 183.41 38.69 183.54Q38.69 183.62 38.66 183.76Q38.64 183.90 38.62 183.98Q38.58 184.27 38.54 184.40Q38.50 184.53 38.48 184.62Q38.46 184.72 38.46 184.93L38.46 185.12Q38.46 185.26 38.40 185.45Q38.34 185.63 38.21 185.63Q38.10 185.63 38.03 185.46Q37.97 185.28 37.90 184.98Q37.84 184.64 37.52 184.44Q37.20 184.24 36.43 184.24L34.82 184.24Q34.46 184.24 34.29 184.34Q34.11 184.43 34.06 184.82Q34.02 185.20 34.02 186.08L34.02 192.37Q34.02 192.94 34.35 193.22Q34.69 193.50 35.28 193.62Q35.55 193.66 35.68 193.73Q35.81 193.79 35.81 193.90Q35.81 194 35.68 194.04Q35.55 194.08 35.34 194.08Q34.91 194.08 34.63 194.06Q34.35 194.03 34.10 194.02Q33.84 194 33.47 194Q33.07 194 32.78 194.02Q32.48 194.03 32.17 194.06Q31.86 194.08 31.42 194.08 M39.34 194.05Q39.02 194.05 39.02 193.87Q39.02 193.73 39.39 193.62Q39.63 193.54 39.85 193.41Q40.06 193.28 40.08 192.96L40.08 184.94Q40.08 184.51 39.94 184.18Q39.79 183.86 39.38 183.79Q39.23 183.76 39.23 183.57Q39.23 183.42 39.36 183.38Q39.58 183.30 39.90 183.20Q40.21 183.10 40.54 182.98Q40.88 182.86 41.14 182.75Q41.20 182.72 41.23 182.72Q41.28 182.72 41.31 182.75Q41.34 182.78 41.34 182.83Q41.34 182.93 41.30 183.10Q41.26 183.28 41.23 183.71Q41.20 184.14 41.20 185.01L41.20 187.79Q41.20 188.05 41.22 188.16Q41.25 188.27 41.31 188.38Q41.57 188.19 41.94 187.96Q42.32 187.73 42.78 187.55Q43.25 187.38 43.74 187.38Q44.53 187.38 45.05 187.99Q45.57 188.61 45.57 189.55L45.57 192.91Q45.57 193.23 45.78 193.38Q45.98 193.54 46.22 193.62Q46.40 193.66 46.50 193.72Q46.59 193.78 46.59 193.87Q46.59 194.05 46.27 194.05Q45.95 194.05 45.78 194.02Q45.62 194 45.46 193.98Q45.31 193.97 45.02 193.97Q44.75 193.97 44.59 193.98Q44.43 194 44.26 194.02Q44.10 194.05 43.78 194.05Q43.46 194.05 43.46 193.87Q43.46 193.76 43.55 193.72Q43.65 193.68 43.82 193.62Q44.06 193.54 44.26 193.38Q44.45 193.23 44.45 192.91L44.45 189.65Q44.45 189.25 44.22 188.92Q43.98 188.59 43.65 188.40Q43.31 188.21 42.96 188.21Q42.66 188.21 42.26 188.30Q41.86 188.38 41.63 188.56Q41.38 188.77 41.29 188.99Q41.20 189.22 41.20 189.71L41.20 192.96Q41.22 193.28 41.40 193.41Q41.58 193.54 41.82 193.62Q42 193.66 42.09 193.72Q42.18 193.78 42.18 193.87Q42.18 194.05 41.86 194.05Q41.54 194.05 41.38 194.02Q41.22 194 41.07 193.98Q40.93 193.97 40.64 193.97Q40.37 193.97 40.20 193.98Q40.03 194 39.85 194.02Q39.66 194.05 39.34 194.05 M50.37 194.24Q49.49 194.24 48.83 193.81Q48.18 193.38 47.81 192.58Q47.44 191.79 47.44 190.75Q47.44 189.82 47.86 189.06Q48.29 188.30 48.99 187.84Q49.70 187.38 50.53 187.38Q51.17 187.38 51.66 187.63Q52.16 187.89 52.44 188.34Q52.72 188.80 52.72 189.39Q52.72 189.89 52.24 189.89L48.86 189.89Q48.64 189.89 48.55 190.01Q48.46 190.13 48.46 190.48Q48.46 191.25 48.80 191.88Q49.14 192.51 49.70 192.89Q50.26 193.26 50.93 193.26Q51.41 193.26 51.80 193.08Q52.19 192.90 52.50 192.54Q52.56 192.46 52.59 192.44Q52.62 192.42 52.67 192.42Q52.80 192.42 52.80 192.58Q52.80 192.88 52.51 193.25Q52.27 193.55 51.94 193.78Q51.60 194 51.20 194.12Q50.80 194.24 50.37 194.24M48.90 189.39L50.35 189.39Q50.74 189.39 51.01 189.38Q51.28 189.36 51.54 189.31Q51.62 189.30 51.64 189.21Q51.66 189.12 51.66 188.96Q51.66 188.50 51.26 188.17Q50.85 187.84 50.29 187.84Q49.92 187.84 49.55 188.06Q49.18 188.27 48.94 188.59Q48.70 188.91 48.70 189.23Q48.70 189.39 48.90 189.39 M61.70 198.56Q61.62 198.56 61.50 198.54Q61.38 198.51 61.38 198.42Q61.38 198.29 61.50 198.23Q61.62 198.18 61.74 198.13Q61.98 198.05 62.21 197.94Q62.43 197.84 62.43 197.52L62.43 193.79Q62.43 193.52 62.41 193.42Q62.38 193.31 62.34 193.31Q62.30 193.31 62.26 193.31Q62.22 193.31 62.19 193.34Q62.06 193.46 61.74 193.67Q61.42 193.89 61.01 194.06Q60.59 194.22 60.16 194.22Q59.33 194.22 58.60 193.87Q57.87 193.52 57.42 192.83Q56.96 192.14 56.96 191.15Q56.96 190.02 57.46 189.17Q57.95 188.32 58.85 187.85Q59.74 187.38 60.91 187.38Q61.46 187.38 61.90 187.46Q62.35 187.55 62.64 187.64Q62.93 187.73 62.96 187.73Q63.14 187.73 63.22 187.62Q63.30 187.50 63.38 187.33Q63.39 187.31 63.42 187.29Q63.46 187.26 63.49 187.26Q63.57 187.26 63.66 187.31Q63.74 187.36 63.74 187.42Q63.74 187.58 63.65 188.09Q63.55 188.59 63.55 189.28L63.55 197.52Q63.55 197.84 63.85 197.94Q64.14 198.05 64.38 198.13Q64.51 198.18 64.63 198.23Q64.75 198.29 64.75 198.42Q64.75 198.51 64.64 198.54Q64.53 198.56 64.43 198.56Q63.95 198.56 63.69 198.52Q63.42 198.48 62.99 198.48Q62.72 198.48 62.55 198.50Q62.38 198.51 62.20 198.54Q62.02 198.56 61.70 198.56M60.75 193.38Q61.28 193.38 61.76 193.16Q62.24 192.94 62.45 192.72Q62.45 192.50 62.45 192.05Q62.45 191.60 62.45 191.09Q62.45 190.58 62.44 190.16Q62.43 189.74 62.43 189.60Q62.42 188.88 61.86 188.38Q61.31 187.89 60.51 187.89Q59.94 187.89 59.42 188.22Q58.91 188.54 58.59 189.17Q58.27 189.79 58.27 190.72Q58.27 191.52 58.52 192.04Q58.77 192.56 59.15 192.85Q59.54 193.14 59.97 193.26Q60.40 193.38 60.75 193.38 M70.61 194.30Q70.50 194.30 70.50 194.18Q70.50 194.02 70.54 193.70Q70.58 193.39 70.58 193.18Q70.58 193.15 70.58 193.13Q70.58 193.10 70.58 193.09Q69.95 193.70 69.32 193.96Q68.69 194.22 67.94 194.22Q67.42 194.22 67.01 194.01Q66.59 193.79 66.35 193.37Q66.11 192.94 66.11 192.32L66.11 189.07Q66.11 188.72 65.95 188.51Q65.79 188.30 65.42 188.16Q65.34 188.13 65.28 188.08Q65.22 188.03 65.22 187.90Q65.22 187.76 65.29 187.71Q65.36 187.66 65.46 187.65QNaN 187.62 66.30 187.56Q66.59 187.50 67.04 187.39Q67.09 187.38 67.11 187.38Q67.14 187.38 67.17 187.38Q67.34 187.38 67.33 187.60Q67.28 187.97 67.26 188.22Q67.23 188.46 67.23 188.83L67.23 191.95Q67.23 192.34 67.42 192.66Q67.62 192.99 67.93 193.20Q68.24 193.41 68.58 193.41Q68.99 193.41 69.30 193.36Q69.62 193.31 69.92 193.09Q70.10 192.96 70.37 192.67Q70.64 192.38 70.64 191.89L70.64 188.96Q70.64 188.62 70.44 188.46Q70.24 188.29 69.98 188.22Q69.73 188.16 69.57 188.16Q69.42 188.16 69.33 188.10Q69.23 188.05 69.23 187.89Q69.23 187.74 69.34 187.70Q69.44 187.65 69.57 187.65Q70.06 187.63 70.39 187.61Q70.72 187.58 70.98 187.53Q71.25 187.47 71.54 187.39Q71.57 187.38 71.62 187.37Q71.66 187.36 71.70 187.36Q71.90 187.36 71.90 187.54Q71.90 187.55 71.90 187.59Q71.89 187.63 71.87 187.68Q71.86 187.73 71.83 187.95Q71.81 188.18 71.78 188.42Q71.76 188.66 71.76 188.78L71.76 192.48Q71.76 192.91 71.85 193.10Q71.94 193.28 72.05 193.28Q72.18 193.28 72.42 193.26Q72.67 193.23 72.78 193.23Q72.86 193.23 72.94 193.26Q73.02 193.30 73.02 193.44Q73.02 193.57 72.96 193.61Q72.90 193.65 72.80 193.66Q72.18 193.74 71.73 193.90Q71.28 194.06 70.93 194.21Q70.88 194.22 70.78 194.26Q70.69 194.30 70.61 194.30 M73.89 194.05Q73.74 194.05 73.66 194.01Q73.57 193.97 73.57 193.87Q73.57 193.74 73.69 193.70Q73.81 193.65 73.94 193.62Q74.27 193.54 74.45 193.42Q74.62 193.30 74.62 193.01L74.62 189.54Q74.62 189.10 74.47 188.77Q74.32 188.43 73.90 188.37Q73.82 188.35 73.78 188.30Q73.74 188.26 73.74 188.16Q73.74 187.98 73.89 187.97Q74.53 187.82 74.94 187.58Q75.36 187.33 75.57 187.17Q75.71 187.06 75.79 187.06Q75.89 187.06 75.89 187.14Q75.89 187.26 75.85 187.64Q75.81 188.02 75.78 188.47Q75.74 188.93 75.74 189.30L75.74 193.01Q75.74 193.28 75.93 193.41Q76.11 193.54 76.43 193.62Q76.56 193.65 76.68 193.70Q76.80 193.74 76.80 193.87Q76.80 194.05 76.48 194.05Q76.18 194.05 75.99 194.02Q75.81 194 75.64 193.98Q75.47 193.97 75.18 193.97Q74.91 193.97 74.74 193.98Q74.56 194 74.38 194.02Q74.21 194.05 73.89 194.05M75.17 185.74Q74.83 185.74 74.60 185.51Q74.37 185.28 74.37 184.94Q74.37 184.59 74.60 184.36Q74.83 184.13 75.17 184.13Q75.52 184.13 75.75 184.36Q75.98 184.59 75.98 184.94Q75.98 185.28 75.75 185.51Q75.52 185.74 75.17 185.74 M80.51 194.24Q79.71 194.24 79.06 193.83Q78.42 193.42 78.04 192.71Q77.66 192 77.66 191.12Q77.66 190.08 78.12 189.23Q78.58 188.38 79.34 187.88Q80.11 187.38 81.04 187.38Q82.08 187.38 82.86 187.94Q83.06 188.08 83.06 188.24Q83.06 188.37 82.94 188.53Q82.83 188.69 82.67 188.79Q82.51 188.90 82.37 188.90Q82.29 188.90 82.21 188.84Q82.13 188.78 82.03 188.72Q81.68 188.45 81.25 188.21Q80.82 187.97 80.53 187.97Q79.74 187.97 79.26 188.70Q78.77 189.42 78.77 190.61Q78.77 191.36 79.10 191.97Q79.42 192.58 79.98 192.93Q80.53 193.28 81.20 193.28Q81.66 193.28 NaN 193.13Q82.34 192.98 82.72 192.59Q82.75 192.56 82.80 192.54Q82.85 192.51 82.88 192.51Q83.06 192.51 83.06 192.74Q83.06 192.83 NaN 192.95Q82.94 193.07 82.82 193.23Q82.56 193.55 82.21 193.78Q81.86 194.02 81.43 194.13Q81.01 194.24 80.51 194.24 M84.29 194.05Q83.92 194.05 83.92 193.87Q83.92 193.74 84.04 193.70Q84.16 193.66 84.29 193.62Q84.53 193.54 84.75 193.41Q84.98 193.28 84.98 192.96L84.98 184.94Q84.98 184.38 84.82 184.13Q84.66 183.87 84.26 183.78Q84.11 183.74 84.11 183.57Q84.11 183.41 84.24 183.38Q84.66 183.28 84.96 183.18Q85.26 183.07 85.51 182.97Q85.76 182.86 NaN 182.77Q86.10 182.72 86.14 182.72Q86.19 182.72 86.22 182.75Q86.24 182.78 86.24 182.86Q86.24 183.02 86.17 183.50Q86.10 183.98 86.10 185.01L86.10 190.26Q86.10 190.40 86.18 190.40Q86.27 190.40 86.42 190.32Q86.58 190.24 86.75 190.08Q87.41 189.52 87.85 189.06Q88.29 188.61 88.45 188.43Q88.53 188.34 88.56 188.28Q88.59 188.22 88.59 188.19Q88.59 188.11 88.46 188.05Q88.32 187.98 88.18 187.95Q87.98 187.90 87.98 187.79Q87.98 187.71 88.08 187.66Q88.18 187.60 88.34 187.60L89.12 187.60Q89.38 187.60 89.66 187.55Q89.94 187.50 90.18 187.46Q90.43 187.41 90.58 187.41Q90.80 187.41 90.80 187.57Q90.80 187.66 90.69 187.74Q90.58 187.81 90.40 187.86Q90.10 187.94 89.83 188.08Q89.57 188.22 89.34 188.35Q89.25 188.42 88.90 188.70Q88.56 188.98 88.12 189.34Q87.68 189.71 87.30 190.05Q87.20 190.14 87.20 190.21Q87.20 190.22 87.22 190.26Q87.23 190.29 87.25 190.32Q87.66 190.83 88.14 191.36Q88.62 191.89 89.03 192.29Q89.44 192.69 89.60 192.85Q89.87 193.10 90.22 193.30Q90.56 193.50 90.80 193.58Q90.98 193.65 91.13 193.70Q91.28 193.74 91.28 193.87Q91.28 194.05 90.96 194.05Q90.34 194.05 89.56 194.02Q88.78 194 87.97 194Q87.68 194 87.68 193.86Q87.68 193.76 87.76 193.70Q87.84 193.63 87.95 193.60Q88.13 193.54 88.26 193.46Q88.38 193.38 88.38 193.23Q88.38 193.18 88.35 193.13Q88.32 193.07 88.27 193.01L86.34 190.82Q86.24 190.70 86.18 190.70Q86.10 190.70 86.10 190.82Q86.08 191.04 86.08 191.30Q86.08 191.57 86.08 191.84Q86.08 192.11 86.08 192.40Q86.08 192.69 86.10 192.96Q86.10 193.28 86.26 193.41Q86.42 193.54 86.66 193.62Q86.78 193.66 86.90 193.70Q87.02 193.74 87.02 193.87Q87.02 193.98 86.87 194.02Q86.72 194.05 86.66 194.05Q86.35 194.05 86.21 194.02Q86.06 194 85.94 193.98Q85.82 193.97 85.54 193.97Q85.26 193.97 85.10 193.98Q84.94 194 84.78 194.02Q84.61 194.05 84.29 194.05 M98.46 194.22Q98.11 194.22 97.76 194.16Q97.41 194.10 97.09 194.02Q96.74 193.92 96.47 193.84Q96.21 193.76 96.13 193.76Q96.03 193.76 95.94 193.82Q95.86 193.89 95.78 193.97Q95.70 194.05 95.63 194.05Q95.57 194.05 95.49 193.99Q95.41 193.94 95.41 193.86Q95.41 193.71 95.46 193.36Q95.52 193.01 95.52 192.70L95.52 184.94Q95.52 184.53 95.31 184.22Q95.10 183.92 94.78 183.78Q94.72 183.74 94.65 183.69Q94.58 183.63 94.58 183.54Q94.58 183.46 94.64 183.42Q94.70 183.39 94.77 183.38Q94.98 183.33 95.34 183.20Q95.70 183.07 96.02 182.94Q96.34 182.82 96.45 182.77Q96.54 182.72 96.59 182.72Q96.62 182.72 96.66 182.75Q96.69 182.78 96.69 182.83Q96.69 182.90 96.66 183.37Q96.64 183.84 96.64 184.51L96.64 187.79Q96.64 188.10 96.67 188.20Q96.70 188.30 96.78 188.32Q97.28 187.90 97.94 187.64Q98.59 187.38 99.12 187.38Q99.94 187.38 100.58 187.79Q101.23 188.21 101.62 188.92QNaN 189.63 NaN 190.53QNaN 191.62 101.55 192.46Q101.10 193.30 100.31 193.76Q99.52 194.22 98.46 194.22M98.83 193.73Q99.44 193.73 99.88 193.35Q100.32 192.98 100.56 192.33Q100.80 191.68 100.80 190.88Q100.80 190.26 100.57 189.60Q100.34 188.94 99.85 188.50Q99.36 188.05 98.59 188.05Q97.95 188.05 97.47 188.26Q96.99 188.46 96.64 188.78L96.64 191.89Q96.64 192.45 96.95 192.86Q97.26 193.28 97.77 193.50Q98.27 193.73 98.83 193.73 M103.34 194.05Q103.18 194.05 103.10 194.01Q103.02 193.97 103.02 193.87Q103.02 193.74 103.12 193.70Q103.22 193.66 103.39 193.62Q103.70 193.54 103.85 193.38QNaN 193.23 NaN 193.01LNaN 189.57QNaN 189.14 103.87 188.82Q103.74 188.50 103.34 188.42Q103.28 188.40 103.23 188.34Q103.18 188.27 103.18 188.21Q103.18 188.05 103.33 188.02Q103.74 187.89 104.20 187.64Q104.66 187.39 104.91 187.23Q105.01 187.17 105.06 187.14Q105.12 187.12 105.15 187.12Q105.23 187.12 105.23 187.23Q105.23 187.28 105.22 187.47Q105.22 187.66 105.21 187.92Q105.20 188.18 105.18 188.43Q105.18 188.46 105.22 188.46Q105.47 188.14 105.78 187.90Q106.10 187.66 106.42 187.52Q106.75 187.38 107.06 187.38Q107.39 187.38 107.61 187.52Q107.82 187.66 107.82 187.89Q107.82 188.05 107.74 188.24Q107.65 188.43 107.50 188.58Q107.36 188.72 107.20 188.72Q107.10 188.72 106.99 188.68Q106.88 188.64 106.75 188.58Q106.62 188.53 106.50 188.48Q106.37 188.43 106.24 188.43Q105.86 188.43 105.50 188.70Q105.14 188.98 105.14 189.78L105.14 193.01Q105.14 193.22 105.36 193.35Q105.58 193.49 105.98 193.62Q106.16 193.66 106.26 193.71Q106.35 193.76 106.35 193.87Q106.35 194.05 106.03 194.05Q105.55 194.05 105.30 194.01Q105.06 193.97 104.64 193.97Q104.37 193.97 104.20 193.98Q104.03 194 103.85 194.02Q103.66 194.05 103.34 194.05 M111.65 194.22Q110.75 194.22 110.03 193.81Q109.31 193.39 108.89 192.66Q108.46 191.94 108.46 191.01Q108.46 190.34 108.73 189.70Q108.99 189.06 109.47 188.53Q109.95 188 110.59 187.69Q111.23 187.38 111.97 187.38Q112.90 187.38 113.64 187.82Q114.38 188.27 114.82 189Q115.26 189.73 115.26 190.59Q115.26 191.52 114.86 192.35Q114.45 193.18 113.65 193.70Q112.85 194.22 111.65 194.22M111.98 193.74Q112.53 193.74 112.96 193.54Q113.39 193.33 113.63 192.86Q113.82 192.50 113.89 191.97Q113.95 191.44 113.95 190.98Q113.95 190.21 113.67 189.50Q113.39 188.78 112.89 188.33Q112.38 187.87 111.70 187.87Q111.26 187.87 110.92 188.01Q110.58 188.14 110.29 188.51Q109.97 188.91 109.87 189.49Q109.78 190.06 109.78 190.64Q109.78 191.42 110.06 192.14Q110.35 192.85 110.85 193.30Q111.34 193.74 111.98 193.74 M119.44 194.37Q119.41 194.37 119.38 194.34Q119.34 194.30 119.33 194.26L117.10 188.74Q116.99 188.42 116.75 188.22Q116.51 188.02 116.27 187.95Q116.14 187.90 116.02 187.84Q115.90 187.78 115.90 187.66Q115.90 187.57 116.02 187.54Q116.14 187.52 116.22 187.52Q116.43 187.52 116.62 187.54Q116.80 187.55 116.99 187.58Q117.18 187.60 117.39 187.60Q117.62 187.60 117.84 187.58Q118.06 187.55 118.28 187.54Q118.50 187.52 118.72 187.52Q118.78 187.52 118.91 187.54Q119.04 187.57 119.04 187.66Q119.04 187.78 118.92 187.84Q118.80 187.90 118.67 187.95Q118.51 188 118.42 188.18Q118.34 188.37 118.34 188.59Q118.34 188.80 118.42 189.01L119.66 192.22Q119.68 192.29 119.74 192.29Q119.81 192.29 119.82 192.22L120.91 189.63Q120.99 189.42 121.02 189.23Q121.04 189.04 121.04 188.86Q121.04 188.51 120.77 188.29Q120.50 188.06 120.22 187.95Q120.10 187.90 119.98 187.84Q119.86 187.78 119.86 187.66Q119.86 187.57 119.97 187.54Q120.08 187.52 120.18 187.52Q120.40 187.52 120.66 187.56Q120.93 187.60 121.38 187.60Q121.82 187.60 122.14 187.56Q122.46 187.52 122.72 187.52Q122.80 187.52 122.92 187.54Q123.04 187.57 123.04 187.66Q123.04 187.78 122.92 187.84Q122.80 187.90 122.67 187.95Q122.50 188.02 122.31 188.13Q122.13 188.24 122.13 188.53Q122.13 188.62 122.15 188.74Q122.18 188.86 122.24 189.01L123.44 192.10Q123.52 192.27 123.57 192.27Q123.63 192.27 123.70 192.11L124.91 189.28Q124.98 189.15 NaN 188.96Q125.02 188.77 125.02 188.66Q125.02 188.37 124.83 188.19Q124.64 188.02 124.46 187.95Q124.34 187.90 124.22 187.84Q124.10 187.78 124.10 187.66Q124.10 187.57 124.22 187.54Q124.34 187.52 124.42 187.52Q124.77 187.52 124.98 187.56Q125.18 187.60 125.62 187.60Q125.92 187.60 126.05 187.58Q126.18 187.55 126.27 187.54Q126.37 187.52 126.54 187.52Q126.64 187.52 126.75 187.54Q126.86 187.57 126.86 187.66Q126.86 187.78 126.74 187.84Q126.62 187.90 126.50 187.95Q126.26 188.02 126.03 188.33Q125.81 188.64 125.65 189.01L123.46 194.26Q123.41 194.37 123.31 194.37Q123.25 194.37 123.18 194.26L121.52 190.13Q121.47 190 121.42 189.98Q121.38 189.98 121.31 190.14L119.57 194.26Q119.52 194.37 119.44 194.37 M127.49 194.05Q127.34 194.05 127.26 194.01Q127.17 193.97 127.17 193.87Q127.17 193.74 127.26 193.70Q127.36 193.66 127.54 193.62Q127.78 193.55 NaN 193.44Q128.22 193.33 128.22 193.01L128.22 189.57Q128.22 189.14 128.14 188.83Q128.05 188.53 127.63 188.42Q127.57 188.38 127.52 188.34Q127.47 188.30 127.47 188.21Q127.47 188.03 127.62 188.02Q128.18 187.87 128.53 187.66Q128.88 187.46 129.22 187.20Q129.26 187.17 129.30 187.14Q129.34 187.12 129.39 187.12Q129.42 187.12 129.45 187.15Q129.47 187.18 129.47 187.23Q129.47 187.34 129.43 187.69Q129.39 188.03 129.39 188.26Q129.39 188.32 129.40 188.38Q129.41 188.43 129.42 188.45Q129.98 187.92 130.62 187.65Q131.25 187.38 NaN 187.38Q132.78 187.38 133.30 188.02Q133.81 188.66 133.81 189.60L133.81 193.01Q133.81 193.33 134.03 193.43Q134.26 193.54 134.50 193.62Q134.62 193.66 134.74 193.72Q134.86 193.78 134.86 193.90Q134.86 194 134.75 194.02Q134.64 194.05 134.54 194.05Q134.22 194.05 134.05 194.02Q133.87 194 133.71 193.98Q133.55 193.97 133.26 193.97Q132.99 193.97 132.82 193.98Q132.64 194 132.46 194.02Q132.27 194.05 131.95 194.05Q131.87 194.05 131.75 194.02Q131.63 194 131.63 193.90Q131.63 193.78 131.75 193.72Q131.87 193.66 NaN 193.62Q132.24 193.54 132.46 193.43Q132.69 193.33 132.69 193.01L132.69 189.65Q132.69 188.94 132.30 188.55Q131.90 188.16 131.25 188.14Q130.67 188.14 130.24 188.33Q129.81 188.51 129.47 188.78Q129.41 188.85 129.38 188.95Q129.34 189.06 129.34 189.15L129.34 193.01Q129.34 193.33 129.57 193.44Q129.79 193.55 130.03 193.62Q130.40 193.71 130.40 193.87Q130.40 193.97 130.32 194.01Q130.24 194.05 130.08 194.05Q129.76 194.05 129.58 194.02Q129.39 194 129.23 193.98Q129.07 193.97 128.78 193.97Q128.51 193.97 128.34 193.98Q128.18 194 127.99 194.02Q127.81 194.05 127.49 194.05 M139.14 194.05Q138.98 194.05 138.90 194.01Q138.82 193.97 138.82 193.87Q138.82 193.74 138.92 193.70Q139.02 193.65 139.18 193.62Q139.55 193.54 139.71 193.38Q139.87 193.23 139.87 192.91L139.87 188.40Q139.71 188.40 139.50 188.39Q139.30 188.38 139.04 188.37Q138.99 188.35 138.90 188.26Q138.82 188.16 138.82 188.08Q138.82 188.05 138.86 188.02Q138.91 188 138.93 187.98Q139.22 187.84 139.42 187.73Q139.63 187.62 139.87 187.50Q139.87 186.11 140.22 185.18Q140.56 184.26 141.10 183.71Q141.65 183.17 142.26 182.94Q142.86 182.70 143.39 182.70Q144.29 182.70 144.72 182.98Q145.15 183.25 145.15 183.66Q145.15 183.98 144.99 184.14Q144.83 184.30 144.61 184.30Q144.46 184.30 144.34 184.19Q144.22 184.08 144.06 183.94Q143.86 183.73 143.55 183.54Q143.25 183.36 142.72 183.36Q141.97 183.36 141.48 184.02Q140.99 184.67 140.99 186.03L140.99 187.44Q140.99 187.54 141.05 187.57Q141.10 187.60 141.17 187.60L143.17 187.60Q143.25 187.60 143.31 187.65Q143.38 187.70 143.38 187.78Q143.38 187.89 143.35 188.02Q143.33 188.14 143.28 188.24Q143.23 188.37 143.14 188.37L141.30 188.37Q141.10 188.37 141.05 188.42Q140.99 188.48 140.99 188.58L140.99 192.91Q140.99 193.23 141.20 193.38Q141.41 193.54 142.05 193.62Q142.42 193.66 142.42 193.87Q142.42 193.97 142.34 194.01Q142.26 194.05 142.10 194.05Q141.62 194.05 141.25 194.01Q140.88 193.97 140.46 193.97Q140.19 193.97 140.02 193.98Q139.84 194 139.65 194.02Q139.46 194.05 139.14 194.05 M147.26 194.22Q146.37 194.22 145.65 193.81Q144.93 193.39 144.50 192.66Q144.08 191.94 144.08 191.01Q144.08 190.34 144.34 189.70Q144.61 189.06 145.09 188.53Q145.57 188 146.21 187.69Q146.85 187.38 147.58 187.38Q148.51 187.38 149.26 187.82Q150 188.27 150.44 189Q150.88 189.73 150.88 190.59Q150.88 191.52 150.47 192.35Q150.06 193.18 149.26 193.70Q148.46 194.22 147.26 194.22M147.60 193.74Q148.14 193.74 148.58 193.54Q149.01 193.33 149.25 192.86Q149.44 192.50 149.50 191.97Q149.57 191.44 149.57 190.98Q149.57 190.21 149.29 189.50Q149.01 188.78 148.50 188.33Q148 187.87 147.31 187.87Q146.88 187.87 146.54 188.01Q146.19 188.14 145.90 188.51Q145.58 188.91 145.49 189.49Q145.39 190.06 145.39 190.64Q145.39 191.42 145.68 192.14Q145.97 192.85 146.46 193.30Q146.96 193.74 147.60 193.74 M151.92 194.06Q151.82 194.06 151.71 194.04Q151.60 194.02 151.60 193.92Q151.60 193.79 151.72 193.73Q151.84 193.66 151.97 193.63Q152.21 193.55 152.46 193.37Q152.70 193.18 153.04 192.72L154.27 191.01Q154.38 190.88 154.38 190.81Q154.37 190.74 154.30 190.64L152.99 188.64Q152.80 188.32 152.65 188.18Q152.50 188.03 152.26 187.97Q152.13 187.94 152.01 187.87Q151.89 187.81 151.89 187.68Q151.89 187.55 152.04 187.54Q152.19 187.54 152.26 187.54Q152.58 187.54 152.70 187.55Q152.82 187.57 152.98 187.58Q153.14 187.60 153.52 187.60Q153.81 187.60 153.94 187.58Q154.06 187.57 154.34 187.57Q154.40 187.57 154.55 187.58Q154.70 187.58 154.70 187.71Q154.70 187.81 154.62 187.86Q154.53 187.90 154.42 187.94Q154.30 187.97 154.19 188.02Q154.08 188.08 154.08 188.21Q154.08 188.29 154.14 188.42Q154.19 188.56 154.29 188.72L155.02 189.82Q155.09 189.94 155.17 189.82L155.98 188.59Q156.05 188.51 156.08 188.42Q156.11 188.32 156.11 188.24Q156.11 188.05 155.90 187.98Q155.78 187.94 155.66 187.87Q155.54 187.81 155.54 187.70Q155.54 187.57 155.69 187.56Q155.84 187.55 155.90 187.55Q156.03 187.55 156.27 187.58Q156.51 187.60 156.70 187.60Q157.15 187.60 157.33 187.56Q157.50 187.52 157.71 187.52Q157.81 187.52 157.92 187.54Q158.03 187.57 158.03 187.66Q158.03 187.78 157.91 187.84Q157.79 187.90 157.66 187.95Q157.42 188.02 157.09 188.20Q156.75 188.38 156.53 188.70L155.52 190.22Q155.50 190.26 155.50 190.31Q155.49 190.37 155.54 190.43L157.09 192.96Q157.28 193.26 157.46 193.41Q157.63 193.55 157.87 193.63Q158 193.66 158.12 193.73Q158.24 193.79 158.24 193.92Q158.24 194.02 158.13 194.04Q158.02 194.06 157.92 194.06Q157.60 194.06 157.46 194.05Q157.31 194.03 157.14 194.02Q156.98 194 156.58 194Q156.29 194 155.98 194.02Q155.68 194.03 155.41 194.03Q155.04 194.03 155.04 193.87Q155.04 193.73 155.14 193.66Q155.25 193.60 155.44 193.55Q155.62 193.50 155.75 193.42Q155.89 193.33 155.89 193.17Q155.89 193.10 155.86 193.03Q155.84 192.96 155.79 192.88L154.85 191.34Q154.80 191.30 154.75 191.34L153.70 192.93Q153.68 192.96 153.65 193.05Q153.62 193.14 153.62 193.23Q153.62 193.34 153.67 193.45Q153.73 193.55 153.84 193.58Q153.97 193.63 154.09 193.69Q154.21 193.74 154.21 193.87Q154.21 193.98 154.06 194Q153.90 194.02 153.84 194.02Q153.71 194.02 153.45 194Q153.18 193.98 152.99 193.98Q152.54 193.98 152.34 194.02Q152.14 194.06 151.92 194.06 M161.54 198.59Q161.46 198.59 161.33 198.55Q161.20 198.51 161.20 198.43Q161.20 198.34 161.28 198.26Q161.36 198.18 161.38 198.16Q161.66 198.08 161.94 197.86Q162.21 197.63 162.43 197.15Q162.61 196.78 162.71 196.23Q162.82 195.68 162.86 195.07Q162.91 194.46 162.93 193.89Q162.94 193.31 162.94 192.90L162.94 189.54Q162.94 189.10 162.78 188.78Q162.62 188.45 162.21 188.37Q162.14 188.35 162.11 188.29Q162.08 188.22 162.08 188.16Q162.08 188 162.19 187.97Q162.80 187.82 163.22 187.57Q163.63 187.31 163.86 187.17Q163.94 187.12 163.99 187.09Q164.05 187.06 164.06 187.06Q164.18 187.06 164.18 187.14Q164.13 187.63 164.10 188.34Q164.06 189.06 164.06 189.60L164.06 192.54Q164.06 193.04 164.04 193.70Q164.02 194.37 163.92 195.08Q163.82 195.79 163.58 196.43Q163.39 196.98 163.02 197.47Q162.66 197.97 162.26 198.28Q161.86 198.59 161.54 198.59M163.38 185.74Q163.04 185.74 162.81 185.51Q162.58 185.28 162.58 184.94Q162.58 184.59 162.81 184.36Q163.04 184.13 163.38 184.13Q163.73 184.13 163.96 184.36Q164.19 184.59 164.19 184.94Q164.19 185.28 163.96 185.51Q163.73 185.74 163.38 185.74 M170.99 194.30Q170.88 194.30 170.88 194.18Q170.88 194.02 170.92 193.70Q170.96 193.39 170.96 193.18Q170.96 193.15 170.96 193.13Q170.96 193.10 170.96 193.09Q170.34 193.70 169.70 193.96Q169.07 194.22 168.32 194.22Q167.81 194.22 167.39 194.01Q166.98 193.79 166.74 193.37Q166.50 192.94 166.50 192.32L166.50 189.07Q166.50 188.72 166.34 188.51Q166.18 188.30 165.81 188.16Q165.73 188.13 165.66 188.08Q165.60 188.03 165.60 187.90Q165.60 187.76 165.67 187.71Q165.74 187.66 165.84 187.65Q166.38 187.62 166.68 187.56Q166.98 187.50 167.42 187.39Q167.47 187.38 167.50 187.38Q167.52 187.38 167.55 187.38Q167.73 187.38 167.71 187.60Q167.66 187.97 167.64 188.22Q167.62 188.46 167.62 188.83L167.62 191.95Q167.62 192.34 167.81 192.66Q168 192.99 168.31 193.20Q168.62 193.41 168.96 193.41Q169.38 193.41 169.69 193.36Q170 193.31 170.30 193.09Q170.48 192.96 170.75 192.67Q171.02 192.38 171.02 191.89L171.02 188.96Q171.02 188.62 170.82 188.46Q170.62 188.29 170.37 188.22Q170.11 188.16 169.95 188.16Q169.81 188.16 169.71 188.10Q169.62 188.05 169.62 187.89Q169.62 187.74 169.72 187.70Q169.82 187.65 169.95 187.65Q170.45 187.63 170.78 187.61Q171.10 187.58 171.37 187.53Q171.63 187.47 171.92 187.39Q171.95 187.38 172 187.37Q172.05 187.36 172.08 187.36Q172.29 187.36 172.29 187.54Q172.29 187.55 172.28 187.59Q172.27 187.63 172.26 187.68Q172.24 187.73 172.22 187.95Q172.19 188.18 172.17 188.42Q172.14 188.66 172.14 188.78L172.14 192.48Q172.14 192.91 172.23 193.10Q172.32 193.28 172.43 193.28Q172.56 193.28 172.81 193.26Q173.06 193.23 173.17 193.23Q173.25 193.23 173.33 193.26Q173.41 193.30 173.41 193.44Q173.41 193.57 173.34 193.61Q173.28 193.65 173.18 193.66Q172.56 193.74 172.11 193.90Q171.66 194.06 171.31 194.21Q171.26 194.22 171.17 194.26Q171.07 194.30 170.99 194.30 M174.27 194.05Q174.14 194.05 174.05 194.02Q173.95 193.98 173.95 193.87Q173.95 193.76 174.06 193.71Q174.16 193.66 174.32 193.62Q174.54 193.54 174.78 193.43Q175.01 193.33 175.01 193.01L175.01 189.57Q175.01 189.14 174.91 188.81Q174.82 188.48 174.40 188.42Q174.34 188.40 174.30 188.35Q174.26 188.30 174.26 188.21Q174.26 188.05 174.38 188.02Q174.82 187.90 175.07 187.78Q175.33 187.66 175.53 187.51Q175.73 187.36 176.02 187.18Q176.05 187.17 176.08 187.14Q176.11 187.12 176.16 187.12Q176.26 187.12 176.26 187.23Q176.26 187.34 176.22 187.69Q176.18 188.03 176.18 188.26Q176.18 188.42 176.21 188.45L176.24 188.45Q176.61 188.10 177.21 187.74Q177.81 187.38 178.74 187.38Q179.31 187.38 179.70 187.62Q180.08 187.87 180.34 188.48L180.38 188.48Q180.90 188.02 181.55 187.70Q182.21 187.38 182.99 187.38Q183.52 187.38 183.87 187.70Q184.22 188.02 184.41 188.53Q184.59 189.04 184.59 189.60L184.59 193.01Q184.59 193.33 184.82 193.43Q185.04 193.54 185.28 193.62Q185.44 193.66 185.54 193.71Q185.65 193.76 185.65 193.87Q185.65 193.97 185.58 194.01Q185.50 194.05 185.33 194.05Q185.01 194.05 184.83 194.02Q184.66 194 184.50 193.98Q184.35 193.97 184.06 193.97Q183.79 193.97 183.62 193.98Q183.44 194 183.25 194.02Q183.06 194.05 182.74 194.05Q182.59 194.05 182.50 194.01Q182.42 193.97 182.42 193.87Q182.42 193.74 182.52 193.70Q182.62 193.65 182.78 193.62Q183.04 193.55 183.26 193.44Q183.47 193.33 183.47 193.01L183.47 189.65Q183.47 189.26 183.30 188.92Q183.12 188.58 182.83 188.35Q182.54 188.13 182.19 188.13Q181.79 188.13 181.45 188.22Q181.10 188.32 180.80 188.56Q180.35 188.91 180.35 189.71L180.35 193.01Q180.35 193.33 180.59 193.44Q180.83 193.55 181.07 193.62Q181.23 193.65 181.34 193.70Q181.44 193.76 181.44 193.87Q181.44 193.97 181.36 194.01Q181.28 194.05 181.12 194.05Q180.80 194.05 180.62 194.02Q180.43 194 180.26 193.98Q180.10 193.97 179.81 193.97Q179.54 193.97 179.36 193.98Q179.18 194 178.99 194.02Q178.80 194.05 178.48 194.05Q178.35 194.05 178.26 194.01Q178.16 193.97 178.16 193.87Q178.16 193.74 178.28 193.70Q178.40 193.66 178.53 193.62Q178.77 193.54 179 193.43Q179.23 193.33 179.23 193.01L179.23 189.65Q179.23 189.26 179.06 188.92Q178.88 188.58 178.59 188.35Q178.30 188.13 177.95 188.13Q177.55 188.13 177.21 188.22Q176.86 188.32 176.56 188.56Q176.13 188.88 176.13 189.71L176.13 193.01Q176.13 193.33 176.35 193.43Q176.58 193.54 176.82 193.62Q176.94 193.66 177.06 193.70Q177.18 193.74 177.18 193.87Q177.18 193.97 177.10 194.01Q177.01 194.05 176.86 194.05Q176.54 194.05 176.36 194.02Q176.18 194 176.02 193.98Q175.86 193.97 175.57 193.97Q175.30 193.97 175.13 193.98Q174.96 194 174.78 194.02Q174.59 194.05 174.27 194.05 M186.66 198.56Q186.58 198.56 186.45 198.54Q186.32 198.51 186.32 198.42Q186.32 198.29 186.44 198.23Q186.56 198.18 186.69 198.13Q186.93 198.05 187.15 197.94Q187.38 197.84 187.38 197.52L187.38 189.41Q187.38 189.28 187.30 189.02Q187.23 188.77 187.07 188.53Q186.91 188.29 186.64 188.24Q186.58 188.22 186.54 188.16Q186.51 188.10 186.51 188.03Q186.51 187.95 186.54 187.90Q186.58 187.86 186.62 187.84Q187.23 187.70 187.66 187.53Q188.10 187.36 188.48 187.20Q188.50 187.20 188.50 187.19Q188.50 187.18 188.51 187.18Q188.54 187.18 188.58 187.23Q188.61 187.28 188.61 187.33Q188.61 187.47 188.57 187.78Q188.53 188.10 188.53 188.29Q188.53 188.42 188.54 188.43Q188.70 188.27 189.13 188.02Q189.55 187.78 190.10 187.58Q190.64 187.38 191.14 187.38Q191.97 187.38 192.55 187.82Q193.14 188.26 193.45 188.95Q193.76 189.65 193.76 190.40Q193.76 191.12 193.49 191.80Q193.22 192.48 192.72 193.02Q192.22 193.57 191.57 193.90Q190.91 194.22 190.16 194.22Q189.94 194.22 189.62 194.15Q189.31 194.08 189.02 193.97Q188.72 193.86 188.56 193.71Q188.54 193.71 188.53 193.90Q188.51 194.08 188.50 194.28Q188.50 194.48 188.50 194.53L188.50 197.52Q188.50 197.73 188.66 197.85Q188.83 197.97 189.05 198.02Q189.26 198.08 189.42 198.13Q189.55 198.18 189.67 198.23Q189.79 198.29 189.79 198.42Q189.79 198.51 189.66 198.54Q189.54 198.56 189.44 198.56Q188.98 198.56 188.66 198.52Q188.35 198.48 187.94 198.48Q187.66 198.48 187.50 198.50Q187.33 198.51 187.15 198.54Q186.98 198.56 186.66 198.56M190.40 193.73Q190.64 193.73 190.98 193.58Q191.33 193.44 191.67 193.12Q192.02 192.80 192.25 192.26Q192.48 191.71 192.48 190.91Q192.48 189.98 192.24 189.42Q192 188.86 191.65 188.58Q191.30 188.29 190.93 188.19Q190.56 188.10 190.30 188.10Q189.92 188.10 189.51 188.26Q189.10 188.42 188.82 188.62Q188.54 188.82 188.54 188.93Q188.54 189.28 188.54 189.64Q188.53 190 188.52 190.34Q188.51 190.67 188.50 190.94Q188.50 191.20 188.50 191.34Q188.50 191.98 188.79 192.53Q189.09 193.07 189.53 193.40Q189.97 193.73 190.40 193.73 M196.62 194.22Q196.13 194.22 195.70 194.07Q195.26 193.92 194.96 193.65Q194.88 193.47 194.84 193.06Q194.80 192.64 194.78 192.37Q194.78 192.22 194.99 192.22Q195.06 192.22 195.11 192.25Q195.17 192.27 195.18 192.34Q195.39 193.12 195.85 193.46Q196.30 193.79 196.77 193.79Q197.23 193.79 197.56 193.48Q197.89 193.17 197.89 192.70Q197.89 192.27 197.60 191.96Q197.31 191.65 196.59 191.20Q196.05 190.86 195.71 190.56Q195.38 190.26 195.22 189.94Q195.07 189.62 195.07 189.22Q195.07 188.70 195.31 188.29Q195.55 187.87 196.03 187.62Q196.51 187.38 197.23 187.38Q197.71 187.38 198.03 187.47Q198.35 187.57 198.51 187.68Q198.64 187.86 198.73 188.23Q198.82 188.61 198.82 188.94Q198.82 189.06 198.66 189.06Q198.56 189.06 198.47 189.02Q198.38 188.98 198.35 188.91Q198.14 188.38 197.83 188.10Q197.52 187.82 197.06 187.82Q196.66 187.82 196.34 188.06Q196.03 188.30 196.03 188.77Q196.03 189.14 196.26 189.42Q196.50 189.71 197.14 190.08Q198.06 190.61 198.52 191.06Q198.98 191.52 198.98 192.27Q198.98 193.14 198.32 193.68Q197.66 194.22 196.62 194.22 M206.43 194.22Q205.54 194.22 204.82 193.81Q204.10 193.39 203.67 192.66Q203.25 191.94 203.25 191.01Q203.25 190.34 203.51 189.70Q203.78 189.06 204.26 188.53Q204.74 188 205.38 187.69Q206.02 187.38 206.75 187.38Q207.68 187.38 208.42 187.82Q209.17 188.27 209.61 189Q210.05 189.73 210.05 190.59Q210.05 191.52 209.64 192.35Q209.23 193.18 208.43 193.70Q207.63 194.22 206.43 194.22M206.77 193.74Q207.31 193.74 207.74 193.54Q208.18 193.33 208.42 192.86Q208.61 192.50 208.67 191.97Q208.74 191.44 208.74 190.98Q208.74 190.21 208.46 189.50Q208.18 188.78 207.67 188.33Q207.17 187.87 206.48 187.87Q206.05 187.87 205.70 188.01Q205.36 188.14 205.07 188.51Q204.75 188.91 204.66 189.49Q204.56 190.06 204.56 190.64Q204.56 191.42 204.85 192.14Q205.14 192.85 205.63 193.30Q206.13 193.74 206.77 193.74 M214.13 194.34L214.03 194.34Q213.97 194.34 213.87 194.09Q213.78 193.84 213.74 193.73Q213.63 193.46 213.54 193.16Q213.44 192.86 213.34 192.61Q212.99 191.62 212.58 190.66Q212.18 189.71 211.79 188.74Q211.68 188.45 211.45 188.22Q211.22 187.98 210.98 187.92Q210.85 187.87 210.77 187.82Q210.69 187.78 210.69 187.66Q210.69 187.57 210.81 187.54Q210.93 187.52 211.01 187.52Q211.33 187.52 211.47 187.54Q211.62 187.55 211.76 187.58Q211.90 187.60 212.18 187.60Q212.46 187.60 212.61 187.58Q212.75 187.55 212.91 187.54Q213.07 187.52 213.38 187.52Q213.46 187.52 213.58 187.54Q213.70 187.57 213.70 187.66Q213.70 187.78 213.58 187.84Q213.47 187.90 213.33 187.95Q213.17 188.02 213.09 188.20Q213.01 188.38 213.01 188.61Q213.01 188.72 213.02 188.83Q213.04 188.94 213.07 189.04L214.34 192.40Q214.35 192.42 214.36 192.42Q214.37 192.42 214.38 192.40L215.60 189.28Q215.66 189.12 215.70 188.94Q215.73 188.75 215.73 188.62Q215.73 188.30 215.63 188.17Q215.54 188.03 215.31 187.95Q215.10 187.87 215.02 187.82Q214.94 187.78 214.94 187.66Q214.94 187.57 215.05 187.54Q215.15 187.52 215.26 187.52Q215.44 187.52 215.73 187.56Q216.02 187.60 216.43 187.60Q216.85 187.60 217 187.56Q217.15 187.52 217.38 187.52Q217.50 187.52 217.60 187.54Q217.70 187.57 217.70 187.66Q217.70 187.84 217.33 187.95Q217.09 188.02 216.80 188.32Q216.51 188.62 216.34 189.02L215.09 192.03Q215.06 192.10 214.96 192.34Q214.86 192.59 214.75 192.89Q214.64 193.18 214.56 193.40Q214.48 193.62 214.48 193.62Q214.48 193.62 214.42 193.77Q214.35 193.92 214.27 194.09Q214.19 194.26 214.13 194.34 M221.02 194.24Q220.14 194.24 219.49 193.81Q218.83 193.38 218.46 192.58Q218.10 191.79 218.10 190.75Q218.10 189.82 218.52 189.06Q218.94 188.30 219.65 187.84Q220.35 187.38 221.18 187.38Q221.82 187.38 222.32 187.63Q222.82 187.89 223.10 188.34Q223.38 188.80 223.38 189.39Q223.38 189.89 222.90 189.89L219.52 189.89Q219.30 189.89 219.21 190.01Q219.12 190.13 219.12 190.48Q219.12 191.25 219.46 191.88Q219.79 192.51 220.35 192.89Q220.91 193.26 221.58 193.26Q222.06 193.26 222.46 193.08Q222.85 192.90 223.15 192.54Q223.22 192.46 223.25 192.44Q223.28 192.42 223.33 192.42Q223.46 192.42 223.46 192.58Q223.46 192.88 223.17 193.25Q222.93 193.55 222.59 193.78Q222.26 194 221.86 194.12Q221.46 194.24 221.02 194.24M219.55 189.39L221.01 189.39Q221.39 189.39 221.66 189.38Q221.94 189.36 222.19 189.31Q222.27 189.30 222.30 189.21Q222.32 189.12 222.32 188.96Q222.32 188.50 221.91 188.17Q221.50 187.84 220.94 187.84Q220.58 187.84 220.21 188.06Q219.84 188.27 219.60 188.59Q219.36 188.91 219.36 189.23Q219.36 189.39 219.55 189.39 M224.64 194.05Q224.48 194.05 224.40 194.01Q224.32 193.97 224.32 193.87Q224.32 193.74 224.42 193.70Q224.51 193.66 224.69 193.62Q224.99 193.54 225.14 193.38Q225.30 193.23 225.30 193.01L225.30 189.57Q225.30 189.14 225.17 188.82Q225.04 188.50 224.64 188.42Q224.58 188.40 224.53 188.34Q224.48 188.27 224.48 188.21Q224.48 188.05 224.62 188.02Q225.04 187.89 225.50 187.64Q225.95 187.39 226.21 187.23Q226.30 187.17 226.36 187.14Q226.42 187.12 226.45 187.12Q226.53 187.12 226.53 187.23Q226.53 187.28 226.52 187.47Q226.51 187.66 226.50 187.92Q226.50 188.18 226.48 188.43Q226.48 188.46 226.51 188.46Q226.77 188.14 227.08 187.90Q227.39 187.66 227.72 187.52Q228.05 187.38 228.35 187.38Q228.69 187.38 228.90 187.52Q229.12 187.66 229.12 187.89Q229.12 188.05 229.03 188.24Q228.94 188.43 228.80 188.58Q228.66 188.72 228.50 188.72Q228.40 188.72 228.29 188.68Q228.18 188.64 228.05 188.58Q227.92 188.53 227.79 188.48Q227.66 188.43 227.54 188.43Q227.15 188.43 226.79 188.70Q226.43 188.98 226.43 189.78L226.43 193.01Q226.43 193.22 226.66 193.35Q226.88 193.49 227.28 193.62Q227.46 193.66 227.55 193.71Q227.65 193.76 227.65 193.87Q227.65 194.05 227.33 194.05Q226.85 194.05 226.60 194.01Q226.35 193.97 225.94 193.97Q225.66 193.97 225.50 193.98Q225.33 194 225.14 194.02Q224.96 194.05 224.64 194.05 M235.42 194.22Q234.64 194.22 234.20 193.74Q233.76 193.26 233.76 192.32L233.76 188.61Q233.76 188.48 233.66 188.42Q233.57 188.37 233.25 188.37L233.15 188.37Q233.07 188.37 233.02 188.26Q232.96 188.16 232.96 188.05Q232.96 188.02 233.01 187.95Q233.06 187.89 233.07 187.87Q233.39 187.65 233.66 187.42Q233.92 187.20 234.14 186.98Q234.35 186.77 234.50 186.59Q234.58 186.51 234.63 186.46Q234.69 186.40 234.77 186.40Q234.85 186.40 234.92 186.43Q234.99 186.46 234.98 186.58L234.90 187.30Q234.88 187.47 234.98 187.54Q235.07 187.60 235.28 187.60L237.10 187.60Q237.17 187.60 237.22 187.70Q237.26 187.81 237.26 187.95Q237.26 188.10 237.22 188.23Q237.17 188.37 237.10 188.37L235.52 188.37Q235.12 188.37 235 188.43Q234.88 188.50 234.88 188.82L234.88 191.97Q234.88 192.61 235.15 192.98Q235.42 193.34 235.94 193.34Q236.40 193.34 236.66 193.27Q236.91 193.20 237.12 193.06Q237.15 193.02 237.18 193.02Q237.25 193.02 237.27 193.10Q237.30 193.17 237.30 193.25Q237.30 193.33 237.03 193.57Q236.77 193.81 236.34 194.02Q235.92 194.22 235.42 194.22 M238.05 194.05Q237.73 194.05 237.73 193.87Q237.73 193.73 238.10 193.62Q238.34 193.54 238.55 193.41Q238.77 193.28 238.78 192.96L238.78 184.94Q238.78 184.51 238.64 184.18Q238.50 183.86 238.08 183.79Q237.94 183.76 237.94 183.57Q237.94 183.42 238.06 183.38Q238.29 183.30 238.60 183.20Q238.91 183.10 239.25 182.98Q239.58 182.86 239.84 182.75Q239.90 182.72 239.94 182.72Q239.98 182.72 240.02 182.75Q240.05 182.78 240.05 182.83Q240.05 182.93 240.01 183.10Q239.97 183.28 239.94 183.71Q239.90 184.14 239.90 185.01L239.90 187.79Q239.90 188.05 239.93 188.16Q239.95 188.27 240.02 188.38Q240.27 188.19 240.65 187.96Q241.02 187.73 241.49 187.55Q241.95 187.38 242.45 187.38Q243.23 187.38 243.75 187.99Q244.27 188.61 244.27 189.55L244.27 192.91Q244.27 193.23 244.48 193.38Q244.69 193.54 244.93 193.62Q245.10 193.66 245.20 193.72Q245.30 193.78 245.30 193.87Q245.30 194.05 244.98 194.05Q244.66 194.05 244.49 194.02Q244.32 194 244.17 193.98Q244.02 193.97 243.73 193.97Q243.46 193.97 243.30 193.98Q243.14 194 242.97 194.02Q242.80 194.05 242.48 194.05Q242.16 194.05 242.16 193.87Q242.16 193.76 242.26 193.72Q242.35 193.68 242.53 193.62Q242.77 193.54 242.96 193.38Q243.15 193.23 243.15 192.91L243.15 189.65Q243.15 189.25 242.92 188.92Q242.69 188.59 242.35 188.40Q242.02 188.21 241.66 188.21Q241.36 188.21 240.96 188.30Q240.56 188.38 240.34 188.56Q240.08 188.77 239.99 188.99Q239.90 189.22 239.90 189.71L239.90 192.96Q239.92 193.28 240.10 193.41Q240.29 193.54 240.53 193.62Q240.70 193.66 240.79 193.72Q240.88 193.78 240.88 193.87Q240.88 194.05 240.56 194.05Q240.24 194.05 240.08 194.02Q239.92 194 239.78 193.98Q239.63 193.97 239.34 193.97Q239.07 193.97 238.90 193.98Q238.74 194 238.55 194.02Q238.37 194.05 238.05 194.05 M249.07 194.24Q248.19 194.24 247.54 193.81Q246.88 193.38 246.51 192.58Q246.14 191.79 246.14 190.75Q246.14 189.82 246.57 189.06Q246.99 188.30 247.70 187.84Q248.40 187.38 249.23 187.38Q249.87 187.38 250.37 187.63Q250.86 187.89 251.14 188.34Q251.42 188.80 251.42 189.39Q251.42 189.89 250.94 189.89L247.57 189.89Q247.34 189.89 247.26 190.01Q247.17 190.13 247.17 190.48Q247.17 191.25 247.50 191.88Q247.84 192.51 248.40 192.89Q248.96 193.26 249.63 193.26Q250.11 193.26 250.50 193.08Q250.90 192.90 251.20 192.54Q251.26 192.46 251.30 192.44Q251.33 192.42 251.38 192.42Q251.50 192.42 251.50 192.58Q251.50 192.88 251.22 193.25Q250.98 193.55 250.64 193.78Q250.30 194 249.90 194.12Q249.50 194.24 249.07 194.24M247.60 189.39L249.06 189.39Q249.44 189.39 249.71 189.38Q249.98 189.36 250.24 189.31Q250.32 189.30 250.34 189.21Q250.37 189.12 250.37 188.96Q250.37 188.50 249.96 188.17Q249.55 187.84 248.99 187.84Q248.62 187.84 248.26 188.06Q247.89 188.27 247.65 188.59Q247.41 188.91 247.41 189.23Q247.41 189.39 247.60 189.39 M255.73 194.05Q255.65 194.05 255.53 194.02Q255.41 194 255.41 193.90Q255.41 193.78 255.53 193.72Q255.65 193.66 255.78 193.62Q256.02 193.54 256.24 193.43Q256.46 193.33 256.46 193.01L256.46 184.94Q256.46 184.48 256.30 184.17Q256.13 183.86 255.73 183.78Q255.60 183.74 255.60 183.57Q255.60 183.41 255.71 183.38Q256.13 183.28 256.43 183.18Q256.74 183.07 257 182.96Q257.26 182.85 257.52 182.75Q257.58 182.72 257.62 182.72Q257.65 182.72 257.67 182.76Q257.70 182.80 257.70 182.83Q257.70 182.98 257.64 183.45Q257.58 183.92 257.58 185.01L257.58 193.01Q257.58 193.33 257.81 193.43Q258.03 193.54 258.27 193.62Q258.40 193.66 258.52 193.72Q258.64 193.78 258.64 193.90Q258.64 194 258.52 194.02Q258.40 194.05 258.32 194.05Q258.02 194.05 257.83 194.02Q257.65 194 257.48 193.98Q257.31 193.97 257.02 193.97Q256.75 193.97 256.58 193.98Q256.40 194 256.22 194.02Q256.05 194.05 255.73 194.05 M260.82 194.22Q260.53 194.22 260.23 194Q259.94 193.78 259.74 193.46Q259.54 193.14 259.54 192.85Q259.54 192.34 259.81 192.05Q260.08 191.76 260.67 191.52L262.30 190.85Q262.62 190.72 262.68 190.62Q262.74 190.53 262.75 190.21L262.78 189.18Q262.80 188.77 262.55 188.46Q262.30 188.16 261.84 188.16Q261.60 188.16 261.36 188.24Q261.12 188.32 260.96 188.45Q260.86 188.51 260.83 188.64Q260.80 188.77 260.80 188.91Q260.80 188.98 260.81 189.06Q260.82 189.14 260.82 189.20Q260.82 189.28 260.62 189.42Q260.42 189.55 260.17 189.66Q259.92 189.76 259.76 189.76Q259.68 189.76 259.63 189.72Q259.58 189.68 259.58 189.62Q259.58 189.36 259.75 189.06Q259.92 188.77 260.22 188.51Q260.59 188.18 261.02 187.92Q261.46 187.66 261.87 187.52Q262.29 187.38 262.61 187.38Q263.18 187.38 263.56 187.78Q263.94 188.19 263.92 188.80L263.84 192.64Q263.82 192.98 263.99 193.18Q264.16 193.39 264.42 193.39Q264.82 193.39 265.01 193.22Q265.09 193.14 265.14 193.14Q265.22 193.14 265.26 193.18Q265.31 193.23 265.31 193.31Q265.31 193.49 265.14 193.66Q264.88 193.92 264.58 194.07Q264.29 194.22 264.03 194.22Q263.30 194.22 262.86 193.39L262.82 193.39Q262.29 193.82 261.81 194.02Q261.33 194.22 260.82 194.22M261.57 193.46Q261.89 193.46 262.11 193.35Q262.34 193.25 262.51 193.07Q262.59 192.99 262.65 192.86Q262.70 192.72 262.72 192.42L262.75 191.63Q262.77 191.46 262.74 191.38Q262.70 191.30 262.61 191.30Q262.58 191.30 262.50 191.31Q262.42 191.33 262.29 191.38Q261.44 191.68 261.11 192.01Q260.78 192.34 260.78 192.61Q260.78 193.02 261.03 193.24Q261.28 193.46 261.57 193.46 M265.95 194.08Q265.89 194.08 265.81 193.98Q265.73 193.87 265.73 193.81Q265.73 193.76 265.83 193.60Q265.94 193.44 266.07 193.23Q266.21 193.02 266.32 192.88Q266.72 192.30 267.09 191.77Q267.46 191.23 267.82 190.70Q268.18 190.16 268.56 189.56Q268.94 188.96 269.38 188.27Q269.41 188.22 269.41 188.17Q269.41 188.11 269.23 188.11L267.65 188.06Q267.42 188.05 267.23 188.16Q267.04 188.27 266.94 188.37Q266.85 188.46 266.76 188.58Q266.67 188.69 266.58 188.82Q266.50 188.94 266.41 189.06Q266.32 189.18 266.24 189.30Q266.14 189.39 265.99 189.33Q265.84 189.26 265.89 189.14Q265.94 188.99 266.01 188.71Q266.08 188.43 266.14 188.13Q266.19 187.82 266.19 187.63Q266.19 187.50 266.29 187.42Q266.38 187.34 266.43 187.34Q266.50 187.34 266.67 187.49Q266.75 187.55 266.95 187.57Q267.15 187.58 267.36 187.58Q267.54 187.58 267.70 187.58Q267.86 187.57 267.97 187.57Q268.80 187.57 269.50 187.55Q270.21 187.54 270.94 187.52Q270.99 187.52 271.02 187.55Q271.06 187.58 271.07 187.63Q271.09 187.68 271.06 187.71Q270.90 187.92 270.75 188.10Q270.61 188.27 270.45 188.51L267.33 193.23Q267.26 193.34 267.31 193.41Q267.36 193.47 267.47 193.47L269.36 193.47Q269.54 193.47 269.72 193.38Q269.90 193.28 270.08 193.10Q270.27 192.91 270.50 192.60Q270.72 192.29 270.96 191.94Q271.04 191.82 271.18 191.87Q271.31 191.92 271.31 192.05Q271.31 192.10 271.25 192.34Q271.18 192.59 271.10 192.90Q271.01 193.22 270.94 193.49Q270.86 193.76 270.83 193.86Q270.78 194.08 270.58 194.08Q270.22 194.08 269.38 194.04Q268.54 194 267.23 194Q266.90 194 266.53 194.04Q266.16 194.08 265.95 194.08 M272.38 198.56Q272.08 198.56 271.82 198.41Q271.57 198.26 271.57 197.90Q271.57 197.62 271.70 197.40Q271.84 197.18 272.10 197.18Q272.27 197.18 272.44 197.23Q272.61 197.28 272.74 197.28Q272.83 197.28 272.90 197.24Q272.98 197.20 273.04 197.10Q273.22 196.82 273.45 196.38Q273.68 195.95 273.93 195.41Q274.18 194.86 274.40 194.26Q274.45 194.11 274.45 193.89Q274.45 193.76 274.43 193.64Q274.42 193.52 274.38 193.42L272.53 188.74Q272.42 188.45 272.23 188.23Q272.05 188.02 271.81 187.95Q271.68 187.90 271.56 187.84Q271.44 187.78 271.44 187.66Q271.44 187.57 271.56 187.54Q271.68 187.52 271.76 187.52Q272.08 187.52 272.23 187.54Q272.38 187.55 272.52 187.58Q272.66 187.60 272.93 187.60Q273.22 187.60 273.36 187.58Q273.50 187.55 273.66 187.54Q273.82 187.52 274.14 187.52Q274.24 187.52 274.35 187.56Q274.46 187.60 274.46 187.70Q274.46 187.81 274.30 187.91Q274.13 188.02 274 188.05Q273.84 188.10 273.76 188.22Q273.68 188.34 273.68 188.56Q273.68 188.66 273.73 188.79Q273.78 188.93 273.81 189.01L275.10 192.21Q275.14 192.30 275.20 192.30Q275.25 192.30 275.28 192.21L276.38 189.28Q276.43 189.17 276.47 188.98Q276.51 188.80 276.51 188.69Q276.51 188.38 276.42 188.26Q276.34 188.14 276.19 188.08Q276.06 188.02 275.90 187.91Q275.73 187.81 275.73 187.70Q275.73 187.60 275.85 187.56Q275.97 187.52 276.05 187.52Q276.27 187.52 276.50 187.56Q276.74 187.60 277.18 187.60Q277.49 187.60 277.62 187.58Q277.76 187.55 277.86 187.54Q277.95 187.52 278.13 187.52Q278.21 187.52 278.33 187.54Q278.45 187.57 278.45 187.66Q278.45 187.78 278.33 187.84Q278.21 187.90 278.08 187.95Q277.84 188.02 277.57 188.33Q277.30 188.64 277.14 189.02L274.96 194.21Q274.94 194.26 274.79 194.62Q274.64 194.99 274.42 195.54Q274.19 196.08 273.93 196.70Q273.66 197.33 273.42 197.90Q273.28 198.22 273.01 198.39Q272.74 198.56 272.38 198.56 M287.28 194.30Q287.25 194.30 287.18 194.24Q287.10 194.18 287.10 194.14Q287.10 193.98 287.14 193.69Q287.18 193.39 287.18 193.18L287.18 193.09Q286.94 193.46 286.42 193.84Q285.89 194.22 285.09 194.22Q284.18 194.22 283.51 193.74Q282.85 193.26 282.49 192.51Q282.13 191.76 282.13 190.96Q282.13 190.03 282.56 189.22Q282.99 188.40 283.80 187.89Q284.61 187.38 285.73 187.38Q286.05 187.38 286.38 187.43Q286.70 187.49 286.88 187.55Q287.02 187.60 287.09 187.60Q287.20 187.60 287.20 187.22L287.20 184.94Q287.20 184.29 286.99 184.06Q286.78 183.84 286.40 183.78Q286.26 183.74 286.26 183.57Q286.26 183.42 286.38 183.38Q287.09 183.20 287.49 183.04Q287.89 182.88 288.11 182.78Q288.18 182.75 288.23 182.74Q288.29 182.74 288.32 182.74Q288.42 182.74 288.43 182.83Q288.43 182.93 288.41 183.16Q288.38 183.39 288.35 183.84Q288.32 184.29 288.32 185.01L288.32 192.24Q288.32 192.78 288.40 193.03Q288.48 193.28 288.66 193.28Q288.74 193.28 288.94 193.26Q289.14 193.25 289.34 193.23Q289.63 193.22 289.63 193.38Q289.63 193.49 289.56 193.58Q289.49 193.66 289.41 193.66Q288.96 193.73 288.53 193.85Q288.10 193.97 287.54 194.21Q287.41 194.27 287.37 194.29Q287.33 194.30 287.28 194.30M285.66 193.39Q286.08 193.39 286.48 193.18Q286.88 192.96 287.18 192.61L287.20 189.73Q287.20 189.30 286.95 188.88Q286.70 188.46 286.26 188.20Q285.82 187.94 285.23 187.94Q284.86 187.94 284.40 188.16Q283.94 188.38 283.60 188.95Q283.26 189.52 283.26 190.59Q283.26 191.50 283.54 192.06Q283.81 192.61 284.20 192.90Q284.59 193.18 285 193.29Q285.41 193.39 285.66 193.39 M293.41 194.22Q292.51 194.22 291.79 193.81Q291.07 193.39 290.65 192.66Q290.22 191.94 290.22 191.01Q290.22 190.34 290.49 189.70Q290.75 189.06 291.23 188.53Q291.71 188 292.35 187.69Q292.99 187.38 293.73 187.38Q294.66 187.38 295.40 187.82Q296.14 188.27 296.58 189Q297.02 189.73 297.02 190.59Q297.02 191.52 296.62 192.35Q296.21 193.18 295.41 193.70Q294.61 194.22 293.41 194.22M293.74 193.74Q294.29 193.74 294.72 193.54Q295.15 193.33 295.39 192.86Q295.58 192.50 295.65 191.97Q295.71 191.44 295.71 190.98Q295.71 190.21 295.43 189.50Q295.15 188.78 294.65 188.33Q294.14 187.87 293.46 187.87Q293.02 187.87 292.68 188.01Q292.34 188.14 292.05 188.51Q291.73 188.91 291.63 189.49Q291.54 190.06 291.54 190.64Q291.54 191.42 291.82 192.14Q292.11 192.85 292.61 193.30Q293.10 193.74 293.74 193.74 M300.70 198.64Q299.34 198.64 298.55 198.12Q297.76 197.60 297.76 196.72Q297.76 196.30 297.89 196.02Q298.02 195.73 298.29 195.52Q298.51 195.33 298.89 195.03Q299.26 194.74 299.66 194.42L300.34 194.45Q299.57 194.94 299.26 195.39Q298.96 195.84 298.96 196.48Q298.96 197.12 299.53 197.56Q300.10 198 300.93 198Q301.87 198 302.45 197.57Q302.85 197.26 303.07 196.78Q303.30 196.29 303.30 195.74Q303.30 195.39 303.05 195.16Q302.80 194.93 302.27 194.78Q301.74 194.64 300.90 194.59Q299.39 194.48 298.81 194.19Q298.22 193.90 298.22 193.30Q298.22 193.14 298.31 193Q298.40 192.86 298.59 192.70Q298.96 192.42 299.14 192.28Q299.31 192.14 299.40 192.05Q299.49 191.95 299.57 191.81L300.11 192.08Q299.76 192.21 299.52 192.42Q299.28 192.64 299.28 192.82Q299.28 193.04 299.52 193.21Q299.76 193.38 300.22 193.47Q300.69 193.57 301.36 193.62Q302.83 193.70 303.55 194.10Q304.27 194.50 304.27 195.23Q304.27 195.86 303.96 196.46Q303.65 197.06 303.14 197.55Q302.62 198.05 301.99 198.34Q301.36 198.64 300.70 198.64M300.90 191.74Q301.50 191.74 301.90 191.13Q302.30 190.51 302.30 189.60Q302.30 189.14 302.09 188.73Q301.87 188.32 301.53 188.07Q301.18 187.82 300.78 187.82Q300.42 187.82 300.09 188.09Q299.76 188.35 299.56 188.77Q299.36 189.18 299.36 189.68Q299.36 190.24 299.57 190.71Q299.78 191.18 300.13 191.46Q300.48 191.74 300.90 191.74M300.80 192.30Q300.14 192.30 299.55 191.97Q298.96 191.63 298.58 191.08Q298.21 190.53 298.21 189.87Q298.21 189.12 298.60 188.55Q298.99 187.98 299.63 187.66Q300.27 187.34 300.99 187.34Q301.46 187.34 301.80 187.46Q302.14 187.58 302.48 187.68Q302.86 187.79 303.09 187.82Q303.31 187.84 303.55 187.84Q303.74 187.84 304.03 187.82Q304.32 187.79 304.43 187.79Q304.64 187.79 304.64 188.03Q304.64 188.18 304.48 188.34Q304.40 188.42 304.35 188.42L303.92 188.42Q303.49 188.42 303.44 188.54Q303.42 188.61 303.40 188.73Q303.38 188.85 303.36 188.99Q303.34 189.14 303.34 189.28Q303.34 190.10 302.99 190.78Q302.64 191.47 302.06 191.89Q301.49 192.30 300.80 192.30 M306.38 194.22Q306.03 194.22 305.77 193.96Q305.50 193.70 305.50 193.34Q305.50 192.98 305.77 192.72Q306.03 192.46 306.38 192.46Q306.75 192.46 307.01 192.72Q307.26 192.98 307.26 193.34Q307.26 193.70 307.01 193.96Q306.75 194.22 306.38 194.22" fill="#292524"/><path d="M28.35 232.07Q28.18 232.07 28.07 232.02Q27.96 231.97 27.96 231.87Q27.96 231.76 28.07 231.69Q28.18 231.62 28.38 231.55Q28.76 231.44 29.06 231.22Q29.37 230.99 29.57 230.53Q29.95 229.68 30.27 228.90Q30.59 228.12 30.88 227.37Q31.18 226.61 31.49 225.81Q31.79 225 32.12 224.09Q32.24 223.77 32.30 223.55Q32.35 223.33 32.37 223.17Q32.55 223.12 32.70 223.07Q32.86 223.03 33.04 222.93Q33.21 222.84 33.30 222.68Q33.39 222.52 33.45 222.45Q33.47 222.44 33.51 222.43Q33.54 222.42 33.57 222.48Q33.61 222.55 33.63 222.63Q33.66 222.72 33.68 222.82Q34.01 223.84 34.35 224.90Q34.69 225.95 35.03 226.96Q35.36 227.97 35.66 228.83Q35.95 229.69 36.16 230.33Q36.32 230.80 36.53 231.04Q36.74 231.29 36.97 231.41Q37.21 231.52 37.49 231.58Q37.70 231.62 37.81 231.71Q37.91 231.79 37.91 231.90Q37.91 231.99 37.81 232.02Q37.70 232.06 37.55 232.06Q37.32 232.06 36.96 232.03Q36.60 232.01 36.20 232Q35.81 231.99 35.49 231.99Q35.22 231.99 34.90 231.99Q34.58 231.99 34.29 232Q34.01 232.01 33.80 232.01Q33.63 232.01 33.52 231.97Q33.42 231.92 33.42 231.83Q33.42 231.72 33.54 231.65Q33.67 231.58 33.84 231.55Q34.31 231.47 34.53 231.30Q34.75 231.13 34.71 230.85Q34.69 230.61 34.61 230.26Q34.52 229.90 34.41 229.50Q34.30 229.10 34.20 228.77Q34.17 228.65 34.10 228.63Q34.03 228.60 33.87 228.60L31.28 228.60Q31.21 228.60 31.15 228.65Q31.09 228.70 31.04 228.84Q31 229 30.91 229.26Q30.81 229.52 30.73 229.81Q30.65 230.10 30.58 230.34Q30.52 230.59 30.51 230.70Q30.46 231.05 30.68 231.25Q30.90 231.45 31.33 231.57Q31.75 231.68 31.75 231.85Q31.75 231.94 31.65 231.98Q31.54 232.01 31.37 232.01Q31.11 232.01 30.76 232Q30.41 231.99 30.02 231.99Q29.57 231.99 29.15 232.03Q28.73 232.07 28.35 232.07M31.67 228.02L33.71 228.02Q33.91 228.02 33.91 227.95Q33.91 227.91 33.90 227.88Q33.89 227.86 33.88 227.80L32.84 224.48Q32.77 224.26 32.73 224.26Q32.70 224.26 32.63 224.47L31.42 227.80Q31.39 227.88 31.39 227.91Q31.39 227.98 31.46 228Q31.54 228.02 31.67 228.02 M43.51 232.21Q42.50 232.21 41.57 231.87Q40.64 231.54 39.93 230.92Q39.21 230.31 38.80 229.44Q38.39 228.57 38.39 227.51Q38.39 226.51 38.81 225.64Q39.23 224.76 39.98 224.11Q40.73 223.46 41.72 223.09Q42.71 222.72 43.88 222.72Q44.39 222.72 44.80 222.77Q45.21 222.82 45.58 222.90Q45.96 222.98 46.40 223.12Q46.58 223.18 46.67 223.28Q46.76 223.38 46.77 223.57Q46.82 223.94 46.85 224.33Q46.89 224.72 46.90 225.20Q46.90 225.32 46.80 225.38Q46.69 225.43 46.56 225.40Q46.44 225.36 46.40 225.21Q46.27 224.75 46.10 224.38Q45.93 224.02 45.61 223.78Q45.29 223.53 44.79 223.39Q44.30 223.25 43.68 223.25Q42.90 223.25 42.24 223.57Q41.58 223.89 41.12 224.45Q40.66 225 40.40 225.70Q40.14 226.40 40.14 227.16Q40.14 228.04 40.38 228.85Q40.63 229.66 41.10 230.29Q41.57 230.92 42.24 231.29Q42.91 231.66 43.75 231.66Q44.76 231.66 45.42 231.21Q46.07 230.75 46.52 229.90Q46.62 229.70 46.82 229.70Q47.01 229.70 47.01 229.93Q47.01 230.07 46.96 230.31Q46.91 230.56 46.83 230.84Q46.75 231.13 46.66 231.37Q46.58 231.55 46.51 231.62Q46.44 231.69 46.24 231.76Q45.71 231.99 44.99 232.10Q44.27 232.21 43.51 232.21 M53.45 232.21Q52.44 232.21 51.51 231.87Q50.58 231.54 49.87 230.92Q49.15 230.31 48.74 229.44Q48.33 228.57 48.33 227.51Q48.33 226.51 48.75 225.64Q49.17 224.76 49.92 224.11Q50.67 223.46 51.66 223.09Q52.65 222.72 53.82 222.72Q54.33 222.72 54.74 222.77Q55.15 222.82 55.52 222.90Q55.90 222.98 56.34 223.12Q56.52 223.18 56.61 223.28Q56.70 223.38 56.71 223.57Q56.76 223.94 56.79 224.33Q56.83 224.72 56.84 225.20Q56.84 225.32 56.73 225.38Q56.63 225.43 56.50 225.40Q56.38 225.36 56.34 225.21Q56.21 224.75 56.04 224.38Q55.87 224.02 55.55 223.78Q55.23 223.53 54.73 223.39Q54.24 223.25 53.62 223.25Q52.84 223.25 52.18 223.57Q51.52 223.89 51.06 224.45Q50.60 225 50.34 225.70Q50.08 226.40 50.08 227.16Q50.08 228.04 50.32 228.85Q50.57 229.66 51.04 230.29Q51.51 230.92 52.18 231.29Q52.85 231.66 53.69 231.66Q54.70 231.66 55.36 231.21Q56.01 230.75 56.46 229.90Q56.56 229.70 56.76 229.70Q56.95 229.70 56.95 229.93Q56.95 230.07 56.90 230.31Q56.85 230.56 56.77 230.84Q56.69 231.13 56.60 231.37Q56.52 231.55 56.45 231.62Q56.38 231.69 56.18 231.76Q55.65 231.99 54.93 232.10Q54.21 232.21 53.45 232.21 M58.51 232.07Q58.34 232.07 58.24 232.03Q58.14 231.99 58.14 231.90Q58.14 231.72 58.55 231.64Q59.07 231.52 59.30 231.32Q59.53 231.12 59.53 230.63L59.53 224.30Q59.53 223.82 59.33 223.61Q59.14 223.40 58.62 223.31Q58.41 223.26 58.31 223.19Q58.21 223.12 58.21 223.03Q58.21 222.94 58.31 222.89Q58.41 222.84 58.58 222.84Q59.04 222.84 59.41 222.86Q59.78 222.87 60.14 222.89Q60.49 222.90 60.91 222.90Q61.47 222.90 62.10 222.89Q62.72 222.89 63.22 222.87Q63.70 222.87 64.02 222.85Q64.33 222.83 64.39 222.83Q64.47 222.83 64.56 222.87Q64.65 222.90 64.67 223Q64.74 223.43 64.81 223.84Q64.89 224.26 64.89 224.57Q64.89 224.71 64.83 224.75Q64.76 224.80 64.69 224.80Q64.62 224.80 64.58 224.76Q64.54 224.72 64.50 224.64Q64.40 224.36 64.32 224.13Q64.23 223.89 64.12 223.78Q63.94 223.59 63.70 223.49Q63.46 223.39 63.17 223.39L61.60 223.39Q61.42 223.39 61.21 223.52Q61.01 223.66 61.01 223.89L61.01 226.75Q61.01 226.89 61.10 226.97Q61.18 227.06 61.29 227.06L62.62 227.06Q63.03 227.06 63.18 226.88Q63.34 226.69 63.43 226.32Q63.53 226.04 63.70 226.04Q63.77 226.04 63.83 226.10Q63.88 226.16 63.88 226.29Q63.88 226.37 63.87 226.57Q63.85 226.76 63.84 226.97Q63.83 227.18 63.83 227.31Q63.83 227.46 63.83 227.68Q63.84 227.90 63.85 228.11Q63.87 228.32 63.87 228.42Q63.88 228.54 63.85 228.62Q63.81 228.70 63.74 228.70Q63.52 228.70 63.41 228.29Q63.32 227.93 63.17 227.74Q63.03 227.56 62.75 227.56L61.45 227.56Q61.22 227.56 61.12 227.63Q61.01 227.70 61.01 227.93L61.01 230.60Q61.01 231.09 61.22 231.28Q61.43 231.47 61.87 231.47L62.97 231.47Q63.36 231.47 63.66 231.41Q63.95 231.36 64.16 231.20Q64.40 231.03 64.58 230.77Q64.76 230.50 64.96 230.11Q65.02 230.03 65.07 229.98Q65.13 229.93 65.20 229.94Q65.28 229.94 65.32 230Q65.35 230.07 65.35 230.17Q65.35 230.32 65.28 230.63Q65.21 230.94 65.11 231.27Q65 231.61 64.92 231.85Q64.88 231.94 64.82 232.01Q64.76 232.07 64.68 232.07Q64.18 232.07 63.63 232.06Q63.08 232.04 62.51 232.03Q61.94 232.01 61.36 232Q60.79 231.99 60.23 231.99Q59.93 231.99 59.67 232.01Q59.40 232.03 59.13 232.05Q58.86 232.07 58.51 232.07 M75.07 232.25Q74.93 232.25 74.54 232.03Q74.16 231.82 73.79 231.33Q73.64 231.16 73.33 230.79Q73.01 230.42 72.58 229.93Q72.16 229.44 71.67 228.88Q71.19 228.32 70.71 227.76Q70.22 227.21 69.80 226.72Q69.37 226.23 69.04 225.85Q68.71 225.48 68.54 225.31Q68.47 225.21 68.41 225.15Q68.35 225.10 68.29 225.10Q68.24 225.10 68.21 225.20Q68.18 225.31 68.18 225.39Q68.17 226.06 68.17 226.95Q68.17 227.83 68.16 228.76Q68.15 229.69 68.15 230.50Q68.15 230.91 68.38 231.21Q68.60 231.51 69.13 231.62Q69.33 231.66 69.45 231.72Q69.57 231.78 69.57 231.89Q69.57 231.97 69.45 232.01Q69.34 232.06 69.17 232.06Q68.80 232.06 68.59 232.03Q68.39 232.01 68.22 232.01Q68.05 232 67.77 232Q67.51 232 67.32 232.01Q67.13 232.03 66.95 232.04Q66.77 232.06 66.50 232.06Q66.35 232.06 66.23 232.02Q66.11 231.99 66.11 231.89Q66.11 231.79 66.22 231.73Q66.33 231.66 66.54 231.61Q66.92 231.50 67.10 231.19Q67.28 230.89 67.31 230.47Q67.37 229.94 67.43 229.07Q67.49 228.21 67.54 227.13Q67.58 226.05 67.58 224.90Q67.58 224.16 67.20 223.84Q66.82 223.52 66.23 223.32Q66.16 223.29 65.99 223.21Q65.81 223.12 65.81 223Q65.81 222.87 65.94 222.83Q66.07 222.79 66.15 222.79Q66.51 222.80 66.79 222.81Q67.06 222.82 67.31 222.83Q67.56 222.84 67.84 222.85Q68.12 222.86 68.50 222.86Q68.63 222.86 68.70 222.92Q68.77 222.98 68.82 223.07Q68.98 223.25 69.31 223.64Q69.64 224.03 70.08 224.57Q70.52 225.10 71.02 225.69Q71.53 226.29 72.03 226.89Q72.53 227.49 72.98 228.02Q73.43 228.56 73.76 228.94Q74.09 229.33 74.23 229.49Q74.28 229.55 74.38 229.65Q74.47 229.75 74.54 229.75Q74.66 229.75 74.68 229.48Q74.68 229.20 74.68 228.64Q74.68 228.08 74.68 227.34Q74.69 226.60 74.69 225.78Q74.69 224.96 74.68 224.15Q74.66 223.84 74.38 223.62Q74.10 223.40 73.78 223.33Q73.58 223.31 73.42 223.24Q73.25 223.17 73.25 223.05Q73.25 222.97 73.42 222.93Q73.58 222.89 73.74 222.89Q73.95 222.89 74.11 222.89Q74.27 222.89 74.42 222.89Q74.58 222.89 74.73 222.89Q75.05 222.89 75.25 222.88Q75.45 222.87 75.68 222.86Q75.91 222.84 76.31 222.84Q76.48 222.84 76.59 222.89Q76.69 222.93 76.69 223.03Q76.69 223.22 76.26 223.31Q75.75 223.40 75.57 223.56Q75.39 223.73 75.38 224.09Q75.38 224.31 75.36 224.82Q75.35 225.34 75.34 226.02Q75.33 226.71 75.32 227.46Q75.31 228.22 75.31 228.95Q75.31 229.68 75.31 230.26Q75.31 230.60 75.33 230.91Q75.36 231.23 75.38 231.46Q75.40 231.69 75.40 231.80Q75.40 232.07 75.31 232.16Q75.21 232.25 75.07 232.25 M79.79 232.06Q79.63 232.06 79.52 232.02Q79.41 231.99 79.41 231.89Q79.41 231.79 79.52 231.73Q79.63 231.66 79.83 231.62Q80.36 231.52 80.63 231.30Q80.89 231.08 80.89 230.59L80.89 225.04Q80.89 224.43 80.86 224.11Q80.84 223.80 80.78 223.68Q80.72 223.56 80.63 223.53Q80.46 223.49 80.25 223.48Q80.04 223.47 79.76 223.47L79.21 223.47Q78.85 223.47 78.49 223.63Q78.13 223.80 77.95 224.09Q77.90 224.17 77.79 224.32Q77.69 224.47 77.56 224.57Q77.43 224.68 77.31 224.68Q77.24 224.68 77.20 224.62Q77.17 224.57 77.17 224.48Q77.17 224.33 77.25 224.17Q77.48 223.73 77.57 223.39Q77.67 223.05 77.73 222.59Q77.76 222.37 77.84 222.31Q77.92 222.26 78.01 222.26Q78.08 222.26 78.20 222.43Q78.32 222.61 78.39 222.72Q78.50 222.84 78.81 222.91Q79.11 222.98 79.38 222.98L84.43 222.97Q84.87 222.97 85.16 222.91Q85.44 222.86 85.62 222.77Q85.82 222.68 85.93 222.56Q86.04 222.44 86.23 222.44Q86.28 222.44 86.31 222.53Q86.34 222.62 86.34 222.73Q86.34 222.79 86.32 222.90Q86.31 223.01 86.30 223.08Q86.24 223.35 86.19 223.50Q86.14 223.66 86.12 223.79Q86.10 223.92 86.10 224.13L86.10 224.33Q86.10 224.50 86.04 224.65Q85.99 224.80 85.88 224.80Q85.76 224.80 85.69 224.66Q85.62 224.51 85.55 224.23Q85.47 223.87 85.18 223.67Q84.90 223.47 84.24 223.47L83.06 223.47Q82.78 223.47 82.63 223.56Q82.47 223.66 82.42 223.99Q82.38 224.31 82.38 225.04L82.38 230.59Q82.38 231.06 82.65 231.29Q82.92 231.51 83.45 231.62Q83.65 231.66 83.75 231.72Q83.86 231.78 83.86 231.89Q83.86 231.97 83.76 232.01Q83.66 232.06 83.50 232.06Q83.15 232.06 82.85 232.03Q82.56 232.01 82.28 232Q82 231.99 81.69 231.99Q81.35 231.99 81.06 232Q80.77 232.01 80.46 232.03Q80.15 232.06 79.79 232.06 M101.64 229.42L90.10 229.42Q90.03 229.42 89.96 229.37Q89.89 229.31 89.89 229.26Q89.89 229.17 89.93 229.03Q89.96 228.88 90.04 228.76Q90.12 228.64 90.26 228.64L101.86 228.64Q101.96 228.64 102.02 228.70Q102.09 228.75 102.09 228.82Q102.09 229.03 101.95 229.23Q101.82 229.42 101.64 229.42 M111.66 232.04Q111.58 232.04 111.33 232.03Q111.08 232.03 110.75 232.01Q110.42 232 110.07 231.99Q109.72 231.97 109.42 231.97Q109.14 231.97 108.69 231.99Q108.23 232 107.76 232.01Q107.30 232.01 106.95 232.02Q106.61 232.03 106.51 232.03Q106.47 232.03 106.35 231.94Q106.23 231.86 106.23 231.79Q106.23 231.71 106.27 231.66Q106.32 231.62 106.37 231.57L108.64 229.16Q109.35 228.40 109.78 227.53Q110.21 226.67 110.21 225.71Q110.21 225.03 109.82 224.62Q109.42 224.20 108.84 224.20Q108.29 224.20 107.82 224.50Q107.35 224.80 107.06 225.25Q107 225.34 106.92 225.41Q106.83 225.48 106.74 225.48Q106.67 225.48 106.60 225.36Q106.54 225.25 106.54 225.08Q106.54 224.90 106.75 224.59Q106.96 224.27 107.34 223.95Q107.72 223.63 108.23 223.40Q108.75 223.18 109.35 223.18Q110.05 223.18 110.56 223.48Q111.06 223.78 111.33 224.31Q111.59 224.83 111.59 225.50Q111.59 225.88 111.45 226.33Q111.30 226.78 111.06 227.20Q110.82 227.62 110.53 227.97Q110.35 228.19 110 228.54Q109.66 228.89 109.28 229.28Q108.89 229.66 108.54 230Q108.19 230.35 107.97 230.57Q107.76 230.80 107.76 230.82Q107.76 230.88 107.95 230.91Q108.21 230.94 108.52 230.95Q108.84 230.96 109.20 230.96Q109.58 230.96 109.95 230.95Q110.32 230.94 110.67 230.91Q111.05 230.88 111.27 230.82Q111.50 230.77 111.66 230.61Q111.82 230.46 111.97 230.18Q112.03 230.10 112.13 229.98Q112.22 229.87 112.34 229.87Q112.42 229.87 112.45 229.94Q112.48 230.01 112.46 230.08Q112.42 230.25 112.32 230.53Q112.22 230.81 112.13 231.13Q112.03 231.44 111.97 231.72Q111.94 231.92 111.84 231.98Q111.73 232.04 111.66 232.04 M116.10 232.20Q115.35 232.20 114.79 231.80Q114.24 231.41 113.87 230.76Q113.50 230.11 113.32 229.33Q113.13 228.54 113.13 227.77Q113.13 226.97 113.32 226.16Q113.50 225.35 113.88 224.68Q114.25 224.01 114.84 223.59Q115.43 223.18 116.26 223.18Q117.01 223.18 117.57 223.57Q118.13 223.96 118.50 224.62Q118.86 225.27 119.04 226.04Q119.22 226.82 119.22 227.58Q119.22 228.36 119.05 229.17Q118.87 229.98 118.50 230.67Q118.12 231.36 117.53 231.78Q116.94 232.20 116.10 232.20M116.34 231.73Q116.86 231.73 117.17 231.18Q117.49 230.63 117.63 229.74Q117.78 228.85 117.78 227.83Q117.78 227.06 117.67 226.32Q117.56 225.57 117.33 224.97Q117.11 224.37 116.77 224.01Q116.44 223.66 116 223.66Q115.49 223.66 115.18 224.19Q114.87 224.73 114.73 225.62Q114.59 226.50 114.59 227.52Q114.59 228.29 114.70 229.05Q114.81 229.80 115.03 230.40Q115.25 231.01 115.57 231.37Q115.89 231.73 116.34 231.73 M125.58 232.04Q125.50 232.04 125.24 232.03Q124.99 232.03 124.66 232.01Q124.33 232 123.98 231.99Q123.63 231.97 123.34 231.97Q123.06 231.97 122.60 231.99Q122.15 232 121.68 232.01Q121.21 232.01 120.87 232.02Q120.53 232.03 120.43 232.03Q120.39 232.03 120.27 231.94Q120.15 231.86 120.15 231.79Q120.15 231.71 120.19 231.66Q120.23 231.62 120.29 231.57L122.56 229.16Q123.27 228.40 123.70 227.53Q124.12 226.67 124.12 225.71Q124.12 225.03 123.73 224.62Q123.34 224.20 122.75 224.20Q122.21 224.20 121.74 224.50Q121.27 224.80 120.97 225.25Q120.92 225.34 120.83 225.41Q120.75 225.48 120.65 225.48Q120.58 225.48 120.52 225.36Q120.46 225.25 120.46 225.08Q120.46 224.90 120.67 224.59Q120.88 224.27 121.25 223.95Q121.63 223.63 122.15 223.40Q122.67 223.18 123.27 223.18Q123.97 223.18 124.47 223.48Q124.98 223.78 125.24 224.31Q125.51 224.83 125.51 225.50Q125.51 225.88 125.36 226.33Q125.22 226.78 124.98 227.20Q124.74 227.62 124.45 227.97Q124.26 228.19 123.92 228.54Q123.58 228.89 123.19 229.28Q122.81 229.66 122.46 230Q122.11 230.35 121.89 230.57Q121.67 230.80 121.67 230.82Q121.67 230.88 121.87 230.91Q122.12 230.94 122.44 230.95Q122.75 230.96 123.12 230.96Q123.49 230.96 123.86 230.95Q124.24 230.94 124.59 230.91Q124.96 230.88 125.19 230.82Q125.41 230.77 125.57 230.61Q125.73 230.46 125.89 230.18Q125.94 230.10 126.04 229.98Q126.14 229.87 126.25 229.87Q126.34 229.87 126.36 229.94Q126.39 230.01 126.38 230.08Q126.34 230.25 126.24 230.53Q126.14 230.81 126.04 231.13Q125.94 231.44 125.89 231.72Q125.86 231.92 125.75 231.98Q125.65 232.04 125.58 232.04 M130.17 232.21Q129.36 232.21 128.70 231.87Q128.04 231.54 127.65 230.89Q127.26 230.24 127.26 229.30Q127.26 228.51 127.44 227.88Q127.62 227.24 127.90 226.74Q128.17 226.25 128.45 225.90Q128.73 225.55 128.93 225.34Q129.26 224.97 129.80 224.54Q130.34 224.10 131.05 223.71Q131.77 223.31 132.59 223.07Q132.75 223.01 132.87 223.04Q133 223.07 132.97 223.14Q132.94 223.26 132.82 223.34Q132.69 223.42 132.57 223.47Q131.68 223.85 131.06 224.36Q130.44 224.86 129.93 225.60Q129.72 225.94 129.43 226.51Q129.14 227.09 128.93 227.80Q128.72 228.51 128.72 229.26Q128.73 230.03 129 230.56Q129.26 231.09 129.67 231.37Q130.07 231.65 130.48 231.65Q131 231.66 131.38 231.24Q131.77 230.82 131.77 229.97Q131.77 229.54 131.61 229.18Q131.46 228.82 131.19 228.59Q130.93 228.36 130.59 228.36Q130.30 228.36 130.08 228.40Q129.86 228.43 129.67 228.53Q129.50 228.61 129.46 228.52Q129.43 228.43 129.53 228.30Q129.63 228.21 129.70 228.14Q129.78 228.07 129.89 228Q130.06 227.86 130.48 227.67Q130.90 227.48 131.28 227.48Q131.78 227.48 132.21 227.72Q132.64 227.95 132.90 228.36Q133.17 228.77 133.17 229.30Q133.17 229.91 132.92 230.45Q132.68 230.98 132.26 231.38Q131.84 231.78 131.30 231.99Q130.76 232.21 130.17 232.21" fill="#A16207"/></svg>