<svg xmlns="http://www.w3.org/2000/svg" width="480" height="300" viewBox="0 0 480 300" role="img"><rect width="480" height="300" fill="#F7FEE7"/><rect x="0" y="0" width="240" height="84" fill="#18181B"/><rect x="240" y="0" width="120" height="84" fill="#3F3F46"/><rect x="360" y="0" width="72" height="84" fill="#18181B"/><rect x="432" y="0" width="48" height="84" fill="#4D7C0F"/><path d="M39.18 154L31.30 154L31.30 123.77L39.18 123.77L39.18 135.39L51.45 135.39L51.45 123.77L59.33 123.77L59.33 154L51.45 154L51.45 141.81L39.18 141.81 M76.71 154.53Q72.75 154.53 69.98 153.23Q67.20 151.93 65.73 149.25Q64.26 146.56 64.26 142.38Q64.26 138.29 65.71 135.61Q67.16 132.92 69.89 131.60Q72.62 130.28 76.44 130.28Q80.23 130.28 82.85 131.56Q85.46 132.84 86.83 135.48Q88.19 138.12 88.19 142.30L88.19 143.84L71.56 143.84Q71.56 145.68 72.09 146.96Q72.62 148.24 73.72 148.90Q74.82 149.56 76.66 149.56Q77.76 149.56 78.60 149.29Q79.44 149.03 80.01 148.52Q80.58 148.02 80.89 147.31Q81.20 146.61 81.20 145.73L88.19 145.73Q88.19 147.84 87.42 149.49Q86.65 151.14 85.16 152.26Q83.66 153.38 81.53 153.96Q79.39 154.53 76.71 154.53M71.60 139.83L80.84 139.83Q80.84 138.69 80.56 137.83Q80.27 136.97 79.72 136.40Q79.17 135.83 78.40 135.54Q77.63 135.26 76.62 135.26Q75.04 135.26 73.98 135.78Q72.92 136.31 72.35 137.32Q71.78 138.34 71.60 139.83 M99.06 154.53Q97.61 154.53 96.22 154.24Q94.84 153.96 93.71 153.23Q92.59 152.50 91.93 151.23Q91.27 149.95 91.27 148.02Q91.27 145.51 92.33 143.92Q93.38 142.34 95.39 141.44Q97.39 140.54 100.23 140.18Q103.06 139.83 106.58 139.83L106.58 138.38Q106.58 137.37 106.19 136.69Q105.79 136 105.02 135.63Q104.25 135.26 102.98 135.26Q101.83 135.26 100.97 135.52Q100.12 135.78 99.68 136.29Q99.24 136.80 99.24 137.50L99.24 137.90L92.20 137.90Q92.15 137.68 92.15 137.52Q92.15 137.37 92.15 137.10Q92.15 135.04 93.45 133.50Q94.75 131.96 97.17 131.12Q99.59 130.28 103.02 130.28Q106.23 130.28 108.63 131.08Q111.03 131.87 112.41 133.50Q113.80 135.12 113.80 137.76L113.80 147.66Q113.80 148.41 114.22 148.85Q114.64 149.29 115.25 149.29L116.75 149.29L116.75 153.74Q116.26 153.96 115.23 154.24Q114.20 154.53 112.74 154.53Q111.25 154.53 110.13 154.15Q109 153.78 108.28 153.10Q107.55 152.42 107.29 151.49L106.98 151.49Q106.14 152.37 105.02 153.08Q103.90 153.78 102.43 154.15Q100.95 154.53 99.06 154.53M101.74 149.56Q102.80 149.56 103.68 149.25Q104.56 148.94 105.20 148.39Q105.84 147.84 106.21 147.05Q106.58 146.26 106.58 145.33L106.58 143.79Q104.08 143.79 102.27 144.14Q100.47 144.50 99.50 145.24Q98.53 145.99 98.53 147.14Q98.53 147.97 98.95 148.52Q99.37 149.07 100.07 149.31Q100.78 149.56 101.74 149.56 M128.14 154.53Q125.20 154.53 123.04 153.21Q120.88 151.89 119.74 149.20Q118.60 146.52 118.60 142.34Q118.60 138.25 119.76 135.59Q120.93 132.92 123.04 131.60Q125.15 130.28 128.01 130.28Q129.38 130.28 130.63 130.59Q131.88 130.90 132.87 131.56Q133.86 132.22 134.57 133.19L134.83 133.19L134.83 122.14L142.05 122.14L142.05 154L136.15 154L135.62 150.79L135.32 150.79Q134.13 152.68 132.28 153.60Q130.43 154.53 128.14 154.53M130.39 148.90Q131.97 148.90 132.96 148.17Q133.95 147.44 134.41 146.10Q134.88 144.76 134.88 142.96L134.88 141.90Q134.88 140.58 134.61 139.48Q134.35 138.38 133.82 137.59Q133.29 136.80 132.43 136.36Q131.58 135.92 130.39 135.92Q128.76 135.92 127.77 136.58Q126.78 137.24 126.34 138.51Q125.90 139.79 125.90 141.68L125.90 143.22Q125.90 145.07 126.34 146.34Q126.78 147.62 127.77 148.26Q128.76 148.90 130.39 148.90 M154.76 127.69L147.55 127.69L147.55 122.14L154.76 122.14L154.76 127.69M154.76 154L147.55 154L147.55 130.81L154.76 130.81 M167.44 154L160.22 154L160.22 130.81L166.16 130.81L166.69 134.11L167 134.11Q167.88 132.92 169.02 132.04Q170.16 131.16 171.62 130.72Q173.07 130.28 174.70 130.28Q177.20 130.28 178.94 131.21Q180.68 132.13 181.60 133.98Q182.53 135.83 182.53 138.69L182.53 154L175.31 154L175.31 139.70Q175.31 138.73 175.07 138.05Q174.83 137.37 174.39 136.88Q173.95 136.40 173.29 136.18Q172.63 135.96 171.79 135.96Q170.52 135.96 169.55 136.55Q168.58 137.15 168.01 138.14Q167.44 139.13 167.44 140.45 M203.47 162.67L191.64 162.67Q190.10 162.67 188.73 161.99Q187.37 161.30 186.55 160.05Q185.74 158.80 185.74 157.12Q185.74 155.28 186.86 154.02Q187.98 152.77 189.39 152.15Q188.38 151.49 187.74 150.50Q187.10 149.51 187.10 148.28Q187.10 146.56 188.38 145.38Q189.66 144.19 191.37 143.79Q189.79 142.78 188.80 141.28Q187.81 139.79 187.81 137.94Q187.81 135.26 189.24 133.58Q190.67 131.91 193.18 131.10Q195.68 130.28 198.90 130.28Q200.17 130.28 201.21 130.39Q202.24 130.50 203.08 130.72Q204.84 129.67 205.50 128.52Q206.16 127.38 206.20 126.68L212.49 126.68Q212.49 128.44 211.88 129.65Q211.26 130.86 210.12 131.60Q208.97 132.35 207.39 132.75Q208.58 133.72 209.24 135.06Q209.90 136.40 209.90 137.94Q209.90 140.45 208.64 142.14Q207.39 143.84 205.19 144.72Q202.99 145.60 200.13 145.60L196.70 145.60Q195.46 145.60 194.87 145.97Q194.28 146.34 194.28 146.96Q194.28 147.53 194.80 147.95Q195.33 148.37 196.61 148.37L205.54 148.37Q208.93 148.37 210.73 150.28Q212.54 152.20 212.54 155.14Q212.54 157.39 211.30 159.08Q210.07 160.78 208.03 161.72Q205.98 162.67 203.47 162.67M195.11 158.27L202.72 158.27Q203.47 158.27 204.04 157.98Q204.62 157.70 204.95 157.19Q205.28 156.68 205.28 156.02Q205.28 154.92 204.57 154.35Q203.87 153.78 202.86 153.78L195.11 153.78Q194.10 153.78 193.42 154.37Q192.74 154.97 192.74 155.98Q192.74 156.99 193.42 157.63Q194.10 158.27 195.11 158.27M198.85 141.37Q200.74 141.37 201.78 140.49Q202.81 139.61 202.81 137.94Q202.81 136.22 201.78 135.37Q200.74 134.51 198.85 134.51Q197.05 134.51 195.99 135.37Q194.94 136.22 194.94 137.94Q194.94 139.04 195.38 139.81Q195.82 140.58 196.70 140.98Q197.58 141.37 198.85 141.37" fill="#18181B"/><path d="M32.43 183.67L28.77 183.67L28.77 182.36L37.56 182.36L37.56 183.67L33.91 183.67L33.91 194L32.43 194 M40.97 188.77L40.97 194L39.56 194L39.56 182.36L40.97 182.36L40.97 187.38L40.73 187.38Q41.13 186.17 41.86 185.66Q42.60 185.16 43.59 185.16Q44.48 185.16 45.14 185.52Q45.81 185.88 46.18 186.61Q46.55 187.34 46.55 188.45L46.55 194L45.14 194L45.14 188.57Q45.14 187.56 44.61 186.99Q44.09 186.42 43.17 186.42Q42.55 186.42 42.05 186.70Q41.55 186.97 41.26 187.49Q40.97 188.02 40.97 188.77 M52.70 194.19Q51.43 194.19 50.51 193.63Q49.59 193.06 49.10 192.05Q48.60 191.05 48.60 189.70Q48.60 188.36 49.09 187.34Q49.57 186.31 50.46 185.73Q51.34 185.16 52.53 185.16Q53.23 185.16 53.90 185.39Q54.58 185.62 55.13 186.13Q55.68 186.64 56.01 187.48Q56.34 188.31 56.34 189.52L56.34 190.11L49.55 190.11L49.55 188.92L55.58 188.92L54.92 189.36Q54.92 188.50 54.65 187.83Q54.38 187.16 53.85 186.79Q53.32 186.41 52.53 186.41Q51.74 186.41 51.18 186.79Q50.62 187.18 50.32 187.80Q50.02 188.42 50.02 189.13L50.02 189.92Q50.02 190.89 50.36 191.57Q50.70 192.24 51.30 192.59Q51.91 192.94 52.70 192.94Q53.22 192.94 53.64 192.79Q54.06 192.64 54.37 192.34Q54.67 192.04 54.84 191.59L56.20 191.97Q55.99 192.63 55.51 193.13Q55.02 193.63 54.31 193.91Q53.59 194.19 52.70 194.19 M70.18 185.27L70.18 197.27L68.77 197.27L68.77 192.65L68.66 192.65Q68.52 192.89 68.25 193.25Q67.97 193.62 67.46 193.90Q66.96 194.19 66.13 194.19Q65.04 194.19 64.20 193.63Q63.37 193.08 62.90 192.06Q62.43 191.05 62.43 189.66Q62.43 188.27 62.90 187.26Q63.38 186.25 64.21 185.70Q65.05 185.16 66.13 185.16Q66.98 185.16 67.48 185.44Q67.98 185.72 68.25 186.07Q68.52 186.43 68.66 186.66L68.82 186.66L68.82 185.27L70.18 185.27M66.34 192.93Q67.13 192.93 67.68 192.51Q68.23 192.09 68.51 191.35Q68.79 190.61 68.79 189.64Q68.79 188.67 68.51 187.95Q68.23 187.23 67.69 186.82Q67.14 186.41 66.34 186.41Q65.51 186.41 64.96 186.84Q64.41 187.27 64.13 188Q63.86 188.73 63.86 189.64Q63.86 190.55 64.14 191.30Q64.41 192.05 64.97 192.49Q65.52 192.93 66.34 192.93 M75.61 194.11Q74.73 194.11 74.06 193.75Q73.39 193.38 73.02 192.65Q72.65 191.91 72.65 190.81L72.65 185.27L74.05 185.27L74.05 190.70Q74.05 191.70 74.59 192.27Q75.12 192.84 76.03 192.84Q76.66 192.84 77.15 192.57Q77.65 192.30 77.94 191.77Q78.23 191.24 78.23 190.50L78.23 185.27L79.64 185.27L79.64 194L78.28 194L78.28 191.88L78.47 191.88Q78.06 193.11 77.32 193.61Q76.57 194.11 75.61 194.11 M83.52 194L82.11 194L82.11 185.27L83.52 185.27L83.52 194M82.82 183.84Q82.42 183.84 82.13 183.56Q81.84 183.29 81.84 182.91Q81.84 182.52 82.13 182.25Q82.42 181.98 82.82 181.98Q83.23 181.98 83.52 182.25Q83.80 182.52 83.80 182.91Q83.80 183.29 83.52 183.56Q83.23 183.84 82.82 183.84 M89.54 194.19Q88.35 194.19 87.46 193.63Q86.56 193.06 86.06 192.05Q85.56 191.03 85.56 189.69Q85.56 188.32 86.06 187.30Q86.56 186.28 87.46 185.72Q88.35 185.16 89.54 185.16Q90.17 185.16 90.73 185.32Q91.30 185.48 91.76 185.79Q92.23 186.10 92.56 186.55Q92.90 187 93.08 187.57L91.73 187.95Q91.63 187.62 91.44 187.34Q91.24 187.05 90.96 186.85Q90.69 186.64 90.33 186.53Q89.97 186.41 89.54 186.41Q88.66 186.41 88.10 186.87Q87.54 187.33 87.27 188.07Q86.99 188.81 86.99 189.69Q86.99 190.55 87.27 191.29Q87.54 192.02 88.10 192.48Q88.66 192.93 89.54 192.93Q89.98 192.93 90.34 192.81Q90.71 192.70 91 192.48Q91.28 192.27 91.48 191.97Q91.67 191.67 91.77 191.32L93.11 191.70Q92.94 192.29 92.60 192.75Q92.26 193.20 91.79 193.53Q91.32 193.85 90.75 194.02Q90.18 194.19 89.54 194.19 M97.98 189.41L96.45 190.86L96.45 189.12L96.70 189.12L100.44 185.27L102.18 185.27L98.14 189.41L97.98 189.41M96.53 194L95.13 194L95.13 182.36L96.53 182.36L96.53 194M102.45 194L100.65 194L97.30 189.73L98.30 188.73 M112.46 194.19Q111.63 194.19 111.13 193.90Q110.62 193.62 110.34 193.25Q110.07 192.89 109.92 192.65L109.77 192.65L109.77 194L108.41 194L108.41 182.36L109.81 182.36L109.81 186.66L109.92 186.66Q110.07 186.43 110.34 186.07Q110.60 185.72 111.10 185.44Q111.60 185.16 112.45 185.16Q113.55 185.16 114.38 185.70Q115.21 186.25 115.68 187.26Q116.16 188.27 116.16 189.66Q116.16 191.05 115.69 192.06Q115.22 193.08 114.39 193.63Q113.55 194.19 112.46 194.19M112.25 192.93Q113.07 192.93 113.62 192.49Q114.17 192.05 114.45 191.30Q114.73 190.55 114.73 189.64Q114.73 188.73 114.45 188Q114.18 187.27 113.63 186.84Q113.08 186.41 112.25 186.41Q111.45 186.41 110.90 186.82Q110.35 187.23 110.07 187.95Q109.80 188.67 109.80 189.64Q109.80 190.61 110.08 191.35Q110.36 192.09 110.91 192.51Q111.46 192.93 112.25 192.93 M119.61 194L118.20 194L118.20 185.27L119.56 185.27L119.56 186.61L119.66 186.61Q119.90 185.95 120.52 185.54Q121.14 185.14 121.92 185.14Q122.08 185.14 122.29 185.15Q122.51 185.16 122.63 185.16L122.63 186.58Q122.57 186.56 122.32 186.53Q122.07 186.50 121.79 186.50Q121.16 186.50 120.67 186.76Q120.17 187.02 119.89 187.48Q119.61 187.94 119.61 188.53 M127.78 194.19Q126.59 194.19 125.70 193.63Q124.80 193.06 124.30 192.05Q123.80 191.03 123.80 189.69Q123.80 188.32 124.30 187.30Q124.80 186.28 125.70 185.72Q126.59 185.16 127.78 185.16Q128.98 185.16 129.88 185.72Q130.77 186.28 131.27 187.30Q131.77 188.32 131.77 189.69Q131.77 191.03 131.27 192.05Q130.77 193.06 129.88 193.63Q128.98 194.19 127.78 194.19M127.78 192.93Q128.66 192.93 129.23 192.48Q129.80 192.02 130.08 191.29Q130.35 190.55 130.35 189.69Q130.35 188.82 130.08 188.07Q129.80 187.33 129.23 186.87Q128.66 186.41 127.78 186.41Q126.91 186.41 126.34 186.87Q125.78 187.33 125.51 188.07Q125.23 188.81 125.23 189.69Q125.23 190.55 125.51 191.29Q125.78 192.02 126.34 192.48Q126.91 192.93 127.78 192.93 M137.18 194L135.78 194L133.13 185.27L134.63 185.27L135.69 189.08Q135.91 189.86 136.16 190.85Q136.41 191.84 136.65 193.09L136.41 193.09Q136.64 191.89 136.88 190.90Q137.13 189.91 137.35 189.08L138.40 185.27L139.90 185.27L140.93 189.08Q141.15 189.88 141.39 190.87Q141.63 191.86 141.86 193.09L141.61 193.09Q141.86 191.88 142.11 190.89Q142.35 189.90 142.58 189.08L143.64 185.27L145.13 185.27L142.48 194L141.09 194L139.95 190.05Q139.78 189.45 139.62 188.82Q139.45 188.20 139.30 187.54Q139.14 186.88 138.98 186.20L139.29 186.20Q139.13 186.88 138.97 187.54Q138.81 188.20 138.65 188.83Q138.48 189.46 138.31 190.05 M148.32 188.77L148.32 194L146.91 194L146.91 185.27L148.27 185.27L148.27 187.38L148.08 187.38Q148.48 186.17 149.21 185.66Q149.95 185.16 150.95 185.16Q151.83 185.16 152.49 185.52Q153.16 185.88 153.53 186.61Q153.90 187.34 153.90 188.45L153.90 194L152.49 194L152.49 188.57Q152.49 187.56 151.96 186.99Q151.44 186.42 150.52 186.42Q149.90 186.42 149.40 186.70Q148.90 186.97 148.61 187.49Q148.32 188.02 148.32 188.77 M159.79 185.27L164.93 185.27L164.93 186.47L159.79 186.47L159.79 185.27M162.91 194L161.51 194L161.51 184.10Q161.51 183.34 161.86 182.84Q162.22 182.33 162.79 182.07Q163.36 181.81 163.99 181.81Q164.49 181.81 164.82 181.89Q165.15 181.98 165.30 182.05L164.91 183.25Q164.80 183.21 164.63 183.16Q164.45 183.12 164.16 183.12Q163.51 183.12 163.21 183.45Q162.91 183.78 162.91 184.41 M170.34 194.19Q169.16 194.19 168.26 193.63Q167.37 193.06 166.87 192.05Q166.37 191.03 166.37 189.69Q166.37 188.32 166.87 187.30Q167.37 186.28 168.26 185.72Q169.16 185.16 170.34 185.16Q171.54 185.16 172.44 185.72Q173.34 186.28 173.84 187.30Q174.34 188.32 174.34 189.69Q174.34 191.03 173.84 192.05Q173.34 193.06 172.44 193.63Q171.54 194.19 170.34 194.19M170.34 192.93Q171.23 192.93 171.80 192.48Q172.37 192.02 172.64 191.29Q172.91 190.55 172.91 189.69Q172.91 188.82 172.64 188.07Q172.37 187.33 171.80 186.87Q171.23 186.41 170.34 186.41Q169.47 186.41 168.91 186.87Q168.34 187.33 168.07 188.07Q167.80 188.81 167.80 189.69Q167.80 190.55 168.07 191.29Q168.34 192.02 168.91 192.48Q169.47 192.93 170.34 192.93 M177.28 194L175.66 194L179.10 188.98L179.09 190.05L175.84 185.27L177.48 185.27L178.56 186.96Q178.98 187.62 179.29 188.19Q179.60 188.76 179.93 189.29L179.20 189.29Q179.53 188.76 179.81 188.19Q180.09 187.62 180.52 186.96L181.63 185.27L183.23 185.27L179.96 190.12L179.96 189.08L183.38 194L181.74 194L180.46 192.04Q180.05 191.40 179.75 190.85Q179.45 190.30 179.13 189.79L179.87 189.79Q179.55 190.30 179.27 190.85Q179 191.40 178.58 192.04 M189.61 194.63L189.61 185.27L191.02 185.27L191.02 194.63Q191.03 195.45 190.74 196.05Q190.45 196.64 189.88 196.95Q189.31 197.27 188.46 197.27L188.18 197.27L188.18 195.97L188.44 195.97Q189.05 195.97 189.33 195.62Q189.61 195.27 189.61 194.63M190.32 183.84Q189.92 183.84 189.63 183.56Q189.34 183.29 189.34 182.91Q189.34 182.52 189.63 182.25Q189.92 181.98 190.32 181.98Q190.73 181.98 191.02 182.25Q191.30 182.52 191.30 182.91Q191.30 183.29 191.02 183.56Q190.73 183.84 190.32 183.84 M196.45 194.11Q195.57 194.11 194.90 193.75Q194.23 193.38 193.86 192.65Q193.49 191.91 193.49 190.81L193.49 185.27L194.90 185.27L194.90 190.70Q194.90 191.70 195.43 192.27Q195.96 192.84 196.88 192.84Q197.50 192.84 198 192.57Q198.49 192.30 198.78 191.77Q199.07 191.24 199.07 190.50L199.07 185.27L200.48 185.27L200.48 194L199.13 194L199.13 191.88L199.31 191.88Q198.91 193.11 198.16 193.61Q197.41 194.11 196.45 194.11 M204.36 194L202.95 194L202.95 185.27L204.32 185.27L204.33 187.22L204.22 187.22Q204.40 186.51 204.79 186.04Q205.17 185.58 205.69 185.34Q206.21 185.11 206.77 185.11Q207.73 185.11 208.32 185.70Q208.91 186.28 209.08 187.23L208.89 187.23Q209.05 186.58 209.46 186.10Q209.88 185.63 210.46 185.37Q211.05 185.11 211.75 185.11Q212.51 185.11 213.13 185.44Q213.76 185.77 214.13 186.43Q214.50 187.09 214.50 188.11L214.50 194L213.09 194L213.09 188.15Q213.09 187.20 212.56 186.80Q212.03 186.39 211.33 186.39Q210.74 186.39 210.32 186.64Q209.89 186.88 209.66 187.31Q209.43 187.74 209.43 188.30L209.43 194L208.02 194L208.02 188.01Q208.02 187.28 207.54 186.84Q207.05 186.39 206.31 186.39Q205.80 186.39 205.36 186.63Q204.91 186.87 204.63 187.34Q204.36 187.80 204.36 188.50 M218.38 197.27L216.97 197.27L216.97 185.27L218.33 185.27L218.33 186.66L218.48 186.66Q218.63 186.43 218.90 186.07Q219.16 185.72 219.66 185.44Q220.16 185.16 221.02 185.16Q222.11 185.16 222.94 185.70Q223.77 186.25 224.25 187.26Q224.72 188.27 224.72 189.66Q224.72 191.05 224.25 192.06Q223.78 193.08 222.95 193.63Q222.12 194.19 221.02 194.19Q220.20 194.19 219.69 193.90Q219.18 193.62 218.91 193.25Q218.63 192.89 218.48 192.65L218.38 192.65L218.38 197.27M220.81 192.93Q221.63 192.93 222.18 192.49Q222.73 192.05 223.01 191.30Q223.29 190.55 223.29 189.64Q223.29 188.73 223.02 188Q222.74 187.27 222.19 186.84Q221.64 186.41 220.81 186.41Q220.01 186.41 219.46 186.82Q218.91 187.23 218.64 187.95Q218.36 188.67 218.36 189.64Q218.36 190.61 218.64 191.35Q218.92 192.09 219.47 192.51Q220.02 192.93 220.81 192.93 M229.73 194.19Q228.84 194.19 228.14 193.93Q227.44 193.66 226.98 193.15Q226.53 192.63 226.38 191.88L227.71 191.56Q227.90 192.28 228.42 192.62Q228.94 192.95 229.72 192.95Q230.63 192.95 231.18 192.56Q231.72 192.17 231.72 191.63Q231.72 191.18 231.40 190.88Q231.09 190.58 230.44 190.43L228.98 190.09Q227.80 189.80 227.22 189.21Q226.64 188.63 226.64 187.70Q226.64 186.95 227.06 186.38Q227.48 185.80 228.21 185.48Q228.95 185.16 229.88 185.16Q230.77 185.16 231.40 185.43Q232.03 185.70 232.43 186.17Q232.82 186.64 233.02 187.26L231.74 187.59Q231.56 187.12 231.14 186.73Q230.73 186.35 229.88 186.35Q229.10 186.35 228.58 186.71Q228.06 187.07 228.06 187.62Q228.06 188.10 228.41 188.39Q228.77 188.69 229.53 188.87L230.85 189.18Q232.04 189.46 232.61 190.05Q233.18 190.64 233.18 191.54Q233.18 192.30 232.75 192.90Q232.31 193.50 231.54 193.84Q230.76 194.19 229.73 194.19 M243.27 194.19Q242.08 194.19 241.18 193.63Q240.29 193.06 239.79 192.05Q239.29 191.03 239.29 189.69Q239.29 188.32 239.79 187.30Q240.29 186.28 241.18 185.72Q242.08 185.16 243.27 185.16Q244.46 185.16 245.36 185.72Q246.26 186.28 246.76 187.30Q247.26 188.32 247.26 189.69Q247.26 191.03 246.76 192.05Q246.26 193.06 245.36 193.63Q244.46 194.19 243.27 194.19M243.27 192.93Q244.15 192.93 244.72 192.48Q245.29 192.02 245.56 191.29Q245.84 190.55 245.84 189.69Q245.84 188.82 245.56 188.07Q245.29 187.33 244.72 186.87Q244.15 186.41 243.27 186.41Q242.39 186.41 241.83 186.87Q241.27 187.33 240.99 188.07Q240.72 188.81 240.72 189.69Q240.72 190.55 240.99 191.29Q241.27 192.02 241.83 192.48Q242.39 192.93 243.27 192.93 M253.30 194L251.83 194L248.49 185.27L250.03 185.27L251.89 190.45Q252.19 191.25 252.39 192.05Q252.60 192.85 252.83 193.60L252.31 193.60Q252.54 192.85 252.75 192.05Q252.95 191.25 253.24 190.45L255.10 185.27L256.64 185.27 M261.97 194.19Q260.70 194.19 259.79 193.63Q258.87 193.06 258.37 192.05Q257.88 191.05 257.88 189.70Q257.88 188.36 258.36 187.34Q258.84 186.31 259.73 185.73Q260.62 185.16 261.80 185.16Q262.50 185.16 263.18 185.39Q263.85 185.62 264.40 186.13Q264.95 186.64 265.28 187.48Q265.61 188.31 265.61 189.52L265.61 190.11L258.83 190.11L258.83 188.92L264.85 188.92L264.20 189.36Q264.20 188.50 263.93 187.83Q263.66 187.16 263.13 186.79Q262.59 186.41 261.80 186.41Q261.02 186.41 260.45 186.79Q259.89 187.18 259.59 187.80Q259.30 188.42 259.30 189.13L259.30 189.92Q259.30 190.89 259.63 191.57Q259.97 192.24 260.57 192.59Q261.18 192.94 261.98 192.94Q262.49 192.94 262.91 192.79Q263.34 192.64 263.64 192.34Q263.95 192.04 264.11 191.59L265.47 191.97Q265.27 192.63 264.78 193.13Q264.30 193.63 263.58 193.91Q262.87 194.19 261.97 194.19 M269.03 194L267.63 194L267.63 185.27L268.98 185.27L268.98 186.61L269.08 186.61Q269.32 185.95 269.94 185.54Q270.56 185.14 271.34 185.14Q271.50 185.14 271.71 185.15Q271.93 185.16 272.05 185.16L272.05 186.58Q271.99 186.56 271.74 186.53Q271.49 186.50 271.21 186.50Q270.59 186.50 270.09 186.76Q269.59 187.02 269.31 187.48Q269.03 187.94 269.03 188.53 M277.07 185.27L281.59 185.27L281.59 186.47L277.07 186.47L277.07 185.27M278.38 191.84L278.38 183.19L279.79 183.19L279.79 191.73Q279.79 192.32 280.03 192.59Q280.27 192.86 280.82 192.86Q280.95 192.86 281.16 192.83Q281.37 192.80 281.54 192.77L281.83 193.95Q281.61 194.03 281.33 194.07Q281.05 194.11 280.78 194.11Q279.65 194.11 279.02 193.51Q278.38 192.91 278.38 191.84 M284.79 188.77L284.79 194L283.38 194L283.38 182.36L284.79 182.36L284.79 187.38L284.55 187.38Q284.95 186.17 285.68 185.66Q286.42 185.16 287.41 185.16Q288.30 185.16 288.96 185.52Q289.63 185.88 290 186.61Q290.38 187.34 290.38 188.45L290.38 194L288.96 194L288.96 188.57Q288.96 187.56 288.43 186.99Q287.91 186.42 286.99 186.42Q286.37 186.42 285.87 186.70Q285.37 186.97 285.08 187.49Q284.79 188.02 284.79 188.77 M296.52 194.19Q295.25 194.19 294.33 193.63Q293.41 193.06 292.92 192.05Q292.42 191.05 292.42 189.70Q292.42 188.36 292.91 187.34Q293.39 186.31 294.28 185.73Q295.16 185.16 296.35 185.16Q297.05 185.16 297.72 185.39Q298.40 185.62 298.95 186.13Q299.50 186.64 299.83 187.48Q300.16 188.31 300.16 189.52L300.16 190.11L293.38 190.11L293.38 188.92L299.40 188.92L298.74 189.36Q298.74 188.50 298.47 187.83Q298.20 187.16 297.67 186.79Q297.14 186.41 296.35 186.41Q295.56 186.41 295 186.79Q294.44 187.18 294.14 187.80Q293.84 188.42 293.84 189.13L293.84 189.92Q293.84 190.89 294.18 191.57Q294.52 192.24 295.12 192.59Q295.73 192.94 296.52 192.94Q297.04 192.94 297.46 192.79Q297.88 192.64 298.19 192.34Q298.49 192.04 298.66 191.59L300.02 191.97Q299.81 192.63 299.33 193.13Q298.84 193.63 298.13 193.91Q297.41 194.19 296.52 194.19 M306.67 182.36L308.08 182.36L308.08 194L306.67 194 M312.99 194.20Q312.16 194.20 311.49 193.89Q310.81 193.58 310.41 192.98Q310.02 192.38 310.02 191.52Q310.02 190.77 310.31 190.30Q310.61 189.83 311.11 189.56Q311.60 189.29 312.20 189.16Q312.80 189.02 313.41 188.95Q314.20 188.84 314.69 188.79Q315.18 188.73 315.42 188.60Q315.66 188.47 315.66 188.15L315.66 188.10Q315.66 187.55 315.45 187.18Q315.25 186.80 314.84 186.59Q314.44 186.39 313.83 186.39Q313.20 186.39 312.76 186.59Q312.31 186.78 312.04 187.07Q311.76 187.37 311.62 187.67L310.27 187.23Q310.60 186.43 311.17 185.98Q311.74 185.53 312.43 185.34Q313.12 185.16 313.79 185.16Q314.23 185.16 314.79 185.26Q315.34 185.37 315.86 185.68Q316.38 185.99 316.72 186.61Q317.06 187.22 317.06 188.24L317.06 194L315.68 194L315.68 192.81L315.59 192.81Q315.44 193.12 315.11 193.44Q314.78 193.77 314.26 193.98Q313.73 194.20 312.99 194.20M313.23 192.96Q314.02 192.96 314.55 192.66Q315.09 192.35 315.38 191.86Q315.66 191.38 315.66 190.84L315.66 189.63Q315.57 189.73 315.28 189.82Q314.99 189.90 314.62 189.96Q314.25 190.02 313.90 190.07Q313.55 190.11 313.35 190.13Q312.84 190.20 312.40 190.35Q311.96 190.50 311.70 190.79Q311.43 191.09 311.43 191.59Q311.43 192.04 311.66 192.34Q311.90 192.65 312.30 192.80Q312.71 192.96 313.23 192.96 M326.15 194L319.28 194L319.28 192.95L324.18 186.66L324.18 186.57L319.44 186.57L319.44 185.27L325.99 185.27L325.99 186.38L321.23 192.61L321.23 192.70L326.15 192.70 M328.23 197.16L328.59 195.95L328.73 195.98Q329.16 196.09 329.52 196.04Q329.87 195.99 330.15 195.70Q330.43 195.40 330.64 194.77L330.89 194.05L327.55 185.27L329.09 185.27L330.95 190.45Q331.25 191.26 331.45 192.05Q331.66 192.85 331.88 193.60L331.37 193.60Q331.59 192.85 331.80 192.05Q332.01 191.25 332.30 190.45L334.17 185.27L335.70 185.27L331.87 195.30Q331.60 196 331.23 196.45Q330.86 196.90 330.37 197.11Q329.88 197.33 329.26 197.33Q328.88 197.33 328.61 197.27Q328.34 197.22 328.23 197.16 M345.13 194.19Q344.05 194.19 343.21 193.63Q342.38 193.08 341.91 192.06Q341.44 191.05 341.44 189.66Q341.44 188.27 341.91 187.26Q342.38 186.25 343.22 185.70Q344.05 185.16 345.14 185.16Q345.99 185.16 346.49 185.44Q346.99 185.72 347.26 186.07Q347.53 186.43 347.67 186.66L347.78 186.66L347.78 182.36L349.19 182.36L349.19 194L347.83 194L347.83 192.65L347.67 192.65Q347.53 192.89 347.25 193.25Q346.98 193.62 346.47 193.90Q345.97 194.19 345.13 194.19M345.34 192.93Q346.14 192.93 346.69 192.51Q347.23 192.09 347.52 191.35Q347.80 190.61 347.80 189.64Q347.80 188.67 347.52 187.95Q347.24 187.23 346.70 186.82Q346.15 186.41 345.34 186.41Q344.52 186.41 343.96 186.84Q343.41 187.27 343.14 188Q342.87 188.73 342.87 189.64Q342.87 190.55 343.14 191.30Q343.42 192.05 343.98 192.49Q344.53 192.93 345.34 192.93 M355.21 194.19Q354.02 194.19 353.13 193.63Q352.23 193.06 351.73 192.05Q351.23 191.03 351.23 189.69Q351.23 188.32 351.73 187.30Q352.23 186.28 353.13 185.72Q354.02 185.16 355.21 185.16Q356.41 185.16 357.30 185.72Q358.20 186.28 358.70 187.30Q359.20 188.32 359.20 189.69Q359.20 191.03 358.70 192.05Q358.20 193.06 357.30 193.63Q356.41 194.19 355.21 194.19M355.21 192.93Q356.09 192.93 356.66 192.48Q357.23 192.02 357.51 191.29Q357.78 190.55 357.78 189.69Q357.78 188.82 357.51 188.07Q357.23 187.33 356.66 186.87Q356.09 186.41 355.21 186.41Q354.34 186.41 353.77 186.87Q353.21 187.33 352.94 188.07Q352.66 188.81 352.66 189.69Q352.66 190.55 352.94 191.29Q353.21 192.02 353.77 192.48Q354.34 192.93 355.21 192.93 M364.79 197.45Q363.82 197.45 363.11 197.21Q362.41 196.96 361.94 196.55Q361.47 196.15 361.20 195.67L362.34 194.94Q362.52 195.19 362.80 195.49Q363.08 195.80 363.55 196.01Q364.02 196.23 364.79 196.23Q365.84 196.23 366.51 195.73Q367.19 195.23 367.19 194.15L367.19 192.40L367.05 192.40Q366.91 192.65 366.64 192.99Q366.37 193.34 365.86 193.60Q365.36 193.86 364.52 193.86Q363.47 193.86 362.63 193.36Q361.80 192.87 361.31 191.91Q360.83 190.96 360.83 189.59Q360.83 188.24 361.30 187.25Q361.78 186.25 362.62 185.70Q363.46 185.16 364.55 185.16Q365.39 185.16 365.89 185.43Q366.40 185.71 366.67 186.07Q366.95 186.43 367.09 186.66L367.23 186.66L367.23 185.27L368.59 185.27L368.59 194.23Q368.59 195.35 368.09 196.07Q367.58 196.78 366.71 197.12Q365.85 197.45 364.79 197.45M364.75 192.61Q365.55 192.61 366.09 192.25Q366.64 191.88 366.92 191.20Q367.20 190.52 367.20 189.56Q367.20 188.63 366.93 187.93Q366.65 187.22 366.10 186.82Q365.55 186.41 364.75 186.41Q363.92 186.41 363.37 186.84Q362.81 187.27 362.54 187.98Q362.26 188.69 362.26 189.56Q362.26 190.46 362.54 191.15Q362.82 191.84 363.38 192.22Q363.93 192.61 364.75 192.61 M372.13 194.10Q371.70 194.10 371.39 193.79Q371.08 193.48 371.08 193.05Q371.08 192.61 371.39 192.30Q371.70 191.99 372.13 191.99Q372.57 191.99 372.88 192.30Q373.19 192.61 373.19 193.05Q373.19 193.48 372.88 193.79Q372.57 194.10 372.13 194.10" fill="#18181B"/><path d="M30.45 232L28.31 232L31.54 222.54L34.08 222.54L37.39 232L35.24 232L33.73 227.44Q33.45 226.55 33.17 225.50Q32.89 224.45 32.58 223.21L33 223.21Q32.70 224.46 32.43 225.52Q32.17 226.57 31.91 227.44L30.45 232M35.38 229.80L30.33 229.80L30.33 228.29L35.38 228.29 M42.69 232.13Q41.44 232.13 40.44 231.56Q39.45 230.98 38.88 229.90Q38.30 228.81 38.30 227.28Q38.30 225.73 38.88 224.65Q39.46 223.56 40.45 222.99Q41.45 222.42 42.69 222.42Q43.50 222.42 44.20 222.64Q44.89 222.87 45.43 223.30Q45.97 223.73 46.31 224.35Q46.66 224.98 46.76 225.78L44.80 225.78Q44.74 225.39 44.56 225.08Q44.38 224.78 44.11 224.57Q43.84 224.36 43.49 224.25Q43.14 224.14 42.73 224.14Q42 224.14 41.44 224.50Q40.89 224.87 40.58 225.57Q40.27 226.27 40.27 227.28Q40.27 228.30 40.58 229Q40.89 229.70 41.44 230.05Q42 230.41 42.73 230.41Q43.13 230.41 43.48 230.30Q43.82 230.18 44.10 229.97Q44.38 229.76 44.56 229.45Q44.74 229.15 44.81 228.76L46.77 228.76Q46.69 229.42 46.38 230.03Q46.07 230.63 45.54 231.10Q45.02 231.58 44.31 231.85Q43.59 232.13 42.69 232.13 M52.31 232.13Q51.05 232.13 50.06 231.56Q49.07 230.98 48.49 229.90Q47.92 228.81 47.92 227.28Q47.92 225.73 48.50 224.65Q49.07 223.56 50.07 222.99Q51.07 222.42 52.31 222.42Q53.12 222.42 53.81 222.64Q54.51 222.87 55.05 223.30Q55.59 223.73 55.93 224.35Q56.27 224.98 56.38 225.78L54.42 225.78Q54.36 225.39 54.17 225.08Q53.99 224.78 53.72 224.57Q53.45 224.36 53.10 224.25Q52.76 224.14 52.35 224.14Q51.61 224.14 51.06 224.50Q50.50 224.87 50.19 225.57Q49.89 226.27 49.89 227.28Q49.89 228.30 50.20 229Q50.51 229.70 51.06 230.05Q51.61 230.41 52.34 230.41Q52.75 230.41 53.10 230.30Q53.44 230.18 53.72 229.97Q53.99 229.76 54.17 229.45Q54.36 229.15 54.43 228.76L56.39 228.76Q56.31 229.42 56 230.03Q55.68 230.63 55.16 231.10Q54.64 231.58 53.92 231.85Q53.21 232.13 52.31 232.13 M64.14 232L57.80 232L57.80 222.54L64.12 222.54L64.12 224.15L59.73 224.15L59.73 226.43L63.79 226.43L63.79 228.01L59.73 228.01L59.73 230.39L64.14 230.39 M67.67 232L65.69 232L65.69 222.54L67.85 222.54L70.84 227.33Q71.07 227.70 71.30 228.13Q71.54 228.56 71.78 229.09Q72.03 229.61 72.27 230.27L72.07 230.27Q72.03 229.75 71.99 229.15Q71.96 228.55 71.93 228.01Q71.91 227.46 71.91 227.08L71.91 222.54L73.89 222.54L73.89 232L71.72 232L69.01 227.66Q68.71 227.17 68.45 226.71Q68.20 226.25 67.92 225.69Q67.65 225.14 67.27 224.36L67.51 224.36Q67.55 225.05 67.59 225.68Q67.63 226.31 67.65 226.82Q67.67 227.33 67.67 227.65 M78.11 224.15L75.22 224.15L75.22 222.54L82.95 222.54L82.95 224.15L80.06 224.15L80.06 232L78.11 232 M86.50 227.35L99.50 227.35L99.50 228.87L86.50 228.87 M110.06 232L103.37 232L103.37 230.60L106.72 227.46Q107.15 227.04 107.44 226.70Q107.74 226.36 107.89 226.04Q108.05 225.71 108.05 225.33Q108.05 224.90 107.86 224.60Q107.67 224.29 107.34 224.13Q107.01 223.96 106.58 223.96Q106.15 223.96 105.82 224.14Q105.49 224.32 105.31 224.65Q105.13 224.98 105.13 225.44L103.28 225.44Q103.28 224.52 103.70 223.84Q104.12 223.16 104.87 222.79Q105.62 222.42 106.60 222.42Q107.60 222.42 108.35 222.77Q109.10 223.13 109.51 223.76Q109.93 224.39 109.93 225.21Q109.93 225.73 109.72 226.25Q109.52 226.76 108.99 227.40Q108.46 228.04 107.49 228.93L106.06 230.34L106.06 230.41L110.06 230.41 M115.15 232.13Q113.95 232.13 113.11 231.55Q112.27 230.98 111.81 229.90Q111.36 228.81 111.36 227.28Q111.36 225.75 111.81 224.66Q112.27 223.57 113.11 222.99Q113.95 222.42 115.15 222.42Q116.34 222.42 117.19 223Q118.04 223.58 118.49 224.66Q118.94 225.75 118.94 227.28Q118.94 228.81 118.49 229.90Q118.04 230.98 117.19 231.55Q116.35 232.13 115.15 232.13M115.15 230.52Q115.73 230.52 116.13 230.14Q116.54 229.76 116.75 229.04Q116.96 228.31 116.96 227.28Q116.96 226.24 116.75 225.51Q116.54 224.78 116.13 224.40Q115.73 224.01 115.15 224.01Q114.57 224.01 114.16 224.40Q113.76 224.78 113.55 225.51Q113.34 226.24 113.34 227.28Q113.34 228.31 113.55 229.04Q113.76 229.76 114.16 230.14Q114.57 230.52 115.15 230.52 M127.01 232L120.32 232L120.32 230.60L123.67 227.46Q124.10 227.04 124.40 226.70Q124.69 226.36 124.85 226.04Q125 225.71 125 225.33Q125 224.90 124.81 224.60Q124.62 224.29 124.29 224.13Q123.96 223.96 123.54 223.96Q123.10 223.96 122.77 224.14Q122.44 224.32 122.26 224.65Q122.08 224.98 122.08 225.44L120.23 225.44Q120.23 224.52 120.65 223.84Q121.08 223.16 121.82 222.79Q122.57 222.42 123.55 222.42Q124.55 222.42 125.30 222.77Q126.05 223.13 126.47 223.76Q126.88 224.39 126.88 225.21Q126.88 225.73 126.68 226.25Q126.47 226.76 125.94 227.40Q125.41 228.04 124.44 228.93L123.01 230.34L123.01 230.41L127.01 230.41 M132.06 232.13Q131.35 232.13 130.67 231.89Q130 231.64 129.47 231.11Q128.94 230.57 128.63 229.68Q128.32 228.79 128.32 227.49Q128.32 226.30 128.58 225.36Q128.85 224.42 129.35 223.76Q129.85 223.10 130.56 222.76Q131.26 222.42 132.13 222.42Q133.07 222.42 133.78 222.78Q134.50 223.15 134.94 223.76Q135.38 224.38 135.47 225.16L133.57 225.16Q133.45 224.66 133.07 224.37Q132.69 224.08 132.13 224.08Q131.51 224.08 131.08 224.45Q130.65 224.82 130.44 225.50Q130.22 226.17 130.22 227.11L130.29 227.11Q130.50 226.69 130.86 226.40Q131.22 226.10 131.68 225.94Q132.15 225.79 132.66 225.79Q133.50 225.79 134.16 226.18Q134.81 226.57 135.19 227.26Q135.57 227.95 135.57 228.84Q135.57 229.80 135.13 230.54Q134.69 231.28 133.90 231.70Q133.11 232.13 132.06 232.13M132.05 230.59Q132.52 230.59 132.89 230.37Q133.26 230.14 133.47 229.76Q133.69 229.37 133.69 228.89Q133.69 228.41 133.48 228.03Q133.27 227.65 132.90 227.43Q132.53 227.20 132.06 227.20Q131.71 227.20 131.42 227.33Q131.12 227.47 130.89 227.70Q130.67 227.94 130.54 228.24Q130.42 228.55 130.42 228.90Q130.42 229.36 130.63 229.74Q130.84 230.13 131.21 230.36Q131.58 230.59 132.05 230.59" fill="#4D7C0F"/></svg>