<svg xmlns="http://www.w3.org/2000/svg" width="480" height="300" viewBox="0 0 480 300" role="img"><rect width="480" height="300" fill="#FAFAFA"/><rect x="0" y="0" width="240" height="84" fill="#18181B"/><rect x="240" y="0" width="120" height="84" fill="#991B1B"/><rect x="360" y="0" width="72" height="84" fill="#27272A"/><rect x="432" y="0" width="48" height="84" fill="#DC2626"/><path d="M45.64 154L29.54 154L29.54 152.24Q31.52 152.15 32.51 151.78Q33.50 151.40 33.83 150.35Q34.16 149.29 34.16 147.22L34.16 126.90Q34.16 124.83 33.87 123.79Q33.59 122.76 32.71 122.36Q31.83 121.97 30.02 121.88L30.02 120.12L45.20 120.12L45.20 121.88Q43.22 121.92 42.26 122.34Q41.29 122.76 40.96 123.86Q40.63 124.96 40.63 127.20L40.63 135.30L56.95 135.30L56.95 126.90Q56.95 124.83 56.62 123.79Q56.29 122.76 55.30 122.36Q54.31 121.97 52.33 121.88L52.33 120.12L67.56 120.12L67.56 121.88Q65.80 121.92 64.92 122.34Q64.04 122.76 63.73 123.86Q63.42 124.96 63.42 127.20L63.42 146.92Q63.42 149.16 63.75 150.28Q64.08 151.40 65.07 151.78Q66.06 152.15 68.04 152.24L68.04 154L51.89 154L51.89 152.24Q54.05 152.15 55.13 151.78Q56.20 151.40 56.58 150.35Q56.95 149.29 56.95 147.22L56.95 138.03L40.63 138.03L40.63 146.92Q40.63 149.16 40.98 150.28Q41.33 151.40 42.41 151.78Q43.49 152.15 45.64 152.24 M91.14 148.37L92.37 149.91Q88.37 154.44 82.38 154.44Q78.78 154.44 76.05 152.94Q73.32 151.45 71.80 148.79Q70.28 146.12 70.28 142.65Q70.28 139 71.89 136.20Q73.50 133.41 76.36 131.82Q79.22 130.24 82.91 130.24Q87.58 130.24 90.17 132.77Q92.77 135.30 92.77 139.79Q92.77 140.49 92.55 140.65Q92.33 140.80 91.32 140.80L77.15 140.80Q77.06 141.02 77.02 141.37Q76.97 141.72 76.97 142.25Q76.97 145.11 77.83 147.20Q78.69 149.29 80.25 150.44Q81.81 151.58 83.92 151.58Q85.77 151.58 87.60 150.74Q89.42 149.91 91.14 148.37M77.46 138.34L83.84 138.34Q85.64 138.34 86.12 138.14Q86.61 137.94 86.61 137.19Q86.61 135.26 85.51 134.02Q84.41 132.79 82.74 132.79Q80.84 132.79 79.37 134.35Q77.90 135.92 77.46 138.34 M114.28 154.44Q112.26 154.44 111.18 153.23Q110.10 152.02 110.10 149.73L109.88 149.73Q108.70 151.93 106.63 153.16Q104.56 154.40 102.10 154.40Q100.07 154.40 98.66 153.63Q97.26 152.86 96.55 151.62Q95.85 150.39 95.85 148.98Q95.85 146.83 97.63 145.13Q99.41 143.44 103.33 141.77L109.49 139.13L109.49 137.28Q109.49 134.77 108.59 133.58Q107.68 132.40 105.84 132.40Q104.56 132.40 103.90 133.03Q103.24 133.67 102.62 135.34Q102.27 136.36 101.52 137.02Q100.78 137.68 99.54 137.68Q98.31 137.68 97.63 136.95Q96.95 136.22 96.95 134.99Q96.95 132.75 99.28 131.49Q101.61 130.24 106.14 130.24Q111.16 130.24 113.27 132Q115.38 133.76 115.38 137.98L115.38 147.62Q115.38 149.56 115.76 150.46Q116.13 151.36 116.97 151.36Q117.32 151.36 117.69 151.23Q118.07 151.10 118.42 150.79L119.08 152.06Q118.51 153.12 117.19 153.78Q115.87 154.44 114.28 154.44M104.82 150.30Q106.06 150.30 107.11 149.69Q108.17 149.07 108.83 147.99Q109.49 146.92 109.49 145.64L109.49 141.46Q106.72 142.78 105.09 143.79Q103.46 144.80 102.76 145.73Q102.05 146.65 102.05 147.71Q102.05 148.90 102.80 149.60Q103.55 150.30 104.82 150.30 M132.72 154.44Q129.38 154.44 126.80 152.92Q124.23 151.40 122.78 148.70Q121.32 145.99 121.32 142.52Q121.32 139 122.78 136.22Q124.23 133.45 126.76 131.85Q129.29 130.24 132.46 130.24Q134.66 130.24 136.37 130.90Q138.09 131.56 139.32 133.14L139.50 133.14L139.50 129.40Q139.50 126.81 139.43 124.94Q139.36 123.07 139.23 122.50Q139.06 121.57 137.91 121.15Q136.77 120.74 134.44 120.74L134.44 119.24L145.57 117.48L145.57 142.65Q145.57 145.90 145.63 147.71Q145.70 149.51 145.88 150.44Q146.10 151.58 146.67 151.91Q147.24 152.24 149.13 152.24L149.13 153.96L140.77 154.44L140.77 151.18L140.60 151.18Q139.10 152.81 137.10 153.63Q135.10 154.44 132.72 154.44M139.41 143.09L139.41 141.37Q139.41 139.70 139.06 138.27Q138.70 136.84 138 135.74Q137.21 134.46 135.98 133.80Q134.74 133.14 133.34 133.14Q130.78 133.14 129.40 135.54Q128.01 137.94 128.01 142.43Q128.01 146.96 129.38 149.45Q130.74 151.93 133.29 151.93Q134.74 151.93 136.06 151.18Q137.38 150.44 138.22 149.16Q138.84 148.19 139.12 146.76Q139.41 145.33 139.41 143.09 M151.24 131.91L161.45 130.24L161.45 146.78Q161.45 149.12 161.69 150.26Q161.94 151.40 162.77 151.78Q163.61 152.15 165.28 152.24L165.28 154L151.42 154L151.42 152.24Q153.09 152.15 153.93 151.73Q154.76 151.32 155.05 150.24Q155.34 149.16 155.34 147.09L155.34 141.68Q155.34 139.13 155.25 137.46Q155.16 135.78 155.03 135.21Q154.81 134.11 154.04 133.76Q153.27 133.41 151.24 133.41L151.24 131.91M154.98 120.87Q154.98 119.46 155.97 118.47Q156.96 117.48 158.42 117.48Q159.82 117.48 160.81 118.47Q161.80 119.46 161.80 120.87Q161.80 122.32 160.81 123.31Q159.82 124.30 158.42 124.30Q156.96 124.30 155.97 123.31Q154.98 122.32 154.98 120.87 M177.34 140.76L177.34 146.83Q177.34 149.20 177.56 150.30Q177.78 151.40 178.59 151.76Q179.40 152.11 181.16 152.24L181.16 154L167.30 154L167.30 152.24Q169.02 152.11 169.86 151.78Q170.69 151.45 170.96 150.39Q171.22 149.34 171.22 147.14L171.22 141.64Q171.22 139.04 171.13 137.43Q171.04 135.83 170.91 135.26Q170.65 134.11 169.90 133.76Q169.15 133.41 167.13 133.41L167.13 131.91L175.62 130.24L176.19 134.11L176.37 134.11Q177.82 132.31 179.82 131.27Q181.82 130.24 184.16 130.24Q186.97 130.24 188.71 131.01Q190.45 131.78 191.81 133.58Q192.56 134.60 193.13 136.20Q193.70 137.81 193.70 140.62L193.70 146.83Q193.70 149.20 193.92 150.30Q194.14 151.40 194.96 151.76Q195.77 152.11 197.44 152.24L197.44 154L183.67 154L183.67 152.24Q185.43 152.15 186.25 151.80Q187.06 151.45 187.32 150.37Q187.59 149.29 187.59 147.14L187.59 141.15Q187.59 136.66 186.47 134.88Q185.34 133.10 182.48 133.10Q181.08 133.10 180.06 133.89Q179.05 134.68 178.30 136.09Q178.04 136.62 177.82 137.37Q177.60 138.12 177.47 138.97Q177.34 139.83 177.34 140.76 M210.38 165.44Q204.88 165.44 201.93 163.79Q198.98 162.14 198.98 159.06Q198.98 156.99 200.19 155.83Q201.40 154.66 203.21 154.66Q204.35 154.66 205.43 155.12Q206.51 155.58 207.21 156.46Q206.07 156.68 205.34 157.50Q204.62 158.31 204.62 159.50Q204.62 161.17 206.20 162.12Q207.78 163.06 210.86 163.06Q217.38 163.06 217.38 158.93Q217.38 157.39 216.43 156.33Q215.48 155.28 213.55 155.01L205.85 153.96Q203.43 153.60 202.20 152.50Q200.96 151.40 200.96 149.60Q200.96 147.80 202.13 146.65Q203.30 145.51 205.45 145.07L205.45 144.89Q203.47 144.10 202.20 142.14Q200.92 140.18 200.92 137.90Q200.92 135.70 202.11 133.98Q203.30 132.26 205.34 131.25Q207.39 130.24 209.90 130.24Q211.83 130.24 213.64 130.81Q215.44 131.38 216.72 132.40Q218.39 131.08 219.69 130.66Q220.98 130.24 222.08 130.24Q223.76 130.24 224.79 130.99Q225.82 131.74 225.82 132.97Q225.82 133.89 225.25 134.49Q224.68 135.08 223.80 135.08Q222.92 135.08 222.41 134.60Q221.91 134.11 221.45 133.65Q220.98 133.19 220.19 133.19Q219.22 133.19 218.34 134.38Q218.78 135.12 218.96 135.98Q219.14 136.84 219.14 137.85Q219.14 139.57 218.61 141Q218.08 142.43 216.96 143.55Q215.84 144.67 214.08 145.40Q212.32 146.12 209.81 146.39Q208.44 146.52 207.61 146.74Q206.77 146.96 206.42 147.25Q206.07 147.53 206.07 148.02Q206.07 148.54 206.57 148.85Q207.08 149.16 208.05 149.29L215.22 150.17Q218.61 150.61 220.59 152.68Q222.57 154.75 222.57 157.83Q222.57 161.57 219.47 163.50Q216.36 165.44 210.38 165.44M210.16 143.88Q211.57 143.88 212.36 142.38Q213.15 140.89 213.15 138.20Q213.15 135.48 212.36 134Q211.57 132.53 210.12 132.53Q208.62 132.53 207.74 134.02Q206.86 135.52 206.86 138.12Q206.86 140.71 207.76 142.30Q208.66 143.88 210.16 143.88" fill="#27272A"/><path d="M36.59 194L30.81 194L30.81 193.05L33.40 192.92L33.99 192.92L36.59 193.05L36.59 194M34.62 194L32.75 194Q32.77 193.06 32.78 192.14Q32.79 191.21 32.79 190.27Q32.79 189.34 32.79 188.40L32.79 187.52Q32.79 186.60 32.79 185.67Q32.79 184.73 32.78 183.79Q32.77 182.86 32.75 181.94L34.62 181.94Q34.62 182.86 34.62 183.78Q34.61 184.71 34.61 185.65Q34.61 186.58 34.61 187.52L34.61 188.40Q34.61 189.32 34.61 190.26Q34.61 191.21 34.62 192.14Q34.62 193.06 34.62 194M29.46 185.25L28.36 185.25L28.50 181.94L38.87 181.94L39.02 185.25L37.92 185.25L37.29 182.16L38.13 182.97L29.26 182.97L30.11 182.16 M44.54 194L40.08 194L40.08 193.14L42.11 192.96L42.60 192.96L44.54 193.14L44.54 194M43.17 194L41.50 194Q41.52 193.46 41.52 192.79Q41.52 192.13 41.53 191.43Q41.54 190.72 41.54 190.13L41.54 182.41L39.97 182.14L39.97 181.38L42.67 180.77L43.16 180.84L43.12 183.13L43.10 187.02L43.16 187.14L43.16 190.13Q43.16 190.72 43.16 191.43Q43.16 192.13 43.16 192.79Q43.17 193.46 43.17 194M50.43 194L46 194L46 193.14L47.98 192.96L48.48 192.96L50.43 193.14L50.43 194M49.04 194L47.37 194Q47.37 193.46 47.38 192.79Q47.39 192.13 47.39 191.44Q47.39 190.74 47.39 190.13L47.39 188.38Q47.39 187.25 47.02 186.79Q46.65 186.33 45.82 186.33Q45.35 186.33 44.88 186.47Q44.42 186.60 43.94 186.88Q43.46 187.16 42.96 187.57L42.80 186.80L43.34 186.80Q43.68 186.28 44.16 185.85Q44.63 185.43 45.22 185.18Q45.80 184.93 46.47 184.93Q47.75 184.93 48.38 185.71Q49.02 186.49 49.02 188.10L49.02 190.13Q49.02 190.74 49.02 191.44Q49.02 192.13 49.03 192.79Q49.04 193.46 49.04 194 M56.06 194.22Q54.71 194.22 53.75 193.67Q52.79 193.12 52.27 192.10Q51.76 191.08 51.76 189.70Q51.76 188.29 52.30 187.22Q52.84 186.15 53.79 185.54Q54.75 184.93 55.97 184.93Q57.07 184.93 57.88 185.35Q58.69 185.77 59.15 186.57Q59.61 187.36 59.61 188.46Q59.61 188.80 59.56 189.13Q59.52 189.46 59.46 189.68L52.71 189.68L52.71 188.83L57.43 188.83Q57.81 188.71 57.92 188.47Q58.02 188.24 58.02 187.93Q58.02 187.23 57.78 186.77Q57.54 186.31 57.08 186.09Q56.62 185.86 55.97 185.86Q55.29 185.86 54.71 186.24Q54.14 186.62 53.79 187.42Q53.45 188.22 53.45 189.52Q53.45 190.62 53.82 191.40Q54.19 192.18 54.86 192.60Q55.54 193.01 56.44 193.01Q57.39 193.01 58.03 192.66Q58.67 192.31 59.18 191.73L59.73 192.18Q59.34 192.78 58.85 193.24Q58.37 193.71 57.70 193.96Q57.03 194.22 56.06 194.22 M75.29 198.18L70.50 198.18L70.50 197.31L72.73 197.13L73.23 197.13L75.29 197.31L75.29 198.18M69.36 194.22Q68.27 194.22 67.42 193.67Q66.57 193.12 66.10 192.09Q65.62 191.07 65.62 189.64Q65.62 188.17 66.11 187.12Q66.61 186.06 67.47 185.50Q68.34 184.93 69.42 184.93Q70.05 184.93 70.53 185.13Q71 185.32 71.39 185.69Q71.78 186.06 72.14 186.58L72.71 186.58L72.62 187.77Q71.87 186.89 71.24 186.47Q70.61 186.04 69.87 186.04Q69.17 186.04 68.60 186.42Q68.03 186.80 67.70 187.58Q67.37 188.37 67.37 189.59Q67.37 190.78 67.69 191.55Q68.01 192.33 68.58 192.69Q69.15 193.06 69.87 193.06Q70.70 193.06 71.31 192.60Q71.92 192.15 72.60 191.25L72.68 192.42L72.10 192.42Q71.78 192.97 71.41 193.38Q71.04 193.78 70.54 194Q70.05 194.22 69.36 194.22M73.83 198.18L72.17 198.18Q72.19 197.60 72.19 197.01Q72.19 196.41 72.20 195.82Q72.21 195.22 72.21 194.65L72.28 192.45L72.17 192.33L72.17 186.60L72.23 186.58L73.22 185.04L73.83 185.13L73.79 187.30L73.79 194.65Q73.79 195.22 73.80 195.82Q73.81 196.41 73.81 197.01Q73.81 197.60 73.83 198.18 M79.98 194.22Q78.72 194.22 78.06 193.46Q77.39 192.70 77.41 191.08L77.43 185.94L77.99 186.55L75.97 186.15L75.97 185.40L78.62 185.09L79.07 185.18L79.03 187.36L79.03 190.80Q79.03 191.89 79.41 192.36Q79.79 192.83 80.58 192.83Q81.05 192.83 81.54 192.68Q82.04 192.52 82.52 192.23Q83.01 191.93 83.48 191.53L83.62 192.34L83.12 192.34Q82.74 192.92 82.25 193.34Q81.77 193.77 81.20 193.99Q80.63 194.22 79.98 194.22M86.27 194L83.49 194.14L83.31 192.11L83.24 192.09L83.26 186.42L81.80 186.15L81.80 185.40L84.43 185.09L84.88 185.18L84.86 187.36L84.86 192.94L86.27 193.21 M92.12 194L87.65 194L87.65 193.14L89.67 192.96L90.17 192.96L92.12 193.14L92.12 194M90.75 194L89.06 194Q89.07 193.46 89.07 192.79Q89.07 192.13 89.08 191.43Q89.09 190.72 89.09 190.13L89.09 189.19Q89.09 188.51 89.08 187.95Q89.07 187.39 89.06 186.80L87.56 186.73L87.56 185.94L90.24 185.04L90.75 185.13L90.71 187.32L90.71 190.13Q90.71 190.72 90.72 191.43Q90.73 192.13 90.73 192.79Q90.73 193.46 90.75 194M89.85 183.22Q89.34 183.22 88.99 182.88Q88.64 182.53 88.64 182.03Q88.64 181.53 88.99 181.18Q89.34 180.84 89.85 180.84Q90.37 180.84 90.72 181.18Q91.07 181.53 91.07 182.03Q91.07 182.53 90.72 182.88Q90.37 183.22 89.85 183.22 M97.97 194.22Q96.63 194.22 95.66 193.66Q94.69 193.10 94.18 192.08Q93.66 191.07 93.66 189.68Q93.66 188.24 94.24 187.18Q94.82 186.12 95.81 185.52Q96.80 184.93 98 184.93Q98.99 184.93 99.72 185.22Q100.45 185.52 100.91 186.02Q101.37 186.51 101.51 187.11Q101.44 187.48 101.22 187.72Q101.01 187.95 100.61 187.95Q100.14 187.95 99.91 187.67Q99.68 187.39 99.55 187.02L99.05 185.36L100.09 186.28Q99.68 186.08 99.22 185.96Q98.76 185.85 98.18 185.85Q97.35 185.85 96.72 186.28Q96.09 186.71 95.74 187.53Q95.39 188.35 95.39 189.50Q95.39 190.65 95.77 191.43Q96.15 192.20 96.80 192.59Q97.46 192.97 98.31 192.97Q98.90 192.97 99.36 192.81Q99.82 192.65 100.20 192.37Q100.58 192.09 100.90 191.71L101.51 192.27Q101.19 192.81 100.73 193.25Q100.27 193.69 99.60 193.96Q98.94 194.22 97.97 194.22 M107.45 194L102.84 194L102.84 193.14L104.90 192.96L105.38 192.96L107.45 193.14L107.45 194M105.98 194L104.30 194Q104.32 193.51 104.32 193.04Q104.32 192.56 104.33 192.06Q104.34 191.57 104.34 191.08Q104.34 190.60 104.34 190.13L104.34 182.41L102.77 182.14L102.77 181.38L105.51 180.77L105.99 180.84L105.96 183.13L105.96 190.13Q105.96 190.60 105.96 191.08Q105.96 191.57 105.96 192.06Q105.96 192.56 105.97 193.04Q105.98 193.51 105.98 194M111.68 185.14L105.22 191.35L105.22 189.99L105.74 189.99L108.03 187.48L110.33 185.14L111.68 185.14M112.69 194L110.06 194L107.06 189.09L108.14 187.97L111.39 192.99L112.69 193.17L112.69 194M109.70 186.28L107.76 186.01L107.76 185.14L112.31 185.14L112.31 186.01L110.12 186.22 M120.70 194.13L117.84 194L117.84 193.17L119.28 192.90Q119.28 192.45 119.28 191.97Q119.28 191.50 119.29 191.02Q119.30 190.54 119.30 190.13L119.30 182.41L117.73 182.14L117.73 181.38L120.43 180.77L120.92 180.84L120.88 183.13L120.83 186.80L120.92 186.93L120.92 192.29L120.88 192.31L120.70 194.13M123.67 194.22Q123.02 194.22 122.53 194.01Q122.03 193.80 121.64 193.39Q121.24 192.97 120.88 192.36L120.25 192.36L120.34 191.19Q121.06 192.15 121.75 192.62Q122.45 193.10 123.24 193.10Q123.92 193.10 124.48 192.73Q125.04 192.36 125.36 191.59Q125.69 190.81 125.69 189.63Q125.69 187.84 125.01 186.96Q124.34 186.08 123.29 186.08Q122.81 186.08 122.34 186.28Q121.87 186.48 121.38 186.89Q120.90 187.30 120.32 187.97L120.25 186.80L120.90 186.80Q121.28 186.22 121.69 185.80Q122.10 185.38 122.62 185.15Q123.13 184.93 123.81 184.93Q124.84 184.93 125.66 185.46Q126.48 185.99 126.95 187.02Q127.43 188.04 127.43 189.52Q127.43 190.98 126.94 192.04Q126.44 193.10 125.60 193.66Q124.75 194.22 123.67 194.22 M133.91 194L129.09 194L129.09 193.14L131.12 192.96L131.63 192.96L133.91 193.14L133.91 194M132.17 194L130.49 194Q130.49 193.46 130.50 192.79Q130.51 192.13 130.51 191.43Q130.51 190.72 130.51 190.13L130.51 189.19Q130.51 188.73 130.51 188.33Q130.51 187.93 130.50 187.56Q130.49 187.20 130.49 186.80L128.98 186.73L128.98 185.94L131.36 185.04L131.86 185.13L132.04 187.57L132.15 187.59L132.15 190.13Q132.15 190.72 132.15 191.43Q132.15 192.13 132.16 192.79Q132.17 193.46 132.17 194M131.99 188.94L131.84 187.61L132.24 187.61Q132.56 186.80 132.95 186.21Q133.34 185.61 133.81 185.29Q134.29 184.96 134.87 184.96Q135.41 184.96 135.76 185.22Q136.11 185.49 136.23 185.79Q136.22 186.35 135.94 186.75Q135.66 187.14 135.06 187.14Q134.69 187.14 134.41 186.99Q134.13 186.84 133.89 186.62L133.48 186.22L134.42 186.15Q133.52 186.58 132.93 187.31Q132.35 188.04 131.99 188.94 M141.69 194.22Q140.55 194.22 139.55 193.69Q138.56 193.17 137.94 192.14Q137.33 191.10 137.33 189.61Q137.33 188.11 137.94 187.06Q138.56 186.01 139.55 185.47Q140.55 184.93 141.69 184.93Q142.82 184.93 143.82 185.46Q144.82 185.99 145.44 187.03Q146.06 188.06 146.06 189.55Q146.06 191.05 145.44 192.09Q144.82 193.14 143.82 193.68Q142.82 194.22 141.69 194.22M141.69 193.28Q142.52 193.28 143.09 192.87Q143.67 192.45 143.97 191.64Q144.28 190.83 144.28 189.61Q144.28 188.37 143.97 187.54Q143.67 186.71 143.09 186.30Q142.52 185.88 141.69 185.88Q140.88 185.88 140.30 186.30Q139.73 186.71 139.42 187.53Q139.11 188.35 139.11 189.57Q139.11 190.81 139.42 191.63Q139.73 192.45 140.30 192.87Q140.88 193.28 141.69 193.28 M152.20 194.05L150.92 194.05L147.92 185.14L149.73 185.14L152 192.69L151.89 192.69L152.29 190.85L154.27 185.14L155.22 185.14L157.65 192.69L157.56 192.69L157.94 190.76L159.67 185.14L160.89 185.14L157.78 194.05L156.59 194.05L154.36 187.16L154.47 187.16L154.14 188.65L152.20 194.05M148.91 186.22L147.12 186.01L147.12 185.14L151.44 185.14L151.44 186.01L149.46 186.22L148.91 186.22M154.36 186.19L152.63 186.01L152.63 185.14L156.88 185.14L156.88 186.01L155.24 186.19L154.36 186.19M159.72 186.22L158.07 186.01L158.07 185.14L161.65 185.14L161.65 186.01L160.26 186.22 M167.14 194L162.71 194L162.71 193.14L164.75 192.96L165.23 192.96L167.14 193.14L167.14 194M165.81 194L164.13 194Q164.13 193.46 164.14 192.79Q164.15 192.13 164.15 191.43Q164.15 190.72 164.15 190.13L164.15 189.19Q164.15 188.73 164.15 188.33Q164.15 187.93 164.14 187.56Q164.13 187.20 164.13 186.80L162.62 186.73L162.62 185.94L164.96 185.04L165.47 185.13L165.72 187.07L165.79 187.07L165.79 190.13Q165.79 190.72 165.79 191.43Q165.79 192.13 165.80 192.79Q165.81 193.46 165.81 194M173.01 194L168.58 194L168.58 193.14L170.58 192.96L171.06 192.96L173.01 193.14L173.01 194M171.64 194L169.97 194Q169.97 193.46 169.97 192.79Q169.98 192.13 169.98 191.44Q169.98 190.74 169.98 190.13L169.98 188.38Q169.98 187.25 169.61 186.79Q169.25 186.33 168.42 186.33Q167.95 186.33 167.48 186.47Q167.01 186.60 166.54 186.88Q166.06 187.16 165.56 187.56L165.43 186.78L165.86 186.78Q166.24 186.26 166.73 185.85Q167.21 185.43 167.81 185.18Q168.40 184.93 169.05 184.93Q170.34 184.93 170.97 185.71Q171.60 186.49 171.60 188.10L171.60 190.13Q171.60 190.74 171.61 191.44Q171.62 192.13 171.62 192.79Q171.62 193.46 171.64 194 M183.36 194L178.50 194L178.50 193.14L180.42 192.96L181.22 192.96L183.36 193.14L183.36 194M181.67 194L179.97 194Q179.99 193.35 179.99 192.70Q179.99 192.06 180 191.41Q180.01 190.76 180.01 190.13L180.01 186.19L178.46 186.19L178.46 185.34L180.50 185.05L180.03 185.56L180.05 185.25Q180.14 184.30 180.31 183.62Q180.48 182.95 180.79 182.44Q181.11 181.92 181.58 181.47Q182.08 181 182.72 180.79Q183.36 180.57 184.04 180.57Q184.73 180.57 185.21 180.81Q185.70 181.06 185.86 181.56Q185.84 181.90 185.57 182.16Q185.30 182.41 184.80 182.41Q184.37 182.41 184.03 182.21Q183.70 182.01 183.32 181.72L182.60 181.18L182.89 181.20L182.96 181.20L183.21 181.15Q182.94 181.22 182.76 181.33Q182.58 181.44 182.40 181.72Q182.21 182.05 182.04 182.41Q181.88 182.77 181.78 183.23Q181.68 183.69 181.65 184.30Q181.61 184.91 181.63 185.72L181.63 190.13Q181.63 190.76 181.64 191.41Q181.65 192.06 181.65 192.70Q181.65 193.35 181.67 194M183.97 186.19L180.89 186.19L180.89 185.14L183.97 185.14 M189.64 194.22Q188.51 194.22 187.51 193.69Q186.51 193.17 185.90 192.14Q185.28 191.10 185.28 189.61Q185.28 188.11 185.90 187.06Q186.51 186.01 187.51 185.47Q188.51 184.93 189.64 184.93Q190.77 184.93 191.77 185.46Q192.77 185.99 193.39 187.03Q194.01 188.06 194.01 189.55Q194.01 191.05 193.39 192.09Q192.77 193.14 191.77 193.68Q190.77 194.22 189.64 194.22M189.64 193.28Q190.47 193.28 191.04 192.87Q191.62 192.45 191.93 191.64Q192.23 190.83 192.23 189.61Q192.23 188.37 191.93 187.54Q191.62 186.71 191.04 186.30Q190.47 185.88 189.64 185.88Q188.83 185.88 188.25 186.30Q187.68 186.71 187.37 187.53Q187.07 188.35 187.07 189.57Q187.07 190.81 187.37 191.63Q187.68 192.45 188.25 192.87Q188.83 193.28 189.64 193.28 M199.02 194L195.17 194L195.17 193.14L196.80 192.99L197.33 192.99L199.02 193.14L199.02 194M197 194L195.65 194L199.47 189.09L200.10 189.77L199.68 189.77L198.39 191.95L197 194M204.80 194L200.19 194L200.19 193.14L202.17 192.96L202.87 192.96L204.80 193.14L204.80 194M204.17 185.14L200.37 189.91L199.77 189.19L200.17 189.19L201.47 187.09L202.83 185.14L204.17 185.14M204.26 194L202.33 194L199.31 189.90L195.72 185.14L197.58 185.14L200.49 189.07L204.26 194M197.18 186.22L195.24 186.01L195.24 185.14L199.61 185.14L199.61 186.01L197.76 186.22L197.18 186.22M202.44 186.22L200.84 186.01L200.84 185.14L204.54 185.14L204.54 186.01L202.85 186.22 M209.73 198.37Q209.17 198.37 208.82 198.20Q208.47 198.03 208.28 197.79Q208.09 197.55 208.05 197.35Q208.16 196.97 208.44 196.74Q208.72 196.50 209.22 196.50Q209.67 196.50 210.01 196.69Q210.34 196.88 210.63 197.17L211.20 197.74L210.99 197.71L210.84 197.71L210.72 197.71Q210.90 197.49 211.01 197.27Q211.11 197.04 211.20 196.61Q211.31 196.25 211.37 195.66Q211.44 195.08 211.47 194.23Q211.51 193.39 211.51 192.22L211.51 189.19Q211.51 188.51 211.50 187.95Q211.49 187.39 211.47 186.80L209.98 186.73L209.98 185.94L212.63 185.04L213.13 185.13L213.09 187.32L213.09 192.24Q213.09 193.50 213.02 194.40Q212.95 195.30 212.75 195.93Q212.55 196.56 212.18 197.04Q211.76 197.65 211.20 198.01Q210.65 198.37 209.73 198.37M212.27 183.22Q211.76 183.22 211.41 182.88Q211.06 182.53 211.06 182.03Q211.06 181.53 211.41 181.18Q211.76 180.84 212.27 180.84Q212.79 180.84 213.14 181.18Q213.49 181.53 213.49 182.03Q213.49 182.53 213.14 182.88Q212.79 183.22 212.27 183.22 M219.21 194.22Q217.95 194.22 217.29 193.46Q216.62 192.70 216.64 191.08L216.66 185.94L217.22 186.55L215.20 186.15L215.20 185.40L217.85 185.09L218.30 185.18L218.26 187.36L218.26 190.80Q218.26 191.89 218.64 192.36Q219.02 192.83 219.81 192.83Q220.28 192.83 220.77 192.68Q221.27 192.52 221.75 192.23Q222.24 191.93 222.71 191.53L222.85 192.34L222.35 192.34Q221.97 192.92 221.48 193.34Q221 193.77 220.43 193.99Q219.86 194.22 219.21 194.22M225.50 194L222.72 194.14L222.54 192.11L222.47 192.09L222.49 186.42L221.03 186.15L221.03 185.40L223.66 185.09L224.11 185.18L224.09 187.36L224.09 192.94L225.50 193.21 M231.31 194L226.88 194L226.88 193.14L228.92 192.96L229.40 192.96L231.31 193.14L231.31 194M229.98 194L228.30 194Q228.30 193.46 228.31 192.79Q228.32 192.13 228.32 191.43Q228.32 190.72 228.32 190.13L228.32 189.19Q228.32 188.73 228.32 188.33Q228.32 187.93 228.31 187.56Q228.30 187.20 228.30 186.80L226.79 186.73L226.79 185.94L229.13 185.04L229.64 185.13L229.89 187.07L229.96 187.09L229.96 190.13Q229.96 190.72 229.96 191.43Q229.96 192.13 229.97 192.79Q229.98 193.46 229.98 194M237.07 194L232.64 194L232.64 193.14L234.64 192.96L235.13 192.96L237.07 193.14L237.07 194M235.70 194L234.03 194Q234.03 193.46 234.04 192.79Q234.05 192.13 234.05 191.44Q234.05 190.74 234.05 190.13L234.05 188.38Q234.05 187.27 233.69 186.80Q233.34 186.33 232.52 186.33Q232.07 186.33 231.61 186.47Q231.15 186.60 230.68 186.88Q230.21 187.16 229.73 187.56L229.58 186.82L230.01 186.82Q230.37 186.30 230.85 185.86Q231.33 185.43 231.91 185.18Q232.50 184.93 233.15 184.93Q234.42 184.93 235.04 185.71Q235.67 186.49 235.67 188.10L235.67 190.13Q235.67 190.74 235.67 191.44Q235.68 192.13 235.68 192.79Q235.68 193.46 235.70 194M242.79 194L238.37 194L238.37 193.14L240.36 192.96L240.85 192.96L242.79 193.14L242.79 194M241.43 194L239.75 194Q239.75 193.46 239.76 192.79Q239.77 192.13 239.77 191.44Q239.77 190.74 239.77 190.13L239.77 188.37Q239.77 187.23 239.41 186.78Q239.05 186.33 238.22 186.33Q237.79 186.33 237.34 186.47Q236.89 186.60 236.42 186.87Q235.95 187.14 235.45 187.56L235.27 186.84L235.70 186.84Q236.08 186.26 236.57 185.83Q237.05 185.40 237.63 185.16Q238.20 184.93 238.87 184.93Q240.11 184.93 240.75 185.68Q241.39 186.44 241.39 188.01L241.39 190.13Q241.39 190.74 241.40 191.44Q241.41 192.13 241.41 192.79Q241.41 193.46 241.43 194 M248.86 198.18L244.07 198.18L244.07 197.31L246.12 197.13L246.63 197.13L248.86 197.31L248.86 198.18M247.19 198.18L245.53 198.18Q245.55 197.58 245.55 197Q245.55 196.41 245.56 195.83Q245.57 195.24 245.57 194.65L245.57 189.19Q245.57 188.73 245.56 188.33Q245.55 187.93 245.55 187.56Q245.55 187.20 245.53 186.80L244.04 186.73L244.04 185.94L246.38 185.04L246.86 185.13L247.08 186.78L247.19 186.82L247.19 192.43L247.10 192.49L247.17 194.79Q247.17 195.33 247.17 195.91Q247.17 196.48 247.18 197.04Q247.19 197.60 247.19 198.18M249.90 194.22Q249.27 194.22 248.79 194.02Q248.30 193.82 247.91 193.42Q247.51 193.03 247.17 192.45L246.48 192.45L246.57 191.19Q247.29 192.15 247.96 192.62Q248.63 193.10 249.44 193.10Q250.14 193.10 250.70 192.73Q251.25 192.36 251.59 191.60Q251.92 190.83 251.92 189.64Q251.92 187.86 251.24 186.97Q250.57 186.08 249.54 186.08Q249.04 186.08 248.57 186.28Q248.10 186.48 247.62 186.89Q247.13 187.30 246.56 187.97L246.48 186.75L247.17 186.75Q247.55 186.19 247.95 185.78Q248.36 185.38 248.87 185.15Q249.38 184.93 250.05 184.93Q251.07 184.93 251.89 185.47Q252.71 186.01 253.19 187.03Q253.67 188.06 253.67 189.54Q253.67 191.01 253.17 192.06Q252.68 193.10 251.83 193.66Q250.98 194.22 249.90 194.22 M258.42 194.22Q257.52 194.22 256.78 194.04Q256.04 193.87 255.45 193.59L255.38 191.41L256.44 191.41L256.92 193.60L256.06 193.60L256.06 192.70Q256.49 192.99 257.10 193.16Q257.72 193.33 258.44 193.33Q259.16 193.33 259.60 193.14Q260.04 192.94 260.24 192.60Q260.45 192.27 260.45 191.88Q260.45 191.28 260.04 190.94Q259.62 190.60 258.72 190.31L258.13 190.09Q257.28 189.82 256.69 189.47Q256.10 189.12 255.78 188.64Q255.47 188.15 255.47 187.48Q255.47 186.76 255.87 186.18Q256.28 185.59 257.04 185.26Q257.81 184.93 258.85 184.93Q259.64 184.93 260.34 185.11Q261.05 185.29 261.57 185.58L261.53 187.61L260.49 187.61L260.09 185.65L260.83 185.65L260.83 186.39Q260.40 186.10 259.90 185.96Q259.41 185.83 258.85 185.83Q257.93 185.83 257.49 186.19Q257.05 186.55 257.05 187.11Q257.05 187.66 257.44 187.98Q257.82 188.29 258.76 188.62L259.23 188.78Q260.18 189.09 260.82 189.48Q261.46 189.88 261.77 190.37Q262.07 190.87 262.07 191.53Q262.07 192.29 261.64 192.89Q261.21 193.50 260.40 193.86Q259.59 194.22 258.42 194.22 M272.35 194.22Q271.22 194.22 270.22 193.69Q269.22 193.17 268.61 192.14Q267.99 191.10 267.99 189.61Q267.99 188.11 268.61 187.06Q269.22 186.01 270.22 185.47Q271.22 184.93 272.35 184.93Q273.48 184.93 274.48 185.46Q275.48 185.99 276.10 187.03Q276.72 188.06 276.72 189.55Q276.72 191.05 276.10 192.09Q275.48 193.14 274.48 193.68Q273.48 194.22 272.35 194.22M272.35 193.28Q273.18 193.28 273.75 192.87Q274.33 192.45 274.64 191.64Q274.94 190.83 274.94 189.61Q274.94 188.37 274.64 187.54Q274.33 186.71 273.75 186.30Q273.18 185.88 272.35 185.88Q271.54 185.88 270.96 186.30Q270.39 186.71 270.08 187.53Q269.78 188.35 269.78 189.57Q269.78 190.81 270.08 191.63Q270.39 192.45 270.96 192.87Q271.54 193.28 272.35 193.28 M283.33 194.05L282.09 194.05L278.52 185.14L280.40 185.14L283.26 192.83L283.13 192.83L283.67 190.76L285.72 185.14L286.95 185.14L283.33 194.05M279.46 186.22L277.79 186.01L277.79 185.14L282.41 185.14L282.41 186.01L280.32 186.22L279.46 186.22M285.72 186.22L283.85 186.01L283.85 185.14L287.69 185.14L287.69 186.01L286.26 186.22 M293.14 194.22Q291.79 194.22 290.83 193.67Q289.86 193.12 289.35 192.10Q288.84 191.08 288.84 189.70Q288.84 188.29 289.38 187.22Q289.92 186.15 290.87 185.54Q291.83 184.93 293.05 184.93Q294.15 184.93 294.96 185.35Q295.77 185.77 296.23 186.57Q296.69 187.36 296.69 188.46Q296.69 188.80 296.64 189.13Q296.60 189.46 296.54 189.68L289.79 189.68L289.79 188.83L294.51 188.83Q294.89 188.71 294.99 188.47Q295.10 188.24 295.10 187.93Q295.10 187.23 294.86 186.77Q294.62 186.31 294.16 186.09Q293.70 185.86 293.05 185.86Q292.37 185.86 291.79 186.24Q291.21 186.62 290.87 187.42Q290.53 188.22 290.53 189.52Q290.53 190.62 290.90 191.40Q291.27 192.18 291.94 192.60Q292.62 193.01 293.52 193.01Q294.47 193.01 295.11 192.66Q295.75 192.31 296.25 191.73L296.81 192.18Q296.42 192.78 295.93 193.24Q295.44 193.71 294.78 193.96Q294.11 194.22 293.14 194.22 M303.22 194L298.40 194L298.40 193.14L300.43 192.96L300.93 192.96L303.22 193.14L303.22 194M301.47 194L299.80 194Q299.80 193.46 299.81 192.79Q299.82 192.13 299.82 191.43Q299.82 190.72 299.82 190.13L299.82 189.19Q299.82 188.73 299.82 188.33Q299.82 187.93 299.81 187.56Q299.80 187.20 299.80 186.80L298.29 186.73L298.29 185.94L300.66 185.04L301.17 185.13L301.35 187.57L301.46 187.59L301.46 190.13Q301.46 190.72 301.46 191.43Q301.46 192.13 301.47 192.79Q301.47 193.46 301.47 194M301.29 188.94L301.15 187.61L301.55 187.61Q301.87 186.80 302.26 186.21Q302.64 185.61 303.12 185.29Q303.60 184.96 304.17 184.96Q304.71 184.96 305.06 185.22Q305.42 185.49 305.54 185.79Q305.52 186.35 305.25 186.75Q304.97 187.14 304.37 187.14Q303.99 187.14 303.72 186.99Q303.44 186.84 303.20 186.62L302.79 186.22L303.72 186.15Q302.82 186.58 302.24 187.31Q301.65 188.04 301.29 188.94 M316.13 186.19L312.81 186.19L312.81 185.14L316.13 185.14L316.13 186.19M314.22 194.18Q313.21 194.18 312.59 193.62Q311.97 193.06 311.97 191.89Q311.97 191.57 311.97 191.25Q311.97 190.94 311.97 190.53L311.97 186.19L310.40 186.19L310.40 185.34L312.71 185.05L312.04 185.61L312.62 182.66L313.73 182.66L313.53 185.76L313.61 185.94L313.61 191.73Q313.61 192.45 313.90 192.76Q314.20 193.06 314.72 193.06Q315.06 193.06 315.35 192.96Q315.64 192.85 315.91 192.70L316.32 193.39Q316.13 193.59 315.82 193.78Q315.51 193.96 315.11 194.07Q314.70 194.18 314.22 194.18 M321.69 194L317.22 194L317.22 193.14L319.26 192.96L319.74 192.96L321.69 193.14L321.69 194M320.32 194L318.65 194Q318.66 193.46 318.66 192.79Q318.66 192.13 318.67 191.43Q318.68 190.72 318.68 190.13L318.68 182.41L317.12 182.14L317.12 181.38L319.82 180.77L320.30 180.84L320.27 183.13L320.25 187.02L320.30 187.14L320.30 190.13Q320.30 190.72 320.30 191.43Q320.30 192.13 320.31 192.79Q320.32 193.46 320.32 194M327.57 194L323.15 194L323.15 193.14L325.13 192.96L325.63 192.96L327.57 193.14L327.57 194M326.19 194L324.51 194Q324.51 193.46 324.52 192.79Q324.53 192.13 324.53 191.44Q324.53 190.74 324.53 190.13L324.53 188.38Q324.53 187.25 324.16 186.79Q323.79 186.33 322.97 186.33Q322.50 186.33 322.03 186.47Q321.56 186.60 321.09 186.88Q320.61 187.16 320.10 187.57L319.94 186.80L320.48 186.80Q320.82 186.28 321.30 185.85Q321.78 185.43 322.36 185.18Q322.95 184.93 323.61 184.93Q324.89 184.93 325.53 185.71Q326.17 186.49 326.17 188.10L326.17 190.13Q326.17 190.74 326.17 191.44Q326.17 192.13 326.18 192.79Q326.19 193.46 326.19 194 M333.21 194.22Q331.86 194.22 330.90 193.67Q329.93 193.12 329.42 192.10Q328.91 191.08 328.91 189.70Q328.91 188.29 329.45 187.22Q329.99 186.15 330.94 185.54Q331.89 184.93 333.12 184.93Q334.22 184.93 335.03 185.35Q335.84 185.77 336.30 186.57Q336.75 187.36 336.75 188.46Q336.75 188.80 336.71 189.13Q336.66 189.46 336.61 189.68L329.86 189.68L329.86 188.83L334.58 188.83Q334.95 188.71 335.06 188.47Q335.17 188.24 335.17 187.93Q335.17 187.23 334.93 186.77Q334.68 186.31 334.23 186.09Q333.77 185.86 333.12 185.86Q332.43 185.86 331.86 186.24Q331.28 186.62 330.94 187.42Q330.60 188.22 330.60 189.52Q330.60 190.62 330.97 191.40Q331.34 192.18 332.01 192.60Q332.69 193.01 333.59 193.01Q334.54 193.01 335.18 192.66Q335.82 192.31 336.32 191.73L336.88 192.18Q336.48 192.78 336 193.24Q335.51 193.71 334.85 193.96Q334.18 194.22 333.21 194.22 M347.19 194L342.59 194L342.59 193.14L344.64 192.96L345.12 192.96L347.19 193.14L347.19 194M345.72 194L344.04 194Q344.06 193.35 344.06 192.70Q344.06 192.06 344.07 191.41Q344.08 190.76 344.08 190.13L344.08 182.41L342.51 182.14L342.51 181.38L345.25 180.77L345.74 180.84L345.70 183.13L345.70 190.13Q345.70 190.76 345.70 191.41Q345.70 192.06 345.71 192.70Q345.72 193.35 345.72 194 M351.17 194.25Q350.15 194.25 349.42 193.66Q348.69 193.06 348.69 191.91Q348.69 191.25 348.97 190.74Q349.25 190.24 349.89 189.84Q350.52 189.45 351.62 189.14Q352.14 188.98 352.66 188.84Q353.17 188.71 353.68 188.56Q354.20 188.42 354.70 188.28L354.70 189.01Q354.05 189.21 353.40 189.42Q352.76 189.63 352.11 189.84Q351.37 190.06 350.99 190.34Q350.61 190.62 350.48 190.93Q350.34 191.25 350.34 191.61Q350.34 192.27 350.76 192.64Q351.17 193.01 351.86 193.01Q352.31 193.01 352.67 192.85Q353.03 192.69 353.44 192.35Q353.85 192.02 354.41 191.53L354.54 192.56L353.91 192.56Q353.55 193.03 353.18 193.41Q352.81 193.80 352.33 194.03Q351.86 194.25 351.17 194.25M355.83 194.20Q355.06 194.20 354.58 193.69Q354.11 193.19 354.07 192.20L354.03 192.16L354.03 188.04Q354.03 187.21 353.84 186.73Q353.64 186.24 353.22 186.04Q352.79 185.85 352.14 185.85Q351.69 185.85 351.28 185.92Q350.87 185.99 350.42 186.19L351.14 185.47L350.85 187.09Q350.76 187.63 350.51 187.88Q350.25 188.13 349.84 188.13Q349.41 188.13 349.18 187.91Q348.96 187.68 348.90 187.38Q349.14 186.26 350.13 185.59Q351.12 184.93 352.61 184.93Q353.55 184.93 354.23 185.23Q354.92 185.54 355.29 186.22Q355.65 186.89 355.65 188.04L355.65 192.04Q355.65 192.60 355.85 192.84Q356.05 193.08 356.41 193.08Q356.64 193.08 356.82 193Q356.99 192.92 357.13 192.81L357.42 193.44Q357.15 193.78 356.76 193.99Q356.37 194.20 355.83 194.20 M365.70 194L358.17 194L358.17 193.24L363.86 185.79L363.81 186.26L363.72 185.94L361.72 186.04L359.27 186.04L359.97 185.41L359.34 188.01L358.30 187.97L358.44 185.14L365.57 185.14L365.57 185.90L359.88 193.37L360.03 192.79L360.03 193.23L362.21 193.12L364.85 193.12L364.19 193.73L364.82 190.98L365.86 190.98 M368.34 198.37Q367.79 198.37 367.38 198.22Q366.98 198.07 366.74 197.80Q366.51 197.53 366.47 197.24Q366.56 196.88 366.89 196.66Q367.21 196.45 367.66 196.45Q368.11 196.45 368.43 196.62Q368.76 196.79 369.10 197.15L369.60 197.65L369.06 197.82L369.15 197.62Q369.66 197.28 370.05 196.83Q370.45 196.38 370.77 195.80Q371.08 195.22 371.37 194.56L371.66 193.84L371.94 193.77L373.38 189.14L374.81 185.14L376.01 185.14L372.48 194.07Q371.91 195.57 371.31 196.52Q370.70 197.47 369.98 197.92Q369.26 198.37 368.34 198.37M372.48 193.23L371.40 195.19L367.43 185.14L369.26 185.14L372.09 193.05L372.48 193.23M368.51 186.19L366.65 185.97L366.65 185.14L371.26 185.14L371.26 185.99L369.08 186.19L368.51 186.19M374.73 186.19L372.86 185.97L372.86 185.14L376.73 185.14L376.73 185.97L375.27 186.19 M385.80 194.22Q384.71 194.22 383.86 193.67Q383.01 193.12 382.54 192.09Q382.06 191.07 382.06 189.63Q382.06 188.17 382.56 187.12Q383.07 186.06 383.93 185.50Q384.80 184.93 385.88 184.93Q386.51 184.93 386.97 185.12Q387.44 185.31 387.81 185.68Q388.18 186.04 388.50 186.55L389.15 186.55L389.06 187.77Q388.29 186.89 387.67 186.47Q387.05 186.04 386.31 186.04Q385.61 186.04 385.04 186.41Q384.47 186.78 384.14 187.56Q383.81 188.35 383.81 189.57Q383.81 190.78 384.13 191.55Q384.45 192.33 385.02 192.69Q385.59 193.06 386.31 193.06Q387.14 193.06 387.75 192.61Q388.36 192.16 389.04 191.25L389.12 192.47L388.50 192.47Q388.22 192.97 387.86 193.37Q387.50 193.77 387 193.99Q386.51 194.22 385.80 194.22M391.69 194L388.77 194.13L388.61 192.20L388.58 192.18L388.58 186.93L388.67 186.80L388.61 182.41L387.01 182.14L387.01 181.38L389.75 180.77L390.23 180.84L390.20 183.13L390.20 192.92L391.69 193.17 M397.47 194.22Q396.33 194.22 395.34 193.69Q394.34 193.17 393.72 192.14Q393.11 191.10 393.11 189.61Q393.11 188.11 393.72 187.06Q394.34 186.01 395.34 185.47Q396.33 184.93 397.47 184.93Q398.60 184.93 399.60 185.46Q400.60 185.99 401.22 187.03Q401.84 188.06 401.84 189.55Q401.84 191.05 401.22 192.09Q400.60 193.14 399.60 193.68Q398.60 194.22 397.47 194.22M397.47 193.28Q398.30 193.28 398.87 192.87Q399.45 192.45 399.75 191.64Q400.06 190.83 400.06 189.61Q400.06 188.37 399.75 187.54Q399.45 186.71 398.87 186.30Q398.30 185.88 397.47 185.88Q396.66 185.88 396.08 186.30Q395.51 186.71 395.20 187.53Q394.89 188.35 394.89 189.57Q394.89 190.81 395.20 191.63Q395.51 192.45 396.08 192.87Q396.66 193.28 397.47 193.28 M407.19 198.25Q405.93 198.25 405.06 197.96Q404.20 197.67 403.75 197.17Q403.30 196.66 403.30 196.02Q403.30 195.51 403.55 195.12Q403.80 194.72 404.36 194.40Q404.92 194.07 405.82 193.80L405.95 193.93Q405.60 194.18 405.37 194.47Q405.14 194.76 405.02 195.06Q404.90 195.37 404.90 195.73Q404.90 196.20 405.16 196.56Q405.42 196.92 405.97 197.11Q406.52 197.31 407.39 197.31Q408.39 197.31 409.08 197.05Q409.76 196.79 410.11 196.37Q410.46 195.94 410.46 195.46Q410.46 194.86 410.04 194.50Q409.62 194.13 408.70 194.13L406.38 194.13Q406.11 194.13 405.83 194.12Q405.55 194.11 405.30 194.09L405.30 193.80Q404.63 193.68 404.22 193.36Q403.80 193.05 403.80 192.43Q403.80 191.89 404.19 191.48Q404.58 191.07 405.32 190.67L405.32 190.27L406.23 190.42Q405.75 190.83 405.51 191.14Q405.28 191.44 405.28 191.80Q405.28 192.25 405.60 192.49Q405.91 192.72 406.63 192.72L408.97 192.72Q409.96 192.72 410.63 193.02Q411.29 193.32 411.63 193.85Q411.96 194.38 411.96 195.08Q411.96 195.71 411.62 196.29Q411.27 196.86 410.64 197.30Q410.01 197.74 409.13 198Q408.25 198.25 407.19 198.25M407.19 190.98Q406.18 190.98 405.40 190.62Q404.61 190.26 404.17 189.58Q403.73 188.91 403.73 187.97Q403.73 187.03 404.17 186.35Q404.61 185.67 405.40 185.30Q406.18 184.93 407.19 184.93Q407.85 184.93 408.39 185.09Q408.93 185.25 409.33 185.53Q409.73 185.81 409.96 186.19L410.09 186.21Q410.36 186.55 410.50 186.96Q410.64 187.38 410.64 187.93Q410.64 188.85 410.20 189.54Q409.76 190.22 408.98 190.60Q408.20 190.98 407.19 190.98M407.17 190.11Q407.75 190.11 408.17 189.83Q408.59 189.55 408.83 189.07Q409.06 188.58 409.06 187.92Q409.06 187.27 408.84 186.79Q408.61 186.31 408.19 186.05Q407.76 185.79 407.21 185.79Q406.63 185.79 406.21 186.06Q405.78 186.33 405.55 186.82Q405.32 187.30 405.32 187.95Q405.32 188.60 405.54 189.09Q405.77 189.57 406.18 189.84Q406.59 190.11 407.17 190.11M412.19 186.51L409.46 186.51L409.46 185.99L409.91 185.99L411.62 184.86L412.19 184.95 M415.43 194.22Q414.89 194.22 414.52 193.84Q414.15 193.46 414.15 192.94Q414.15 192.40 414.52 192.02Q414.89 191.64 415.43 191.64Q415.97 191.64 416.35 192.02Q416.73 192.40 416.73 192.94Q416.73 193.46 416.35 193.84Q415.97 194.22 415.43 194.22" fill="#27272A"/><path d="M30.34 232L28.34 232L31.90 221.81L34.21 221.81L37.85 232L35.85 232L34.04 226.71Q33.77 225.89 33.48 224.85Q33.20 223.82 32.85 222.50L33.23 222.50Q32.89 223.83 32.61 224.87Q32.33 225.92 32.09 226.71L30.34 232M35.78 229.48L30.41 229.48L30.41 228.01L35.78 228.01 M43.55 232.14Q42.21 232.14 41.16 231.51Q40.11 230.89 39.50 229.72Q38.89 228.55 38.89 226.91Q38.89 225.27 39.50 224.09Q40.11 222.92 41.17 222.30Q42.23 221.68 43.55 221.68Q44.39 221.68 45.11 221.91Q45.84 222.15 46.41 222.60Q46.98 223.06 47.35 223.71Q47.72 224.37 47.84 225.21L46.01 225.21Q45.92 224.75 45.70 224.40Q45.49 224.05 45.17 223.81Q44.84 223.56 44.44 223.44Q44.04 223.31 43.58 223.31Q42.75 223.31 42.10 223.73Q41.45 224.15 41.09 224.96Q40.72 225.76 40.72 226.91Q40.72 228.08 41.09 228.88Q41.46 229.68 42.11 230.09Q42.75 230.50 43.57 230.50Q44.03 230.50 44.43 230.38Q44.84 230.25 45.16 230.01Q45.49 229.76 45.71 229.41Q45.92 229.06 46.01 228.61L47.85 228.61Q47.75 229.34 47.40 229.98Q47.06 230.62 46.50 231.10Q45.94 231.59 45.20 231.86Q44.45 232.14 43.55 232.14 M53.87 232.14Q52.53 232.14 51.47 231.51Q50.42 230.89 49.81 229.72Q49.21 228.55 49.21 226.91Q49.21 225.27 49.82 224.09Q50.43 222.92 51.48 222.30Q52.54 221.68 53.87 221.68Q54.70 221.68 55.43 221.91Q56.16 222.15 56.73 222.60Q57.30 223.06 57.67 223.71Q58.04 224.37 58.16 225.21L56.32 225.21Q56.23 224.75 56.02 224.40Q55.80 224.05 55.48 223.81Q55.16 223.56 54.76 223.44Q54.35 223.31 53.89 223.31Q53.06 223.31 52.41 223.73Q51.77 224.15 51.40 224.96Q51.04 225.76 51.04 226.91Q51.04 228.08 51.41 228.88Q51.78 229.68 52.42 230.09Q53.07 230.50 53.89 230.50Q54.35 230.50 54.75 230.38Q55.15 230.25 55.48 230.01Q55.80 229.76 56.02 229.41Q56.24 229.06 56.32 228.61L58.17 228.61Q58.06 229.34 57.72 229.98Q57.37 230.62 56.81 231.10Q56.25 231.59 55.51 231.86Q54.77 232.14 53.87 232.14 M66.49 232L59.84 232L59.84 221.81L66.46 221.81L66.46 223.35L61.67 223.35L61.67 226.10L66.10 226.10L66.10 227.62L61.67 227.62L61.67 230.46L66.49 230.46 M70.18 232L68.32 232L68.32 221.81L70.38 221.81L73.90 227.43Q74.12 227.78 74.37 228.22Q74.61 228.66 74.88 229.20Q75.15 229.74 75.41 230.41L75.20 230.41Q75.15 229.83 75.12 229.23Q75.08 228.62 75.06 228.08Q75.04 227.54 75.04 227.16L75.04 221.81L76.90 221.81L76.90 232L74.83 232L71.65 226.95Q71.35 226.46 71.08 225.99Q70.81 225.52 70.51 224.92Q70.20 224.33 69.76 223.49L70.02 223.49Q70.06 224.23 70.10 224.90Q70.13 225.57 70.15 226.09Q70.18 226.62 70.18 226.94 M81.63 223.35L78.49 223.35L78.49 221.81L86.60 221.81L86.60 223.35L83.46 223.35L83.46 232L81.63 232 M90.69 227.02L104.69 227.02L104.69 228.49L90.69 228.49 M116.10 232L109.14 232L109.14 230.69L112.67 227.21Q113.17 226.70 113.51 226.30Q113.85 225.90 114.02 225.53Q114.19 225.16 114.19 224.72Q114.19 224.24 113.97 223.89Q113.75 223.54 113.37 223.36Q112.99 223.17 112.51 223.17Q111.99 223.17 111.61 223.37Q111.23 223.58 111.03 223.96Q110.82 224.34 110.82 224.86L109.08 224.86Q109.08 223.90 109.52 223.18Q109.96 222.46 110.74 222.07Q111.51 221.68 112.53 221.68Q113.54 221.68 114.32 222.06Q115.09 222.44 115.52 223.11Q115.95 223.78 115.95 224.63Q115.95 225.20 115.74 225.74Q115.53 226.28 114.98 226.96Q114.43 227.64 113.44 228.60L111.67 230.40L111.67 230.48L116.10 230.48 M121.56 232.14Q120.33 232.14 119.45 231.52Q118.58 230.90 118.11 229.73Q117.65 228.57 117.65 226.91Q117.65 225.26 118.11 224.09Q118.58 222.92 119.45 222.30Q120.33 221.68 121.56 221.68Q122.79 221.68 123.67 222.30Q124.54 222.92 125.01 224.09Q125.47 225.26 125.47 226.91Q125.47 228.57 125.01 229.73Q124.55 230.90 123.68 231.52Q122.80 232.14 121.56 232.14M121.56 230.61Q122.23 230.61 122.69 230.17Q123.15 229.74 123.39 228.91Q123.63 228.09 123.63 226.91Q123.63 225.73 123.39 224.90Q123.15 224.08 122.69 223.64Q122.23 223.20 121.56 223.20Q120.89 223.20 120.43 223.64Q119.97 224.08 119.73 224.90Q119.49 225.73 119.49 226.91Q119.49 228.09 119.72 228.91Q119.96 229.74 120.43 230.17Q120.89 230.61 121.56 230.61 M134.06 232L127.09 232L127.09 230.69L130.63 227.21Q131.13 226.70 131.47 226.30Q131.80 225.90 131.98 225.53Q132.15 225.16 132.15 224.72Q132.15 224.24 131.93 223.89Q131.71 223.54 131.33 223.36Q130.95 223.17 130.46 223.17Q129.95 223.17 129.57 223.37Q129.19 223.58 128.99 223.96Q128.78 224.34 128.78 224.86L127.04 224.86Q127.04 223.90 127.48 223.18Q127.92 222.46 128.70 222.07Q129.47 221.68 130.48 221.68Q131.50 221.68 132.28 222.06Q133.05 222.44 133.48 223.11Q133.91 223.78 133.91 224.63Q133.91 225.20 133.70 225.74Q133.49 226.28 132.94 226.96Q132.39 227.64 131.39 228.60L129.62 230.40L129.62 230.48L134.06 230.48 M139.49 232.14Q138.76 232.14 138.07 231.89Q137.38 231.64 136.82 231.07Q136.26 230.50 135.93 229.55Q135.60 228.60 135.60 227.20Q135.60 225.89 135.88 224.87Q136.16 223.84 136.68 223.13Q137.20 222.42 137.94 222.05Q138.68 221.68 139.60 221.68Q140.55 221.68 141.29 222.05Q142.03 222.43 142.49 223.08Q142.95 223.73 143.06 224.56L141.26 224.56Q141.12 223.97 140.69 223.61Q140.26 223.26 139.60 223.26Q138.89 223.26 138.39 223.67Q137.89 224.09 137.64 224.87Q137.38 225.64 137.38 226.72L137.46 226.72Q137.70 226.28 138.09 225.96Q138.48 225.65 138.96 225.48Q139.45 225.31 139.99 225.31Q140.89 225.31 141.60 225.74Q142.32 226.17 142.73 226.92Q143.15 227.67 143.15 228.64Q143.15 229.63 142.69 230.43Q142.24 231.22 141.41 231.68Q140.59 232.14 139.49 232.14M139.48 230.65Q140.02 230.65 140.45 230.39Q140.88 230.13 141.13 229.68Q141.38 229.22 141.38 228.67Q141.38 228.12 141.14 227.68Q140.90 227.24 140.47 226.98Q140.05 226.72 139.50 226.72Q139.10 226.72 138.75 226.87Q138.40 227.02 138.14 227.30Q137.87 227.57 137.73 227.93Q137.59 228.28 137.59 228.68Q137.59 229.21 137.83 229.66Q138.08 230.11 138.51 230.38Q138.94 230.65 139.48 230.65" fill="#DC2626"/></svg>