<svg xmlns="http://www.w3.org/2000/svg" width="480" height="300" viewBox="0 0 480 300" role="img"><rect width="480" height="300" fill="#F8FAFC"/><rect x="0" y="0" width="240" height="84" fill="#4F46E5"/><rect x="240" y="0" width="120" height="84" fill="#0F172A"/><rect x="360" y="0" width="72" height="84" fill="#1E293B"/><rect x="432" y="0" width="48" height="84" fill="#0E7490"/><path d="M37.45 154L30.90 154L30.90 121.99L37.45 121.99L37.45 134.92L51.40 134.92L51.40 121.99L57.97 121.99L57.97 154L51.40 154L51.40 140.36L37.45 140.36 M74.47 154.47Q70.80 154.47 68.13 152.97Q65.47 151.46 64.04 148.69Q62.61 145.92 62.61 142.12Q62.61 138.40 64.03 135.61Q65.45 132.82 68.05 131.25Q70.65 129.68 74.15 129.68Q76.51 129.68 78.55 130.43Q80.59 131.18 82.14 132.70Q83.69 134.21 84.56 136.49Q85.43 138.77 85.43 141.86L85.43 143.67L65.25 143.67L65.25 139.63L82.27 139.63L79.26 140.70Q79.26 138.83 78.69 137.45Q78.12 136.06 77 135.30Q75.87 134.54 74.21 134.54Q72.54 134.54 71.37 135.31Q70.20 136.08 69.59 137.40Q68.99 138.72 68.99 140.42L68.99 143.28Q68.99 145.36 69.69 146.78Q70.39 148.20 71.65 148.91Q72.90 149.62 74.58 149.62Q75.72 149.62 76.64 149.29Q77.56 148.97 78.22 148.34Q78.88 147.71 79.22 146.78L85.06 147.88Q84.48 149.85 83.04 151.35Q81.60 152.84 79.44 153.66Q77.29 154.47 74.47 154.47 M96.54 154.47Q94.26 154.47 92.44 153.67Q90.63 152.86 89.58 151.26Q88.54 149.66 88.54 147.28Q88.54 145.28 89.28 143.92Q90.03 142.57 91.30 141.75Q92.58 140.94 94.20 140.51Q95.83 140.08 97.61 139.91Q99.69 139.69 100.97 139.51Q102.25 139.33 102.84 138.93Q103.43 138.53 103.43 137.76L103.43 137.65Q103.43 136.62 103 135.91Q102.57 135.20 101.72 134.83Q100.88 134.45 99.67 134.45Q98.43 134.45 97.50 134.83Q96.58 135.20 96 135.82Q95.42 136.45 95.14 137.22L89.23 136.25Q89.85 134.15 91.29 132.69Q92.73 131.23 94.87 130.45Q97.01 129.68 99.69 129.68Q101.63 129.68 103.45 130.14Q105.28 130.60 106.73 131.57Q108.18 132.54 109.03 134.09Q109.88 135.65 109.88 137.82L109.88 154L103.78 154L103.78 150.67L103.56 150.67Q102.98 151.79 102.01 152.64Q101.05 153.48 99.68 153.98Q98.32 154.47 96.54 154.47M98.36 149.94Q99.89 149.94 101.04 149.34Q102.19 148.74 102.83 147.71Q103.47 146.67 103.47 145.41L103.47 142.81Q103.20 143.02 102.62 143.19Q102.04 143.37 101.33 143.49Q100.62 143.62 99.93 143.73Q99.24 143.84 98.71 143.90Q97.52 144.07 96.62 144.46Q95.72 144.85 95.22 145.48Q94.73 146.12 94.73 147.10Q94.73 148.03 95.20 148.66Q95.68 149.29 96.49 149.62Q97.31 149.94 98.36 149.94 M124.14 154.41Q121.39 154.41 119.17 152.98Q116.95 151.55 115.66 148.79Q114.37 146.03 114.37 142.03Q114.37 137.93 115.70 135.18Q117.03 132.43 119.24 131.05Q121.46 129.68 124.12 129.68Q126.16 129.68 127.52 130.37Q128.87 131.05 129.71 132.06Q130.54 133.07 130.95 134.02L131.17 134.02L131.17 121.99L137.61 121.99L137.61 154L131.28 154L131.28 150.15L130.95 150.15Q130.52 151.12 129.67 152.10Q128.83 153.08 127.47 153.74Q126.12 154.41 124.14 154.41M126.14 149.23Q127.77 149.23 128.93 148.33Q130.09 147.43 130.70 145.80Q131.30 144.18 131.30 142.01Q131.30 139.82 130.71 138.22Q130.12 136.62 128.96 135.73Q127.79 134.84 126.14 134.84Q124.44 134.84 123.29 135.76Q122.14 136.68 121.56 138.29Q120.98 139.91 120.98 142.01Q120.98 144.12 121.58 145.75Q122.17 147.38 123.32 148.31Q124.46 149.23 126.14 149.23 M149.56 154L143.11 154L143.11 129.98L149.56 129.98L149.56 154M146.34 126.84Q144.88 126.84 143.84 125.88Q142.81 124.91 142.81 123.54Q142.81 122.16 143.84 121.19Q144.88 120.23 146.34 120.23Q147.80 120.23 148.84 121.18Q149.88 122.14 149.88 123.54Q149.88 124.91 148.84 125.88Q147.80 126.84 146.34 126.84 M161.48 140.10L161.48 154L155.04 154L155.04 129.98L161.12 129.98L161.22 135.97L160.84 135.97Q161.78 132.97 163.71 131.32Q165.63 129.68 168.68 129.68Q171.17 129.68 173.03 130.76Q174.89 131.85 175.91 133.88Q176.93 135.91 176.93 138.72L176.93 154L170.48 154L170.48 139.84Q170.48 137.61 169.33 136.34Q168.19 135.07 166.14 135.07Q164.79 135.07 163.73 135.66Q162.66 136.25 162.07 137.37Q161.48 138.49 161.48 140.10 M193.11 163.50Q190.10 163.50 187.87 162.73Q185.63 161.97 184.23 160.64Q182.84 159.31 182.30 157.61L187.84 156.06Q188.14 156.73 188.78 157.36Q189.41 158 190.46 158.40Q191.52 158.81 193.06 158.81Q195.54 158.81 196.94 157.68Q198.35 156.56 198.35 154.17L198.35 149.75L197.86 149.75Q197.43 150.71 196.61 151.62Q195.79 152.52 194.47 153.09Q193.15 153.66 191.20 153.66Q188.49 153.66 186.28 152.39Q184.06 151.12 182.74 148.52Q181.42 145.92 181.42 141.95Q181.42 137.89 182.76 135.16Q184.11 132.43 186.33 131.05Q188.55 129.68 191.22 129.68Q193.24 129.68 194.61 130.36Q195.99 131.03 196.83 132.05Q197.68 133.07 198.11 134.02L198.39 134.02L198.39 129.98L204.73 129.98L204.73 153.81Q204.73 157.05 203.24 159.20Q201.74 161.35 199.12 162.42Q196.50 163.50 193.11 163.50M193.21 148.76Q194.87 148.76 196.02 147.94Q197.17 147.13 197.77 145.59Q198.37 144.05 198.37 141.90Q198.37 139.78 197.77 138.19Q197.17 136.60 196.02 135.72Q194.87 134.84 193.21 134.84Q191.52 134.84 190.37 135.75Q189.22 136.66 188.63 138.25Q188.04 139.84 188.04 141.90Q188.04 144.01 188.63 145.55Q189.22 147.08 190.38 147.92Q191.54 148.76 193.21 148.76" fill="#1E293B"/><path d="M32.43 183.67L28.77 183.67L28.77 182.36L37.56 182.36L37.56 183.67L33.91 183.67L33.91 194L32.43 194 M40.97 188.77L40.97 194L39.56 194L39.56 182.36L40.97 182.36L40.97 187.38L40.73 187.38Q41.13 186.17 41.86 185.66Q42.60 185.16 43.59 185.16Q44.48 185.16 45.14 185.52Q45.81 185.88 46.18 186.61Q46.55 187.34 46.55 188.45L46.55 194L45.14 194L45.14 188.57Q45.14 187.56 44.61 186.99Q44.09 186.42 43.17 186.42Q42.55 186.42 42.05 186.70Q41.55 186.97 41.26 187.49Q40.97 188.02 40.97 188.77 M52.70 194.19Q51.43 194.19 50.51 193.63Q49.59 193.06 49.10 192.05Q48.60 191.05 48.60 189.70Q48.60 188.36 49.09 187.34Q49.57 186.31 50.46 185.73Q51.34 185.16 52.53 185.16Q53.23 185.16 53.90 185.39Q54.58 185.62 55.13 186.13Q55.68 186.64 56.01 187.48Q56.34 188.31 56.34 189.52L56.34 190.11L49.55 190.11L49.55 188.92L55.58 188.92L54.92 189.36Q54.92 188.50 54.65 187.83Q54.38 187.16 53.85 186.79Q53.32 186.41 52.53 186.41Q51.74 186.41 51.18 186.79Q50.62 187.18 50.32 187.80Q50.02 188.42 50.02 189.13L50.02 189.92Q50.02 190.89 50.36 191.57Q50.70 192.24 51.30 192.59Q51.91 192.94 52.70 192.94Q53.22 192.94 53.64 192.79Q54.06 192.64 54.37 192.34Q54.67 192.04 54.84 191.59L56.20 191.97Q55.99 192.63 55.51 193.13Q55.02 193.63 54.31 193.91Q53.59 194.19 52.70 194.19 M70.18 185.27L70.18 197.27L68.77 197.27L68.77 192.65L68.66 192.65Q68.52 192.89 68.25 193.25Q67.97 193.62 67.46 193.90Q66.96 194.19 66.13 194.19Q65.04 194.19 64.20 193.63Q63.37 193.08 62.90 192.06Q62.43 191.05 62.43 189.66Q62.43 188.27 62.90 187.26Q63.38 186.25 64.21 185.70Q65.05 185.16 66.13 185.16Q66.98 185.16 67.48 185.44Q67.98 185.72 68.25 186.07Q68.52 186.43 68.66 186.66L68.82 186.66L68.82 185.27L70.18 185.27M66.34 192.93Q67.13 192.93 67.68 192.51Q68.23 192.09 68.51 191.35Q68.79 190.61 68.79 189.64Q68.79 188.67 68.51 187.95Q68.23 187.23 67.69 186.82Q67.14 186.41 66.34 186.41Q65.51 186.41 64.96 186.84Q64.41 187.27 64.13 188Q63.86 188.73 63.86 189.64Q63.86 190.55 64.14 191.30Q64.41 192.05 64.97 192.49Q65.52 192.93 66.34 192.93 M75.61 194.11Q74.73 194.11 74.06 193.75Q73.39 193.38 73.02 192.65Q72.65 191.91 72.65 190.81L72.65 185.27L74.05 185.27L74.05 190.70Q74.05 191.70 74.59 192.27Q75.12 192.84 76.03 192.84Q76.66 192.84 77.15 192.57Q77.65 192.30 77.94 191.77Q78.23 191.24 78.23 190.50L78.23 185.27L79.64 185.27L79.64 194L78.28 194L78.28 191.88L78.47 191.88Q78.06 193.11 77.32 193.61Q76.57 194.11 75.61 194.11 M83.52 194L82.11 194L82.11 185.27L83.52 185.27L83.52 194M82.82 183.84Q82.42 183.84 82.13 183.56Q81.84 183.29 81.84 182.91Q81.84 182.52 82.13 182.25Q82.42 181.98 82.82 181.98Q83.23 181.98 83.52 182.25Q83.80 182.52 83.80 182.91Q83.80 183.29 83.52 183.56Q83.23 183.84 82.82 183.84 M89.54 194.19Q88.35 194.19 87.46 193.63Q86.56 193.06 86.06 192.05Q85.56 191.03 85.56 189.69Q85.56 188.32 86.06 187.30Q86.56 186.28 87.46 185.72Q88.35 185.16 89.54 185.16Q90.17 185.16 90.73 185.32Q91.30 185.48 91.76 185.79Q92.23 186.10 92.56 186.55Q92.90 187 93.08 187.57L91.73 187.95Q91.63 187.62 91.44 187.34Q91.24 187.05 90.96 186.85Q90.69 186.64 90.33 186.53Q89.97 186.41 89.54 186.41Q88.66 186.41 88.10 186.87Q87.54 187.33 87.27 188.07Q86.99 188.81 86.99 189.69Q86.99 190.55 87.27 191.29Q87.54 192.02 88.10 192.48Q88.66 192.93 89.54 192.93Q89.98 192.93 90.34 192.81Q90.71 192.70 91 192.48Q91.28 192.27 91.48 191.97Q91.67 191.67 91.77 191.32L93.11 191.70Q92.94 192.29 92.60 192.75Q92.26 193.20 91.79 193.53Q91.32 193.85 90.75 194.02Q90.18 194.19 89.54 194.19 M97.98 189.41L96.45 190.86L96.45 189.12L96.70 189.12L100.44 185.27L102.18 185.27L98.14 189.41L97.98 189.41M96.53 194L95.13 194L95.13 182.36L96.53 182.36L96.53 194M102.45 194L100.65 194L97.30 189.73L98.30 188.73 M112.46 194.19Q111.63 194.19 111.13 193.90Q110.62 193.62 110.34 193.25Q110.07 192.89 109.92 192.65L109.77 192.65L109.77 194L108.41 194L108.41 182.36L109.81 182.36L109.81 186.66L109.92 186.66Q110.07 186.43 110.34 186.07Q110.60 185.72 111.10 185.44Q111.60 185.16 112.45 185.16Q113.55 185.16 114.38 185.70Q115.21 186.25 115.68 187.26Q116.16 188.27 116.16 189.66Q116.16 191.05 115.69 192.06Q115.22 193.08 114.39 193.63Q113.55 194.19 112.46 194.19M112.25 192.93Q113.07 192.93 113.62 192.49Q114.17 192.05 114.45 191.30Q114.73 190.55 114.73 189.64Q114.73 188.73 114.45 188Q114.18 187.27 113.63 186.84Q113.08 186.41 112.25 186.41Q111.45 186.41 110.90 186.82Q110.35 187.23 110.07 187.95Q109.80 188.67 109.80 189.64Q109.80 190.61 110.08 191.35Q110.36 192.09 110.91 192.51Q111.46 192.93 112.25 192.93 M119.61 194L118.20 194L118.20 185.27L119.56 185.27L119.56 186.61L119.66 186.61Q119.90 185.95 120.52 185.54Q121.14 185.14 121.92 185.14Q122.08 185.14 122.29 185.15Q122.51 185.16 122.63 185.16L122.63 186.58Q122.57 186.56 122.32 186.53Q122.07 186.50 121.79 186.50Q121.16 186.50 120.67 186.76Q120.17 187.02 119.89 187.48Q119.61 187.94 119.61 188.53 M127.78 194.19Q126.59 194.19 125.70 193.63Q124.80 193.06 124.30 192.05Q123.80 191.03 123.80 189.69Q123.80 188.32 124.30 187.30Q124.80 186.28 125.70 185.72Q126.59 185.16 127.78 185.16Q128.98 185.16 129.88 185.72Q130.77 186.28 131.27 187.30Q131.77 188.32 131.77 189.69Q131.77 191.03 131.27 192.05Q130.77 193.06 129.88 193.63Q128.98 194.19 127.78 194.19M127.78 192.93Q128.66 192.93 129.23 192.48Q129.80 192.02 130.08 191.29Q130.35 190.55 130.35 189.69Q130.35 188.82 130.08 188.07Q129.80 187.33 129.23 186.87Q128.66 186.41 127.78 186.41Q126.91 186.41 126.34 186.87Q125.78 187.33 125.51 188.07Q125.23 188.81 125.23 189.69Q125.23 190.55 125.51 191.29Q125.78 192.02 126.34 192.48Q126.91 192.93 127.78 192.93 M137.18 194L135.78 194L133.13 185.27L134.63 185.27L135.69 189.08Q135.91 189.86 136.16 190.85Q136.41 191.84 136.65 193.09L136.41 193.09Q136.64 191.89 136.88 190.90Q137.13 189.91 137.35 189.08L138.40 185.27L139.90 185.27L140.93 189.08Q141.15 189.88 141.39 190.87Q141.63 191.86 141.86 193.09L141.61 193.09Q141.86 191.88 142.11 190.89Q142.35 189.90 142.58 189.08L143.64 185.27L145.13 185.27L142.48 194L141.09 194L139.95 190.05Q139.78 189.45 139.62 188.82Q139.45 188.20 139.30 187.54Q139.14 186.88 138.98 186.20L139.29 186.20Q139.13 186.88 138.97 187.54Q138.81 188.20 138.65 188.83Q138.48 189.46 138.31 190.05 M148.32 188.77L148.32 194L146.91 194L146.91 185.27L148.27 185.27L148.27 187.38L148.08 187.38Q148.48 186.17 149.21 185.66Q149.95 185.16 150.95 185.16Q151.83 185.16 152.49 185.52Q153.16 185.88 153.53 186.61Q153.90 187.34 153.90 188.45L153.90 194L152.49 194L152.49 188.57Q152.49 187.56 151.96 186.99Q151.44 186.42 150.52 186.42Q149.90 186.42 149.40 186.70Q148.90 186.97 148.61 187.49Q148.32 188.02 148.32 188.77 M159.79 185.27L164.93 185.27L164.93 186.47L159.79 186.47L159.79 185.27M162.91 194L161.51 194L161.51 184.10Q161.51 183.34 161.86 182.84Q162.22 182.33 162.79 182.07Q163.36 181.81 163.99 181.81Q164.49 181.81 164.82 181.89Q165.15 181.98 165.30 182.05L164.91 183.25Q164.80 183.21 164.63 183.16Q164.45 183.12 164.16 183.12Q163.51 183.12 163.21 183.45Q162.91 183.78 162.91 184.41 M170.34 194.19Q169.16 194.19 168.26 193.63Q167.37 193.06 166.87 192.05Q166.37 191.03 166.37 189.69Q166.37 188.32 166.87 187.30Q167.37 186.28 168.26 185.72Q169.16 185.16 170.34 185.16Q171.54 185.16 172.44 185.72Q173.34 186.28 173.84 187.30Q174.34 188.32 174.34 189.69Q174.34 191.03 173.84 192.05Q173.34 193.06 172.44 193.63Q171.54 194.19 170.34 194.19M170.34 192.93Q171.23 192.93 171.80 192.48Q172.37 192.02 172.64 191.29Q172.91 190.55 172.91 189.69Q172.91 188.82 172.64 188.07Q172.37 187.33 171.80 186.87Q171.23 186.41 170.34 186.41Q169.47 186.41 168.91 186.87Q168.34 187.33 168.07 188.07Q167.80 188.81 167.80 189.69Q167.80 190.55 168.07 191.29Q168.34 192.02 168.91 192.48Q169.47 192.93 170.34 192.93 M177.28 194L175.66 194L179.10 188.98L179.09 190.05L175.84 185.27L177.48 185.27L178.56 186.96Q178.98 187.62 179.29 188.19Q179.60 188.76 179.93 189.29L179.20 189.29Q179.53 188.76 179.81 188.19Q180.09 187.62 180.52 186.96L181.63 185.27L183.23 185.27L179.96 190.12L179.96 189.08L183.38 194L181.74 194L180.46 192.04Q180.05 191.40 179.75 190.85Q179.45 190.30 179.13 189.79L179.87 189.79Q179.55 190.30 179.27 190.85Q179 191.40 178.58 192.04 M189.61 194.63L189.61 185.27L191.02 185.27L191.02 194.63Q191.03 195.45 190.74 196.05Q190.45 196.64 189.88 196.95Q189.31 197.27 188.46 197.27L188.18 197.27L188.18 195.97L188.44 195.97Q189.05 195.97 189.33 195.62Q189.61 195.27 189.61 194.63M190.32 183.84Q189.92 183.84 189.63 183.56Q189.34 183.29 189.34 182.91Q189.34 182.52 189.63 182.25Q189.92 181.98 190.32 181.98Q190.73 181.98 191.02 182.25Q191.30 182.52 191.30 182.91Q191.30 183.29 191.02 183.56Q190.73 183.84 190.32 183.84 M196.45 194.11Q195.57 194.11 194.90 193.75Q194.23 193.38 193.86 192.65Q193.49 191.91 193.49 190.81L193.49 185.27L194.90 185.27L194.90 190.70Q194.90 191.70 195.43 192.27Q195.96 192.84 196.88 192.84Q197.50 192.84 198 192.57Q198.49 192.30 198.78 191.77Q199.07 191.24 199.07 190.50L199.07 185.27L200.48 185.27L200.48 194L199.13 194L199.13 191.88L199.31 191.88Q198.91 193.11 198.16 193.61Q197.41 194.11 196.45 194.11 M204.36 194L202.95 194L202.95 185.27L204.32 185.27L204.33 187.22L204.22 187.22Q204.40 186.51 204.79 186.04Q205.17 185.58 205.69 185.34Q206.21 185.11 206.77 185.11Q207.73 185.11 208.32 185.70Q208.91 186.28 209.08 187.23L208.89 187.23Q209.05 186.58 209.46 186.10Q209.88 185.63 210.46 185.37Q211.05 185.11 211.75 185.11Q212.51 185.11 213.13 185.44Q213.76 185.77 214.13 186.43Q214.50 187.09 214.50 188.11L214.50 194L213.09 194L213.09 188.15Q213.09 187.20 212.56 186.80Q212.03 186.39 211.33 186.39Q210.74 186.39 210.32 186.64Q209.89 186.88 209.66 187.31Q209.43 187.74 209.43 188.30L209.43 194L208.02 194L208.02 188.01Q208.02 187.28 207.54 186.84Q207.05 186.39 206.31 186.39Q205.80 186.39 205.36 186.63Q204.91 186.87 204.63 187.34Q204.36 187.80 204.36 188.50 M218.38 197.27L216.97 197.27L216.97 185.27L218.33 185.27L218.33 186.66L218.48 186.66Q218.63 186.43 218.90 186.07Q219.16 185.72 219.66 185.44Q220.16 185.16 221.02 185.16Q222.11 185.16 222.94 185.70Q223.77 186.25 224.25 187.26Q224.72 188.27 224.72 189.66Q224.72 191.05 224.25 192.06Q223.78 193.08 222.95 193.63Q222.12 194.19 221.02 194.19Q220.20 194.19 219.69 193.90Q219.18 193.62 218.91 193.25Q218.63 192.89 218.48 192.65L218.38 192.65L218.38 197.27M220.81 192.93Q221.63 192.93 222.18 192.49Q222.73 192.05 223.01 191.30Q223.29 190.55 223.29 189.64Q223.29 188.73 223.02 188Q222.74 187.27 222.19 186.84Q221.64 186.41 220.81 186.41Q220.01 186.41 219.46 186.82Q218.91 187.23 218.64 187.95Q218.36 188.67 218.36 189.64Q218.36 190.61 218.64 191.35Q218.92 192.09 219.47 192.51Q220.02 192.93 220.81 192.93 M229.73 194.19Q228.84 194.19 228.14 193.93Q227.44 193.66 226.98 193.15Q226.53 192.63 226.38 191.88L227.71 191.56Q227.90 192.28 228.42 192.62Q228.94 192.95 229.72 192.95Q230.63 192.95 231.18 192.56Q231.72 192.17 231.72 191.63Q231.72 191.18 231.40 190.88Q231.09 190.58 230.44 190.43L228.98 190.09Q227.80 189.80 227.22 189.21Q226.64 188.63 226.64 187.70Q226.64 186.95 227.06 186.38Q227.48 185.80 228.21 185.48Q228.95 185.16 229.88 185.16Q230.77 185.16 231.40 185.43Q232.03 185.70 232.43 186.17Q232.82 186.64 233.02 187.26L231.74 187.59Q231.56 187.12 231.14 186.73Q230.73 186.35 229.88 186.35Q229.10 186.35 228.58 186.71Q228.06 187.07 228.06 187.62Q228.06 188.10 228.41 188.39Q228.77 188.69 229.53 188.87L230.85 189.18Q232.04 189.46 232.61 190.05Q233.18 190.64 233.18 191.54Q233.18 192.30 232.75 192.90Q232.31 193.50 231.54 193.84Q230.76 194.19 229.73 194.19 M243.27 194.19Q242.08 194.19 241.18 193.63Q240.29 193.06 239.79 192.05Q239.29 191.03 239.29 189.69Q239.29 188.32 239.79 187.30Q240.29 186.28 241.18 185.72Q242.08 185.16 243.27 185.16Q244.46 185.16 245.36 185.72Q246.26 186.28 246.76 187.30Q247.26 188.32 247.26 189.69Q247.26 191.03 246.76 192.05Q246.26 193.06 245.36 193.63Q244.46 194.19 243.27 194.19M243.27 192.93Q244.15 192.93 244.72 192.48Q245.29 192.02 245.56 191.29Q245.84 190.55 245.84 189.69Q245.84 188.82 245.56 188.07Q245.29 187.33 244.72 186.87Q244.15 186.41 243.27 186.41Q242.39 186.41 241.83 186.87Q241.27 187.33 240.99 188.07Q240.72 188.81 240.72 189.69Q240.72 190.55 240.99 191.29Q241.27 192.02 241.83 192.48Q242.39 192.93 243.27 192.93 M253.30 194L251.83 194L248.49 185.27L250.03 185.27L251.89 190.45Q252.19 191.25 252.39 192.05Q252.60 192.85 252.83 193.60L252.31 193.60Q252.54 192.85 252.75 192.05Q252.95 191.25 253.24 190.45L255.10 185.27L256.64 185.27 M261.97 194.19Q260.70 194.19 259.79 193.63Q258.87 193.06 258.37 192.05Q257.88 191.05 257.88 189.70Q257.88 188.36 258.36 187.34Q258.84 186.31 259.73 185.73Q260.62 185.16 261.80 185.16Q262.50 185.16 263.18 185.39Q263.85 185.62 264.40 186.13Q264.95 186.64 265.28 187.48Q265.61 188.31 265.61 189.52L265.61 190.11L258.83 190.11L258.83 188.92L264.85 188.92L264.20 189.36Q264.20 188.50 263.93 187.83Q263.66 187.16 263.13 186.79Q262.59 186.41 261.80 186.41Q261.02 186.41 260.45 186.79Q259.89 187.18 259.59 187.80Q259.30 188.42 259.30 189.13L259.30 189.92Q259.30 190.89 259.63 191.57Q259.97 192.24 260.57 192.59Q261.18 192.94 261.98 192.94Q262.49 192.94 262.91 192.79Q263.34 192.64 263.64 192.34Q263.95 192.04 264.11 191.59L265.47 191.97Q265.27 192.63 264.78 193.13Q264.30 193.63 263.58 193.91Q262.87 194.19 261.97 194.19 M269.03 194L267.63 194L267.63 185.27L268.98 185.27L268.98 186.61L269.08 186.61Q269.32 185.95 269.94 185.54Q270.56 185.14 271.34 185.14Q271.50 185.14 271.71 185.15Q271.93 185.16 272.05 185.16L272.05 186.58Q271.99 186.56 271.74 186.53Q271.49 186.50 271.21 186.50Q270.59 186.50 270.09 186.76Q269.59 187.02 269.31 187.48Q269.03 187.94 269.03 188.53 M277.07 185.27L281.59 185.27L281.59 186.47L277.07 186.47L277.07 185.27M278.38 191.84L278.38 183.19L279.79 183.19L279.79 191.73Q279.79 192.32 280.03 192.59Q280.27 192.86 280.82 192.86Q280.95 192.86 281.16 192.83Q281.37 192.80 281.54 192.77L281.83 193.95Q281.61 194.03 281.33 194.07Q281.05 194.11 280.78 194.11Q279.65 194.11 279.02 193.51Q278.38 192.91 278.38 191.84 M284.79 188.77L284.79 194L283.38 194L283.38 182.36L284.79 182.36L284.79 187.38L284.55 187.38Q284.95 186.17 285.68 185.66Q286.42 185.16 287.41 185.16Q288.30 185.16 288.96 185.52Q289.63 185.88 290 186.61Q290.38 187.34 290.38 188.45L290.38 194L288.96 194L288.96 188.57Q288.96 187.56 288.43 186.99Q287.91 186.42 286.99 186.42Q286.37 186.42 285.87 186.70Q285.37 186.97 285.08 187.49Q284.79 188.02 284.79 188.77 M296.52 194.19Q295.25 194.19 294.33 193.63Q293.41 193.06 292.92 192.05Q292.42 191.05 292.42 189.70Q292.42 188.36 292.91 187.34Q293.39 186.31 294.28 185.73Q295.16 185.16 296.35 185.16Q297.05 185.16 297.72 185.39Q298.40 185.62 298.95 186.13Q299.50 186.64 299.83 187.48Q300.16 188.31 300.16 189.52L300.16 190.11L293.38 190.11L293.38 188.92L299.40 188.92L298.74 189.36Q298.74 188.50 298.47 187.83Q298.20 187.16 297.67 186.79Q297.14 186.41 296.35 186.41Q295.56 186.41 295 186.79Q294.44 187.18 294.14 187.80Q293.84 188.42 293.84 189.13L293.84 189.92Q293.84 190.89 294.18 191.57Q294.52 192.24 295.12 192.59Q295.73 192.94 296.52 192.94Q297.04 192.94 297.46 192.79Q297.88 192.64 298.19 192.34Q298.49 192.04 298.66 191.59L300.02 191.97Q299.81 192.63 299.33 193.13Q298.84 193.63 298.13 193.91Q297.41 194.19 296.52 194.19 M306.67 182.36L308.08 182.36L308.08 194L306.67 194 M312.99 194.20Q312.16 194.20 311.49 193.89Q310.81 193.58 310.41 192.98Q310.02 192.38 310.02 191.52Q310.02 190.77 310.31 190.30Q310.61 189.83 311.11 189.56Q311.60 189.29 312.20 189.16Q312.80 189.02 313.41 188.95Q314.20 188.84 314.69 188.79Q315.18 188.73 315.42 188.60Q315.66 188.47 315.66 188.15L315.66 188.10Q315.66 187.55 315.45 187.18Q315.25 186.80 314.84 186.59Q314.44 186.39 313.83 186.39Q313.20 186.39 312.76 186.59Q312.31 186.78 312.04 187.07Q311.76 187.37 311.62 187.67L310.27 187.23Q310.60 186.43 311.17 185.98Q311.74 185.53 312.43 185.34Q313.12 185.16 313.79 185.16Q314.23 185.16 314.79 185.26Q315.34 185.37 315.86 185.68Q316.38 185.99 316.72 186.61Q317.06 187.22 317.06 188.24L317.06 194L315.68 194L315.68 192.81L315.59 192.81Q315.44 193.12 315.11 193.44Q314.78 193.77 314.26 193.98Q313.73 194.20 312.99 194.20M313.23 192.96Q314.02 192.96 314.55 192.66Q315.09 192.35 315.38 191.86Q315.66 191.38 315.66 190.84L315.66 189.63Q315.57 189.73 315.28 189.82Q314.99 189.90 314.62 189.96Q314.25 190.02 313.90 190.07Q313.55 190.11 313.35 190.13Q312.84 190.20 312.40 190.35Q311.96 190.50 311.70 190.79Q311.43 191.09 311.43 191.59Q311.43 192.04 311.66 192.34Q311.90 192.65 312.30 192.80Q312.71 192.96 313.23 192.96 M326.15 194L319.28 194L319.28 192.95L324.18 186.66L324.18 186.57L319.44 186.57L319.44 185.27L325.99 185.27L325.99 186.38L321.23 192.61L321.23 192.70L326.15 192.70 M328.23 197.16L328.59 195.95L328.73 195.98Q329.16 196.09 329.52 196.04Q329.87 195.99 330.15 195.70Q330.43 195.40 330.64 194.77L330.89 194.05L327.55 185.27L329.09 185.27L330.95 190.45Q331.25 191.26 331.45 192.05Q331.66 192.85 331.88 193.60L331.37 193.60Q331.59 192.85 331.80 192.05Q332.01 191.25 332.30 190.45L334.17 185.27L335.70 185.27L331.87 195.30Q331.60 196 331.23 196.45Q330.86 196.90 330.37 197.11Q329.88 197.33 329.26 197.33Q328.88 197.33 328.61 197.27Q328.34 197.22 328.23 197.16 M345.13 194.19Q344.05 194.19 343.21 193.63Q342.38 193.08 341.91 192.06Q341.44 191.05 341.44 189.66Q341.44 188.27 341.91 187.26Q342.38 186.25 343.22 185.70Q344.05 185.16 345.14 185.16Q345.99 185.16 346.49 185.44Q346.99 185.72 347.26 186.07Q347.53 186.43 347.67 186.66L347.78 186.66L347.78 182.36L349.19 182.36L349.19 194L347.83 194L347.83 192.65L347.67 192.65Q347.53 192.89 347.25 193.25Q346.98 193.62 346.47 193.90Q345.97 194.19 345.13 194.19M345.34 192.93Q346.14 192.93 346.69 192.51Q347.23 192.09 347.52 191.35Q347.80 190.61 347.80 189.64Q347.80 188.67 347.52 187.95Q347.24 187.23 346.70 186.82Q346.15 186.41 345.34 186.41Q344.52 186.41 343.96 186.84Q343.41 187.27 343.14 188Q342.87 188.73 342.87 189.64Q342.87 190.55 343.14 191.30Q343.42 192.05 343.98 192.49Q344.53 192.93 345.34 192.93 M355.21 194.19Q354.02 194.19 353.13 193.63Q352.23 193.06 351.73 192.05Q351.23 191.03 351.23 189.69Q351.23 188.32 351.73 187.30Q352.23 186.28 353.13 185.72Q354.02 185.16 355.21 185.16Q356.41 185.16 357.30 185.72Q358.20 186.28 358.70 187.30Q359.20 188.32 359.20 189.69Q359.20 191.03 358.70 192.05Q358.20 193.06 357.30 193.63Q356.41 194.19 355.21 194.19M355.21 192.93Q356.09 192.93 356.66 192.48Q357.23 192.02 357.51 191.29Q357.78 190.55 357.78 189.69Q357.78 188.82 357.51 188.07Q357.23 187.33 356.66 186.87Q356.09 186.41 355.21 186.41Q354.34 186.41 353.77 186.87Q353.21 187.33 352.94 188.07Q352.66 188.81 352.66 189.69Q352.66 190.55 352.94 191.29Q353.21 192.02 353.77 192.48Q354.34 192.93 355.21 192.93 M364.79 197.45Q363.82 197.45 363.11 197.21Q362.41 196.96 361.94 196.55Q361.47 196.15 361.20 195.67L362.34 194.94Q362.52 195.19 362.80 195.49Q363.08 195.80 363.55 196.01Q364.02 196.23 364.79 196.23Q365.84 196.23 366.51 195.73Q367.19 195.23 367.19 194.15L367.19 192.40L367.05 192.40Q366.91 192.65 366.64 192.99Q366.37 193.34 365.86 193.60Q365.36 193.86 364.52 193.86Q363.47 193.86 362.63 193.36Q361.80 192.87 361.31 191.91Q360.83 190.96 360.83 189.59Q360.83 188.24 361.30 187.25Q361.78 186.25 362.62 185.70Q363.46 185.16 364.55 185.16Q365.39 185.16 365.89 185.43Q366.40 185.71 366.67 186.07Q366.95 186.43 367.09 186.66L367.23 186.66L367.23 185.27L368.59 185.27L368.59 194.23Q368.59 195.35 368.09 196.07Q367.58 196.78 366.71 197.12Q365.85 197.45 364.79 197.45M364.75 192.61Q365.55 192.61 366.09 192.25Q366.64 191.88 366.92 191.20Q367.20 190.52 367.20 189.56Q367.20 188.63 366.93 187.93Q366.65 187.22 366.10 186.82Q365.55 186.41 364.75 186.41Q363.92 186.41 363.37 186.84Q362.81 187.27 362.54 187.98Q362.26 188.69 362.26 189.56Q362.26 190.46 362.54 191.15Q362.82 191.84 363.38 192.22Q363.93 192.61 364.75 192.61 M372.13 194.10Q371.70 194.10 371.39 193.79Q371.08 193.48 371.08 193.05Q371.08 192.61 371.39 192.30Q371.70 191.99 372.13 191.99Q372.57 191.99 372.88 192.30Q373.19 192.61 373.19 193.05Q373.19 193.48 372.88 193.79Q372.57 194.10 372.13 194.10" fill="#1E293B"/><path d="M30.04 232L28.35 232L31.97 221.81L33.89 221.81L37.58 232L35.89 232L33.91 226.33Q33.67 225.64 33.40 224.71Q33.12 223.77 32.76 222.46L33.07 222.46Q32.72 223.78 32.45 224.73Q32.17 225.68 31.96 226.33L30.04 232M35.61 229.31L30.31 229.31L30.31 228.01L35.61 228.01 M43.29 232.14Q41.97 232.14 40.93 231.51Q39.89 230.89 39.29 229.71Q38.70 228.54 38.70 226.91Q38.70 225.28 39.29 224.11Q39.89 222.94 40.93 222.31Q41.97 221.68 43.29 221.68Q44.09 221.68 44.80 221.91Q45.51 222.14 46.06 222.59Q46.62 223.03 46.99 223.67Q47.35 224.30 47.48 225.11L45.92 225.11Q45.82 224.62 45.58 224.25Q45.34 223.88 44.99 223.62Q44.64 223.36 44.21 223.23Q43.78 223.10 43.30 223.10Q42.42 223.10 41.73 223.54Q41.04 223.98 40.64 224.83Q40.24 225.68 40.24 226.91Q40.24 228.14 40.65 229Q41.05 229.85 41.74 230.28Q42.43 230.71 43.30 230.71Q43.78 230.71 44.20 230.58Q44.63 230.45 44.98 230.19Q45.34 229.94 45.58 229.56Q45.82 229.18 45.92 228.71L47.49 228.71Q47.37 229.46 47.02 230.08Q46.66 230.71 46.11 231.17Q45.55 231.64 44.84 231.89Q44.13 232.14 43.29 232.14 M53.55 232.14Q52.23 232.14 51.19 231.51Q50.16 230.89 49.56 229.71Q48.97 228.54 48.97 226.91Q48.97 225.28 49.56 224.11Q50.16 222.94 51.19 222.31Q52.23 221.68 53.55 221.68Q54.36 221.68 55.07 221.91Q55.77 222.14 56.33 222.59Q56.89 223.03 57.25 223.67Q57.62 224.30 57.75 225.11L56.18 225.11Q56.09 224.62 55.85 224.25Q55.60 223.88 55.25 223.62Q54.91 223.36 54.48 223.23Q54.04 223.10 53.57 223.10Q52.69 223.10 52 223.54Q51.30 223.98 50.91 224.83Q50.51 225.68 50.51 226.91Q50.51 228.14 50.91 229Q51.32 229.85 52.01 230.28Q52.70 230.71 53.57 230.71Q54.04 230.71 54.47 230.58Q54.90 230.45 55.25 230.19Q55.60 229.94 55.85 229.56Q56.09 229.18 56.18 228.71L57.76 228.71Q57.64 229.46 57.29 230.08Q56.93 230.71 56.38 231.17Q55.82 231.64 55.11 231.89Q54.39 232.14 53.55 232.14 M66.04 232L59.59 232L59.59 221.81L66 221.81L66 223.15L61.15 223.15L61.15 226.19L65.65 226.19L65.65 227.52L61.15 227.52L61.15 230.66L66.04 230.66 M69.61 232L68.03 232L68.03 221.81L69.83 221.81L73.66 227.88Q73.86 228.18 74.09 228.60Q74.33 229.01 74.60 229.54Q74.87 230.06 75.13 230.67L74.94 230.67Q74.87 230.09 74.84 229.52Q74.81 228.95 74.80 228.45Q74.79 227.95 74.79 227.61L74.79 221.81L76.36 221.81L76.36 232L74.56 232L71.12 226.58Q70.85 226.13 70.58 225.68Q70.32 225.23 70 224.64Q69.69 224.05 69.23 223.20L69.47 223.20Q69.51 223.95 69.54 224.61Q69.58 225.26 69.59 225.76Q69.61 226.26 69.61 226.57 M81.29 223.15L78.11 223.15L78.11 221.81L86.02 221.81L86.02 223.15L82.85 223.15L82.85 232L81.29 232 M90.36 227.06L104.36 227.06L104.36 228.36L90.36 228.36 M115.81 232L109.08 232L109.08 230.87L112.54 227.30Q113.07 226.74 113.43 226.31Q113.78 225.88 113.97 225.48Q114.15 225.08 114.15 224.63Q114.15 224.12 113.92 223.75Q113.68 223.38 113.27 223.18Q112.87 222.98 112.35 222.98Q111.81 222.98 111.41 223.21Q111 223.43 110.78 223.83Q110.56 224.23 110.56 224.78L109.07 224.78Q109.07 223.85 109.50 223.15Q109.93 222.45 110.67 222.06Q111.42 221.68 112.38 221.68Q113.35 221.68 114.08 222.06Q114.82 222.44 115.23 223.10Q115.65 223.75 115.65 224.58Q115.65 225.14 115.44 225.67Q115.23 226.20 114.71 226.87Q114.19 227.54 113.24 228.50L111.24 230.58L111.24 230.67L115.81 230.67 M121.24 232.14Q120.05 232.14 119.22 231.52Q118.38 230.91 117.94 229.74Q117.50 228.58 117.50 226.91Q117.50 225.26 117.94 224.09Q118.38 222.92 119.22 222.30Q120.06 221.68 121.24 221.68Q122.42 221.68 123.26 222.30Q124.10 222.92 124.54 224.09Q124.99 225.26 124.99 226.91Q124.99 228.57 124.55 229.74Q124.11 230.91 123.27 231.52Q122.43 232.14 121.24 232.14M121.24 230.80Q121.95 230.80 122.44 230.34Q122.93 229.88 123.19 229.01Q123.44 228.14 123.44 226.91Q123.44 225.68 123.19 224.80Q122.93 223.93 122.44 223.47Q121.95 223 121.24 223Q120.54 223 120.05 223.47Q119.55 223.93 119.29 224.81Q119.03 225.68 119.03 226.91Q119.03 228.14 119.29 229.01Q119.55 229.88 120.05 230.34Q120.54 230.80 121.24 230.80 M133.47 232L126.75 232L126.75 230.87L130.20 227.30Q130.74 226.74 131.09 226.31Q131.45 225.88 131.63 225.48Q131.82 225.08 131.82 224.63Q131.82 224.12 131.58 223.75Q131.35 223.38 130.94 223.18Q130.53 222.98 130.01 222.98Q129.47 222.98 129.07 223.21Q128.67 223.43 128.45 223.83Q128.23 224.23 128.23 224.78L126.73 224.78Q126.73 223.85 127.16 223.15Q127.59 222.45 128.34 222.06Q129.08 221.68 130.04 221.68Q131.01 221.68 131.75 222.06Q132.48 222.44 132.90 223.10Q133.31 223.75 133.31 224.58Q133.31 225.14 133.11 225.67Q132.90 226.20 132.37 226.87Q131.85 227.54 130.90 228.50L128.91 230.58L128.91 230.67L133.47 230.67 M138.89 232.14Q138.21 232.14 137.54 231.89Q136.88 231.65 136.34 231.09Q135.80 230.54 135.48 229.59Q135.16 228.65 135.16 227.25Q135.16 225.92 135.43 224.89Q135.69 223.86 136.20 223.14Q136.71 222.42 137.42 222.05Q138.13 221.68 139.02 221.68Q139.92 221.68 140.63 222.04Q141.34 222.40 141.79 223.02Q142.24 223.65 142.34 224.47L140.81 224.47Q140.66 223.84 140.20 223.44Q139.75 223.04 139.02 223.04Q138.28 223.04 137.75 223.48Q137.22 223.92 136.94 224.74Q136.66 225.55 136.66 226.71L136.74 226.71Q137 226.28 137.38 225.97Q137.76 225.66 138.25 225.49Q138.73 225.33 139.26 225.33Q140.15 225.33 140.87 225.76Q141.59 226.18 142.01 226.94Q142.44 227.70 142.44 228.67Q142.44 229.65 142 230.43Q141.55 231.22 140.76 231.68Q139.96 232.14 138.89 232.14M138.89 230.82Q139.47 230.82 139.92 230.54Q140.38 230.25 140.65 229.77Q140.92 229.29 140.92 228.69Q140.92 228.10 140.66 227.63Q140.40 227.15 139.95 226.87Q139.49 226.59 138.91 226.59Q138.48 226.59 138.10 226.76Q137.73 226.93 137.45 227.23Q137.17 227.52 137.01 227.90Q136.86 228.28 136.86 228.71Q136.86 229.27 137.12 229.75Q137.38 230.24 137.84 230.53Q138.30 230.82 138.89 230.82" fill="#0E7490"/></svg>