<svg xmlns="http://www.w3.org/2000/svg" width="480" height="300" viewBox="0 0 480 300" role="img"><rect width="480" height="300" fill="#FBF6EC"/><rect x="0" y="0" width="240" height="84" fill="#9A3412"/><rect x="240" y="0" width="120" height="84" fill="#4D5320"/><rect x="360" y="0" width="72" height="84" fill="#2A2118"/><rect x="432" y="0" width="48" height="84" fill="#B45309"/><path d="M48.15 154L48.15 153.12Q49.56 153.03 50.26 152.77Q50.97 152.50 51.21 151.71Q51.45 150.92 51.45 149.34L51.45 127.51Q51.45 125.88 51.21 125.11Q50.97 124.34 50.24 124.06Q49.52 123.77 48.15 123.73L48.15 122.85Q49.34 122.89 51.25 122.94Q53.17 122.98 55.06 122.98Q57.08 122.98 58.87 122.94Q60.65 122.89 61.75 122.85L61.75 123.73Q60.34 123.77 59.61 124.06Q58.89 124.34 58.67 125.11Q58.45 125.88 58.45 127.51L58.45 149.34Q58.45 150.92 58.69 151.71Q58.93 152.50 59.64 152.77Q60.34 153.03 61.75 153.12L61.75 154Q60.65 153.91 58.87 153.89Q57.08 153.87 55.06 153.87Q53.17 153.87 51.25 153.89Q49.34 153.91 48.15 154M29.50 154L29.50 153.12Q30.90 153.03 31.61 152.77Q32.31 152.50 32.55 151.71Q32.80 150.92 32.80 149.34L32.80 127.51Q32.80 125.88 32.55 125.11Q32.31 124.34 31.59 124.06Q30.86 123.77 29.50 123.73L29.50 122.85Q30.64 122.89 32.47 122.94Q34.29 122.98 36.45 122.98Q38.30 122.98 40.10 122.94Q41.90 122.89 43.09 122.85L43.09 123.73Q41.68 123.77 40.96 124.06Q40.23 124.34 40.01 125.11Q39.79 125.88 39.79 127.51L39.79 149.34Q39.79 150.92 40.03 151.71Q40.28 152.50 40.98 152.77Q41.68 153.03 43.09 153.12L43.09 154Q41.90 153.91 40.10 153.89Q38.30 153.87 36.45 153.87Q34.29 153.87 32.47 153.89Q30.64 153.91 29.50 154M54.31 138.78L36.93 138.78L36.93 137.90L54.31 137.90 M75.61 130.64Q79.48 130.64 81.68 132.92Q83.88 135.21 83.88 140.40L69.40 140.40L69.32 139.57L78.34 139.57Q78.38 137.41 78.07 135.59Q77.76 133.76 77.10 132.66Q76.44 131.56 75.34 131.56Q73.80 131.56 72.73 133.50Q71.65 135.43 71.43 139.92L71.56 140.18Q71.52 140.71 71.49 141.28Q71.47 141.86 71.47 142.47Q71.47 145.51 72.33 147.40Q73.19 149.29 74.51 150.15Q75.83 151.01 77.19 151.01Q78.12 151.01 79.11 150.72Q80.10 150.44 81.11 149.67Q82.12 148.90 83 147.49L83.79 147.75Q83.26 149.42 82.12 151.01Q80.98 152.59 79.22 153.60Q77.46 154.62 74.99 154.62Q72 154.62 69.71 153.34Q67.42 152.06 66.13 149.47Q64.83 146.87 64.83 142.87Q64.83 138.78 66.21 136.05Q67.60 133.32 70.04 131.98Q72.48 130.64 75.61 130.64 M92.50 154.31Q90.52 154.31 89.20 153.56Q87.88 152.81 87.27 151.56Q86.65 150.30 86.65 148.81Q86.65 146.92 87.51 145.73Q88.37 144.54 89.73 143.79Q91.10 143.04 92.61 142.56Q94.13 142.08 95.52 141.61Q96.90 141.15 97.76 140.51Q98.62 139.88 98.62 138.86L98.62 135.43Q98.62 134.29 98.25 133.39Q97.87 132.48 97.10 132Q96.33 131.52 95.10 131.52Q94.22 131.52 93.34 131.76Q92.46 132 91.89 132.57Q93.12 133.01 93.80 133.91Q94.48 134.82 94.48 135.96Q94.48 137.46 93.45 138.34Q92.42 139.22 91.01 139.22Q89.42 139.22 88.61 138.23Q87.80 137.24 87.80 135.83Q87.80 134.55 88.43 133.72Q89.07 132.88 90.22 132.13Q91.45 131.43 93.19 131.03Q94.92 130.64 96.95 130.64Q98.97 130.64 100.60 131.05Q102.23 131.47 103.33 132.57Q104.34 133.58 104.65 135.06Q104.96 136.53 104.96 138.78L104.96 150.74Q104.96 151.84 105.18 152.26Q105.40 152.68 105.92 152.68Q106.32 152.68 106.69 152.46Q107.07 152.24 107.51 151.93L107.95 152.68Q107.02 153.47 105.81 153.89Q104.60 154.31 103.11 154.31Q101.48 154.31 100.51 153.85Q99.54 153.38 99.13 152.59Q98.71 151.80 98.71 150.74Q97.65 152.42 96.16 153.36Q94.66 154.31 92.50 154.31M95.63 151.49Q96.51 151.49 97.23 151.07Q97.96 150.66 98.62 149.69L98.62 140.67Q98.22 141.33 97.52 141.86Q96.82 142.38 96.02 142.93Q95.23 143.48 94.51 144.14Q93.78 144.80 93.34 145.77Q92.90 146.74 92.90 148.10Q92.90 149.82 93.65 150.66Q94.40 151.49 95.63 151.49 M130.87 119.55L130.87 149.16Q130.87 151.14 131.49 152.09Q132.10 153.03 133.69 153.03L133.69 153.96Q132.32 153.82 130.96 153.82Q129.11 153.82 127.51 153.96Q125.90 154.09 124.54 154.44L124.54 124.83Q124.54 122.85 123.94 121.90Q123.35 120.96 121.72 120.96L121.72 120.03Q123.13 120.16 124.45 120.16Q126.25 120.16 127.88 120.01Q129.51 119.86 130.87 119.55M119.65 130.64Q121.59 130.64 123.06 131.27Q124.54 131.91 125.37 133.41L124.84 133.89Q124.27 132.84 123.33 132.37Q122.38 131.91 121.32 131.91Q119.08 131.91 117.76 134.53Q116.44 137.15 116.48 142.60Q116.48 146.34 116.99 148.57Q117.50 150.79 118.44 151.76Q119.39 152.72 120.62 152.72Q122.12 152.72 123.30 151.54Q124.49 150.35 124.58 148.32L124.80 149.86Q124.14 152.20 122.67 153.41Q121.19 154.62 118.82 154.62Q116.22 154.62 114.17 153.34Q112.13 152.06 110.98 149.40Q109.84 146.74 109.84 142.52Q109.84 138.51 111.12 135.89Q112.39 133.28 114.61 131.96Q116.84 130.64 119.65 130.64 M141.26 119.90Q143.10 119.90 144.18 120.80Q145.26 121.70 145.26 123.29Q145.26 124.87 144.18 125.77Q143.10 126.68 141.26 126.68Q139.41 126.68 138.33 125.77Q137.25 124.87 137.25 123.29Q137.25 121.70 138.33 120.80Q139.41 119.90 141.26 119.90M144.69 130.77L144.69 149.91Q144.69 151.76 145.33 152.42Q145.96 153.08 147.50 153.08L147.50 154Q146.71 153.96 145.04 153.89Q143.37 153.82 141.65 153.82Q139.94 153.82 138.18 153.89Q136.42 153.96 135.54 154L135.54 153.08Q137.08 153.08 137.71 152.42Q138.35 151.76 138.35 149.91L138.35 136.05Q138.35 134.07 137.76 133.12Q137.16 132.18 135.54 132.18L135.54 131.25Q136.94 131.38 138.26 131.38Q140.11 131.38 141.72 131.23Q143.32 131.08 144.69 130.77 M165.76 130.64Q167.61 130.64 168.78 131.10Q169.94 131.56 170.60 132.35Q171.31 133.19 171.64 134.51Q171.97 135.83 171.97 138.07L171.97 149.91Q171.97 151.76 172.61 152.42Q173.24 153.08 174.78 153.08L174.78 154Q173.95 153.96 172.28 153.89Q170.60 153.82 168.98 153.82Q167.30 153.82 165.70 153.89Q164.09 153.96 163.26 154L163.26 153.08Q164.58 153.08 165.10 152.42Q165.63 151.76 165.63 149.91L165.63 136.22Q165.63 135.12 165.41 134.31Q165.19 133.50 164.62 133.03Q164.05 132.57 162.90 132.57Q161.72 132.57 160.73 133.23Q159.74 133.89 159.14 135.06Q158.55 136.22 158.55 137.68L158.55 149.91Q158.55 151.76 159.10 152.42Q159.65 153.08 160.92 153.08L160.92 154Q160.13 153.96 158.61 153.89Q157.10 153.82 155.47 153.82Q153.80 153.82 152.04 153.89Q150.28 153.96 149.40 154L149.40 153.08Q150.94 153.08 151.57 152.42Q152.21 151.76 152.21 149.91L152.21 136.05Q152.21 134.07 151.62 133.12Q151.02 132.18 149.40 132.18L149.40 131.25Q150.80 131.38 152.12 131.38Q153.97 131.38 155.58 131.23Q157.18 131.08 158.55 130.77L158.55 134.73Q159.65 132.48 161.54 131.56Q163.43 130.64 165.76 130.64 M184.95 162.27Q182.22 162.27 180.09 161.81Q177.95 161.35 176.74 160.40Q175.53 159.46 175.53 158.09Q175.53 156.73 176.76 155.65Q178 154.57 180.42 153.96L180.81 154.66Q179.98 155.32 179.60 156.09Q179.23 156.86 179.23 157.70Q179.23 159.54 180.92 160.53Q182.62 161.52 185.52 161.52Q187.50 161.52 189.06 161Q190.62 160.47 191.53 159.41Q192.43 158.36 192.43 156.82Q192.43 155.50 191.46 154.59Q190.49 153.69 187.59 153.69L184.86 153.69Q183.06 153.69 181.71 153.30Q180.37 152.90 179.62 152.04Q178.88 151.18 178.88 149.86Q178.88 148.02 180.33 146.61Q181.78 145.20 184.64 143.97L185.08 144.32Q184.24 144.85 183.52 145.44Q182.79 146.04 182.79 146.96Q182.79 148.37 184.55 148.37L189.35 148.37Q191.77 148.37 193.68 148.94Q195.60 149.51 196.72 150.81Q197.84 152.11 197.84 154.18Q197.84 156.33 196.45 158.18Q195.07 160.03 192.21 161.15Q189.35 162.27 184.95 162.27M185.39 144.63Q182.88 144.63 180.90 143.88Q178.92 143.13 177.78 141.59Q176.63 140.05 176.63 137.63Q176.63 135.21 177.78 133.65Q178.92 132.09 180.90 131.36Q182.88 130.64 185.39 130.64Q187.90 130.64 189.88 131.36Q191.86 132.09 193 133.65Q194.14 135.21 194.14 137.63Q194.14 140.05 193 141.59Q191.86 143.13 189.88 143.88Q187.90 144.63 185.39 144.63M185.39 143.84Q186.58 143.84 187.24 142.49Q187.90 141.15 187.90 137.63Q187.90 134.11 187.24 132.77Q186.58 131.43 185.39 131.43Q184.24 131.43 183.56 132.77Q182.88 134.11 182.88 137.63Q182.88 141.15 183.56 142.49Q184.24 143.84 185.39 143.84M192.25 134.42L191.37 134.11Q192.03 132.40 193.51 131.25Q194.98 130.11 196.70 130.11Q198.10 130.11 198.83 130.88Q199.56 131.65 199.56 132.88Q199.56 134.20 198.85 134.84Q198.15 135.48 197.27 135.48Q196.52 135.48 195.88 134.95Q195.24 134.42 195.16 133.34Q195.07 132.26 195.90 130.55L196.21 130.81Q194.54 131.43 193.70 132.24Q192.87 133.06 192.25 134.42" fill="#2A2118"/><path d="M28.22 182.54L37.20 182.54L37.20 183.84L33.50 183.84L33.50 194L31.94 194L31.94 183.84L28.22 183.84 M40.03 194L38.61 194L38.61 182.22L40.03 182.22L40.03 186.98Q40.55 186.43 41.18 186.10Q41.82 185.77 42.64 185.77Q43.30 185.77 43.81 185.99Q44.32 186.21 44.66 186.61Q45 187.02 45.18 187.58Q45.35 188.15 45.35 188.84L45.35 194L43.93 194L43.93 188.84Q43.93 187.92 43.51 187.41Q43.09 186.90 42.22 186.90Q41.59 186.90 41.04 187.21Q40.50 187.51 40.03 188.03 M50.71 185.77Q51.44 185.77 52.06 186.01Q52.67 186.26 53.12 186.72Q53.57 187.18 53.82 187.85Q54.07 188.53 54.07 189.39Q54.07 189.73 54 189.84Q53.93 189.95 53.73 189.95L48.34 189.95Q48.35 190.72 48.54 191.29Q48.74 191.86 49.07 192.24Q49.41 192.62 49.87 192.80Q50.34 192.99 50.91 192.99Q51.45 192.99 51.84 192.87Q52.22 192.74 52.50 192.60Q52.78 192.46 52.97 192.33Q53.16 192.21 53.30 192.21Q53.47 192.21 53.57 192.34L53.97 192.86Q53.70 193.18 53.34 193.42Q52.97 193.66 52.55 193.81Q52.13 193.96 51.68 194.04Q51.23 194.11 50.79 194.11Q49.95 194.11 49.24 193.83Q48.54 193.54 48.02 193Q47.50 192.45 47.22 191.64Q46.93 190.83 46.93 189.78Q46.93 188.94 47.19 188.20Q47.45 187.46 47.94 186.92Q48.42 186.38 49.13 186.08Q49.83 185.77 50.71 185.77M50.74 186.82Q49.71 186.82 49.12 187.41Q48.53 188.01 48.38 189.06L52.79 189.06Q52.79 188.57 52.66 188.16Q52.52 187.74 52.26 187.44Q51.99 187.14 51.61 186.98Q51.23 186.82 50.74 186.82 M64.68 185.90L65.53 185.90L65.53 196.74L64.10 196.74L64.10 192.80Q63.59 193.39 62.94 193.75Q62.29 194.11 61.45 194.11Q60.75 194.11 60.18 193.84Q59.62 193.58 59.22 193.06Q58.82 192.54 58.60 191.76Q58.38 190.98 58.38 189.98Q58.38 189.08 58.62 188.31Q58.86 187.54 59.32 186.97Q59.77 186.40 60.42 186.08Q61.06 185.75 61.89 185.75Q62.67 185.75 63.22 186.03Q63.77 186.31 64.20 186.82L64.30 186.19Q64.38 185.90 64.68 185.90M61.92 192.96Q62.62 192.96 63.14 192.64Q63.66 192.32 64.10 191.74L64.10 187.82Q63.72 187.30 63.25 187.08Q62.78 186.86 62.21 186.86Q61.07 186.86 60.46 187.67Q59.86 188.48 59.86 189.98Q59.86 190.77 59.99 191.33Q60.13 191.90 60.39 192.26Q60.66 192.62 61.04 192.79Q61.42 192.96 61.92 192.96 M67.73 185.90L69.15 185.90L69.15 191.06Q69.15 191.98 69.58 192.49Q70 192.99 70.86 192.99Q71.48 192.99 72.03 192.70Q72.58 192.40 73.05 191.87L73.05 185.90L74.47 185.90L74.47 194L73.62 194Q73.32 194 73.24 193.70L73.13 192.83Q72.60 193.42 71.94 193.77Q71.29 194.13 70.44 194.13Q69.78 194.13 69.27 193.91Q68.76 193.69 68.42 193.29Q68.07 192.89 67.90 192.32Q67.73 191.75 67.73 191.06 M76.98 185.90L78.40 185.90L78.40 194L76.98 194L76.98 185.90M78.72 183.35Q78.72 183.56 78.64 183.74Q78.55 183.92 78.41 184.06Q78.27 184.20 78.09 184.28Q77.90 184.36 77.70 184.36Q77.49 184.36 77.31 184.28Q77.13 184.20 76.99 184.06Q76.85 183.92 76.77 183.74Q76.69 183.56 76.69 183.35Q76.69 183.14 76.77 182.96Q76.85 182.77 76.99 182.63Q77.13 182.49 77.31 182.41Q77.49 182.33 77.70 182.33Q77.90 182.33 78.09 182.41Q78.27 182.49 78.41 182.63Q78.55 182.77 78.64 182.96Q78.72 183.14 78.72 183.35 M86.82 186.82L86.44 187.34Q86.38 187.42 86.31 187.47Q86.25 187.52 86.13 187.52Q86.01 187.52 85.87 187.42Q85.73 187.32 85.51 187.20Q85.30 187.08 84.99 186.98Q84.68 186.88 84.23 186.88Q83.64 186.88 83.18 187.09Q82.73 187.30 82.42 187.70Q82.11 188.10 81.96 188.67Q81.80 189.24 81.80 189.94Q81.80 190.68 81.97 191.25Q82.14 191.82 82.44 192.21Q82.74 192.60 83.18 192.80Q83.62 193.01 84.16 193.01Q84.68 193.01 85.02 192.88Q85.35 192.76 85.58 192.61Q85.80 192.46 85.94 192.33Q86.09 192.21 86.23 192.21Q86.42 192.21 86.50 192.34L86.90 192.86Q86.38 193.51 85.58 193.81Q84.79 194.11 83.91 194.11Q83.15 194.11 82.50 193.83Q81.85 193.55 81.37 193.02Q80.89 192.49 80.61 191.71Q80.34 190.94 80.34 189.94Q80.34 189.04 80.59 188.27Q80.84 187.50 81.32 186.95Q81.81 186.39 82.52 186.08Q83.23 185.77 84.15 185.77Q85 185.77 85.66 186.04Q86.31 186.32 86.82 186.82 M88.43 182.22L89.86 182.22L89.86 189.15L90.23 189.15Q90.39 189.15 90.50 189.11Q90.60 189.06 90.73 188.93L93.29 186.18Q93.41 186.06 93.53 185.98Q93.65 185.90 93.85 185.90L95.14 185.90L92.16 189.07Q92.05 189.21 91.94 189.31Q91.83 189.42 91.70 189.50Q91.84 189.59 91.96 189.72Q92.07 189.84 92.18 190L95.34 194L94.06 194Q93.89 194 93.76 193.93Q93.64 193.86 93.53 193.72L90.86 190.40Q90.74 190.23 90.62 190.18Q90.50 190.13 90.26 190.13L89.86 190.13L89.86 194L88.43 194 M100.82 194L99.90 194L99.90 182.22L101.34 182.22L101.34 187.06Q101.84 186.48 102.49 186.12Q103.14 185.77 103.98 185.77Q104.69 185.77 105.26 186.03Q105.82 186.30 106.22 186.82Q106.62 187.34 106.84 188.12Q107.06 188.89 107.06 189.90Q107.06 190.79 106.82 191.56Q106.58 192.34 106.12 192.90Q105.67 193.46 105.02 193.79Q104.37 194.11 103.55 194.11Q102.77 194.11 102.22 193.81Q101.67 193.50 101.26 192.96L101.19 193.70Q101.13 194 100.82 194M103.52 186.90Q102.82 186.90 102.30 187.22Q101.78 187.54 101.34 188.13L101.34 192.05Q101.72 192.58 102.19 192.79Q102.66 193.01 103.23 193.01Q104.37 193.01 104.98 192.20Q105.58 191.39 105.58 189.90Q105.58 189.10 105.44 188.54Q105.30 187.97 105.04 187.60Q104.78 187.24 104.39 187.07Q104.01 186.90 103.52 186.90 M110.22 194L108.80 194L108.80 185.90L109.62 185.90Q109.85 185.90 109.94 185.98Q110.02 186.07 110.06 186.29L110.15 187.55Q110.57 186.70 111.18 186.23Q111.79 185.75 112.62 185.75Q112.95 185.75 113.22 185.83Q113.50 185.90 113.73 186.04L113.54 187.10Q113.49 187.30 113.30 187.30Q113.18 187.30 112.95 187.23Q112.72 187.15 112.30 187.15Q111.56 187.15 111.06 187.58Q110.56 188.02 110.22 188.84 M118.53 185.77Q119.42 185.77 120.13 186.06Q120.85 186.36 121.35 186.90Q121.85 187.45 122.12 188.22Q122.38 188.99 122.38 189.94Q122.38 190.90 122.12 191.67Q121.85 192.44 121.35 192.98Q120.85 193.53 120.13 193.82Q119.42 194.11 118.53 194.11Q117.64 194.11 116.92 193.82Q116.21 193.53 115.70 192.98Q115.20 192.44 114.93 191.67Q114.66 190.90 114.66 189.94Q114.66 188.99 114.93 188.22Q115.20 187.45 115.70 186.90Q116.21 186.36 116.92 186.06Q117.64 185.77 118.53 185.77M118.53 193Q119.73 193 120.32 192.20Q120.91 191.39 120.91 189.95Q120.91 188.50 120.32 187.70Q119.73 186.89 118.53 186.89Q117.92 186.89 117.47 187.10Q117.02 187.30 116.72 187.70Q116.42 188.09 116.28 188.66Q116.13 189.23 116.13 189.95Q116.13 190.67 116.28 191.24Q116.42 191.81 116.72 192.20Q117.02 192.58 117.47 192.79Q117.92 193 118.53 193 M125.71 194L123.09 185.90L124.21 185.90Q124.38 185.90 124.50 185.98Q124.61 186.07 124.65 186.19L126.20 191.41Q126.26 191.70 126.32 191.96Q126.38 192.23 126.42 192.50Q126.48 192.23 126.56 191.96Q126.64 191.70 126.73 191.41L128.44 186.16Q128.48 186.04 128.58 185.96Q128.68 185.88 128.83 185.88L129.45 185.88Q129.61 185.88 129.71 185.96Q129.82 186.04 129.86 186.16L131.53 191.41Q131.62 191.69 131.68 191.96Q131.75 192.23 131.82 192.50Q131.86 192.23 131.92 191.94Q131.98 191.66 132.06 191.41L133.64 186.19Q133.68 186.06 133.79 185.98Q133.90 185.90 134.06 185.90L135.13 185.90L132.50 194L131.38 194Q131.17 194 131.09 193.73L129.30 188.23Q129.23 188.05 129.19 187.86Q129.15 187.67 129.11 187.49Q129.07 187.67 129.03 187.86Q128.99 188.06 128.93 188.24L127.11 193.73Q127.02 194 126.78 194 M137.82 194L136.40 194L136.40 185.90L137.25 185.90Q137.55 185.90 137.63 186.19L137.74 187.07Q138.27 186.49 138.92 186.13Q139.58 185.77 140.43 185.77Q141.10 185.77 141.60 185.99Q142.11 186.21 142.45 186.61Q142.79 187.02 142.97 187.58Q143.14 188.15 143.14 188.84L143.14 194L141.72 194L141.72 188.84Q141.72 187.92 141.30 187.41Q140.88 186.90 140.02 186.90Q139.38 186.90 138.84 187.21Q138.29 187.51 137.82 188.03 M150.14 194L148.70 194L148.70 187.11L147.81 187.01Q147.64 186.97 147.53 186.88Q147.42 186.80 147.42 186.64L147.42 186.06L148.70 186.06L148.70 185.27Q148.70 184.58 148.90 184.04Q149.10 183.50 149.46 183.12Q149.82 182.75 150.34 182.56Q150.85 182.37 151.49 182.37Q152.03 182.37 152.50 182.53L152.46 183.24Q152.46 183.40 152.33 183.43Q152.20 183.46 151.97 183.46L151.72 183.46Q151.35 183.46 151.05 183.56Q150.75 183.66 150.54 183.87Q150.32 184.09 150.20 184.44Q150.09 184.79 150.09 185.31L150.09 186.06L152.43 186.06L152.43 187.09L150.14 187.09 M157.06 185.77Q157.94 185.77 158.66 186.06Q159.38 186.36 159.88 186.90Q160.38 187.45 160.64 188.22Q160.91 188.99 160.91 189.94Q160.91 190.90 160.64 191.67Q160.38 192.44 159.88 192.98Q159.38 193.53 158.66 193.82Q157.94 194.11 157.06 194.11Q156.17 194.11 155.45 193.82Q154.74 193.53 154.23 192.98Q153.73 192.44 153.46 191.67Q153.18 190.90 153.18 189.94Q153.18 188.99 153.46 188.22Q153.73 187.45 154.23 186.90Q154.74 186.36 155.45 186.06Q156.17 185.77 157.06 185.77M157.06 193Q158.26 193 158.85 192.20Q159.44 191.39 159.44 189.95Q159.44 188.50 158.85 187.70Q158.26 186.89 157.06 186.89Q156.45 186.89 156 187.10Q155.55 187.30 155.25 187.70Q154.95 188.09 154.80 188.66Q154.66 189.23 154.66 189.95Q154.66 190.67 154.80 191.24Q154.95 191.81 155.25 192.20Q155.55 192.58 156 192.79Q156.45 193 157.06 193 M161.25 194L164.09 189.85L161.36 185.90L162.73 185.90Q162.90 185.90 162.98 185.95Q163.06 186.01 163.13 186.11L165.11 189.15Q165.18 188.93 165.32 188.70L167.06 186.14Q167.14 186.03 167.22 185.96Q167.30 185.90 167.42 185.90L168.74 185.90L166.01 189.77L168.85 194L167.48 194Q167.30 194 167.20 193.91Q167.10 193.82 167.04 193.70L165 190.53Q164.94 190.76 164.83 190.94L162.94 193.70Q162.86 193.82 162.77 193.91Q162.68 194 162.52 194 M173.50 185.90L174.93 185.90L174.93 194.60Q174.93 195.09 174.80 195.51Q174.67 195.93 174.40 196.24Q174.12 196.55 173.68 196.73Q173.25 196.91 172.64 196.91Q172.38 196.91 172.16 196.87Q171.94 196.83 171.73 196.75L171.79 195.98Q171.81 195.88 171.86 195.85Q171.92 195.82 172.04 195.82Q172.10 195.82 172.18 195.83Q172.25 195.83 172.35 195.83Q172.98 195.83 173.24 195.54Q173.50 195.25 173.50 194.60L173.50 185.90M175.25 183.35Q175.25 183.56 175.16 183.74Q175.08 183.92 174.94 184.06Q174.80 184.20 174.62 184.28Q174.43 184.36 174.22 184.36Q174.02 184.36 173.84 184.28Q173.66 184.20 173.52 184.06Q173.38 183.92 173.30 183.74Q173.22 183.56 173.22 183.35Q173.22 183.14 173.30 182.96Q173.38 182.77 173.52 182.63Q173.66 182.49 173.84 182.41Q174.02 182.33 174.22 182.33Q174.43 182.33 174.62 182.41Q174.80 182.49 174.94 182.63Q175.08 182.77 175.16 182.96Q175.25 183.14 175.25 183.35 M177.22 185.90L178.64 185.90L178.64 191.06Q178.64 191.98 179.06 192.49Q179.49 192.99 180.34 192.99Q180.97 192.99 181.52 192.70Q182.07 192.40 182.54 191.87L182.54 185.90L183.96 185.90L183.96 194L183.11 194Q182.81 194 182.73 193.70L182.62 192.83Q182.09 193.42 181.43 193.77Q180.78 194.13 179.93 194.13Q179.26 194.13 178.76 193.91Q178.25 193.69 177.90 193.29Q177.56 192.89 177.39 192.32Q177.22 191.75 177.22 191.06 M187.73 194L186.30 194L186.30 185.90L187.15 185.90Q187.46 185.90 187.54 186.19L187.64 187.02Q188.09 186.47 188.64 186.12Q189.20 185.77 189.94 185.77Q190.76 185.77 191.27 186.22Q191.78 186.68 192 187.46Q192.17 187.02 192.44 186.70Q192.72 186.38 193.06 186.17Q193.41 185.96 193.80 185.86Q194.18 185.77 194.58 185.77Q195.22 185.77 195.72 185.97Q196.22 186.18 196.57 186.57Q196.92 186.96 197.10 187.53Q197.29 188.10 197.29 188.84L197.29 194L195.86 194L195.86 188.84Q195.86 187.89 195.45 187.40Q195.03 186.90 194.24 186.90Q193.89 186.90 193.57 187.03Q193.26 187.15 193.02 187.39Q192.78 187.63 192.64 188Q192.50 188.36 192.50 188.84L192.50 194L191.07 194L191.07 188.84Q191.07 187.86 190.68 187.38Q190.29 186.90 189.54 186.90Q189.01 186.90 188.56 187.19Q188.10 187.47 187.73 187.96 M200.86 196.74L199.44 196.74L199.44 185.90L200.29 185.90Q200.59 185.90 200.67 186.19L200.79 187.15Q201.31 186.52 201.98 186.14Q202.65 185.75 203.52 185.75Q204.22 185.75 204.78 186.02Q205.35 186.29 205.75 186.81Q206.15 187.34 206.37 188.11Q206.58 188.89 206.58 189.90Q206.58 190.79 206.34 191.56Q206.10 192.34 205.66 192.90Q205.21 193.46 204.56 193.79Q203.90 194.11 203.09 194.11Q202.34 194.11 201.80 193.86Q201.27 193.62 200.86 193.16L200.86 196.74M203.05 186.90Q202.35 186.90 201.83 187.22Q201.30 187.54 200.86 188.13L200.86 192.05Q201.26 192.58 201.72 192.79Q202.19 193.01 202.77 193.01Q203.90 193.01 204.50 192.20Q205.11 191.39 205.11 189.90Q205.11 189.10 204.97 188.54Q204.83 187.97 204.57 187.60Q204.30 187.24 203.92 187.07Q203.54 186.90 203.05 186.90 M213.23 186.71L212.91 187.23Q212.82 187.41 212.62 187.41Q212.50 187.41 212.34 187.32Q212.19 187.23 211.97 187.12Q211.75 187.02 211.45 186.92Q211.14 186.83 210.73 186.83Q210.37 186.83 210.08 186.92Q209.79 187.02 209.59 187.18Q209.38 187.34 209.28 187.55Q209.17 187.76 209.17 188.01Q209.17 188.32 209.35 188.53Q209.53 188.74 209.82 188.89Q210.12 189.04 210.50 189.16Q210.87 189.27 211.27 189.40Q211.66 189.54 212.04 189.70Q212.42 189.86 212.71 190.10Q213.01 190.34 213.19 190.68Q213.37 191.03 213.37 191.52Q213.37 192.08 213.17 192.56Q212.97 193.03 212.58 193.38Q212.18 193.73 211.62 193.93Q211.05 194.13 210.30 194.13Q209.46 194.13 208.77 193.85Q208.08 193.58 207.60 193.14L207.94 192.60Q208 192.50 208.09 192.44Q208.18 192.38 208.32 192.38Q208.46 192.38 208.62 192.50Q208.78 192.61 209.01 192.74Q209.24 192.88 209.56 192.99Q209.89 193.10 210.38 193.10Q210.79 193.10 211.10 193Q211.42 192.89 211.62 192.70Q211.83 192.52 211.93 192.28Q212.03 192.04 212.03 191.77Q212.03 191.43 211.85 191.21Q211.67 190.99 211.38 190.84Q211.08 190.68 210.70 190.56Q210.32 190.45 209.92 190.32Q209.53 190.19 209.15 190.03Q208.77 189.86 208.47 189.62Q208.18 189.37 208 189Q207.82 188.64 207.82 188.12Q207.82 187.66 208.01 187.23Q208.20 186.80 208.57 186.48Q208.94 186.15 209.47 185.96Q210.01 185.77 210.70 185.77Q211.50 185.77 212.13 186.02Q212.77 186.27 213.23 186.71 M221.58 185.77Q222.47 185.77 223.19 186.06Q223.90 186.36 224.40 186.90Q224.90 187.45 225.17 188.22Q225.44 188.99 225.44 189.94Q225.44 190.90 225.17 191.67Q224.90 192.44 224.40 192.98Q223.90 193.53 223.19 193.82Q222.47 194.11 221.58 194.11Q220.70 194.11 219.98 193.82Q219.26 193.53 218.76 192.98Q218.26 192.44 217.98 191.67Q217.71 190.90 217.71 189.94Q217.71 188.99 217.98 188.22Q218.26 187.45 218.76 186.90Q219.26 186.36 219.98 186.06Q220.70 185.77 221.58 185.77M221.58 193Q222.78 193 223.38 192.20Q223.97 191.39 223.97 189.95Q223.97 188.50 223.38 187.70Q222.78 186.89 221.58 186.89Q220.98 186.89 220.53 187.10Q220.08 187.30 219.78 187.70Q219.48 188.09 219.33 188.66Q219.18 189.23 219.18 189.95Q219.18 190.67 219.33 191.24Q219.48 191.81 219.78 192.20Q220.08 192.58 220.53 192.79Q220.98 193 221.58 193 M229.27 194L225.97 185.90L227.14 185.90Q227.30 185.90 227.42 185.98Q227.53 186.07 227.58 186.19L229.63 191.41Q229.74 191.70 229.81 191.98Q229.87 192.27 229.93 192.55Q229.99 192.27 230.06 191.98Q230.14 191.70 230.25 191.41L232.33 186.19Q232.38 186.06 232.48 185.98Q232.59 185.90 232.75 185.90L233.86 185.90L230.56 194 M238.18 185.77Q238.91 185.77 239.53 186.01Q240.14 186.26 240.59 186.72Q241.04 187.18 241.29 187.85Q241.54 188.53 241.54 189.39Q241.54 189.73 241.47 189.84Q241.40 189.95 241.20 189.95L235.81 189.95Q235.82 190.72 236.02 191.29Q236.21 191.86 236.54 192.24Q236.88 192.62 237.34 192.80Q237.81 192.99 238.38 192.99Q238.92 192.99 239.31 192.87Q239.70 192.74 239.98 192.60Q240.26 192.46 240.44 192.33Q240.63 192.21 240.77 192.21Q240.94 192.21 241.04 192.34L241.44 192.86Q241.18 193.18 240.81 193.42Q240.44 193.66 240.02 193.81Q239.60 193.96 239.15 194.04Q238.70 194.11 238.26 194.11Q237.42 194.11 236.72 193.83Q236.01 193.54 235.49 193Q234.98 192.45 234.69 191.64Q234.40 190.83 234.40 189.78Q234.40 188.94 234.66 188.20Q234.92 187.46 235.41 186.92Q235.90 186.38 236.60 186.08Q237.30 185.77 238.18 185.77M238.22 186.82Q237.18 186.82 236.59 187.41Q236 188.01 235.86 189.06L240.26 189.06Q240.26 188.57 240.13 188.16Q239.99 187.74 239.73 187.44Q239.46 187.14 239.08 186.98Q238.70 186.82 238.22 186.82 M244.78 194L243.36 194L243.36 185.90L244.18 185.90Q244.41 185.90 244.50 185.98Q244.58 186.07 244.62 186.29L244.71 187.55Q245.13 186.70 245.74 186.23Q246.35 185.75 247.18 185.75Q247.51 185.75 247.78 185.83Q248.06 185.90 248.29 186.04L248.10 187.10Q248.05 187.30 247.86 187.30Q247.74 187.30 247.51 187.23Q247.28 187.15 246.86 187.15Q246.12 187.15 245.62 187.58Q245.12 188.02 244.78 188.84 M255.35 194.13Q254.39 194.13 253.88 193.59Q253.36 193.06 253.36 192.05L253.36 187.09L252.38 187.09Q252.26 187.09 252.17 187.01Q252.08 186.94 252.08 186.78L252.08 186.21L253.41 186.04L253.74 183.54Q253.75 183.42 253.84 183.34Q253.93 183.26 254.06 183.26L254.78 183.26L254.78 186.06L257.10 186.06L257.10 187.09L254.78 187.09L254.78 191.95Q254.78 192.46 255.03 192.71Q255.28 192.96 255.67 192.96Q255.90 192.96 256.06 192.90Q256.22 192.84 256.34 192.77Q256.46 192.70 256.55 192.64Q256.63 192.58 256.70 192.58Q256.81 192.58 256.90 192.71L257.31 193.39Q256.94 193.74 256.42 193.93Q255.90 194.13 255.35 194.13 M260.29 194L258.86 194L258.86 182.22L260.29 182.22L260.29 186.98Q260.81 186.43 261.44 186.10Q262.07 185.77 262.90 185.77Q263.56 185.77 264.07 185.99Q264.58 186.21 264.92 186.61Q265.26 187.02 265.43 187.58Q265.61 188.15 265.61 188.84L265.61 194L264.18 194L264.18 188.84Q264.18 187.92 263.76 187.41Q263.34 186.90 262.48 186.90Q261.85 186.90 261.30 187.21Q260.75 187.51 260.29 188.03 M270.97 185.77Q271.70 185.77 272.31 186.01Q272.93 186.26 273.38 186.72Q273.82 187.18 274.08 187.85Q274.33 188.53 274.33 189.39Q274.33 189.73 274.26 189.84Q274.18 189.95 273.98 189.95L268.59 189.95Q268.61 190.72 268.80 191.29Q268.99 191.86 269.33 192.24Q269.66 192.62 270.13 192.80Q270.59 192.99 271.17 192.99Q271.70 192.99 272.09 192.87Q272.48 192.74 272.76 192.60Q273.04 192.46 273.23 192.33Q273.42 192.21 273.55 192.21Q273.73 192.21 273.82 192.34L274.22 192.86Q273.96 193.18 273.59 193.42Q273.22 193.66 272.80 193.81Q272.38 193.96 271.94 194.04Q271.49 194.11 271.05 194.11Q270.21 194.11 269.50 193.83Q268.79 193.54 268.28 193Q267.76 192.45 267.47 191.64Q267.18 190.83 267.18 189.78Q267.18 188.94 267.44 188.20Q267.70 187.46 268.19 186.92Q268.68 186.38 269.38 186.08Q270.09 185.77 270.97 185.77M271 186.82Q269.97 186.82 269.38 187.41Q268.78 188.01 268.64 189.06L273.05 189.06Q273.05 188.57 272.91 188.16Q272.78 187.74 272.51 187.44Q272.25 187.14 271.87 186.98Q271.49 186.82 271 186.82 M279.39 182.22L280.82 182.22L280.82 194L279.39 194 M289.28 188.82L289.28 194L288.65 194Q288.44 194 288.31 193.94Q288.18 193.87 288.14 193.66L287.98 192.91Q287.66 193.20 287.36 193.43Q287.06 193.66 286.72 193.81Q286.38 193.97 286 194.05Q285.62 194.13 285.16 194.13Q284.69 194.13 284.28 194Q283.86 193.86 283.56 193.60Q283.26 193.34 283.08 192.93Q282.90 192.53 282.90 191.98Q282.90 191.50 283.16 191.05Q283.42 190.61 284.01 190.26Q284.60 189.92 285.55 189.70Q286.50 189.48 287.88 189.45L287.88 188.82Q287.88 187.87 287.48 187.39Q287.07 186.90 286.28 186.90Q285.76 186.90 285.40 187.04Q285.05 187.17 284.79 187.33Q284.53 187.50 284.34 187.63Q284.15 187.76 283.97 187.76Q283.82 187.76 283.72 187.68Q283.61 187.61 283.54 187.50L283.29 187.04Q283.96 186.39 284.74 186.07Q285.51 185.75 286.46 185.75Q287.14 185.75 287.66 185.98Q288.19 186.20 288.55 186.60Q288.91 187 289.10 187.57Q289.28 188.14 289.28 188.82M285.58 193.13Q285.96 193.13 286.27 193.05Q286.58 192.98 286.86 192.84Q287.14 192.70 287.39 192.50Q287.64 192.30 287.88 192.04L287.88 190.35Q286.90 190.38 286.21 190.51Q285.52 190.63 285.09 190.83Q284.66 191.03 284.46 191.30Q284.26 191.58 284.26 191.91Q284.26 192.23 284.37 192.46Q284.47 192.70 284.65 192.84Q284.82 192.99 285.06 193.06Q285.30 193.13 285.58 193.13 M297.10 185.90L297.10 186.50Q297.10 186.66 297.04 186.80Q296.98 186.94 296.90 187.05L292.51 192.89L296.94 192.89L296.94 194L290.83 194L290.83 193.41Q290.83 193.30 290.88 193.16Q290.94 193.02 291.03 192.90L295.44 187.02L291.08 187.02L291.08 185.90 M305.73 185.90L301.21 196.39Q301.14 196.55 301.03 196.65Q300.92 196.74 300.70 196.74L299.64 196.74L301.12 193.53L297.78 185.90L299.01 185.90Q299.19 185.90 299.30 185.99Q299.40 186.08 299.45 186.19L301.62 191.30Q301.69 191.47 301.74 191.65Q301.79 191.82 301.83 192.01Q301.89 191.82 301.94 191.65QNaN 191.47 302.07 191.29L304.18 186.19Q304.22 186.06 304.34 185.98Q304.46 185.90 304.59 185.90 M316.66 194L315.82 194Q315.51 194 315.43 193.70L315.30 192.72Q314.78 193.35 314.12 193.73Q313.45 194.11 312.58 194.11Q311.89 194.11 311.32 193.84Q310.75 193.58 310.35 193.06Q309.95 192.54 309.74 191.76Q309.52 190.98 309.52 189.98Q309.52 189.08 309.76 188.31QNaN 187.54 310.45 186.97Q310.90 186.40 311.55 186.08Q312.20 185.75 313.02 185.75Q313.77 185.75 314.30 186Q314.82 186.26 315.24 186.71L315.24 182.22L316.66 182.22L316.66 194M313.06 192.96Q313.75 192.96 314.28 192.64Q314.80 192.32 315.24 191.74L315.24 187.82Q314.85 187.29 314.38 187.08Q313.91 186.86 313.34 186.86Q312.21 186.86 311.60 187.67Q310.99 188.48 310.99 189.98Q310.99 190.77 311.13 191.33Q311.26 191.90 311.53 192.26Q311.79 192.62 312.18 192.79Q312.56 192.96 313.06 192.96 M322.34 185.77Q323.22 185.77 323.94 186.06Q324.66 186.36 325.16 186.90Q325.66 187.45 325.92 188.22Q326.19 188.99 326.19 189.94Q326.19 190.90 325.92 191.67Q325.66 192.44 325.16 192.98Q324.66 193.53 323.94 193.82Q323.22 194.11 322.34 194.11Q321.45 194.11 320.73 193.82Q320.02 193.53 319.51 192.98Q319.01 192.44 318.74 191.67Q318.46 190.90 318.46 189.94Q318.46 188.99 318.74 188.22Q319.01 187.45 319.51 186.90Q320.02 186.36 320.73 186.06Q321.45 185.77 322.34 185.77M322.34 193Q323.54 193 324.13 192.20Q324.72 191.39 324.72 189.95Q324.72 188.50 324.13 187.70Q323.54 186.89 322.34 186.89Q321.73 186.89 321.28 187.10Q320.83 187.30 320.53 187.70Q320.23 188.09 320.08 188.66Q319.94 189.23 319.94 189.95Q319.94 190.67 320.08 191.24Q320.23 191.81 320.53 192.20Q320.83 192.58 321.28 192.79Q321.73 193 322.34 193 M330.68 185.76Q331.21 185.76 331.67 185.88Q332.13 185.99 332.50 186.22L334.70 186.22L334.70 186.74Q334.70 187.01 334.37 187.08L333.45 187.21Q333.72 187.73 333.72 188.37Q333.72 188.96 333.49 189.44Q333.26 189.93 332.86 190.27Q332.46 190.62 331.90 190.80Q331.34 190.98 330.68 190.98Q330.11 190.98 329.61 190.85Q329.35 191.01 329.22 191.19Q329.09 191.38 329.09 191.55Q329.09 191.84 329.32 191.99Q329.55 192.14 329.94 192.20Q330.32 192.26 330.81 192.28Q331.30 192.30 331.80 192.33Q332.31 192.37 332.80 192.46Q333.29 192.54 333.67 192.74Q334.06 192.94 334.29 193.30Q334.52 193.65 334.52 194.21Q334.52 194.73 334.26 195.22QNaN 195.70 333.51 196.08Q333.02 196.46 332.32 196.69Q331.62 196.92 330.73 196.92Q329.84 196.92 329.17 196.74Q328.50 196.57 328.06 196.27Q327.62 195.98 327.40 195.59Q327.18 195.20 327.18 194.78Q327.18 194.18 327.56 193.76Q327.94 193.34 328.61 193.09Q328.26 192.93 328.06 192.66Q327.86 192.39 327.86 191.94Q327.86 191.77 327.92 191.58Q327.98 191.39 328.12 191.21Q328.25 191.02 328.44 190.86Q328.63 190.69 328.89 190.56Q328.29 190.22 327.95 189.67Q327.61 189.11 327.61 188.37Q327.61 187.78 327.84 187.29Q328.06 186.81 328.47 186.47Q328.88 186.13 329.44 185.94Q330.01 185.76 330.68 185.76M333.21 194.44Q333.21 194.14 333.04 193.95Q332.87 193.77 332.58 193.67Q332.30 193.57 331.92 193.52Q331.54 193.47 331.13 193.45Q330.71 193.43 330.28 193.41Q329.85 193.38 329.46 193.32QNaN 193.54 328.72 193.85Q328.43 194.16 328.43 194.59Q328.43 194.86 328.57 195.10Q328.71 195.34 NaN 195.51Q329.29 195.68 329.72 195.78Q330.16 195.88 330.75 195.88Q331.33 195.88 331.78 195.78Q332.24 195.67 332.56 195.48Q332.87 195.29 333.04 195.02Q333.21 194.76 333.21 194.44M330.68 190.04Q331.11 190.04 331.44 189.92Q331.78 189.80 NaN 189.58Q332.22 189.37 332.34 189.07Q332.45 188.77 332.45 188.41Q332.45 187.66 332 187.22Q331.54 186.78 330.68 186.78Q329.82 186.78 329.37 187.22Q328.92 187.66 328.92 188.41Q328.92 188.77 329.04 189.07Q329.15 189.37 329.38 189.58Q329.60 189.80 329.93 189.92Q330.26 190.04 330.68 190.04 M335.66 193.12Q335.66 192.91 335.74 192.73Q335.82 192.54 335.95 192.41Q336.08 192.27 336.26 192.19Q336.45 192.11 336.66 192.11Q336.86 192.11 337.05 192.19Q337.23 192.27 337.37 192.41Q337.50 192.54 337.58 192.73Q337.66 192.91 337.66 193.12Q337.66 193.34 337.58 193.52Q337.50 193.70 337.37 193.83Q337.23 193.97 337.05 194.04Q336.86 194.12 336.66 194.12Q336.45 194.12 336.26 194.04Q336.08 193.97 335.95 193.83Q335.82 193.70 335.74 193.52Q335.66 193.34 335.66 193.12" fill="#2A2118"/><path d="M33.52 222.60L37.21 232L35.86 232Q35.63 232 35.48 231.89Q35.34 231.77 35.27 231.60L34.57 229.69L30.68 229.69L29.98 231.60Q29.92 231.75 29.77 231.88Q29.62 232 29.40 232L28.04 232L31.73 222.60L33.52 222.60M32.27 225.34L31.13 228.45L34.12 228.45L32.98 225.32Q32.90 225.12 32.81 224.83Q32.71 224.55 32.62 224.22Q32.53 224.55 32.44 224.84Q32.36 225.12 32.27 225.34 M44.31 229.78Q44.45 229.78 44.56 229.89L45.24 230.64Q44.67 231.35 43.84 231.73Q43 232.10 41.83 232.10Q40.79 232.10 39.95 231.75Q39.12 231.39 38.52 230.75Q37.93 230.12 37.62 229.23Q37.30 228.35 37.30 227.30Q37.30 226.24 37.65 225.36Q38 224.48 38.64 223.84Q39.28 223.21 40.16 222.85Q41.05 222.50 42.12 222.50Q43.17 222.50 43.95 222.83Q44.74 223.17 45.30 223.72L44.71 224.53Q44.66 224.61 44.58 224.67Q44.50 224.73 44.35 224.73Q44.20 224.73 44.05 224.61Q43.89 224.49 43.65 224.36Q43.41 224.22 43.04 224.10Q42.68 223.99 42.11 223.99Q41.45 223.99 40.89 224.22Q40.34 224.45 39.94 224.88Q39.54 225.31 39.31 225.92Q39.09 226.53 39.09 227.30Q39.09 228.09 39.31 228.71Q39.54 229.33 39.92 229.75Q40.30 230.17 40.82 230.40Q41.34 230.62 41.94 230.62Q42.30 230.62 42.59 230.58Q42.88 230.54 43.12 230.46Q43.37 230.38 43.58 230.24Q43.80 230.11 44.02 229.91Q44.08 229.85 44.15 229.82Q44.22 229.78 44.31 229.78 M53.03 229.78Q53.17 229.78 53.27 229.89L53.96 230.64Q53.39 231.35 52.55 231.73Q51.72 232.10 50.55 232.10Q49.50 232.10 48.67 231.75Q47.83 231.39 47.24 230.75Q46.65 230.12 46.33 229.23Q46.02 228.35 46.02 227.30Q46.02 226.24 46.37 225.36Q46.72 224.48 47.36 223.84Q47.99 223.21 48.88 222.85Q49.77 222.50 50.84 222.50Q51.89 222.50 52.67 222.83Q53.45 223.17 54.01 223.72L53.43 224.53Q53.38 224.61 53.29 224.67Q53.21 224.73 53.07 224.73Q52.92 224.73 52.77 224.61Q52.61 224.49 52.37 224.36Q52.13 224.22 51.76 224.10Q51.39 223.99 50.83 223.99Q50.17 223.99 49.61 224.22Q49.05 224.45 48.65 224.88Q48.25 225.31 48.03 225.92Q47.81 226.53 47.81 227.30Q47.81 228.09 48.03 228.71Q48.25 229.33 48.64 229.75Q49.02 230.17 49.54 230.40Q50.06 230.62 50.66 230.62Q51.02 230.62 51.31 230.58Q51.60 230.54 51.84 230.46Q52.08 230.38 52.30 230.24Q52.52 230.11 52.73 229.91Q52.80 229.85 52.87 229.82Q52.94 229.78 53.03 229.78 M55.28 222.60L61.21 222.60L61.21 223.99L57.04 223.99L57.04 226.60L60.32 226.60L60.32 227.94L57.04 227.94L57.04 230.60L61.21 230.60L61.21 232L55.28 232 M63.64 222.60Q63.76 222.60 63.83 222.61Q63.91 222.62 63.97 222.65Q64.04 222.68 64.09 222.73Q64.15 222.79 64.22 222.88L69.16 229.17Q69.13 228.94 69.12 228.72Q69.11 228.50 69.11 228.31L69.11 222.60L70.65 222.60L70.65 232L69.75 232Q69.54 232 69.41 231.94Q69.27 231.87 69.14 231.70L64.22 225.44Q64.24 225.65 64.25 225.85Q64.26 226.06 64.26 226.23L64.26 232L62.72 232L62.72 222.60 M71.76 222.60L79.17 222.60L79.17 224.04L76.35 224.04L76.35 232L74.60 232L74.60 224.04L71.76 224.04 M82.91 228.67L82.91 227.53L91.73 227.53L91.73 228.67 M99.21 222.50Q99.86 222.50 100.40 222.69Q100.94 222.88 101.33 223.23Q101.71 223.58 101.92 224.08Q102.14 224.57 102.14 225.18Q102.14 225.69 101.99 226.14Q101.83 226.58 101.58 226.98Q101.32 227.38 100.98 227.76Q100.63 228.14 100.25 228.53L98.14 230.69Q98.45 230.60 98.75 230.55Q99.05 230.50 99.32 230.50L101.73 230.50Q101.99 230.50 102.14 230.65Q102.30 230.80 102.30 231.04L102.30 232L95.85 232L95.85 231.47Q95.85 231.30 95.92 231.13Q95.98 230.95 96.13 230.80L98.99 227.94Q99.34 227.58 99.63 227.25Q99.91 226.92 100.10 226.59Q100.29 226.27 100.39 225.93Q100.49 225.60 100.49 225.23Q100.49 224.89 100.40 224.63Q100.30 224.38 100.12 224.20Q99.94 224.02 99.69 223.94Q99.44 223.85 99.12 223.85Q98.54 223.85 98.17 224.14Q97.80 224.43 97.65 224.93Q97.58 225.18 97.43 225.28Q97.29 225.39 97.07 225.39Q96.97 225.39 96.85 225.37L96.01 225.22Q96.11 224.54 96.39 224.03Q96.67 223.52 97.09 223.18Q97.50 222.84 98.05 222.67Q98.59 222.50 99.21 222.50 M110.06 227.30Q110.06 228.53 109.79 229.44Q109.53 230.34 109.06 230.93Q108.60 231.53 107.97 231.81Q107.33 232.10 106.60 232.10Q105.86 232.10 105.24 231.81Q104.61 231.53 104.15 230.93Q103.69 230.34 103.43 229.44Q103.17 228.53 103.17 227.30Q103.17 226.07 103.43 225.16Q103.69 224.26 104.15 223.67Q104.61 223.08 105.24 222.79Q105.86 222.50 106.60 222.50Q107.33 222.50 107.97 222.79Q108.60 223.08 109.06 223.67Q109.53 224.26 109.79 225.16Q110.06 226.07 110.06 227.30M108.40 227.30Q108.40 226.28 108.25 225.61Q108.10 224.94 107.85 224.54Q107.60 224.15 107.27 223.99Q106.95 223.83 106.60 223.83Q106.25 223.83 105.93 223.99Q105.61 224.15 105.36 224.54Q105.12 224.94 104.97 225.61Q104.82 226.28 104.82 227.30Q104.82 228.32 104.97 228.99Q105.12 229.66 105.36 230.06Q105.61 230.45 105.93 230.61Q106.25 230.77 106.60 230.77Q106.95 230.77 107.27 230.61Q107.60 230.45 107.85 230.06Q108.10 229.66 108.25 228.99Q108.40 228.32 108.40 227.30 M114.29 222.50Q114.94 222.50 115.48 222.69Q116.02 222.88 116.41 223.23Q116.79 223.58 117 224.08Q117.22 224.57 117.22 225.18Q117.22 225.69 117.07 226.14Q116.91 226.58 116.66 226.98Q116.40 227.38 116.06 227.76Q115.71 228.14 115.33 228.53L113.22 230.69Q113.53 230.60 113.83 230.55Q114.13 230.50 114.40 230.50L116.81 230.50Q117.07 230.50 117.22 230.65Q117.38 230.80 117.38 231.04L117.38 232L110.93 232L110.93 231.47Q110.93 231.30 111 231.13Q111.06 230.95 111.21 230.80L114.07 227.94Q114.42 227.58 114.71 227.25Q114.99 226.92 115.18 226.59Q115.37 226.27 115.47 225.93Q115.57 225.60 115.57 225.23Q115.57 224.89 115.48 224.63Q115.38 224.38 115.20 224.20Q115.02 224.02 114.77 223.94Q114.52 223.85 114.20 223.85Q113.62 223.85 113.25 224.14Q112.88 224.43 112.73 224.93Q112.66 225.18 112.51 225.28Q112.37 225.39 112.15 225.39Q112.05 225.39 111.93 225.37L111.09 225.22Q111.19 224.54 111.47 224.03Q111.75 223.52 112.17 223.18Q112.58 222.84 113.13 222.67Q113.67 222.50 114.29 222.50 M122.28 226.13Q122.81 226.13 123.31 226.31Q123.82 226.48 124.20 226.84Q124.58 227.19 124.82 227.72Q125.05 228.24 125.05 228.94Q125.05 229.60 124.81 230.18Q124.57 230.75 124.14 231.18Q123.70 231.61 123.09 231.86Q122.47 232.10 121.73 232.10Q120.98 232.10 120.38 231.86Q119.78 231.62 119.36 231.19Q118.94 230.76 118.71 230.15Q118.49 229.54 118.49 228.80Q118.49 228.14 118.76 227.44Q119.03 226.74 119.59 225.99L121.83 222.98Q121.95 222.82 122.18 222.71Q122.40 222.60 122.69 222.60L124.12 222.60L121.33 226.01Q121.24 226.12 121.16 226.22Q121.08 226.32 121 226.42Q121.28 226.29 121.59 226.21Q121.91 226.13 122.28 226.13M120.03 229.05Q120.03 229.44 120.13 229.76Q120.24 230.08 120.45 230.31Q120.66 230.54 120.98 230.66Q121.29 230.79 121.70 230.79Q122.08 230.79 122.40 230.66Q122.72 230.53 122.96 230.30Q123.19 230.06 123.32 229.75Q123.45 229.43 123.45 229.06Q123.45 228.66 123.32 228.34Q123.20 228.02 122.97 227.79Q122.74 227.57 122.43 227.45Q122.11 227.33 121.72 227.33Q121.34 227.33 121.03 227.46Q120.72 227.59 120.49 227.82Q120.27 228.05 120.15 228.37Q120.03 228.69 120.03 229.05" fill="#B45309"/></svg>